<?xml version="1.0" encoding="UTF-8"?>
<svg id="Layer_4" data-name="Layer 4" xmlns="http://www.w3.org/2000/svg" viewBox="0 0 855.19 816.12">
  <defs>
    <style>
      .cls-1 {
        fill: #898383;
      }

      .cls-1, .cls-2, .cls-3, .cls-4, .cls-5, .cls-6 {
        stroke-width: 0px;
      }

      .cls-2 {
        fill: #efa89c;
      }

      .cls-3 {
        fill: #541c04;
      }

      .cls-4 {
        fill: #db727f;
      }

      .cls-5 {
        fill: #67db37;
      }

      .cls-6 {
        fill: #fff;
      }
    </style>
  </defs>
  <path class="cls-1" d="M353.09,705.39c-54.64,0-108.21-2.97-159.24-8.83-15.61-1.79-30.92-3.82-45.5-6.03l-2.12-.32c-12.23-1.83-26.09-3.9-35.41-13.11-5.24-5.18-7.99-11.86-7.55-18.33.4-5.87,3.29-10.98,8.37-14.79,8.04-6.03,18.58-8.37,27.83-9.86l1.34-.21.2,1.34c.69,4.64,1.4,9.27,2.11,13.89.04.25.15.56.66.71l.62.19.24.6c.17.43.45.68.87.79,34.01,8.44,69.94,12.26,104.69,15.95l1.98.21c36.44,3.87,72.82,6.28,108.13,7.16,11.36.28,22.88.43,34.25.43,61.01,0,122.67-4.12,183.26-12.24,40.2-5.39,80.2-12.59,118.92-21.4.73-.17,1.22-.54,1.44-1.11.28-.7.14-1.66-.35-2.38l-.29-.43.07-.51c1.69-11.61,3.31-23.17,4.67-32.95l.2-1.45,1.42.33c11.29,2.61,22.02,5.65,29.08,14.1,3.77,4.51,5.47,9.64,4.91,14.84-.65,6.13-4.36,12.12-10.43,16.84-8.77,6.83-19.48,10.84-29.84,14.72l-1.31.49c-10.95,4.11-22.8,7.85-35.21,11.13-51.37,13.55-107.3,18.7-152.24,22.83-53.36,4.91-105.78,7.4-155.77,7.4h-.02Z"/>
  <path class="cls-2" d="M393.96,670.26c-42.34.14-85.13-1.68-127.16-5.42-20.64-1.84-41.25-4.14-61.25-6.85-8.47-1.15-17.06-2.5-25.36-3.81-10.65-1.68-21.67-3.42-32.53-4.73l-1.07-.13-.1-1.07c-2.19-22.63-4.86-44.97-7.63-67.76l-.22-1.84,1.81.36c2.84.57,5.82.85,8.84.84,13.47-.05,26.64-5.78,39.38-11.32l.31-.14c11.63-5.06,22.2-9.25,33.79-9.31,10.13-.03,19.68,2.83,29.39,6.03,12.88,4.24,26.2,8.62,39.77,8.57,4.83-.02,9.41-.57,14.01-1.68,8.25-2,16.3-5.32,24.08-8.53,9.91-4.09,20.16-8.32,31.08-9.95,2.82-.42,5.77-.64,8.75-.65,12.29-.04,24.35,3.4,36.01,6.73,5.72,1.63,11.64,3.32,17.44,4.55,6.25,1.32,12.5,1.95,19.09,1.93,10.6-.04,22.03-1.81,35.98-5.58,2.54-.69,5.1-1.41,7.68-2.14,12.6-3.57,25.63-7.25,38.74-7.3,4.92-.02,9.45.47,13.87,1.48,7.21,1.66,13.84,4.57,20.26,7.39,9.63,4.24,18.73,8.24,29.49,8.2.95,0,1.91-.04,2.85-.11,11.46-.81,22.45-4.68,33.08-8.42,7.78-2.74,15.82-5.57,24.07-7.23,3.43-.69,6.81-1.03,10.34-1.04,7.46-.03,14.62,1.44,23.08,3.64,4.27,1.11,9.3,2.24,14.26,2.23,1.97,0,3.8-.19,5.57-.56l1.85-.38-.25,1.87c-.95,7.07-1.91,14.13-2.86,21.19-2.51,18.56-5.11,37.75-7.52,56.63l-.12.93-.92.2c-97.88,21.65-198.09,32.81-297.84,33.15Z"/>
  <path class="cls-4" d="M149.26,577.28c-3.43.01-6.81-.36-10.06-1.12l-.91-.21-.11-.93c-.76-6.23-1.52-12.47-2.27-18.71-.26-2.16-.56-4.4-.86-6.71-2.98-22.59-6.7-50.69,13.87-65.3,9.85-7,21.99-9,33.73-10.94l1.79-.3c17.11-2.84,32.38-5.22,46.69-7.27,29.9-4.27,61.54-7.97,94.04-10.98,57.83-5.36,119.15-8.68,187.45-10.16l6.33-.14c16.74-.37,34.05-.75,51.09-.8,11.5-.04,21.85.07,31.65.33,24.59.66,56.58,2.95,85.96,14.98,7.37,3.02,15.5,6.99,18.61,15.96,2.55,7.36,2.54,15.84,2.54,23.31v1.15c0,17.05-2.29,34.2-4.51,50.78l-.11.8-.78.38c-2.31.84-4.75,1.25-7.48,1.26-5.23.02-10.49-1.46-15.58-2.9-1.61-.45-3.2-.9-4.75-1.29-5.47-1.37-10.65-2.03-15.83-2.01-2.64,0-5.32.2-7.95.57-9.87,1.38-19.44,4.74-28.69,7.99-7.31,2.56-14.87,5.22-22.61,6.92-4.51.99-8.91,1.5-13.07,1.52-5.53.02-10.88-.84-15.89-2.55-4.52-1.54-8.87-3.6-13.08-5.59-4.33-2.05-8.81-4.16-13.41-5.68-6.12-2.02-12.59-2.99-19.78-2.96-11.48.04-23.19,2.75-32.1,5.11-3.17.84-6.35,1.73-9.53,2.62-13.47,3.78-27.4,7.69-41.61,7.74-2.33,0-4.65-.09-6.89-.29-10.02-.9-19.81-3.58-29.27-6.18-9.55-2.62-19.43-5.33-29.45-6.15-1.71-.14-3.46-.21-5.19-.2-15.36.05-29.13,5.68-43.71,11.63-1.33.54-2.66,1.09-3.99,1.63-8.91,3.61-18.45,7.2-28.53,8.07-1.43.12-2.91.19-4.39.19-9.22.03-17.94-2.23-25.26-4.44-1.96-.59-3.91-1.2-5.84-1.8-12.79-3.96-24.87-7.71-37.54-7.66-5.75.02-11.17.81-16.59,2.41-6.4,1.89-12.95,4.72-19.29,7.46-11.85,5.12-24.11,10.41-36.85,10.46Z"/>
  <path class="cls-2" d="M194.61,464.69c-3.75-13.91-6.9-29.18-9.62-46.68l-.31-1.97,1.94.46c3.04.72,6.23,1.09,9.46,1.07,13.99-.05,28.02-6.96,41.58-13.65,9.72-4.79,19.77-9.75,29.55-11.97,5.09-1.16,10.27-1.73,15.81-1.75,10.44-.04,20.39,1.89,30.92,3.92,2.77.53,5.55,1.07,8.37,1.58,5.43.97,11,1.46,16.54,1.44,8.39-.03,16.97-1.17,26.22-3.48,6.29-1.57,12.62-3.52,18.74-5.4,8.12-2.5,16.51-5.08,25.01-6.85,6.7-1.4,12.71-2.09,18.36-2.11,1.32,0,2.64.03,3.92.1,7.09.38,13.73,2.45,20.14,4.45,1.94.6,3.88,1.21,5.85,1.77,6.08,1.75,12.34,2.58,19.12,2.56,13.97-.05,28.04-3.86,41.64-7.55,7.13-1.93,14.5-3.93,21.78-5.37,6.69-1.32,12.61-1.98,18.07-1.99,2.56,0,5.07.12,7.46.4,7.45.85,14.27,3.64,20.86,6.33,2.12.87,4.32,1.77,6.5,2.58,6.26,2.35,12.67,3.53,19.05,3.51,8.26-.03,16.18-2.04,23.56-5.97l2.01-1.07-.06,3.17c-.3,15.8-.61,32.13-.83,48.2-.01.76.19,1.37.62,1.86l.39.45-.07.59c-.24,1.94-.47,3.89-.68,5.84l-.14,1.34-1.34-.15c-15.92-1.84-33.16-2.62-55.9-2.54-8.93.03-18.01.19-26.79.34-3.62.06-7.24.12-10.85.18-73.24,1.09-138.38,4.15-199.14,9.36-34.01,2.92-67.32,6.59-98.99,10.91-17.17,2.34-32.62,4.65-47.25,7.07l-1.19.2-.31-1.17Z"/>
  <path class="cls-4" d="M192.79,415.18c-2.45,0-4.92-.16-7.33-.49l-.99-.14-.15-.99c-.71-4.73-1.32-9.08-1.89-13.31-.39-2.89-.79-5.77-1.2-8.66-1.01-7.16-2.06-14.56-2.73-21.89-.79-8.67-1.24-18.58,3.51-26.45,5.21-8.62,15.75-10.36,25.04-11.89,1.36-.22,2.69-.44,3.97-.68,10.84-2,22.13-3.91,33.55-5.66,22.52-3.46,45.91-6.39,71.5-8.96,48.06-4.83,95.57-7.52,139.76-9.71,5.96-.3,11.94-.62,17.93-.95,18.77-1.03,38.19-2.09,57.32-2.16,22.72-.08,42.38,1.31,60.1,4.23,12.65,2.09,24.9,4.35,35.73,9,7.19,3.09,10.58,7.88,10.97,15.54.22,4.34.08,8.78-.06,13.06-.06,1.9-.13,3.79-.16,5.68-.13,7.59-.26,15.18-.41,22.76l-.02.92-.87.31c-.15.05-.3.13-.45.22-7.34,4.53-15.18,6.97-23.29,7.25-.4.01-.79.02-1.19.02-9.33.03-17.38-3.3-25.91-6.82l-.4-.17c-9.58-3.96-18.92-5.86-28.57-5.83-3.05.01-6.2.22-9.36.62-9.76,1.23-19.77,4.06-29.45,6.8-13.23,3.74-26.91,7.62-40.6,7.66-5.04.02-9.72-.47-14.31-1.48-3.68-.81-7.28-1.99-10.77-3.12-3.94-1.29-8.02-2.62-12.13-3.38-4.16-.78-8.51-1.16-12.91-1.15-2.4,0-4.85.13-7.31.38-12.51,1.23-24.76,4.99-36.62,8.62-1.49.46-2.98.91-4.48,1.37-13.38,4.05-26.52,7.7-40.05,7.74-1.24,0-2.49-.02-3.7-.08-7.89-.37-15.67-1.99-23.19-3.55-8.52-1.77-17.33-3.61-26.21-3.58h-.85c-18.67.32-34.76,7.51-48.03,14.49-14.92,7.85-28.51,14.35-43.81,14.41h0Z"/>
  <path class="cls-2" d="M243.85,317.47c-.68-6.12-1.44-12.36-2.18-18.4-1.02-8.31-2.07-16.9-2.92-25.36l-.13-1.24,1.22-.22c9.34-1.65,17.96-5.93,26.3-10.07,10.51-5.22,21.38-10.61,33.94-10.96.65-.02,1.3-.03,1.94-.03,5.38-.02,10.8.49,16.03.99,5.17.49,10.52,1,15.77.98.89,0,1.77-.02,2.66-.06,10.57-.42,20.1-3.89,28.83-7.57,1.25-.53,2.51-1.07,3.77-1.62,8.57-3.7,17.43-7.52,26.93-8.11.7-.04,1.4-.06,2.1-.07,7.8-.03,15.18,2.44,22.33,4.82,2.87.96,5.83,1.94,8.75,2.74,4.65,1.27,9.41,1.88,14.55,1.87,9.32-.03,18.26-2.1,27.72-4.29,7.11-1.65,14.47-3.35,21.98-4.09,1.37-.14,2.79-.21,4.23-.21,8.36-.03,16.8,2.15,24.96,4.26,7.9,2.04,16.07,4.15,23.88,4.13,4.08-.01,7.78-.59,11.29-1.77l1.84-.62-.08,1.94c-.37,9.22-1.02,18.6-1.65,27.67-.48,6.92-.97,14.07-1.34,21.06-.04.86.19,1.55.71,2.05l2.54,2.46-3.54-.17c-7.41-.35-15.11-.5-23.55-.47-17.23.06-34.69.9-51.58,1.7l-3.02.14c-51.43,2.46-101.81,5.06-152.73,9.91-26.81,2.55-51.38,5.5-75.09,9.01-1.13.17-2.26.34-3.39.51l-2.92.45-.15-1.38Z"/>
  <path class="cls-4" d="M238.25,268.56c-.5-5.49-.86-10.29-1.09-14.68-.63-11.83,3.39-20.59,12.63-27.54,7.81-5.87,16.78-9.87,26.86-14.12,17.95-7.58,37.51-13.31,59.8-17.52,12.6-2.38,25.44-3.67,37.87-4.92,8.06-.81,16.39-1.65,24.56-2.78l1-.14.41.92c3.16,7.13,6.31,13.11,9.62,18.26,8.27,12.88,20.42,20.54,32.51,20.5,1.99,0,4.01-.22,5.99-.63l.47-.1,1,.52.23.16c.11.09.23.15.35.18l.13.03.12.06c3.99,1.86,8.16,2.79,12.4,2.77,20.46-.07,37.71-21.85,42.51-28.52,2.49-3.46,4.8-7.16,6.87-11l.72-1.32,1.23.87c.1.07.19.12.29.15,4.15,1.26,8.61,1.77,12.92,2.27,5.47.63,11.12,1.27,16.48,3.43,10.2,4.11,15.49,14.15,15.73,29.82.06,3.74.02,7.81-.1,12.82l-.02.86-.79.34c-3.8,1.63-7.9,2.42-12.51,2.44-7.11.02-14.42-1.89-20.72-3.68-9.02-2.57-17.88-4.88-27.09-4.84-1.66,0-3.33.09-4.95.24-7.29.7-14.5,2.33-21.48,3.91-9.07,2.05-18.45,4.17-27.92,4.2-5.79.02-11.15-.72-16.36-2.27-2.27-.67-4.55-1.42-6.76-2.14-7.36-2.41-14.96-4.9-22.83-4.87h-.16c-9.64.08-18.89,3.66-27.54,7.32-1.11.47-2.21.94-3.32,1.42-8.97,3.85-18.24,7.83-28.27,8.64-1.79.14-3.61.22-5.57.22-5.23.02-10.5-.46-15.6-.92-4.25-.38-8.65-.78-12.96-.88-.61-.01-1.21-.02-1.81-.02-10.32.04-20.05,2.41-30.6,7.48-2.63,1.26-5.27,2.61-7.82,3.92-7.83,4.01-15.93,8.15-24.78,10.32l-1.51.37-.14-1.55Z"/>
  <path class="cls-5" d="M463.72,225.08c-3.56.01-7.07-.74-10.44-2.25l-.98-.44.22-1.05c.44-2.13.79-4.35,1.13-6.5.45-2.8.91-5.7,1.57-8.51,1.68-7.07,3.8-14.04,6.31-20.72,4.58-12.2,11.19-24.84,20.18-38.62.06-.09.17-.27,0-.58-.18-.32-.56-.59-.86-.59-.09,0-.19.02-.32.18-8.79,10.89-15.72,22.97-21.2,36.96-3.61,9.21-7.51,20.03-9.04,30.4l-.7,4.75-1.86-4.43c-7.87-18.78-7.64-39.24.67-59.17,7.24-17.36,20.69-34.25,37.88-47.56,3.64-2.82,7.62-5.66,11.83-8.43.47-.31.99-.7,1.54-1.11,1.52-1.13,3.24-2.41,4.88-2.89.65-.19,1.29-.29,1.9-.29,4.21-.01,5.95,4.36,7.11,7.26l.2.49c3.53,8.78,5.71,18.22,6.47,28.05,1.52,19.63-2.59,39.84-11.56,56.93-9.21,17.55-26.5,38.06-44.93,38.12Z"/>
  <path class="cls-5" d="M442.65,222.69c-11.46.04-22.88-8.14-30.55-21.87-5.34-9.56-9.36-20.08-13.25-30.25-1.42-3.7-2.88-7.53-4.38-11.22l-3.8-9.38c-.14-.34-.42-.89-.76-1.56-1.95-3.87-3.37-6.97-2.44-8.77.63-1.22,2.31-2.48,10.05-2.5,4.54-.02,9.61.4,11.77.58l.5.04c8.34.68,15.13,2.84,20.75,6.61,3.84,2.58,6.23,5.89,8.54,9.1.74,1.03,1.49,2.07,2.29,3.1l.44.56-.22.68c-2.84,8.7-4.33,17.52-4.44,26.21l-2.57.51c-1.7-3.99-3.56-7.87-5.53-11.53-5.76-10.71-13.38-18.76-22.03-23.28-.1-.05-.15-.06-.16-.05-.02,0-.08.07-.09.17,0,.07,0,.15.14.26,11.08,8.16,17.62,15.45,22.55,25.15,3.29,6.47,5.31,13.19,7.27,19.7,1.03,3.44,2.1,6.99,3.35,10.47,1.65,5.36,3.95,10.28,6.85,14.68l.15.17,1.5,1.83-2.34.34c-1.19.17-2.39.26-3.58.26Z"/>
  <g>
    <path class="cls-6" d="M337.46,188.66c-6.17.09-12.15,1.59-18.07,3.22-5.81,1.6-11.56,3.46-17.21,5.55-11.47,4.25-22.56,9.51-33.32,15.34-10.09,5.47-21.13,11.69-26.63,22.27-5.87,11.29-4.16,24.52-3.29,36.72.54,7.55,1.12,15.09,1.78,22.63.67,7.76.97,15.7,2.35,23.37.59,3.25,5.32,2.22,5.49-.76.38-6.5-.17-13.13-.4-19.64-.23-6.55-.46-13.09-.78-19.64-.32-6.27-.69-12.53-.93-18.8-.21-5.46-.12-10.99,1.54-16.25,3.17-10.05,13.15-16.32,21.48-21.85,9.76-6.47,20.17-11.86,31.01-16.28,6.05-2.46,12.21-4.65,18.45-6.55,6.34-1.92,12.84-3.31,19.02-5.72,1.83-.71,1.71-3.65-.5-3.61Z"/>
    <path class="cls-6" d="M259.32,320.04c-3.6-.83-7.39-.64-11.08-.52-3.76.11-7.48.41-11.21.88-7.32.92-14.58,2.26-21.72,4.12-6.95,1.81-13.96,3.85-20.53,6.79-6.32,2.83-11.38,7.31-14.05,13.77-2.5,6.05-2.86,12.85-2.86,19.33,0,7.67.43,15.34,1.18,22.97,1.52,15.52,4.21,30.89,7.42,46.13,1.79,8.49,3.71,16.96,5.73,25.4.49,2.05.76,4.45,1.85,6.3,1.54,2.62,5.05,3.65,7.53,1.7,2.08-1.63,2.38-4.65.63-6.62-.03-.14-.04-.21-.02-.12-.16-.74-.33-1.48-.5-2.22-.4-1.8-.81-3.6-1.21-5.4-.73-3.28-1.49-6.56-2.23-9.84-1.47-6.57-2.89-13.14-4.2-19.74-2.58-13.06-4.78-26.22-5.99-39.49-.61-6.68-.98-13.37-1.15-20.07-.14-5.46-.18-10.57,1.63-15.66,1.74-4.88,5.82-8.02,10.47-10.27,5.46-2.64,11.35-4.59,17.15-6.31,7-2.08,14.14-3.73,21.34-4.92,3.56-.59,7.15-1.11,10.73-1.55,3.69-.46,7.49-.55,11.07-1.5,1.53-.41,1.58-2.79-.01-3.15Z"/>
    <path class="cls-6" d="M356.59,206.59c-9.61.13-19.22,2.15-28.66,3.81-9.52,1.68-19.02,3.51-28.48,5.5-14.99,3.14-31.04,5.91-44.42,13.81-3.32,1.96-6.5,4.28-9.18,7.06-2.57,2.66-5.76,6.15-5.95,10.01-.06,1.17,1.49,2.17,2.49,1.42,2.61-1.96,4.22-5.07,6.54-7.38,2.32-2.32,4.91-4.33,7.69-6.06,5.74-3.55,12.1-5.92,18.55-7.81,7.8-2.28,15.79-3.91,23.73-5.62,9.02-1.94,18.07-3.74,27.15-5.41,10.3-1.89,20.91-3.04,31-5.92,1.86-.53,1.51-3.42-.47-3.4Z"/>
    <path class="cls-6" d="M379.93,202.95c-1.84.22-3.68.44-5.52.66-.37.04-.67.12-.94.4-.23.23-.4.61-.39.95.03.66.6,1.42,1.34,1.33,1.84-.22,3.68-.44,5.52-.66.37-.04.67-.12.94-.4.23-.23.4-.61.39-.95-.03-.66-.6-1.42-1.34-1.33Z"/>
    <path class="cls-6" d="M446.48,213.99c-11.76-.81-21.48-9.82-27.41-19.44-7.24-11.74-10.77-25.29-16.41-37.79-1.58-3.51-3.31-6.96-5.3-10.25-1.98-3.26-4.18-6.97-7.24-9.29-.95-.72-2.53-.34-3.31.44-.91.92-.93,2.2-.42,3.31.71,1.56,1.83,2.92,2.74,4.37.96,1.55,1.86,3.14,2.7,4.75,1.55,2.99,2.9,6.06,4.11,9.2,2.56,6.62,4.69,13.4,7.09,20.08,4.81,13.35,11.3,26.4,22.95,35.04,5.95,4.41,13.1,7.05,20.52,7.29,2.09.07,3.86-1.84,3.85-3.88,0-2.22-1.79-3.71-3.88-3.85Z"/>
    <path class="cls-6" d="M510.85,91.33c-1-1.69-3.67-2.66-5.4-1.4-16.31,11.99-31.56,25.54-43.39,42.09-11.8,16.5-19.54,36.37-19.67,56.82-.03,5.64.62,11.34,1.84,16.85.6,2.7,1.35,5.36,2.31,7.95,1,2.72,2.07,5.56,4.35,7.46,1.2,1,3.03.35,3.08-1.29.08-2.43-.69-4.69-1.36-7-.67-2.3-1.22-4.64-1.68-6.99-.87-4.5-1.23-9.09-1.19-13.67.06-9.48,1.63-18.86,4.58-27.88,5.88-17.98,17.43-33.6,30.78-46.79,7.59-7.5,15.84-14.35,24.36-20.76,1.7-1.28,2.56-3.42,1.4-5.4Z"/>
    <path class="cls-6" d="M638.4,338.15c-.15-4.53-.59-9.16-2.16-13.44-1.53-4.18-4.15-8-7.66-10.77-3.18-2.51-7.88-4.93-11.99-3.54-2.24.76-2.21,3.79.02,4.55,1.39.47,2.89.67,4.24,1.25,1.53.65,2.89,1.65,4.06,2.82,2.44,2.44,3.74,5.53,4.53,8.83.95,3.97,1.01,8.09.92,12.14-.1,4.55-.35,9.09-.47,13.64-.52,18.68-.85,37.37-1.22,56.05-.1,5.12-.16,10.23-.23,15.35-.04,2.67-.07,5.34-.11,8.01-.04,2.75-.48,5.79.58,8.36.6,1.44,1.55,2.55,3.21,2.74,1.4.16,3.19-.45,3.83-1.85.72-1.56,1.08-2.89,1.12-4.61.03-1.11.05-2.22.07-3.34.06-2.67.12-5.34.18-8.01.11-4.89.23-9.79.32-14.68.18-9.79.31-19.57.47-29.36.16-9.9.29-19.8.37-29.69.04-4.81.09-9.65-.07-14.45Z"/>
    <path class="cls-6" d="M549.06,196.78c-4.94-5.34-13.17-10.3-20.69-9.6-2.59.24-2.96,3.48-.58,4.42,2.89,1.14,5.83,2.07,8.54,3.61,2.71,1.55,5,3.53,7.04,5.87,4.24,4.86,6.08,11.46,6.61,17.77.62,7.45,0,15-.33,22.45-.38,8.35-.74,16.7-1.08,25.05-.19,4.68-.38,9.35-.57,14.03-.1,2.45-.2,4.9-.29,7.35-.09,2.42-.38,4.94-.18,7.35.06.76.28,1.6.68,2.32.1.22.23.43.38.62,1.09,1.35,2.81,1.52,4.41,1.2,1.33-.26,2.78-1.67,3-3.02.75-4.51.61-9.28.79-13.84.18-4.45.36-8.91.54-13.36.37-9.02.72-18.03,1.04-27.05.56-15.51,2.05-32.85-9.33-45.16Z"/>
    <path class="cls-6" d="M170.52,470.21c-10.39,3.25-21.17,9.2-28.37,17.53-4.09,4.73-6.89,10.27-8.46,16.31-1.69,6.51-2.09,13.38-2.37,20.07-.6,14.28.45,28.52,2.98,42.58,1.24,6.89,2.97,13.66,4.5,20.49,1.47,6.55,2.49,13.1,3.01,19.79.58,7.47.76,14.97,1.41,22.43.34,3.99.8,7.98,1.53,11.92.69,3.71,1.25,8.67,3.78,11.59,1.85,2.14,4.88,1.07,6.29-.83.94-1.28,1.47-3.11,1.27-4.69-.16-1.25-.85-2.13-1.72-2.57-.39-1.64-.74-3.28-1.03-4.94-.52-2.97-.91-5.96-1.2-8.96-.64-6.52-.88-13.08-1.3-19.62-.43-6.65-1.09-13.29-2.34-19.84-1.24-6.53-2.97-12.95-4.43-19.44-2.98-13.17-4.56-26.64-4.88-40.13-.15-6.52-.08-13.09.57-19.59.57-5.79,1.81-11.68,4.83-16.72,6.3-10.52,17.79-15.17,27.46-21.83,1.73-1.19.71-4.25-1.51-3.56Z"/>
    <path class="cls-6" d="M334.63,561.95c-.89-1.51-2.58-1.69-4.04-1.05-11.21,4.92-22.97,6.88-35.18,6.39-12.61-.51-24.57-4.02-36.23-8.62-6.08-2.4-12.15-4.88-18.51-6.43-6.57-1.6-13.34-2.06-20.05-1.27-13.63,1.6-26.17,7.06-38.89,11.89-7.05,2.68-14.22,4.98-21.65,6.32-3.46.62-6.96.96-10.47.91-3.74-.05-7.43-.66-11.12-1.15-1.33-.18-2.63.21-3.16,1.57-.47,1.18-.1,2.73,1.11,3.35,6.09,3.14,13.39,3.53,20.13,3.06,6.9-.49,13.65-2.1,20.23-4.18,13.12-4.15,25.61-10.36,39.16-13.12,6.37-1.3,13.02-1.69,19.45-.5,6.53,1.2,12.76,3.57,18.92,5.99,6.14,2.41,12.27,4.86,18.67,6.51,6.23,1.6,12.63,2.63,19.05,3.05,14.11.93,29.2-1.53,41.56-8.66,1.38-.8,1.85-2.68,1.05-4.04Z"/>
    <path class="cls-6" d="M399.48,380.38c-7.93,2.72-15.82,5.21-24.07,6.76-8.17,1.54-16.48,2.24-24.79,2.38-16.72.27-33.27-2.58-49.56-6.09-8.45-1.82-17.11-3.45-25.78-2.44-7.33.86-14.23,3.08-20.99,5.97-12.79,5.48-24.63,13.37-37.71,17.92-3.68,1.28-7.49,2.32-11.36,2.87-3.13.44-7.62,1.05-10.79-.4-2.8-1.29-4.48-3.87-5.52-6.86-.61-1.74-1.06-3.56-1.5-5.35-.21-.88-.29-1.85-.56-2.7-.27-.84-.81-1.64-1.18-2.45-.66-1.41-2.73-.88-3.13.42-.55,1.76-.77,3.19-.7,5.04.07,1.82.27,3.62.64,5.41.72,3.46,2.07,6.77,4.31,9.51,5.38,6.59,14.68,5.93,22.23,4.62,14.58-2.53,27.46-10.5,40.49-17.06,6.23-3.14,12.43-5.94,19.21-7.73,7.68-2.02,15.37-2.01,23.35-.6,8.72,1.55,17.31,3.69,26.09,4.91,8.79,1.23,17.68,1.53,26.56,1.47,9.73-.07,19.46-1,29-2.95,9.33-1.9,18.82-4.72,27.25-9.2,1.88-1,.58-4.18-1.48-3.47Z"/>
    <path class="cls-6" d="M485.16,298.63c-11.25.03-22.53,1.01-33.76,1.74-11.14.72-22.27,1.51-33.4,2.36-22.48,1.72-44.93,3.7-67.36,6.01-22.32,2.29-44.62,4.8-66.87,7.69-11.34,1.47-22.67,3.02-33.99,4.62-10.14,1.44-20.45,2.62-30.33,5.41-9.43,2.65-18.42,6.79-25.74,13.39-6.29,5.67-11.75,14.14-12.7,22.71-.12,1.1-.18,2.2-.18,3.3-.73,6.65-.08,13.59.8,20.09,1.04,7.63,2.34,16.73,8.05,22.45,6.28,6.29,16.12,6.04,23.98,3.41,4.63-1.55,8.99-3.8,13.43-5.81,2.42-1.1,4.85-2.17,7.28-3.25,2.48-1.11,4.6-2.46,6.88-3.93,1.77-1.14.64-3.94-1.45-3.41-1.93.49-3.85.84-5.72,1.57-1.96.76-3.88,1.64-5.81,2.45-3.65,1.54-7.29,3.09-11.03,4.39-6.13,2.12-14.24,4.3-20.31.85-5.39-3.07-6.55-10.28-7.67-15.83-1.51-7.45-2.34-15.21-1.94-22.82.12-2.24.45-4.49,1.13-6.62,1.18-2.66,2.71-5.11,4.51-7.38.05-.04.09-.09.13-.13.63-.56,1.3-1.03,1.99-1.52.76-.54,1.18-1.36,1.99-1.81.59-.33.75-.96.6-1.52,6.1-5.46,13.84-9.37,21.5-11.69,9.43-2.85,19.23-4.19,28.96-5.58,10.79-1.55,21.59-3.03,32.39-4.45,43.44-5.72,86.96-10.63,130.57-14.82,12.33-1.19,24.68-2.25,37.03-3.25,12.34-1,24.77-1.57,37.06-3.04,1.49-.18,2.78-1.16,2.77-2.79,0-1.51-1.28-2.78-2.79-2.77Z"/>
    <path class="cls-6" d="M436.67,445.73c-11.36-.37-22.79.4-34.13.96-11.48.57-22.95,1.29-34.42,2.08-22.82,1.59-45.59,3.81-68.31,6.51-22.71,2.7-45.36,5.95-67.92,9.72-11.34,1.9-22.66,3.92-33.95,6.07-10.08,1.92-20.28,3.74-29.96,7.25-9.17,3.33-18.07,8.33-24.4,15.89-5.72,6.84-9.94,15.59-9.51,24.68.11,2.22.45,4.43,1.03,6.58.83,3.06,5.19,1.71,4.66-1.3-1.43-8.19,1.69-16.79,6.66-23.24,5.43-7.06,13.1-11.78,21.32-14.93,9.32-3.56,19.16-5.42,28.92-7.31,10.96-2.13,21.95-4.13,32.96-6.02,21.81-3.73,43.7-7.01,65.64-9.83,22.05-2.83,44.17-5.13,66.32-7.05,22.27-1.93,44.57-3.01,66.89-4.19,2.74-.14,5.47-.3,8.21-.56,3.38-.31,3.47-5.23-.02-5.34Z"/>
    <path class="cls-6" d="M215.84,333.52c-2.47-.99-5.4.17-7.68,1.16-2.32,1.02-4.49,2.3-6.53,3.79-4.35,3.19-7.95,7.05-10.78,11.65-6.33,10.32-8.12,22.91-7.64,34.83.29,7.33,1.64,14.43,4.58,21.17,1.45,3.32,7.32.88,5.9-2.51-4.22-10.09-4.97-21.84-3.39-32.6,1.48-10.13,5.43-19.64,12.95-26.76,1.92-1.81,4.09-3.31,6.42-4.53,2.23-1.17,5.07-1.85,6.83-3.73.82-.88.36-2.06-.66-2.47Z"/>
    <path class="cls-6" d="M618.94,372.12c-.14-5.67-.03-11.5-.82-17.12-.36-2.61-4.19-1.73-4.35.6-.38,5.57.06,11.28.05,16.87-.01,5.62-.03,11.25-.16,16.87-.12,5.51-.31,11.02-.57,16.53-.14,2.86-.29,5.73-.46,8.59-.17,2.76-.75,5.84-.4,8.58.17,1.35.92,2.5,2.37,2.67,1.33.15,2.62-.63,2.98-1.96.73-2.71.57-5.85.7-8.65.14-2.86.26-5.73.36-8.59.2-5.73.33-11.46.38-17.19.05-5.73.06-11.47-.08-17.2Z"/>
    <path class="cls-6" d="M603.64,411.91c-.04-3.15.15-6.39-.28-9.51-.18-1.32-1.02-2.47-2.48-2.47s-2.29,1.15-2.47,2.48c-.41,3.12-.2,6.36-.21,9.51,0,1.55-.02,3.11-.02,4.66,0,1.69.14,3.63,1.15,5.04.86,1.19,2.38,1.19,3.23-.01,1-1.42,1.12-3.37,1.12-5.05,0-1.55-.03-3.11-.05-4.66Z"/>
    <path class="cls-6" d="M590.62,415.38c0-.35-.04-.7-.05-1.05-.05-1.03-.13-2.11-.64-3.04l.22.52c-.11-.26-.22-.53-.33-.79-.16-.39-.32-.7-.67-.96-.31-.24-.72-.41-1.13-.39-.33.02-.64.1-.94.26-.45.24-.67.67-.85,1.11-.11.26-.22.53-.32.79l.22-.53c-.5.93-.57,2.01-.62,3.04-.02.35-.05.7-.05,1.05,0,.37.09.74.16,1.11.04.19.11.37.18.54.05.22.11.43.2.65.33.78,1.16,1.41,2.04,1.37.8-.04,1.49-.44,1.92-1.12.18-.28.25-.63.32-.95.07-.16.13-.33.16-.5.07-.36.15-.74.15-1.11Z"/>
    <path class="cls-6" d="M710.41,498.85c-.44-8.36-1-17.3-4.25-25.12-3.25-7.82-9.3-13.14-16.82-16.8-7.77-3.79-16.07-6.59-24.43-8.77-9.5-2.48-19.2-4.1-28.93-5.31-4.84-.6-9.69-1.09-14.56-1.49-4.92-.41-9.95-1.08-14.87-.66-2.36.2-3.06,3.61-.57,4.29,4.14,1.13,8.46,1.41,12.72,1.92,4.18.5,8.36,1.04,12.53,1.62,8.33,1.16,16.64,2.58,24.82,4.53,8.02,1.91,15.99,4.32,23.58,7.57,6.68,2.86,13.96,6.21,17.74,12.76,3.77,6.53,4.16,14.56,4.6,21.91.54,9.04.37,18.11-.16,27.15-1.07,18.02-3.78,35.9-6.36,53.75-2.97,20.53-6.35,41-9.83,61.45-.38,2.25.62,4.55,2.97,5.18,2.06.56,4.77-.71,5.18-2.97,3.4-18.66,6.38-37.41,9.2-56.17,2.82-18.81,5.66-37.71,7.04-56.69.68-9.37.9-18.76.41-28.14Z"/>
    <path class="cls-6" d="M689.56,507.97c-.11-2.35-.66-4.62-1.01-6.95-.21-1.4-2.5-1.32-2.76,0-.36,1.88-.96,3.75-1.2,5.64-.26,2.07-.43,4.16-.6,6.25-.31,3.94-.51,7.89-.79,11.83-.58,7.99-1.08,15.97-1.8,23.95-1.42,15.85-3.2,31.67-5.5,47.41-.63,4.34-1.31,8.67-1.98,13-.34,2.17-.68,4.33-1.04,6.5-.42,2.54-1.37,5.2.25,7.48.79,1.11,2.39,1.83,3.66.95,1.02-.71,1.9-1.43,2.28-2.67.25-.82.32-1.74.46-2.59.36-2.05.7-4.1,1.04-6.16.66-4,1.27-8.01,1.84-12.03,1.16-8.13,2.2-16.27,3.11-24.42,1.78-15.9,3.02-31.84,3.77-47.82.22-4.59.31-9.2.38-13.79.03-2.19-.01-4.38-.12-6.57Z"/>
    <path class="cls-6" d="M665.68,579.4c-.63-2.11-3.89-2.25-4.43.02-.62,2.58-.54,5.3-.76,7.94-.2,2.44-.5,4.88-.82,7.3-.69,5.19-1.27,10.38-1.88,15.58-.44,3.77-1.15,7.48-1.86,11.2-.26,1.35-.7,2.81-.74,4.19-.02.54.13,2.01.66,2.5.86,1.91,3.13,1.78,4.03.23.08-.06.14-.14.21-.21-.16.49-.05.21.07-.07,1.46-1.58,1.49-4.42,1.85-6.46.75-4.2,1.37-8.41,1.78-12.66.47-4.94,1.02-9.87,1.6-14.8.54-4.65,1.65-10.19.29-14.76Z"/>
    <path class="cls-6" d="M666.68,560.35c-.1-.47-.41-.84-.8-1.12-.32-.36-.74-.62-1.26-.59-.52.02-.93.25-1.25.6-.38.28-.69.66-.79,1.13-.22,1.02-.4,2.05-.39,3.11,0,.62.08,1.23.2,1.84.14.68.25,1.44.83,1.91.41.33.87.61,1.43.59.57-.03.99-.24,1.43-.6.58-.47.68-1.23.82-1.92.12-.61.19-1.22.19-1.84,0-1.05-.18-2.08-.41-3.1Z"/>
    <path class="cls-6" d="M645.32,610.91c-.58-1.13-2.55-1.5-3.38-.42-1.16,1.49-1.41,3.33-1.65,5.15.04-.3-.07.5-.08.57-.06.44-.12.87-.19,1.31-.1.71-.21,1.42-.32,2.12-.23,1.47-.49,2.93-.75,4.4-.13.76-.27,1.52-.41,2.28-.14.76-.35,1.54-.39,2.32-.22,1.22.64,2.51,1.72,2.96,1.19.5,2.92.11,3.51-1.16.69-1.51.87-3.25,1.15-4.88.27-1.52.49-3.05.69-4.58.22-1.67.43-3.34.61-5.02.18-1.65.25-3.52-.52-5.03Z"/>
    <path class="cls-6" d="M539.58,228.53c-.18-4.85-.21-11.19-3.54-15.06-.93-1.08-2.66-.16-2.68,1.12-.04,2.49.65,4.99.92,7.47.27,2.57.35,5.15.36,7.72.03,5.38-.07,10.77-.24,16.14-.18,5.41-.44,10.82-.76,16.22-.16,2.65-.34,5.29-.54,7.93-.2,2.63-1.18,6.06.33,8.4.76,1.18,2.51,1.54,3.53.44,1.96-2.1,1.61-5.49,1.81-8.2.21-2.86.38-5.73.54-8.59.3-5.62.44-11.25.48-16.88.04-5.57.01-11.15-.2-16.72Z"/>
    <path class="cls-6" d="M521.91,259.93c-.16-2.1-.24-4.17-1.15-6.1-.66-1.41-2.62-.81-3.05.41-.67,1.89-.53,3.96-.6,5.93-.07,1.91-.11,3.81-.16,5.72-.06,1.91-.15,3.81-.27,5.72-.13,1.96-.44,3.98-.4,5.94.07,2.86,4.58,3.7,5.18.68.4-2.01.42-4.14.5-6.18.08-2.06.13-4.12.14-6.17,0-1.99-.04-3.96-.19-5.95Z"/>
    <path class="cls-6" d="M510.39,270.31c-.08-.27-.12-.56-.18-.84-.03-.16-.07-.32-.11-.48-.03-.12-.08-.2-.13-.3-.02-.1-.04-.2-.07-.29-.18-.78-1.01-1.25-1.76-1.14-.78.11-1.39.78-1.39,1.58,0,.07,0,.13,0,.2-.07.35-.1.71-.13,1.07-.07.39-.22.78-.31,1.17-.11.45-.25.88-.37,1.32-.13.44-.2.9-.33,1.35-.11.38-.16.77-.16,1.17,0,.3,0,.59.09.89.15.45.37.75.67,1.12.46.59,1.58.85,2.27.59.66-.25,1.13-.54,1.51-1.15.08-.12.14-.25.21-.37.25-.48.34-.9.41-1.42.11-.79.2-1.51.13-2.3-.06-.73-.14-1.46-.36-2.16Z"/>
  </g>
  <path class="cls-3" d="M318.42,711.63c60.39,1.19,120.83-1.39,180.98-6.88,56.84-5.19,115.08-10.82,170.16-26.41,14.87-4.21,29.47-9.31,43.64-15.47,10.65-4.63,22.23-10.54,28.3-20.96,5.4-9.26,3.98-20.29-2.49-28.61-8.22-10.58-21.21-14.29-33.72-17.19,1.77-13.13,3.52-26.25,5.32-39.38,2.19-16.06,4.57-32.15,5.26-48.36.55-12.98,1.6-29.28-5.12-41-6.29-10.96-20.13-15.36-31.42-19.1-12.15-4.03-24.7-6.64-37.36-8.39.02-.13.04-.26.07-.38.76-.59,1.28-1.5,1.27-2.75.01-1.72.02-3.38,0-5.03.14-.41.24-.84.25-1.34.83-25.68,1.29-51.37,1.72-77.05.17-9.92,2.37-22.47-1.81-31.84-3.81-8.54-12.63-12.09-21.02-14.65-19.66-6-39.85-8.98-60.24-10.25,1.04-.7,1.8-1.84,1.88-3.43.69-13.74,1.37-27.48,2.06-41.23.65-13.08,2.72-27.09-.51-39.96-2.39-9.57-8.23-18.16-17.48-22.13-8.79-3.78-22.48-5.91-32.18-3.7,7.6-15.84,11.33-33.6,10.8-51.1-.35-11.75-5.2-57.08-25.75-45.8-21.22,11.66-41.37,30.25-53.33,51.35-1.45,2.55-2.77,5.22-3.99,7.97-5.5-9.85-20.99-15.44-30.41-16.62-5.71-.72-11.44-.69-17.17-.4-3.55.18-8.13-.26-11.36,1.39-7.16,3.65-2.79,12.01-.6,17.41,4.11,10.15,7.8,20.93,12.08,31.4-21.61-.13-44.07,3.28-65.23,7.2-22.08,4.09-43.84,10.24-64.33,19.5-16.88,7.63-35.65,17.91-37.22,38.52-.86,11.33,1.55,23.16,2.73,34.42,1.3,12.46,2.6,24.92,3.9,37.38-7.8,1.25-15.59,2.57-23.36,3.99-10.16,1.85-21.92,2.81-30.45,9.21-17.54,13.16-11.02,39.97-8.51,58.21,3.5,25.36,7.99,50.75,15.5,75.27-11.8,1.88-23.85,3.85-34.81,8.57-27.74,11.95-29.75,41.51-26.71,67.92,3.39,29.43,7.37,58.87,11.79,88.19-16.34,2.42-37.57,7.98-41.36,26.45-5.23,25.43,23.8,36.86,43.38,40.05,58.38,9.51,117.76,13.88,176.86,15.04ZM487.11,108.02c3.8-2.94,7.73-5.72,11.74-8.37,1.69-1.11,4.08-3.25,6.06-3.83,4.64-1.36,6.28,3.44,7.58,6.67,3.53,8.79,5.65,18.22,6.38,27.65,1.49,19.28-2.41,39.06-11.41,56.2-9.16,17.46-31.12,45.34-53.64,35.27,1.02-4.95,1.54-10.07,2.7-14.97,1.65-6.97,3.74-13.85,6.26-20.56,5.06-13.46,12.2-26.33,20.05-38.36,1.3-1.99-1.82-4.45-3.34-2.56-9.17,11.36-16.07,23.69-21.4,37.31-3.57,9.12-7.55,20.09-9.12,30.7-16.71-39.87,5.8-80.11,38.14-105.16ZM395.71,158.84c-1.27-3.13-2.53-6.25-3.8-9.38-.64-1.57-4.14-7.48-3.25-9.22,1.48-2.89,17.43-1.45,21.02-1.15,7.12.58,14.12,2.37,20.11,6.39,4.83,3.23,7.19,7.65,10.52,11.92-2.78,8.54-4.4,17.61-4.51,26.61-1.73-4.06-3.62-7.99-5.58-11.64-5.24-9.74-12.67-18.65-22.59-23.83-1.77-.93-3.08,1.49-1.53,2.63,9.51,7,16.72,14,22.15,24.68,4.96,9.75,6.94,19.91,10.55,30.01,1.62,5.26,3.92,10.3,6.99,14.96.07.11.15.18.23.28-14.42,2.07-26.15-9.07-32.77-20.93-7.24-12.97-11.99-27.58-17.56-41.33ZM250.59,227.4c7.94-5.97,17.47-10.12,26.57-13.96,19.1-8.06,39.18-13.59,59.53-17.43,20.7-3.91,41.58-4.83,62.37-7.69,2.85,6.43,6.01,12.66,9.72,18.44,8.68,13.52,23.34,23.86,39.9,20.46.19.1.38.2.58.29.27.22.57.38.9.46,22.18,10.32,44.16-8.93,56.56-26.17,2.56-3.56,4.88-7.28,6.97-11.14.2.14.42.26.67.33,9.51,2.89,19.88,1.87,29.28,5.66,11.72,4.73,14.72,17.12,14.89,28.6.06,4.24,0,8.5-.1,12.77-10.38,4.44-21.76,1.71-32.34-1.3-10.81-3.08-21.2-5.74-32.54-4.65-22.3,2.16-42.68,12.59-65.25,5.89-9.92-2.95-19.6-7.15-30.14-7.07-9.82.08-19.14,3.65-28.05,7.43-10.05,4.26-20.15,9.07-31.18,9.96-11.36.92-22.66-1.31-34-1.58-11.81-.28-22.43,2.51-33.02,7.59-10.66,5.12-20.78,11.31-32.34,14.15-.45-4.88-.83-9.76-1.09-14.63-.6-11.23,3.1-19.63,12.1-26.4ZM556.36,296.26c-26.08-1.22-52.41.14-78.28,1.38-50.98,2.43-101.98,5.08-152.8,9.91-25.12,2.39-50.2,5.32-75.16,9.02-1.65.24-3.29.5-4.94.75-1.61-14.53-3.63-29.14-5.11-43.75,21.3-3.76,37.86-20.39,60.05-21.01,12.18-.34,24.24,2.36,36.42,1.88,10.34-.41,19.84-3.68,29.29-7.68,9.67-4.09,19.61-8.96,30.27-9.62,11.47-.71,21.94,4.49,32.74,7.45,22.45,6.15,42.66-4.28,64.73-6.47,21.62-2.14,43.68,13.36,64.65,6.35-.66,16.25-2.14,32.58-2.98,48.71-.07,1.35.39,2.37,1.11,3.08ZM183.76,400.07c-1.36-10.15-3-20.3-3.93-30.49-.77-8.39-1.2-18.14,3.33-25.63,5.64-9.33,18.4-10.15,28.1-11.95,11.14-2.06,22.32-3.94,33.51-5.66,23.72-3.64,47.55-6.55,71.43-8.95,46.45-4.66,93.07-7.39,139.69-9.71,44.76-2.22,90.58-6.24,135.07,1.11,11.78,1.94,24.4,4.17,35.42,8.91,6.65,2.85,9.79,7.12,10.16,14.38.32,6.18-.12,12.47-.22,18.65-.13,7.59-.26,15.17-.41,22.76-.23.08-.46.19-.7.34-6.9,4.26-14.49,6.77-22.63,7.06-9.68.34-18.18-3.24-26.94-6.86-12.64-5.22-25.02-7.01-38.61-5.31-27.7,3.48-55.54,19.25-83.91,13.01-7.78-1.71-15.1-5.06-22.94-6.52-6.8-1.27-13.72-1.46-20.6-.78-14.2,1.4-27.77,5.92-41.35,10.04-14.04,4.25-28.47,8.31-43.3,7.61-17.02-.8-33.16-7.41-50.33-7.12-17.63.3-33.26,6.55-48.63,14.64-16.14,8.49-32.12,16.28-50.33,13.78-.66-4.42-1.29-8.85-1.88-13.29ZM186.31,417.8c28,6.67,55.04-18.6,81.19-24.54,18.91-4.3,36.03.44,54.58,3.76,14.73,2.64,28.86,1.55,43.32-2.06,14.68-3.67,28.87-9.15,43.7-12.24,7.2-1.5,14.56-2.38,21.93-1.98,9,.49,17.13,3.71,25.7,6.17,28.4,8.15,55.63-4.88,83.18-10.33,8.23-1.63,16.75-2.54,25.12-1.58,9.64,1.1,18.08,5.48,27.04,8.84,14.6,5.48,30.09,4.73,43.71-2.54-.31,16.37-.62,32.73-.84,49.1-.02,1.17.36,2.08.95,2.76-.24,1.95-.47,3.91-.68,5.86-31.03-3.58-62.54-2.5-93.71-2.04-66.49.99-132.98,3.68-199.24,9.37-33.1,2.84-66.14,6.43-99.06,10.91-15.79,2.15-31.56,4.48-47.28,7.07-4.14-15.34-7.15-30.88-9.59-46.54ZM137.24,556.15c-2.73-22.67-9.55-55.13,12.46-70.76,10.1-7.18,23.03-9.02,34.96-11.01,15.53-2.58,31.08-5.04,46.66-7.26,31.22-4.46,62.57-8.06,93.98-10.97,62.29-5.77,124.81-8.8,187.35-10.15,29.64-.64,59.37-1.4,89.01-.61,28.97.77,58.44,3.81,85.49,14.88,7.62,3.12,14.98,6.88,17.85,15.16,2.6,7.52,2.46,16.17,2.46,24.03,0,17-2.26,33.89-4.51,50.71-8.71,3.15-18.35-.8-27.03-2.97-8.06-2.02-16.04-2.62-24.29-1.46-17.8,2.5-33.94,11.08-51.4,14.92-9.48,2.09-18.98,2.17-28.23-.99-9.1-3.11-17.36-8.26-26.51-11.27-17.29-5.7-35.5-2.41-52.64,2.12-18.79,4.97-37.83,11.8-57.57,10.03-20.02-1.79-38.66-10.69-58.73-12.33-19.21-1.57-36.12,6.11-53.5,13.15-9.01,3.65-18.38,7.13-28.14,7.98-9.97.86-19.67-1.33-29.15-4.2-20.48-6.2-39.28-13.4-60.74-7.05-21.34,6.32-42.53,22.12-65.51,16.78-.76-6.23-1.52-12.47-2.27-18.7ZM701.9,557.97c-3.48,25.94-7.07,51.87-10.38,77.84-139.2,30.8-282.55,40.34-424.6,27.7-20.44-1.82-40.85-4.09-61.19-6.84-19.33-2.62-38.56-6.21-57.92-8.55-2.19-22.64-4.89-45.22-7.63-67.79,17.06,3.42,33.66-3.88,49.32-10.7,10.56-4.6,21.55-9.14,33.26-9.2,9.95-.05,19.6,2.88,28.97,5.96,18.13,5.97,35.35,11.56,54.51,6.92,18.86-4.56,35.72-15.58,55.04-18.46,21.23-3.17,41.38,6.31,61.73,10.61,19.08,4.04,37.09,1.36,55.69-3.67,19.16-5.18,39.62-12.54,59.65-7.94,18.55,4.26,33.03,16.93,53,15.52,20.03-1.42,37.85-11.75,57.31-15.67,11.53-2.32,21.62-.33,32.81,2.58,6.91,1.8,13.78,3.07,20.44,1.69ZM113.28,646.09c7.71-5.83,17.74-8.14,27.21-9.7.71,4.63,1.43,9.27,2.16,13.89.15.97.81,1.55,1.61,1.79.3.75.88,1.36,1.79,1.59,34.78,8.51,71.34,12.17,106.91,15.83,35.97,3.7,72.11,6.02,108.27,6.8,72.75,1.57,145.6-2.65,217.68-12.56,39.96-5.49,79.66-12.74,118.96-21.82,2.87-.66,3.18-3.65,1.89-5.55,1.56-10.98,3.07-21.98,4.56-32.97,10.31,2.34,21.35,5.18,28.4,13.55,8.71,10.34,4.53,22.15-5.21,29.79-8.96,7.02-20.22,11.13-30.75,15.12-11.48,4.35-23.19,8.04-35.05,11.21-49.45,13.23-101.12,18.46-151.94,23.31-104.57,9.98-210.25,11.28-314.75-.36-15.19-1.69-30.35-3.63-45.47-5.87-12.64-1.87-27.26-3.54-36.83-12.93-9.3-9.14-10.24-22.92.58-31.1ZM149.84,560.72c15.03-4.15,28.62-11.05,43.25-16.2,12.15-4.28,26.38-6.78,37.93.3,1.75,1.08.63,4.09-1.42,3.41-14.27-4.74-27.91-2.22-41.54,3.3-12.12,4.92-24.41,12.18-37.82,11.97-1.6-.02-1.94-2.35-.39-2.78ZM246.43,547.22c2.87.39,5.73.79,8.6,1.18,1.7.23.98,2.81-.7,2.58-2.87-.39-5.73-.79-8.6-1.18-1.7-.23-.98-2.81.7-2.58ZM629.46,533.49c10.08-5.57,21.92-9.08,33.14-4.49,1.95.8,1.94,4.06-.52,3.96-10.76-.41-21.3-1.14-31.54,3.06-1.48.61-2.42-1.8-1.08-2.54ZM678.41,531.96c1.15.17,2.4.16,3.51.5,1.13.35,2.26.98,3.2,1.69.66.5,1.11,1.24.86,2.1-.21.73-.98,1.45-1.79,1.37-1.29-.13-2.59-.4-3.77-.95-1.12-.51-2.08-1.42-3.09-2.12-1.37-.96-.49-2.82,1.08-2.59Z"/>
</svg>