<?xml version="1.0" encoding="UTF-8"?>
<svg id="Layer_6" data-name="Layer 6" xmlns="http://www.w3.org/2000/svg" viewBox="0 0 855.19 816.12">
  <defs>
    <style>
      .cls-1 {
        fill: #898383;
      }

      .cls-1, .cls-2, .cls-3, .cls-4, .cls-5, .cls-6, .cls-7, .cls-8 {
        stroke-width: 0px;
      }

      .cls-9 {
        letter-spacing: -.02em;
      }

      .cls-2 {
        fill: #efa89c;
      }

      .cls-10 {
        letter-spacing: -.06em;
      }

      .cls-11 {
        fill: #000;
        font-family: Noteworthy-Light, Noteworthy;
        font-size: 33px;
        font-weight: 300;
      }

      .cls-3 {
        fill: #541c04;
      }

      .cls-4 {
        fill: #db727f;
      }

      .cls-12 {
        letter-spacing: 0em;
      }

      .cls-5 {
        fill: #f7e8da;
      }

      .cls-6 {
        fill: #67db37;
      }

      .cls-7 {
        fill: #fff;
      }

      .cls-8 {
        fill: #231f20;
      }

      .cls-13 {
        letter-spacing: .02em;
      }

      .cls-14 {
        letter-spacing: -.03em;
      }
    </style>
  </defs>
  <g>
    <path class="cls-1" d="M353.16,705.07c-54.58,0-108.1-2.97-159.07-8.82-15.6-1.79-30.89-3.82-45.45-6.03l-2.12-.32c-12.22-1.83-26.07-3.9-35.37-13.1-5.24-5.18-7.99-11.85-7.55-18.31.4-5.86,3.29-10.97,8.37-14.78,8.03-6.03,18.56-8.36,27.8-9.85l1.33-.21.2,1.34c.69,4.63,1.4,9.26,2.11,13.88.04.25.15.56.66.71l.62.19.24.6c.17.43.45.68.87.79,33.98,8.44,69.87,12.25,104.59,15.94l1.98.21c36.4,3.87,72.74,6.28,108.02,7.16,11.35.28,22.86.43,34.22.43,60.95,0,122.54-4.11,183.07-12.23,40.15-5.38,80.12-12.57,118.79-21.38.73-.17,1.21-.54,1.44-1.11.28-.7.14-1.66-.35-2.38l-.29-.43.07-.51c1.69-11.6,3.3-23.15,4.66-32.91l.2-1.45,1.42.33c11.28,2.61,21.99,5.64,29.05,14.08,3.77,4.51,5.46,9.63,4.91,14.83-.65,6.13-4.35,12.1-10.42,16.82-8.76,6.82-19.46,10.83-29.81,14.7l-1.31.49c-10.94,4.1-22.77,7.84-35.18,11.12-51.32,13.54-107.19,18.68-152.08,22.81-53.31,4.9-105.67,7.39-155.61,7.39h-.02Z"/>
    <path class="cls-2" d="M393.98,669.98c-42.3.14-85.04-1.68-127.03-5.41-20.62-1.83-41.21-4.13-61.19-6.84-8.46-1.14-17.04-2.5-25.34-3.81-10.64-1.68-21.65-3.42-32.5-4.73l-1.07-.13-.1-1.07c-2.18-22.61-4.85-44.92-7.62-67.69l-.22-1.84,1.81.36c2.84.57,5.81.85,8.83.84,13.46-.05,26.61-5.77,39.34-11.31l.31-.14c11.62-5.06,22.17-9.24,33.75-9.3,10.12-.03,19.66,2.83,29.36,6.02,12.87,4.23,26.17,8.61,39.73,8.56,4.83-.02,9.4-.56,13.99-1.68,8.24-1.99,16.28-5.31,24.05-8.52,9.9-4.09,20.14-8.31,31.05-9.94,2.82-.42,5.76-.64,8.74-.65,12.27-.04,24.32,3.4,35.97,6.72,5.71,1.63,11.62,3.32,17.42,4.54,6.24,1.32,12.48,1.95,19.07,1.93,10.59-.04,22.01-1.81,35.94-5.57,2.54-.69,5.1-1.41,7.67-2.14,12.59-3.56,25.6-7.25,38.7-7.29,4.91-.02,9.44.47,13.86,1.48,7.21,1.65,13.83,4.57,20.24,7.38,9.62,4.23,18.71,8.23,29.46,8.19.95,0,1.9-.04,2.85-.11,11.44-.81,22.42-4.67,33.04-8.41,7.77-2.73,15.8-5.56,24.04-7.22,3.42-.69,6.8-1.03,10.32-1.04,7.45-.03,14.6,1.44,23.05,3.64,4.26,1.11,9.29,2.24,14.24,2.23,1.97,0,3.79-.19,5.56-.56l1.85-.38-.25,1.87c-.95,7.06-1.9,14.11-2.86,21.17-2.51,18.54-5.11,37.71-7.51,56.58l-.12.93-.92.2c-97.78,21.63-197.88,32.77-297.54,33.11Z"/>
    <path class="cls-4" d="M149.54,577.1c-3.43.01-6.81-.36-10.05-1.12l-.91-.21-.11-.93c-.76-6.23-1.52-12.46-2.27-18.69-.26-2.15-.56-4.39-.86-6.7-2.98-22.56-6.69-50.64,13.85-65.24,9.84-6.99,21.97-8.99,33.69-10.93l1.79-.3c17.09-2.84,32.35-5.22,46.65-7.26,29.87-4.27,61.48-7.96,93.94-10.97,57.78-5.35,119.03-8.67,187.25-10.15l6.33-.14c16.72-.37,34.02-.75,51.04-.8,11.49-.04,21.83.07,31.62.33,24.57.66,56.53,2.95,85.87,14.96,7.37,3.01,15.49,6.98,18.59,15.94,2.55,7.36,2.54,15.82,2.54,23.29v1.15c0,17.03-2.29,34.16-4.5,50.73l-.11.8-.78.38c-2.3.83-4.75,1.25-7.47,1.25-5.23.02-10.48-1.46-15.56-2.9-1.61-.45-3.19-.9-4.75-1.29-5.46-1.37-10.64-2.02-15.82-2.01-2.64,0-5.31.2-7.94.57-9.86,1.38-19.42,4.74-28.66,7.98-7.3,2.56-14.86,5.21-22.58,6.91-4.51.99-8.9,1.5-13.05,1.51-5.53.02-10.87-.84-15.87-2.55-4.52-1.54-8.86-3.6-13.07-5.58-4.33-2.04-8.8-4.16-13.39-5.67-6.11-2.01-12.57-2.98-19.76-2.96-11.47.04-23.16,2.75-32.07,5.1-3.17.84-6.34,1.73-9.52,2.62-13.46,3.78-27.37,7.68-41.56,7.73-2.33,0-4.64-.09-6.88-.29-10.01-.9-19.79-3.58-29.24-6.17-9.54-2.62-19.41-5.33-29.42-6.15-1.71-.14-3.46-.21-5.19-.2-15.34.05-29.1,5.67-43.66,11.62-1.33.54-2.66,1.08-3.99,1.62-8.9,3.6-18.43,7.19-28.5,8.06-1.43.12-2.91.19-4.39.19-9.21.03-17.92-2.23-25.23-4.44-1.96-.59-3.9-1.2-5.83-1.79-12.78-3.96-24.85-7.7-37.5-7.66-5.74.02-11.16.81-16.58,2.41-6.39,1.89-12.94,4.72-19.27,7.45-11.84,5.11-24.09,10.4-36.81,10.45Z"/>
    <path class="cls-2" d="M194.84,464.62c-3.75-13.9-6.89-29.15-9.61-46.63l-.31-1.97,1.94.46c3.04.72,6.22,1.09,9.45,1.07,13.98-.05,27.99-6.96,41.53-13.64,9.71-4.79,19.75-9.74,29.52-11.96,5.09-1.16,10.25-1.73,15.79-1.75,10.43-.04,20.37,1.88,30.89,3.91,2.76.53,5.55,1.07,8.37,1.58,5.43.97,10.99,1.46,16.52,1.44,8.38-.03,16.95-1.17,26.19-3.48,6.29-1.57,12.61-3.52,18.72-5.4,8.11-2.5,16.5-5.07,24.98-6.84,6.7-1.4,12.7-2.08,18.34-2.1,1.32,0,2.63.03,3.91.1,7.08.38,13.71,2.45,20.12,4.44,1.94.6,3.88,1.21,5.85,1.77,6.08,1.74,12.33,2.58,19.1,2.56,13.95-.05,28.01-3.86,41.6-7.54,7.12-1.93,14.48-3.92,21.76-5.36,6.69-1.32,12.59-1.97,18.05-1.99,2.56,0,5.07.12,7.45.4,7.44.85,14.25,3.63,20.83,6.33,2.12.87,4.31,1.76,6.49,2.58,6.25,2.35,12.65,3.53,19.03,3.5,8.25-.03,16.17-2.04,23.54-5.97l2.01-1.07-.06,3.17c-.3,15.78-.61,32.1-.83,48.15-.01.76.19,1.37.62,1.86l.39.45-.07.59c-.24,1.94-.47,3.89-.68,5.83l-.14,1.34-1.34-.15c-15.91-1.83-33.13-2.62-55.84-2.54-8.92.03-17.99.19-26.76.34-3.62.06-7.23.12-10.84.18-73.17,1.08-138.24,4.14-198.94,9.35-33.97,2.92-67.25,6.58-98.89,10.89-17.15,2.34-32.59,4.65-47.2,7.06l-1.19.2-.31-1.17Z"/>
    <path class="cls-4" d="M193.03,415.16c-2.45,0-4.91-.16-7.33-.49l-.99-.14-.15-.99c-.7-4.72-1.32-9.07-1.89-13.3-.39-2.88-.79-5.77-1.2-8.65-1.01-7.15-2.06-14.55-2.73-21.87-.79-8.66-1.24-18.56,3.51-26.42,5.21-8.61,15.73-10.35,25.01-11.88,1.36-.22,2.69-.44,3.96-.68,10.83-2,22.11-3.91,33.52-5.66,22.5-3.45,45.86-6.38,71.43-8.95,48.01-4.82,95.48-7.51,139.61-9.7,5.95-.3,11.93-.62,17.91-.95,18.75-1.03,38.15-2.09,57.26-2.16,22.7-.08,42.34,1.31,60.04,4.23,12.64,2.09,24.87,4.34,35.69,8.99,7.19,3.09,10.57,7.87,10.96,15.53.22,4.34.08,8.77-.06,13.05-.06,1.9-.13,3.79-.16,5.67-.13,7.58-.26,15.16-.41,22.74l-.02.92-.87.31c-.15.05-.3.13-.45.22-7.34,4.53-15.16,6.96-23.26,7.25-.4.01-.79.02-1.19.02-9.32.03-17.36-3.29-25.88-6.81l-.4-.17c-9.57-3.95-18.9-5.86-28.54-5.83-3.04.01-6.19.22-9.35.61-9.75,1.22-19.75,4.06-29.42,6.79-13.22,3.74-26.88,7.61-40.56,7.66-5.03.02-9.71-.46-14.29-1.47-3.67-.81-7.28-1.98-10.76-3.12-3.94-1.29-8.01-2.61-12.12-3.38-4.16-.77-8.5-1.16-12.9-1.14-2.39,0-4.85.13-7.3.38-12.49,1.23-24.74,4.98-36.58,8.61-1.49.46-2.98.91-4.47,1.36-13.37,4.05-26.49,7.69-40.01,7.74-1.24,0-2.48-.02-3.7-.08-7.88-.37-15.65-1.99-23.16-3.55-8.51-1.77-17.32-3.6-26.18-3.57h-.85c-18.65.32-34.72,7.5-47.98,14.48-14.9,7.84-28.48,14.34-43.76,14.39h0Z"/>
    <path class="cls-2" d="M244.03,317.55c-.68-6.11-1.44-12.35-2.18-18.38-1.02-8.3-2.07-16.88-2.92-25.34l-.12-1.24,1.22-.22c9.33-1.65,17.94-5.92,26.28-10.06,10.5-5.21,21.36-10.6,33.9-10.95.65-.02,1.29-.03,1.94-.03,5.38-.02,10.78.49,16.02.99,5.17.49,10.51,1,15.75.98.88,0,1.77-.02,2.66-.06,10.56-.42,20.08-3.88,28.8-7.56,1.25-.53,2.51-1.07,3.77-1.62,8.56-3.69,17.41-7.51,26.9-8.1.7-.04,1.4-.06,2.1-.07,7.79-.03,15.17,2.43,22.3,4.81,2.86.95,5.82,1.94,8.74,2.74,4.64,1.27,9.4,1.88,14.53,1.86,9.31-.03,18.24-2.1,27.69-4.28,7.1-1.64,14.45-3.34,21.96-4.09,1.36-.14,2.79-.21,4.22-.21,8.35-.03,16.78,2.15,24.93,4.26,7.89,2.04,16.05,4.15,23.86,4.12,4.08-.01,7.77-.59,11.27-1.76l1.84-.62-.08,1.94c-.37,9.21-1.02,18.58-1.65,27.64-.48,6.91-.97,14.06-1.34,21.04-.04.86.19,1.54.71,2.04l2.54,2.46-3.53-.17c-7.4-.35-15.1-.5-23.52-.47-17.22.06-34.66.89-51.52,1.7l-3.02.14c-51.38,2.45-101.71,5.06-152.58,9.9-26.79,2.55-51.32,5.49-75.02,9-1.13.17-2.26.34-3.39.51l-2.92.44-.15-1.38Z"/>
    <path class="cls-4" d="M238.44,268.69c-.5-5.48-.86-10.28-1.09-14.67-.63-11.82,3.38-20.56,12.62-27.51,7.8-5.87,16.77-9.86,26.83-14.11,17.93-7.57,37.47-13.29,59.74-17.5,12.58-2.38,25.42-3.67,37.83-4.92,8.05-.81,16.37-1.65,24.54-2.78l1-.14.41.92c3.16,7.12,6.31,13.09,9.61,18.24,8.26,12.86,20.4,20.52,32.47,20.48,1.99,0,4-.22,5.99-.62l.47-.1,1,.51.23.16c.11.09.23.15.35.18l.13.03.12.06c3.98,1.85,8.15,2.79,12.39,2.77,20.44-.07,37.67-21.82,42.47-28.49,2.48-3.45,4.79-7.15,6.87-10.98l.71-1.32,1.23.87c.1.07.19.12.29.15,4.15,1.26,8.6,1.77,12.91,2.26,5.46.63,11.11,1.27,16.46,3.43,10.19,4.11,15.47,14.13,15.71,29.79.06,3.73.02,7.8-.1,12.81l-.02.86-.79.34c-3.8,1.62-7.89,2.42-12.5,2.44-7.1.02-14.41-1.89-20.7-3.68-9.01-2.57-17.86-4.87-27.07-4.84-1.66,0-3.32.09-4.94.24-7.28.7-14.49,2.33-21.45,3.9-9.06,2.05-18.44,4.16-27.9,4.2-5.79.02-11.13-.72-16.34-2.27-2.26-.67-4.54-1.42-6.75-2.14-7.35-2.41-14.95-4.9-22.81-4.87h-.16c-9.63.08-18.87,3.65-27.52,7.31-1.1.47-2.21.94-3.32,1.42-8.96,3.85-18.22,7.82-28.25,8.63-1.78.14-3.6.22-5.57.22-5.22.02-10.49-.46-15.59-.92-4.25-.38-8.64-.78-12.95-.88-.61-.01-1.2-.02-1.8-.02-10.31.04-20.03,2.41-30.57,7.47-2.62,1.26-5.26,2.61-7.81,3.91-7.83,4-15.92,8.14-24.75,10.31l-1.51.37-.14-1.55Z"/>
    <path class="cls-6" d="M463.68,225.26c-3.56.01-7.07-.74-10.43-2.25l-.98-.44.22-1.05c.44-2.13.79-4.35,1.13-6.49.45-2.8.91-5.7,1.57-8.5,1.68-7.06,3.8-14.03,6.3-20.7,4.58-12.19,11.17-24.81,20.16-38.58.06-.09.17-.27,0-.58-.18-.32-.56-.59-.86-.58-.09,0-.19.02-.32.18-8.78,10.87-15.7,22.95-21.18,36.92-3.61,9.2-7.5,20.01-9.03,30.37l-.7,4.75-1.85-4.42c-7.86-18.76-7.63-39.2.67-59.11,7.23-17.34,20.67-34.22,37.84-47.51,3.64-2.82,7.61-5.65,11.82-8.42.46-.31.99-.7,1.54-1.11,1.52-1.13,3.24-2.41,4.88-2.89.65-.19,1.29-.29,1.9-.29,4.21-.01,5.95,4.36,7.1,7.25l.2.49c3.53,8.77,5.7,18.2,6.46,28.02,1.51,19.61-2.59,39.8-11.54,56.87-9.2,17.53-26.48,38.02-44.89,38.08Z"/>
    <path class="cls-6" d="M442.63,222.87c-11.45.04-22.86-8.13-30.52-21.84-5.33-9.55-9.35-20.06-13.24-30.22-1.42-3.7-2.88-7.53-4.37-11.21l-3.8-9.37c-.14-.34-.42-.89-.76-1.56-1.95-3.86-3.36-6.96-2.44-8.76.63-1.22,2.31-2.47,10.04-2.5,4.54-.02,9.6.4,11.76.58l.5.04c8.33.68,15.11,2.84,20.73,6.6,3.84,2.57,6.22,5.89,8.53,9.09.74,1.03,1.49,2.07,2.29,3.1l.44.56-.22.68c-2.84,8.69-4.33,17.5-4.44,26.18l-2.57.51c-1.7-3.99-3.56-7.86-5.53-11.51-5.76-10.7-13.37-18.74-22.01-23.26-.1-.05-.15-.05-.16-.05-.02,0-.08.07-.09.17,0,.07,0,.15.14.26,11.07,8.16,17.6,15.44,22.53,25.12,3.29,6.46,5.31,13.18,7.26,19.68,1.03,3.43,2.1,6.98,3.34,10.46,1.65,5.36,3.95,10.27,6.84,14.66l.15.17,1.49,1.83-2.34.34c-1.19.17-2.39.26-3.57.26Z"/>
    <g>
      <path class="cls-7" d="M337.55,188.88c-6.16.09-12.14,1.59-18.05,3.22-5.81,1.6-11.54,3.45-17.19,5.55-11.46,4.25-22.54,9.5-33.28,15.32-10.08,5.46-21.11,11.68-26.6,22.24-5.87,11.28-4.15,24.5-3.28,36.68.54,7.54,1.12,15.07,1.77,22.6.67,7.75.97,15.69,2.35,23.34.59,3.25,5.31,2.22,5.48-.76.37-6.5-.17-13.12-.4-19.62-.23-6.54-.45-13.08-.78-19.61-.31-6.26-.69-12.52-.93-18.78-.21-5.46-.12-10.98,1.53-16.23,3.17-10.04,13.14-16.31,21.46-21.82,9.75-6.47,20.15-11.85,30.98-16.27,6.04-2.46,12.19-4.65,18.43-6.54,6.33-1.92,12.82-3.31,19-5.71,1.83-.71,1.71-3.64-.5-3.61Z"/>
      <path class="cls-7" d="M259.48,320.12c-3.6-.83-7.38-.63-11.07-.52-3.75.11-7.47.41-11.2.88-7.32.92-14.56,2.26-21.7,4.12-6.94,1.81-13.95,3.84-20.51,6.79-6.31,2.83-11.36,7.3-14.03,13.76-2.5,6.05-2.86,12.83-2.86,19.31,0,7.66.43,15.33,1.18,22.95,1.52,15.5,4.21,30.85,7.42,46.09,1.79,8.48,3.7,16.94,5.73,25.37.49,2.05.76,4.45,1.84,6.29,1.54,2.62,5.04,3.65,7.53,1.7,2.08-1.63,2.38-4.64.63-6.61-.03-.14-.04-.21-.02-.12-.16-.74-.33-1.48-.5-2.22-.4-1.8-.8-3.59-1.2-5.39-.73-3.28-1.49-6.55-2.22-9.83-1.47-6.56-2.89-13.13-4.19-19.72-2.58-13.05-4.78-26.19-5.99-39.45-.61-6.68-.98-13.35-1.15-20.05-.14-5.45-.18-10.56,1.63-15.64,1.74-4.88,5.82-8.01,10.46-10.25,5.45-2.64,11.34-4.58,17.13-6.3,6.99-2.08,14.12-3.73,21.31-4.92,3.56-.59,7.14-1.11,10.72-1.55,3.68-.46,7.48-.55,11.06-1.49,1.53-.4,1.57-2.79-.01-3.15Z"/>
      <path class="cls-7" d="M356.66,206.78c-9.6.13-19.2,2.14-28.63,3.81-9.51,1.68-19,3.51-28.45,5.49-14.98,3.14-31.01,5.9-44.37,13.8-3.31,1.96-6.49,4.28-9.17,7.05-2.56,2.65-5.76,6.15-5.94,10-.06,1.17,1.49,2.16,2.49,1.42,2.61-1.95,4.22-5.06,6.53-7.38,2.32-2.32,4.9-4.33,7.68-6.05,5.74-3.55,12.08-5.92,18.53-7.8,7.79-2.28,15.78-3.91,23.71-5.62,9.01-1.94,18.05-3.74,27.12-5.4,10.29-1.89,20.89-3.04,30.97-5.91,1.86-.53,1.5-3.42-.47-3.39Z"/>
      <path class="cls-7" d="M379.98,203.15c-1.84.22-3.67.44-5.51.66-.37.04-.67.12-.94.39-.23.23-.4.61-.39.95.03.65.6,1.42,1.34,1.33,1.84-.22,3.67-.44,5.51-.66.37-.04.67-.12.94-.39.23-.23.4-.61.39-.95-.03-.65-.6-1.42-1.34-1.33Z"/>
      <path class="cls-7" d="M446.46,214.18c-11.75-.81-21.45-9.81-27.38-19.42-7.24-11.73-10.75-25.26-16.39-37.75-1.58-3.5-3.3-6.95-5.29-10.24-1.98-3.26-4.17-6.96-7.23-9.28-.95-.72-2.53-.34-3.31.44-.91.92-.93,2.19-.42,3.31.71,1.56,1.83,2.91,2.74,4.37.96,1.54,1.86,3.13,2.69,4.75,1.54,2.99,2.9,6.06,4.11,9.19,2.56,6.61,4.68,13.39,7.08,20.06,4.8,13.33,11.29,26.38,22.92,35,5.95,4.41,13.08,7.04,20.5,7.28,2.08.07,3.85-1.84,3.85-3.87,0-2.21-1.78-3.7-3.87-3.85Z"/>
      <path class="cls-7" d="M510.76,91.65c-1-1.69-3.67-2.66-5.39-1.39-16.3,11.98-31.53,25.52-43.35,42.05-11.79,16.49-19.52,36.33-19.65,56.76-.03,5.64.62,11.33,1.83,16.83.59,2.7,1.35,5.35,2.31,7.94,1,2.72,2.07,5.55,4.34,7.45,1.2.99,3.03.35,3.08-1.29.08-2.43-.69-4.69-1.36-6.99-.67-2.3-1.22-4.63-1.68-6.98-.87-4.5-1.22-9.08-1.19-13.66.06-9.47,1.63-18.84,4.57-27.85,5.88-17.97,17.41-33.57,30.75-46.74,7.59-7.49,15.82-14.34,24.34-20.74,1.7-1.28,2.56-3.41,1.39-5.39Z"/>
      <path class="cls-7" d="M638.17,338.21c-.15-4.52-.59-9.15-2.16-13.42-1.53-4.18-4.14-7.99-7.65-10.76-3.18-2.51-7.87-4.92-11.98-3.53-2.24.76-2.21,3.79.02,4.54,1.39.47,2.88.67,4.24,1.25,1.53.65,2.89,1.65,4.05,2.82,2.43,2.43,3.74,5.52,4.53,8.83.95,3.96,1.01,8.08.92,12.13-.1,4.54-.35,9.08-.47,13.62-.52,18.66-.85,37.33-1.22,56-.1,5.11-.16,10.22-.23,15.33-.04,2.67-.07,5.33-.11,8-.04,2.75-.48,5.78.58,8.35.6,1.44,1.55,2.55,3.2,2.74,1.4.16,3.18-.45,3.82-1.85.72-1.56,1.08-2.88,1.12-4.61.03-1.11.05-2.22.07-3.33.06-2.67.12-5.33.18-8,.11-4.89.23-9.78.32-14.67.18-9.78.31-19.55.47-29.33.16-9.89.28-19.77.37-29.66.04-4.81.09-9.64-.07-14.44Z"/>
      <path class="cls-7" d="M548.93,196.98c-4.93-5.33-13.15-10.29-20.66-9.59-2.59.24-2.95,3.48-.58,4.41,2.88,1.14,5.82,2.07,8.53,3.61,2.7,1.54,4.99,3.52,7.04,5.87,4.23,4.85,6.07,11.45,6.6,17.75.62,7.44,0,14.99-.33,22.43-.38,8.34-.74,16.68-1.08,25.02-.19,4.67-.38,9.34-.57,14.01-.1,2.45-.2,4.89-.29,7.34-.09,2.41-.38,4.93-.18,7.34.06.76.28,1.6.68,2.31.1.22.23.43.38.62,1.09,1.35,2.8,1.52,4.41,1.2,1.33-.26,2.78-1.66,3-3.02.75-4.5.61-9.27.79-13.82.18-4.45.36-8.9.54-13.34.37-9.01.72-18.01,1.04-27.02.56-15.49,2.04-32.82-9.32-45.11Z"/>
      <path class="cls-7" d="M170.78,470.14c-10.38,3.25-21.15,9.19-28.35,17.51-4.09,4.72-6.88,10.26-8.45,16.3-1.69,6.5-2.08,13.36-2.36,20.05-.6,14.26.45,28.49,2.98,42.53,1.24,6.88,2.97,13.65,4.49,20.47,1.46,6.54,2.49,13.08,3.01,19.77.58,7.46.76,14.95,1.41,22.41.34,3.99.8,7.97,1.53,11.91.69,3.71,1.25,8.66,3.77,11.58,1.85,2.14,4.88,1.07,6.28-.83.94-1.28,1.47-3.11,1.26-4.69-.16-1.25-.85-2.13-1.72-2.56-.39-1.63-.73-3.28-1.03-4.94-.52-2.97-.91-5.96-1.2-8.95-.64-6.52-.88-13.06-1.3-19.6-.43-6.64-1.09-13.27-2.34-19.82-1.24-6.52-2.96-12.94-4.43-19.42-2.97-13.16-4.56-26.61-4.87-40.09-.15-6.51-.08-13.08.57-19.57.57-5.78,1.81-11.67,4.82-16.7,6.29-10.51,17.77-15.16,27.43-21.8,1.73-1.19.71-4.25-1.51-3.55Z"/>
      <path class="cls-7" d="M334.72,561.79c-.89-1.51-2.58-1.69-4.04-1.04-11.2,4.92-22.95,6.88-35.14,6.38-12.59-.51-24.54-4.01-36.2-8.61-6.07-2.39-12.14-4.88-18.49-6.43-6.56-1.6-13.32-2.05-20.03-1.27-13.62,1.6-26.15,7.05-38.85,11.88-7.04,2.68-14.21,4.97-21.63,6.31-3.45.62-6.95.96-10.46.91-3.74-.05-7.42-.66-11.11-1.15-1.33-.18-2.62.21-3.16,1.56-.47,1.18-.1,2.72,1.11,3.35,6.08,3.14,13.38,3.53,20.11,3.05,6.89-.49,13.64-2.1,20.21-4.18,13.11-4.15,25.58-10.35,39.12-13.11,6.37-1.3,13.01-1.69,19.43-.5,6.52,1.2,12.75,3.57,18.9,5.98,6.13,2.41,12.26,4.85,18.65,6.5,6.22,1.6,12.62,2.62,19.03,3.04,14.09.92,29.17-1.53,41.52-8.65,1.38-.79,1.85-2.68,1.04-4.04Z"/>
      <path class="cls-7" d="M399.5,380.4c-7.93,2.72-15.8,5.2-24.05,6.75-8.16,1.54-16.46,2.24-24.76,2.38-16.7.27-33.24-2.57-49.51-6.08-8.44-1.82-17.09-3.45-25.75-2.43-7.32.86-14.22,3.07-20.97,5.97-12.78,5.48-24.6,13.35-37.67,17.9-3.68,1.28-7.48,2.32-11.35,2.87-3.12.44-7.61,1.05-10.78-.4-2.8-1.29-4.47-3.87-5.52-6.85-.61-1.74-1.06-3.55-1.5-5.34-.21-.88-.29-1.84-.56-2.7-.27-.84-.81-1.64-1.18-2.44-.66-1.41-2.72-.87-3.13.42-.55,1.76-.77,3.19-.7,5.03.07,1.82.27,3.62.64,5.4.72,3.45,2.07,6.76,4.31,9.5,5.38,6.58,14.66,5.93,22.21,4.62,14.56-2.53,27.43-10.49,40.44-17.04,6.22-3.13,12.41-5.93,19.19-7.72,7.67-2.02,15.36-2.01,23.32-.6,8.72,1.55,17.29,3.68,26.07,4.91,8.78,1.23,17.66,1.53,26.53,1.47,9.72-.07,19.44-1,28.97-2.95,9.32-1.9,18.8-4.71,27.22-9.19,1.88-1,.58-4.17-1.48-3.47Z"/>
      <path class="cls-7" d="M485.09,298.74c-11.24.03-22.51,1.01-33.73,1.73-11.13.72-22.25,1.51-33.37,2.36-22.46,1.72-44.89,3.7-67.29,6-22.29,2.29-44.57,4.79-66.8,7.68-11.33,1.47-22.65,3.01-33.96,4.61-10.13,1.43-20.43,2.62-30.3,5.4-9.42,2.65-18.4,6.78-25.72,13.38-6.29,5.67-11.74,14.13-12.68,22.69-.12,1.1-.18,2.2-.18,3.3-.73,6.65-.08,13.58.8,20.07,1.04,7.62,2.34,16.71,8.04,22.42,6.27,6.28,16.1,6.03,23.95,3.4,4.63-1.55,8.98-3.79,13.41-5.8,2.42-1.1,4.85-2.16,7.27-3.25,2.48-1.11,4.6-2.46,6.87-3.92,1.77-1.14.64-3.94-1.45-3.41-1.93.49-3.84.84-5.71,1.56-1.96.76-3.87,1.63-5.81,2.45-3.64,1.54-7.28,3.09-11.02,4.39-6.12,2.12-14.22,4.3-20.29.85-5.39-3.07-6.54-10.27-7.66-15.81-1.5-7.45-2.34-15.19-1.93-22.8.12-2.23.45-4.48,1.12-6.61,1.18-2.65,2.71-5.11,4.51-7.37.05-.04.09-.09.13-.13.63-.56,1.3-1.03,1.99-1.51.76-.54,1.18-1.36,1.99-1.81.59-.33.75-.96.6-1.52,6.09-5.46,13.82-9.36,21.48-11.68,9.42-2.85,19.21-4.18,28.93-5.57,10.78-1.54,21.57-3.03,32.36-4.45,43.4-5.71,86.87-10.62,130.44-14.81,12.32-1.18,24.66-2.24,36.99-3.25,12.33-1,24.74-1.57,37.03-3.04,1.49-.18,2.77-1.16,2.77-2.79,0-1.51-1.28-2.77-2.79-2.77Z"/>
      <path class="cls-7" d="M436.66,445.69c-11.35-.37-22.77.4-34.1.96-11.47.57-22.93,1.29-34.38,2.08-22.8,1.59-45.55,3.8-68.24,6.5-22.69,2.7-45.31,5.95-67.85,9.71-11.33,1.89-22.63,3.92-33.92,6.07-10.07,1.92-20.26,3.74-29.93,7.25-9.16,3.32-18.05,8.32-24.37,15.88-5.72,6.84-9.93,15.57-9.5,24.66.11,2.22.45,4.43,1.03,6.57.83,3.06,5.19,1.71,4.66-1.3-1.43-8.18,1.69-16.77,6.65-23.22,5.42-7.05,13.08-11.77,21.3-14.91,9.31-3.56,19.14-5.41,28.89-7.3,10.95-2.12,21.93-4.13,32.92-6.01,21.78-3.73,43.65-7,65.58-9.82,22.03-2.83,44.12-5.12,66.25-7.04,22.25-1.93,44.52-3.01,66.82-4.18,2.74-.14,5.47-.3,8.2-.55,3.38-.31,3.46-5.22-.02-5.34Z"/>
      <path class="cls-7" d="M216.06,333.59c-2.46-.99-5.4.17-7.67,1.16-2.32,1.01-4.48,2.29-6.52,3.79-4.35,3.18-7.94,7.04-10.77,11.64-6.32,10.31-8.11,22.89-7.63,34.79.29,7.33,1.64,14.41,4.57,21.14,1.45,3.32,7.32.88,5.9-2.51-4.22-10.08-4.96-21.82-3.39-32.56,1.48-10.12,5.43-19.62,12.93-26.73,1.91-1.81,4.08-3.31,6.42-4.53,2.22-1.17,5.07-1.85,6.82-3.73.82-.88.36-2.06-.66-2.47Z"/>
      <path class="cls-7" d="M618.73,372.15c-.14-5.66-.03-11.49-.82-17.1-.36-2.61-4.19-1.73-4.35.6-.38,5.57.06,11.26.05,16.85-.01,5.62-.03,11.23-.16,16.85-.12,5.51-.31,11.01-.57,16.51-.14,2.86-.29,5.72-.46,8.58-.17,2.76-.75,5.84-.4,8.57.17,1.34.92,2.5,2.37,2.66,1.32.15,2.62-.63,2.98-1.96.73-2.71.57-5.84.7-8.64.14-2.86.26-5.72.36-8.58.2-5.72.33-11.45.38-17.17.05-5.73.06-11.46-.08-17.18Z"/>
      <path class="cls-7" d="M603.45,411.9c-.03-3.14.15-6.38-.28-9.5-.18-1.32-1.02-2.47-2.48-2.46s-2.29,1.15-2.46,2.48c-.41,3.12-.2,6.36-.21,9.5,0,1.55-.02,3.11-.02,4.66,0,1.68.14,3.63,1.15,5.04.85,1.19,2.38,1.19,3.23-.01,1-1.42,1.12-3.36,1.12-5.05,0-1.55-.03-3.1-.05-4.66Z"/>
      <path class="cls-7" d="M590.45,415.37c0-.35-.04-.7-.05-1.05-.05-1.03-.13-2.11-.64-3.04l.22.52c-.11-.26-.22-.53-.33-.79-.16-.39-.32-.7-.67-.96-.31-.24-.72-.41-1.12-.39-.33.02-.64.1-.93.26-.45.24-.67.66-.85,1.11-.11.26-.22.53-.32.79l.22-.52c-.5.93-.57,2.01-.62,3.04-.02.35-.05.7-.05,1.05,0,.37.09.74.16,1.11.04.19.11.37.18.54.05.22.11.43.2.65.33.78,1.16,1.41,2.04,1.37.8-.04,1.49-.44,1.92-1.12.18-.28.25-.63.32-.95.07-.16.13-.33.16-.5.07-.36.15-.74.15-1.11Z"/>
      <path class="cls-7" d="M710.11,498.74c-.44-8.35-1-17.28-4.25-25.09-3.25-7.82-9.29-13.12-16.8-16.79-7.76-3.79-16.06-6.58-24.4-8.77-9.49-2.48-19.18-4.09-28.9-5.31-4.84-.6-9.68-1.09-14.54-1.49-4.92-.41-9.94-1.07-14.86-.66-2.36.2-3.06,3.61-.57,4.29,4.13,1.13,8.45,1.41,12.71,1.92,4.18.5,8.35,1.04,12.51,1.62,8.32,1.16,16.62,2.57,24.79,4.52,8.01,1.91,15.97,4.32,23.55,7.56,6.67,2.85,13.95,6.2,17.73,12.75,3.77,6.53,4.16,14.54,4.59,21.89.54,9.03.37,18.1-.16,27.12-1.06,18-3.77,35.86-6.35,53.69-2.97,20.51-6.34,40.95-9.82,61.39-.38,2.24.62,4.54,2.96,5.18,2.06.56,4.77-.71,5.18-2.96,3.4-18.64,6.38-37.37,9.19-56.12,2.82-18.79,5.66-37.67,7.03-56.63.68-9.36.9-18.74.41-28.11Z"/>
      <path class="cls-7" d="M689.28,507.86c-.11-2.35-.66-4.62-1-6.94-.21-1.4-2.5-1.32-2.76,0-.36,1.88-.96,3.74-1.2,5.64-.26,2.07-.43,4.16-.59,6.24-.31,3.93-.51,7.88-.79,11.82-.58,7.98-1.08,15.96-1.8,23.93-1.42,15.83-3.19,31.63-5.49,47.36-.63,4.33-1.31,8.66-1.98,12.99-.34,2.16-.68,4.33-1.04,6.49-.42,2.54-1.37,5.19.25,7.47.79,1.11,2.39,1.82,3.65.94,1.02-.71,1.89-1.43,2.28-2.67.25-.82.32-1.74.46-2.58.35-2.05.7-4.1,1.04-6.15.66-4,1.27-8,1.84-12.01,1.15-8.12,2.19-16.25,3.11-24.4,1.78-15.88,3.02-31.81,3.77-47.78.21-4.59.31-9.19.38-13.78.03-2.19-.01-4.38-.12-6.56Z"/>
      <path class="cls-7" d="M665.43,579.21c-.63-2.1-3.88-2.24-4.42.02-.62,2.58-.54,5.29-.76,7.93-.2,2.44-.5,4.87-.82,7.3-.69,5.18-1.27,10.37-1.88,15.57-.44,3.76-1.15,7.47-1.86,11.19-.26,1.35-.7,2.81-.74,4.18-.02.54.13,2,.66,2.49.86,1.9,3.13,1.78,4.02.23.08-.06.14-.14.21-.21-.16.49-.05.21.07-.07,1.46-1.58,1.49-4.41,1.85-6.46.75-4.2,1.37-8.4,1.78-12.64.47-4.94,1.02-9.86,1.6-14.79.54-4.64,1.65-10.18.29-14.74Z"/>
      <path class="cls-7" d="M666.42,560.19c-.1-.47-.41-.84-.79-1.12-.32-.36-.74-.62-1.26-.59-.52.02-.93.25-1.25.6-.38.28-.69.66-.79,1.13-.22,1.02-.4,2.05-.39,3.1,0,.62.08,1.22.2,1.83.14.68.25,1.44.83,1.91.41.33.87.61,1.43.59.57-.03.99-.24,1.43-.6.58-.47.68-1.23.82-1.91.12-.61.19-1.21.19-1.84,0-1.05-.18-2.08-.41-3.1Z"/>
      <path class="cls-7" d="M645.09,610.69c-.58-1.13-2.55-1.49-3.38-.42-1.15,1.48-1.41,3.32-1.65,5.14.04-.3-.07.49-.08.57-.06.44-.12.87-.19,1.31-.1.71-.21,1.41-.32,2.12-.23,1.47-.49,2.93-.74,4.4-.13.76-.27,1.52-.41,2.28-.14.76-.35,1.54-.39,2.32-.22,1.22.64,2.51,1.72,2.96,1.19.5,2.92.11,3.51-1.16.69-1.51.86-3.25,1.15-4.87.27-1.52.49-3.05.69-4.58.22-1.67.43-3.34.61-5.02.18-1.65.25-3.52-.52-5.03Z"/>
      <path class="cls-7" d="M539.46,228.7c-.18-4.85-.21-11.18-3.54-15.05-.93-1.08-2.66-.16-2.68,1.12-.04,2.49.65,4.99.92,7.46.27,2.56.34,5.14.36,7.72.03,5.38-.07,10.75-.24,16.13-.18,5.4-.44,10.81-.76,16.2-.16,2.64-.34,5.29-.54,7.93-.2,2.62-1.18,6.05.33,8.39.76,1.17,2.5,1.54,3.53.44,1.96-2.1,1.61-5.48,1.8-8.19.21-2.86.38-5.72.54-8.59.3-5.62.44-11.24.48-16.86.04-5.56.01-11.14-.2-16.7Z"/>
      <path class="cls-7" d="M521.81,260.07c-.16-2.09-.24-4.16-1.15-6.09-.66-1.41-2.61-.81-3.04.41-.66,1.89-.53,3.96-.6,5.93-.07,1.91-.11,3.81-.16,5.72-.06,1.91-.15,3.81-.27,5.71-.13,1.95-.44,3.97-.4,5.93.07,2.86,4.57,3.69,5.17.68.4-2,.42-4.13.5-6.17.08-2.05.13-4.11.14-6.17,0-1.99-.04-3.96-.19-5.94Z"/>
      <path class="cls-7" d="M510.3,270.45c-.08-.27-.12-.56-.18-.84-.03-.16-.07-.32-.11-.48-.03-.12-.08-.2-.13-.3-.02-.1-.04-.2-.07-.29-.18-.78-1.01-1.25-1.76-1.14-.78.11-1.39.78-1.38,1.58,0,.07,0,.13,0,.2-.07.35-.1.71-.13,1.07-.07.39-.22.78-.31,1.17-.11.45-.25.88-.37,1.32-.13.44-.2.9-.33,1.34-.11.38-.16.77-.16,1.17,0,.3,0,.59.09.89.15.45.37.75.67,1.12.46.59,1.58.85,2.27.59.66-.25,1.13-.54,1.51-1.14.08-.12.14-.25.21-.37.25-.48.33-.9.41-1.42.11-.79.2-1.51.13-2.29-.06-.73-.14-1.46-.36-2.16Z"/>
    </g>
    <path class="cls-3" d="M318.53,711.31c60.33,1.18,120.71-1.39,180.79-6.88,56.78-5.18,114.96-10.81,169.99-26.38,14.85-4.2,29.44-9.3,43.6-15.46,10.64-4.63,22.21-10.53,28.28-20.94,5.39-9.25,3.98-20.26-2.48-28.58-8.21-10.57-21.19-14.28-33.69-17.18,1.77-13.11,3.52-26.23,5.31-39.34,2.19-16.05,4.57-32.12,5.26-48.31.55-12.97,1.6-29.25-5.12-40.96-6.29-10.95-20.11-15.34-31.39-19.08-12.14-4.03-24.67-6.63-37.33-8.38.02-.13.04-.26.07-.38.76-.58,1.28-1.49,1.27-2.75.01-1.72.02-3.38,0-5.02.14-.41.24-.84.25-1.33.83-25.65,1.29-51.31,1.72-76.97.17-9.91,2.37-22.45-1.81-31.81-3.8-8.53-12.62-12.07-21-14.63-19.64-5.99-39.81-8.97-60.18-10.24,1.04-.7,1.8-1.83,1.88-3.42.69-13.73,1.37-27.46,2.06-41.18.65-13.07,2.71-27.06-.51-39.92-2.39-9.56-8.22-18.14-17.46-22.11-8.78-3.77-22.45-5.9-32.15-3.7,7.59-15.82,11.32-33.57,10.79-51.05-.35-11.74-5.2-57.02-25.72-45.75-21.2,11.64-41.33,30.22-53.28,51.3-1.44,2.55-2.77,5.21-3.99,7.96-5.49-9.84-20.97-15.43-30.37-16.61-5.7-.71-11.43-.69-17.16-.4-3.55.18-8.12-.26-11.35,1.38-7.15,3.65-2.78,12-.6,17.39,4.11,10.14,7.8,20.91,12.06,31.36-21.59-.13-44.03,3.28-65.16,7.19-22.06,4.09-43.79,10.23-64.26,19.48-16.87,7.62-35.62,17.89-37.19,38.48-.86,11.32,1.55,23.13,2.72,34.38,1.3,12.45,2.59,24.9,3.89,37.35-7.79,1.25-15.58,2.57-23.34,3.98-10.15,1.85-21.9,2.81-30.42,9.2-17.52,13.15-11.01,39.92-8.5,58.15,3.49,25.34,7.99,50.7,15.49,75.19-11.79,1.88-23.82,3.85-34.77,8.56-27.72,11.94-29.72,41.47-26.69,67.85,3.38,29.4,7.36,58.81,11.78,88.1-16.33,2.42-37.53,7.97-41.32,26.42-5.22,25.41,23.78,36.82,43.34,40.01,58.32,9.5,117.64,13.86,176.68,15.02ZM487.04,108.32c3.8-2.94,7.72-5.72,11.73-8.36,1.69-1.11,4.08-3.25,6.05-3.83,4.64-1.36,6.27,3.43,7.57,6.67,3.53,8.78,5.64,18.2,6.37,27.62,1.49,19.26-2.4,39.02-11.39,56.14-9.15,17.44-31.09,45.29-53.59,35.24,1.02-4.94,1.54-10.06,2.7-14.95,1.65-6.96,3.74-13.84,6.25-20.53,5.05-13.45,12.19-26.31,20.03-38.32,1.29-1.98-1.81-4.45-3.34-2.56-9.16,11.35-16.05,23.67-21.38,37.27-3.57,9.11-7.54,20.07-9.11,30.66-16.69-39.83,5.79-80.03,38.1-105.05ZM395.74,159.09c-1.26-3.12-2.53-6.24-3.79-9.37-.64-1.57-4.14-7.47-3.25-9.21,1.48-2.89,17.41-1.44,21-1.15,7.12.58,14.11,2.37,20.09,6.38,4.82,3.23,7.18,7.65,10.51,11.9-2.78,8.53-4.39,17.59-4.51,26.58-1.73-4.05-3.62-7.98-5.58-11.62-5.24-9.73-12.65-18.63-22.57-23.81-1.77-.93-3.07,1.49-1.52,2.63,9.5,7,16.7,13.99,22.13,24.65,4.96,9.74,6.93,19.89,10.54,29.98,1.62,5.25,3.91,10.29,6.99,14.95.07.11.15.18.23.28-14.41,2.07-26.12-9.06-32.74-20.91-7.23-12.95-11.98-27.55-17.54-41.28ZM250.77,227.58c7.93-5.97,17.46-10.11,26.54-13.95,19.08-8.05,39.14-13.58,59.47-17.41,20.68-3.9,41.53-4.82,62.3-7.69,2.85,6.42,6,12.64,9.71,18.43,8.67,13.5,23.32,23.84,39.85,20.44.19.1.38.2.58.29.27.22.57.38.9.46,22.16,10.31,44.11-8.92,56.51-26.15,2.56-3.55,4.88-7.28,6.96-11.13.2.14.42.26.67.33,9.5,2.89,19.86,1.86,29.25,5.65,11.71,4.72,14.7,17.1,14.88,28.57.06,4.24,0,8.49-.1,12.75-10.36,4.43-21.74,1.71-32.3-1.3-10.8-3.08-21.18-5.74-32.5-4.64-22.28,2.15-42.64,12.58-65.18,5.88-9.91-2.94-19.58-7.15-30.1-7.07-9.81.07-19.12,3.65-28.03,7.42-10.04,4.25-20.13,9.06-31.15,9.95-11.35.92-22.64-1.31-33.96-1.57-11.8-.28-22.41,2.51-32.98,7.58-10.65,5.11-20.76,11.3-32.31,14.13-.45-4.87-.83-9.75-1.09-14.62-.6-11.22,3.1-19.61,12.09-26.37ZM556.22,296.37c-26.05-1.22-52.35.14-78.2,1.37-50.93,2.43-101.87,5.07-152.64,9.9-25.1,2.39-50.15,5.32-75.09,9.01-1.65.24-3.29.5-4.94.75-1.61-14.52-3.62-29.11-5.1-43.7,21.27-3.76,37.82-20.37,59.99-20.99,12.17-.34,24.21,2.36,36.38,1.88,10.33-.41,19.82-3.68,29.26-7.67,9.66-4.08,19.59-8.96,30.23-9.61,11.46-.71,21.92,4.48,32.71,7.44,22.42,6.14,42.62-4.28,64.67-6.47,21.59-2.14,43.64,13.35,64.58,6.34-.66,16.24-2.14,32.54-2.98,48.66-.07,1.35.39,2.37,1.11,3.07ZM184,400.07c-1.35-10.14-2.99-20.28-3.92-30.46-.77-8.38-1.2-18.13,3.32-25.61,5.63-9.32,18.39-10.14,28.07-11.93,11.13-2.06,22.29-3.93,33.48-5.65,23.7-3.64,47.5-6.54,71.36-8.94,46.4-4.66,92.97-7.39,139.54-9.7,44.71-2.22,90.49-6.23,134.93,1.11,11.77,1.94,24.37,4.17,35.38,8.9,6.64,2.85,9.78,7.12,10.15,14.37.32,6.17-.12,12.45-.22,18.63-.13,7.58-.26,15.16-.41,22.74-.23.08-.46.19-.7.34-6.9,4.25-14.48,6.77-22.61,7.05-9.67.34-18.16-3.24-26.91-6.86-12.62-5.22-24.99-7.01-38.57-5.3-27.67,3.48-55.48,19.23-83.82,12.99-7.77-1.71-15.08-5.05-22.92-6.51-6.79-1.26-13.7-1.46-20.58-.78-14.18,1.4-27.74,5.92-41.31,10.03-14.03,4.25-28.45,8.3-43.25,7.6-17-.8-33.13-7.4-50.28-7.11-17.61.3-33.22,6.54-48.58,14.62-16.12,8.48-32.08,16.27-50.28,13.76-.66-4.42-1.29-8.84-1.88-13.28ZM186.55,417.78c27.97,6.66,54.99-18.58,81.11-24.52,18.89-4.29,35.99.44,54.52,3.76,14.71,2.64,28.83,1.55,43.27-2.06,14.66-3.67,28.84-9.14,43.65-12.23,7.2-1.5,14.55-2.38,21.91-1.98,9,.49,17.12,3.71,25.67,6.17,28.37,8.14,55.58-4.88,83.09-10.32,8.22-1.63,16.73-2.53,25.09-1.58,9.63,1.1,18.06,5.48,27.01,8.83,14.59,5.48,30.05,4.73,43.67-2.54-.31,16.35-.62,32.7-.84,49.05-.02,1.17.36,2.08.95,2.75-.24,1.95-.47,3.9-.68,5.86-31-3.57-62.48-2.5-93.61-2.04-66.42.98-132.84,3.68-199.03,9.36-33.07,2.84-66.07,6.42-98.96,10.9-15.77,2.15-31.53,4.47-47.23,7.07-4.13-15.33-7.15-30.84-9.58-46.49ZM137.53,555.99c-2.73-22.65-9.54-55.07,12.44-70.69,10.09-7.17,23-9.01,34.92-10.99,15.51-2.58,31.05-5.03,46.62-7.26,31.19-4.46,62.51-8.05,93.88-10.96,62.23-5.77,124.69-8.79,187.16-10.14,29.61-.64,59.31-1.4,88.92-.61,28.95.77,58.38,3.8,85.4,14.86,7.62,3.12,14.97,6.87,17.83,15.14,2.6,7.51,2.46,16.15,2.46,24,0,16.98-2.26,33.85-4.5,50.65-8.7,3.15-18.33-.8-27-2.97-8.06-2.02-16.02-2.62-24.26-1.46-17.79,2.49-33.9,11.07-51.35,14.91-9.47,2.08-18.96,2.16-28.2-.99-9.09-3.1-17.34-8.25-26.48-11.26-17.27-5.69-35.47-2.41-52.58,2.12-18.77,4.96-37.79,11.79-57.51,10.02-20-1.79-38.62-10.68-58.67-12.32-19.19-1.57-36.09,6.11-53.45,13.13-9,3.64-18.36,7.13-28.11,7.97-9.95.86-19.65-1.32-29.12-4.19-20.46-6.2-39.24-13.39-60.68-7.04-21.32,6.31-42.49,22.1-65.44,16.76-.76-6.23-1.52-12.46-2.27-18.68ZM701.61,557.81c-3.48,25.91-7.06,51.82-10.37,77.76-139.06,30.76-282.26,40.29-424.17,27.67-20.42-1.82-40.81-4.08-61.13-6.83-19.31-2.61-38.52-6.2-57.86-8.54-2.18-22.61-4.88-45.17-7.62-67.72,17.04,3.41,33.63-3.88,49.27-10.69,10.55-4.59,21.53-9.13,33.23-9.19,9.94-.05,19.58,2.88,28.94,5.95,18.12,5.96,35.32,11.55,54.46,6.92,18.84-4.56,35.68-15.56,54.99-18.44,21.2-3.16,41.34,6.3,61.66,10.6,19.06,4.03,37.06,1.36,55.64-3.66,19.14-5.18,39.58-12.53,59.59-7.94,18.53,4.26,33,16.91,52.94,15.5,20.01-1.42,37.81-11.74,57.25-15.66,11.52-2.32,21.6-.33,32.78,2.58,6.9,1.8,13.77,3.06,20.41,1.69ZM113.6,645.84c7.71-5.82,17.72-8.14,27.18-9.69.71,4.63,1.43,9.26,2.16,13.88.15.97.81,1.55,1.6,1.78.3.74.88,1.36,1.79,1.58,34.74,8.5,71.27,12.16,106.8,15.82,35.94,3.7,72.03,6.02,108.15,6.8,72.67,1.57,145.45-2.65,217.46-12.55,39.92-5.49,79.58-12.72,118.84-21.8,2.87-.66,3.18-3.65,1.88-5.55,1.56-10.97,3.06-21.96,4.55-32.94,10.3,2.34,21.33,5.18,28.37,13.54,8.7,10.33,4.53,22.12-5.2,29.75-8.95,7.02-20.2,11.12-30.72,15.1-11.46,4.34-23.17,8.03-35.01,11.19-49.4,13.21-101.01,18.44-151.79,23.29-104.46,9.97-210.04,11.27-314.43-.36-15.17-1.69-30.32-3.63-45.42-5.86-12.63-1.87-27.24-3.53-36.79-12.92-9.29-9.13-10.23-22.9.57-31.07ZM150.11,560.55c15.02-4.15,28.59-11.04,43.2-16.18,12.14-4.27,26.35-6.78,37.89.3,1.75,1.07.63,4.08-1.42,3.4-14.25-4.74-27.88-2.22-41.5,3.3-12.11,4.91-24.39,12.17-37.79,11.96-1.59-.02-1.94-2.35-.39-2.78ZM246.61,547.06c2.86.39,5.73.78,8.59,1.18,1.7.23.98,2.81-.7,2.58-2.86-.39-5.73-.78-8.59-1.18-1.7-.23-.98-2.81.7-2.58ZM629.25,533.36c10.07-5.57,21.89-9.07,33.1-4.48,1.95.8,1.94,4.05-.52,3.96-10.75-.41-21.28-1.14-31.5,3.06-1.48.61-2.42-1.79-1.08-2.53ZM678.14,531.83c1.15.17,2.4.16,3.51.5,1.12.35,2.26.98,3.19,1.69.66.5,1.1,1.24.86,2.1-.21.73-.98,1.45-1.79,1.37-1.29-.13-2.58-.4-3.77-.95-1.12-.51-2.07-1.42-3.08-2.12-1.37-.96-.49-2.82,1.08-2.59Z"/>
  </g>
  <g>
    <g>
      <rect class="cls-5" x="270.98" y="592.2" width="285.62" height="58.2"/>
      <path class="cls-5" d="M306.51,624.94h-69.7v1.21h-21.87c-3.02,0-5.47,2.17-5.47,4.85s2.45,4.85,5.47,4.85h4.86c-.47.72-.76,1.54-.76,2.43,0,2.68,2.45,4.85,5.47,4.85h12.3v1.21h-5.47v4.85h5.47v10.91h-1.37c-5.28,0-9.57,3.8-9.57,8.49,0,.41.04.82.11,1.21h-1.13c-1.7,0-3.08,1.22-3.08,2.73v5.27l-3.18.3c-2.25.21-3.88,2-3.64,4l.14,1.18c.24,2,2.26,3.44,4.51,3.23l41.17-3.89.19,1.03,41.83-5.97-.33-1.82h4.05v-50.93Z"/>
      <path class="cls-5" d="M616.73,627.36h-2.73v.37c-.97-.98-2.37-1.6-3.95-1.6h-21.25v-1.19h-67.73v50.13h3.93l-.32,1.79,40.65,5.88.18-1.01,40.01,3.83c1.33.13,2.57-.36,3.4-1.19h3.71v-3.64h-2.59c-.04-1.08-.61-2.06-1.51-2.7v-3.36h-5.12v-2.87c0-1.48-1.34-2.69-2.99-2.69h-1.1c.06-.39.11-.79.11-1.19,0-4-3.12-7.33-7.29-8.15v-3.28h-3.33v-6.14c.21.05.43.08.67.08h3.96c1.55,0,2.8-1.11,2.8-2.49v-2.3c0-1.37-1.25-2.49-2.8-2.49h-3.96c-.23,0-.45.03-.67.08v-.36h11.95c2.85,0,5.16-2.03,5.29-4.56h2.49v-2.6h1.52c2.9,0,5.24-2.09,5.3-4.68h1.38v-3.64Z"/>
      <path class="cls-8" d="M625.71,626.32c-.1-.16-.44-.31-.91-.42-.02-.03-.04-.06-.06-.09-.18-.24-1.96-.85-1.96-.85-.3-.05-.99.21-1.89.73-.12,0-.27-.01-.38-.01l-1.3-.17-3.81.07-2.21-.33-3.68-.03-1.97-.12-1.69-.3-.52-.03s-6.19-.34-8.26-.45c-2.07-.12-14.18-.84-14.18-.84l-.52-.03-1.72.11-1.97-.09-3.67-.36-2.25.11-3.81-.42-1.33.07c-.44-.06-4.28-.29-4.91-.28-.86-.09-1.45-.12-1.91-.1-.01-1.53-.02-2.79-.02-3.28-.04-1.73-.44-6.89-.44-6.89v-1.15s-.11-3.06-.11-3.06l-.44-3.57-.31-7.42c.04-2.83.52-4.13.5-4.22-.22-2-1.02-2.37-3.14-2.2-.32.03-1.85.87-1.85.87-.39.3-.51,1.54-.1,3.53.05.59.1,1.09.17,1.51l-.02,1.26.1.68c-.2-.01-.41-.03-.56-.03-.04,0-2.32.12-3.53.32l-3.19.11-1.54-.18h-1.32s-.5.06-.5.06c0,0-1.28-.14-2.02-.13-.74,0-1.24.17-1.24.17l-.5-.03-1.58-.17-1.54.21-2.4-.09c-1.21-.17-3.39-.09-3.43-.08-.64.2-1.69.31-1.68,1.82,0,.23.32,1.37.32,1.37.11.29,1.66.49,2.53.29.26,0,1.26-.03,1.44-.06l.55.07,1.59-.25.94.15,1.54-.18h.83s.72.14.72.14h.22s.87-.05,1.74-.06c.87,0,2.52.01,2.52.01h.22s.71-.17.71-.17h.83s1.54.13,1.54.13l.93-.17,1.6.22.55-.08c.18.02,3.44.13,3.7.12.13.03.29.02.44.01l-.08,1.62.39,3.54.04,1.08c-.43-.06-.83-.07-1.11-.07-.04,0-2.43.15-3.69.36l-3.34.16-1.62-.16-1.38.03-.52.05s-1.34-.12-2.12-.11c-.78.02-1.3.19-1.3.19l-.52-.03-1.65-.15-1.61.23-2.51-.06c-1.27-.15-3.56-.04-3.59-.03-.67.21-1.76.33-1.74,1.84,0,.23.35,1.37.35,1.37.12.29,1.75.46,2.66.25.27,0,1.32-.04,1.51-.07l.58.06,1.66-.28.98.13,1.61-.2.87-.02.75.14h.23s.91-.07,1.82-.09c.91-.02,2.64-.02,2.64-.02h.23s.74-.18.74-.18l.87-.02,1.62.12.98-.18,1.68.2.57-.09c.19.02,3.61.08,3.88.07.13.02.27,0,.41,0,.04,1.06.15,3.72.23,5.72-.04,0-.09,0-.13,0-.04,0-2.45.1-3.72.28l-3.36.08-1.62-.19h-1.39s-.52.04-.52.04c0,0-1.34-.15-2.13-.15-.78,0-1.31.16-1.31.16l-.52-.04-1.66-.19-1.62.2-2.52-.12c-1.27-.18-3.57-.12-3.61-.11-.68.19-1.78.29-1.8,1.8,0,.23.32,1.37.32,1.37.12.29,1.74.5,2.67.31.27,0,1.33-.02,1.52-.04l.58.08,1.68-.24.99.16,1.62-.16h.87s.75.15.75.15h.23s.92-.04,1.83-.04c.91,0,2.65.03,2.65.03h.23s.75-.16.75-.16h.87s1.62.15,1.62.15l.99-.16,1.68.23.58-.08c.17.02,2.72.12,3.61.15.04,1.91.1,4.83.15,7.34-.02,0-.04,0-.05,0-.02,0-.64.01-1.43.03-.78.02-1.72.06-2.38.14l-3.43-.02-1.64-.25-1.41-.04-.53.02s-1.36-.2-2.16-.22-1.34.12-1.34.12l-.53-.05-1.68-.24-1.66.15-2.56-.2c-.64-.11-1.55-.17-2.3-.2s-1.37-.03-1.37-.03c-.7.17-1.83.23-1.95,1.74-.02.23.23,1.38.23,1.38.1.29,1.75.56,2.7.4.28,0,1.35.03,1.55,0l.59.1,1.73-.18,1,.19,1.66-.11.89.03.76.18h.24s.94.02,1.87.02c.93.04,2.7.12,2.7.12h.24s.78-.13.78-.13l.89.03,1.65.21,1.01-.13,1.7.29.59-.06c.17.01,2.85.2,3.72.27.01.73.02,1.17.02,1.17v.51s.26,1.65.26,1.65l.04,1.91-.11,2.36c-.51-.11-1.01-.18-1.34-.19-.02,0-.62.01-1.36.03-.75.02-1.65.06-2.28.13l-3.29-.05-1.58-.26-1.36-.06-.51.02s-1.31-.21-2.08-.24c-.77-.03-1.29.1-1.29.1l-.51-.06-1.62-.25-1.6.14-2.48-.21c-.62-.11-1.5-.17-2.24-.2-.73-.03-1.33-.02-1.33-.02-.68.17-1.8.27-1.81,1.77,0,.23.3,1.38.3,1.38.11.29,1.66.52,2.57.36.26,0,1.29.02,1.48,0l.56.1,1.65-.18.96.19,1.6-.1.85.03.73.19h.23s.9.03,1.8.04c.89.05,2.6.14,2.6.14h.23s.75-.12.75-.12l.85.03,1.58.22.98-.12,1.64.3.57-.06c.19.04,3.56.28,3.84.29.35.08.76.05,1.15-.01v.02s-.28,3.69-.28,3.69l.12,1.27c0,.18-.04.95-.07,1.82-4.07-.71-11.19-.4-18.04-.39-.38,0-6.8.12-19.27.35l-32.88.11-15.88-.24h-13.6s-5.11.06-5.11.06c0,0-48.53-.17-56.2-.17-7.67,0-30.61.21-30.61.21l-5.11-.05h-13.6s-15.88.26-15.88.26l-32.88-.08c-12.47-.22-17.96-.74-18.34-.74-2.57,0-4.53.06-6.05.2-.08-.65-.24-1.94-.48-3.91l-.06-1.15c.24-.01.46-.03.54-.05l.54.06,1.54-.29.92.12,1.49-.21.8-.03.7.13h.21s.85-.08,1.69-.11c.84-.03,2.45-.05,2.45-.05h.21s.69-.19.69-.19l.8-.03,1.51.1.9-.19,1.56.18.53-.1c.18.02,3.36.04,3.61.03.8.14,1.93-.34,2.18-.36.63-.06.56-1.73.43-1.98-.57-1.06-2.44-1.21-3.26-1.18-.04,0-2.26.18-3.43.4l-3.1.19-1.51-.14-1.28.05-.48.06s-1.25-.11-1.97-.08c-.72.03-1.2.2-1.2.2l-.48-.02-1.54-.13-1.49.25-2.34-.03c-.4-.05-.9-.06-1.4-.06l-.14-2.9.15-3.63v-.33c.33-.02.68-.04.78-.06l.55.06,1.58-.29.94.13,1.53-.21.82-.03.72.13h.22s.87-.08,1.73-.11c.86-.03,2.51-.05,2.51-.05h.22s.7-.19.7-.19l.82-.03,1.54.11.92-.19,1.6.18.54-.1c.18.02,3.43.05,3.69.04.82.14,1.98-.34,2.23-.36.65-.06.58-1.73.45-1.98-.57-1.06-2.49-1.21-3.32-1.18-.04,0-2.31.17-3.51.4l-3.17.19-1.54-.14-1.31.04-.49.06s-1.28-.11-2.02-.09c-.74.03-1.23.2-1.23.2l-.5-.02-1.57-.14-1.53.25-2.39-.04c-.47-.06-1.09-.07-1.67-.06l-.04-.47s-.05-3.04-.11-6.2c.39-.02.93-.04,1.06-.07l.54.06,1.55-.28.92.13,1.5-.2.81-.02.7.14h.21s.85-.07,1.7-.09,2.46-.03,2.46-.03h.21s.69-.18.69-.18l.81-.02,1.51.12.91-.18,1.57.19.53-.09c.18.02,3.37.07,3.62.07.8.15,1.94-.32,2.19-.34.64-.05.58-1.73.45-1.98-.56-1.06-2.43-1.23-3.25-1.21-.04,0-2.27.15-3.44.37l-3.11.16-1.51-.16-1.29.04-.48.05s-1.25-.12-1.98-.1c-.73.02-1.21.19-1.21.19l-.49-.03-1.54-.15-1.5.24-2.35-.06c-.52-.07-1.22-.08-1.85-.07-.03-1.48-.05-2.68-.05-3.16-.03-.75-.11-2.14-.21-3.48.31.02.62.02.87-.03.23,0,1.14.02,1.31,0l.5.09,1.45-.2.84.17,1.4-.13h.75s.64.18.64.18h.2s.79-.01,1.57-.02c.78.02,2.28.05,2.28.05h.2s.65-.16.65-.16h.75s1.4.15,1.4.15l.85-.16,1.45.22.5-.08c.17.03,3.14.1,3.38.08.75.14,1.82-.34,2.06-.37.6-.07.47-1.74.34-1.99-.56-1.05-2.24-1.19-2.99-1.17-.02,0-.53.05-1.18.1-.65.06-1.42.15-1.96.24l-2.85.11-1.38-.19h-1.18s-.44.04-.44.04c0,0-1.14-.16-1.81-.17-.67,0-1.12.15-1.12.15l-.44-.04-1.41-.21-1.39.17-2.14-.16c-.54-.1-1.3-.16-1.92-.18-.63-.03-1.14-.02-1.14-.02-.08.02-.16.04-.25.07,0-.01,0-.04,0-.04v-1.17s-.09-3.11-.09-3.11l-.21-1.86c.5.08,1.13.09,1.57-.03.23,0,1.15-.04,1.31-.07l.5.06,1.44-.27.86.13,1.4-.19.75-.02.66.14h.2s.79-.07,1.58-.09c.79-.02,2.29-.02,2.29-.02h.2s.65-.18.65-.18l.75-.02,1.41.12.85-.18,1.46.2.5-.09c.17.02,3.14.08,3.37.07.74.15,1.81-.32,2.04-.34.59-.05.54-1.72.42-1.98-.52-1.06-2.27-1.24-3.03-1.22-.03,0-2.11.15-3.21.36l-2.9.16-1.41-.16-1.2.03-.45.05s-1.17-.13-1.85-.11c-.68.02-1.13.19-1.13.19l-.45-.03-1.44-.15-1.4.23-2.19-.06c-1.11-.15-3.09-.04-3.12-.03-.2.07-.44.13-.66.24l-.12-6.04c.07-1.18.2-2.08.33-2.75,2.65.26,7.15.45,13.18.39,2.59.02,4.81.03,6.67.04l5.55.17,16.12-.13,9.45.28,15.56-.09,8.34.05,7.22.24h2.22s26.25.09,35,.11c8.75.03,60.08.21,60.08.21h2.22s7.22-.18,7.22-.18h8.34s15.55.23,15.55.23l9.45-.19,16.1.31,5.55-.09c1.86.02,17.97.19,20.55.22,8.2.21,16.55.17,18.26-.03,9.56-1.1,3.29-3.28,2.73-3.64-2.7-1.72-17.47-.76-25.98-.77-.37,0-6.67.12-18.88.33l-32.22.06-15.56-.27-13.32-.02-5.01.04s-47.55-.3-55.07-.35c-7.52.02-29.99.07-29.99.07l-5.01-.08-13.32-.07-15.56.14-32.2-.4c-12.21-.37-17.55-1.05-17.92-1.05-8.46-.19-10.28.3-10.68,2.21-.02.07.15.22.41.4-.07.62-.05,1.43.12,2.43.02.6.06,1.12.11,1.55l-.07,1.29.46,3.73-.15,2.2.35,3.61.07,1.94-.16,1.69.02.52s.25,6.1.34,8.14c.02.66.07,2.36.13,4.35-.98-.32-2.37-.13-3.66-.09-.09,0-1.61.13-4.51.46l-7.66.46-3.71-.03-3.16.2-1.18.13s-2.82.15-5.86.32c-3.04.19-6.3.4-7.19.46-1.78.14-7.07.79-7.07.79l-1.19.05-3.15.28-3.65.58-7.62.63c-2.91.06-4.25-.33-4.34-.32-2.01.21-2.37.93-2.16,2.81.03.29.94,1.63.94,1.63.19.21.83.31,1.74.27-.03.44-.04.86-.04.86.08.47,1.39,1.49,3.8,2.68.66.41,1.23.76,1.73,1.04l1.34.99c1.42.81,2.83,1.64,4.22,2.5l2.2,1.8,3.95,2.61,2.04,1.5,1.62,1.46.54.4s1.62,1.18,3.52,2.57c1.97,1.4,4.03,2.91,5.76,3.75.04.03.12.04.18.07-.31.4-.65.83-1.03,1.27-.77.95-1.33,1.79-1.94,2.64-2.32,3.36-4.46,6.46-4.46,6.46l-.37.53-1.01,1.83-1.4,1.99-2.85,3.57-1.46,2.32c-1.03,1.2-2.09,2.37-3.15,3.53l-.93,1.31c-.36.42-3.55,3.87-4.09,4.37-1.68,1.51-2.26,2.09-2.41,2.61-.91.31-1.24,1.01-1.41,2.21-.05.29.82,1.76.82,1.76.32.34,2.25.82,5.15.56.85,0,1.58,0,2.19-.04.61.04,1.22.07,1.82.08l5.24-.43,3.08.06c1.68-.14,3.36-.28,5.03-.46l2.7-.17,2.35.04.72-.05s8.47-.72,11.29-.96c1.41-.13,6.25-.59,10.73-1.02,4.48-.49,8.6-.94,8.6-.94l.71-.08,2.29-.47,2.68-.34,5.02-.46,2.99-.63c1.74-.14,3.48-.32,5.22-.5l1.76-.38c.61-.07,5.81-.81,6.67-1.07,1.47-.19,2.45-.42,3.11-.65.18-.04.35-.08.53-.12.08-.03,1.49-.35,4.13-1.42,1.19-.42,2.38-.89,3.54-1.6,1.1-.68,2.43-1.61,2.96-3.4.56-.31.29-.81.29-1.28,0-.03-.14-.51-.39-1.45l-.13-2.46.26-1.19-.02-1.01-.06-.38s.14-3.61.16-4.18c0-.57-.25-2.27-.25-2.27l.05-.38v-1s-.28-1.17-.28-1.17l.14-2.41c.29-.9.9-1.28.9-1.28,0-.11-.04-.19-.09-.27l5.9-.11,9.64.19,15.87-.2h8.51s7.37.19,7.37.19h2.26s26.78-.06,35.71-.07c8.93,0,61.31.02,61.31.02h2.26s7.37-.2,7.37-.2h8.51s15.87.18,15.87.18l9.64-.2,16.43.29,2.08-.04c-.09.19-.1.46.05.79,0,.19.03.35.07.48l-.1.41.35,1.19-.22.71.22,1.17v.63s-.23.54-.23.54v.17s.02,1.98.03,2.64c-.02.66-.12,4.55-.12,4.55v.17s.21.55.21.55v.63s-.25,1.18-.25,1.18l.21.72-.34,1.23.11.43c-.04.14-.23,1.38-.23,1.58-.22.61-.15.84.14.97.11.52.29,1.03.57,1.46.69.84,1.45,1.36,2.19,1.77,1.13.89,2.31,1.44,3.49,2,.44.14.87.21,1.3.31.41.24,4.02,1.22,4.61,1.29,1.36.4,2.07.49,2.53.43.41.18.88.26,1.39.26,1.06.07,2.31-.1,3.55-.1.12.02,1.95-.13,5.6-.22,3.2.07,6.41.22,9.62.38l4.63.54,3.98.29,1.5.06s14.18,1.36,16.43,1.57c2.25.16,8.98.63,8.98.63l1.49.19,3.98.39,4.67.22,9.59,1.1c3.61.62,5.14,1.32,5.25,1.33,2.5.28,3.17-.31,3.51-2.13.35-.25.61-.48.66-.6.81-1.76-1.6-3.34-3.44-5.24-.09-.08-1.52-1.43-4.31-4.05-2.28-2.44-4.5-4.93-6.7-7.44l-2.89-3.84-2.64-3.18-1.04-1.17s-1.47-1.81-3.27-4.04c-.89-1.12-2.15-2.41-2.89-3.33.39-.14.72-.29.92-.42.43-.24.77-.45,1.04-.62.53-.35.88-.58,1.1-.73,1.85-1.25,6.31-4.93,7.37-5.81.18-.01.33-.15.44-.34l1.09-.8,3.34-2.63,3.71-3.25c2.72-2.08,5.45-4.14,8.21-6.15,1.89-1.23,3.25-1.91,4.11-2.3.62.18.93.32.98.32,2.01.11,2.51-.54,2.68-2.43.03-.29-.59-1.75-.59-1.75ZM302.08,675.39c-.3.16-.66.28-.99.42-.29.12-2.99.58-3.88.71-.1,0-.21.02-.31.04-1.58.09-2.18.2-2.48.51-.55.14-1.11.3-1.68.42-.13,0-2.02.54-5.81,1.39-3.37.6-6.77,1.11-10.17,1.61l-4.99.4-4.24.51-1.59.24s-3.8.37-7.9.77c-4.1.35-8.51.73-9.71.84-2.4.24-9.58.98-9.58.98l-1.61.07-4.27.28c-1.65.18-3.31.39-4.97.53-3.44.15-6.88.23-10.31.26-.63-.04-1.17-.08-1.69-.13.4-.46.8-.94,1.2-1.39.03-.04.34-.44.92-1.19.5-.63,1.15-1.54,1.97-2.68.65.08,1.6.06,2.23-.1.29-.02,1.44-.11,1.65-.15l.64.04,1.82-.36,1.08.08,1.76-.28.95-.06.83.1.25-.02s1-.09,2-.17c1-.05,2.89-.16,2.89-.16l.25-.02.81-.21.95-.06,1.78.04,1.07-.23,1.84.11.63-.12c.21,0,3.96-.11,4.25-.12.94.1,2.28-.42,2.58-.46.75-.08.69-1.76.54-2.01-.65-1.04-2.86-1.11-3.83-1.04-.02,0-.69.08-1.53.17-.84.1-1.84.24-2.53.38l-3.67.33-1.78-.08-1.52.1-.57.08s-1.48-.06-2.34,0c-.86.06-1.42.25-1.42.25h-.57s-1.82-.07-1.82-.07l-1.76.32-2.77.07c-.55-.03-1.25-.02-1.92.01,1.17-1.56,2.33-3.12,3.45-4.7l1.2-1.48c.35,0,.69-.04.97-.12.26-.01,1.26-.08,1.44-.12l.55.05,1.58-.32.95.1,1.53-.24.83-.05.73.12h.22s.87-.1,1.74-.15c.87-.05,2.52-.1,2.52-.1h.22s.7-.21.7-.21l.83-.05,1.55.07.92-.21,1.61.15.54-.11c.19.02,3.45-.03,3.71-.04.82.12,1.98-.38,2.24-.41.65-.07.54-1.74.39-1.99-.61-1.05-2.53-1.16-3.37-1.11-.04,0-2.32.22-3.51.47l-3.18.26-1.55-.11-1.32.07-.49.07s-1.29-.09-2.03-.04-1.23.23-1.23.23h-.5s-1.59-.11-1.59-.11l-1.53.28h-2.4c-.08,0-.18,0-.27,0l1.2-1.71.79-1.24s.93-1.32,2.21-3.12c0,0,.02,0,.03,0,.18-.03.9-.13,1.03-.17l.41.03,1.12-.37.7.08,1.09-.28.6-.06.54.1.16-.02s.63-.1,1.26-.16c.63-.04,1.83-.12,1.83-.12h.16s.5-.21.5-.21l.6-.05,1.13.08.67-.2,1.18.16.39-.1c.14,0,2.51.03,2.7.03.6.14,1.44-.32,1.63-.34.47-.05.41-1.72.31-1.98-.43-1.07-1.87-1.23-2.49-1.2-.01,0-.44.05-.98.12-.54.07-1.18.18-1.63.29l-2.36.23-1.16-.11-.98.08-.36.07s-.96-.07-1.51-.02c-.55.05-.9.24-.9.24h-.37s-1.19-.07-1.19-.07l-1.11.32-.37.02.19-.25c.25-.31.5-.63.84-1.02.63-.76,1.24-1.48,1.79-2.43.14-.25.27-.53.38-.88.06-.18.1-.43.13-.63,0-.31.02-.55-.09-.91-.18-.73-.89-1.38-1.41-1.61-.51-.25-.93-.33-1.21-.37-.4-.06-.41-.05-.49-.06-.1,0-.09-.01-.12-.02-.05-.02-.06-.01-.14-.06-.61-.26-2.63-1.56-4.22-2.67-.22-.15-.44-.3-.65-.45l.28-.06.84.13,1.38-.2.74-.02.65.15h.2s.78-.06,1.56-.06c.78,0,2.27.02,2.27.02h.2s.64-.16.64-.16h.74s1.39.17,1.39.17l.84-.15,1.43.25.5-.07c.17.01,3.09.23,3.31.24.72.19,1.79-.2,2.02-.2.58,0,.7-1.68.6-1.94-.41-1.1-2.17-1.39-2.94-1.41-.02,0-.55.02-1.22.04-.67.03-1.47.08-2.02.17l-2.91.05-1.41-.2h-1.2s-.45.04-.45.04c0,0-1.17-.15-1.85-.14-.68,0-1.13.17-1.13.17l-.45-.03-1.44-.16-1.41.23-2.21-.04c-.56-.07-1.35-.06-2-.02-.65.03-1.19.1-1.19.1,0,0-.02,0-.02,0l-2.58-1.92-4.02-2.62c-.44-.33-.91-.63-1.35-.96l.6.04,2.08-.34,1.24.1,2.01-.26,1.08-.06.95.11h.29s1.14-.09,2.28-.17c1.14-.04,3.3-.13,3.3-.13h.29s.93-.22.93-.22l1.08-.05,2.02.06,1.21-.21,2.09.15.71-.11c.24,0,4.48.03,4.82.03,1.05.15,2.57-.29,2.9-.29.83-.03.89-1.7.73-1.96-.67-1.09-3.26-1.31-4.37-1.28-.02,0-.79.05-1.76.11-.96.07-2.11.18-2.9.3l-4.2.25-2.04-.1-1.73.09-.65.07s-1.68-.07-2.66-.02c-.98.05-1.62.24-1.62.24h-.65s-2.07-.09-2.07-.09l-2.01.3-3.14.04c-.8-.05-1.91-.03-2.82,0-.91.05-1.64.08-1.66.08-.22.06-.48.11-.74.19-.79-.55-1.54-1.12-2.34-1.66-1.53-1.13-2.59-2.01-3.28-2.62l2.94-.52h2.24s3.63-.54,3.63-.54l1.96-.18,1.72.05.52-.04s6.17-.56,8.23-.74c1.03-.08,4.57-.34,7.85-.58,3.28-.22,6.3-.42,6.3-.42l.52-.04,1.68-.3,1.96-.12h3.67s2.21-.33,2.21-.33l3.8.13,1.29-.14c.44,0,4.2.09,4.8.1,1.4.14,2.11.16,2.55.04.09,2.84.16,5.26.16,5.26l.02.52.28,1.68.07,1.94-.1,3.62.3,2.2-.2,3.74.15,1.29c-.02.43-.09,4.18-.07,4.78-.13,1.43-.1,2.17.06,2.61-.09.43-.11,1.7-.11,1.7.05.41.99,1.05,2.83,1.57.5.21.94.38,1.32.51l1.03.56,3.28,1.12,1.73,1.01,3.12,1.21,1.61.75,1.29.82.43.2s5.08,2.37,6.78,3.15c.84.41,3.71,1.81,6.38,3.11,2.65,1.32,5.09,2.55,5.09,2.55l.42.21,1.29.46c.12.07.22.15.33.23-.05.32-.09.63-.09.72-.2.5-.18.72,0,.86-.08.09-.14.17-.24.25-.73.4-1.74.68-2.72.94ZM305.12,654.21c0,.2,0,.38.03.53l-.12.43.31,1.25-.23.73.22,1.19v.64s-.22.55-.22.55v.17s.06,2,.08,2.67c0,.66.01,4.56.01,4.56v.17s.23.54.23.54v.63s0,0,0,0l-.13-.07-.99-.44s-2.26-1.17-4.7-2.43c-2.45-1.23-5.09-2.56-5.81-2.92-1.45-.7-5.92-2.59-5.92-2.59l-.95-.5-2.59-1.21-3.17-1.18-6.29-2.92c-.26-.14-.5-.28-.72-.41,2.72.16,7.2.23,13.14.07,2.64,0,4.9-.02,6.8-.05l5.66.09,5.28-.1c-.03.17-.02.36.05.58ZM543.61,653.71c4.85.12,7.85.14,9.88.09l-2.95,1.63-1.96.66-2.94,1.57-1.63.75-1.51.48-.43.2s-5.07,2.44-6.76,3.26c-.85.41-3.75,1.8-6.45,3.09-2.69,1.32-5.16,2.53-5.16,2.53l-.09.04.02-.08.02-1.01-.05-.38s.28-3.6.28-4.18c0-.57-.2-2.29-.2-2.29l.06-.38v-1.02s-.27-1.19-.27-1.19l.08-2.48c.23-.96.8-1.41.79-1.44,0-.01-.01-.02-.01-.03,4.73.05,17.02.17,19.28.17ZM611.17,633.21l-.76.51c-1.04-.39-2.37-.52-3.11-.55-.02,0-.81,0-1.79.02-.98.02-2.16.05-2.98.12l-4.31-.04-2.07-.25-1.78-.05-.67.02s-1.72-.2-2.72-.22c-1.01-.02-1.69.12-1.69.12l-.67-.05-2.12-.23-2.09.16-3.25-.16c-.82-.09-1.97-.14-2.93-.14-.96,0-1.75.03-1.75.03-.87.19-2.37.36-2.27,1.87.02.23.49,1.36.49,1.36.15.27,2.16.43,3.34.25.34,0,1.68-.02,1.93-.04l.74.08,2.14-.22,1.25.17,2.07-.12,1.11.02.96.18h.3s1.18.01,2.34.02c1.17.04,3.39.12,3.39.12h.3s.97-.13.97-.13l1.11.03,2.07.21,1.27-.12,2.14.3.74-.06c.17.01,2.3.14,3.73.23l-1.73,1.47-2.09,1.65-1.96,1.28-.55.44s-.37.3-.96.76c-.1,0-.19-.02-.27-.02-.02,0-.65,0-1.43,0-.78.01-1.73.05-2.38.12h-3.42s-1.64-.25-1.64-.25l-1.41-.03-.53.03s-1.36-.18-2.15-.19c-.79-.01-1.33.14-1.33.14l-.53-.05-1.67-.22-1.64.17-2.54-.17c-.64-.1-1.53-.16-2.28-.18-.74-.03-1.34-.03-1.34-.03-.69.17-1.78.21-1.9,1.73-.02.23.24,1.38.24,1.38.1.3,1.76.58,2.71.41.28,0,1.35.02,1.55,0l.59.09,1.71-.2,1,.17,1.65-.13h.88s.76.18.76.18h.23s.93,0,1.85,0c.92.03,2.68.08,2.68.08h.23s.76-.14.76-.14l.88.02,1.63.19,1-.13,1.68.29.31-.03c-1.44,1.11-2.84,2.17-3.66,2.72-.21.14-.51.34-.97.65-.23.15-.48.3-.76.46-.27.14-.19.11-.32.13-.39.06-1.15,0-2.26.75-.56.4-.99,1.12-1.07,1.7-.07.44-.03.77.03,1.06l-1.56-.07-1.14-.27-.99-.05-.37.02s-.95-.2-1.51-.22c-.56-.02-.94.13-.94.13l-.37-.05-1.18-.21-1.16.19-1.8-.1c-.46-.08-1.1-.1-1.62-.09-.53.01-.96.05-.96.05-.47.21-1.25.35-1.16,1.86.01.23.31,1.36.31,1.36.1.28,1.22.44,1.84.24.18,0,.91-.04,1.04-.07l.4.07,1.15-.25.68.15,1.11-.16h.6s.51.17.51.17h.16s.63-.02,1.26,0c.63.02,1.81.11,1.81.11h.16s.53-.12.53-.12l.6.04,1.1.23.69-.11,1.12.33.4-.04c.07.01.71.12,1.35.23.49.55.98,1.07,1.37,1.51.53.62,1.06,1.25,1.57,1.84.71.86,1.37,1.67,1.94,2.35-.72.03-1.51.06-2.08.13h-3.51s-1.69-.21-1.69-.21l-1.45-.02-.54.03s-1.4-.18-2.21-.19c-.82-.01-1.36.14-1.36.14l-.54-.05-1.72-.21-1.69.17-2.61-.17c-.66-.1-1.58-.16-2.34-.18-.76-.02-1.36-.03-1.38-.03-.71.17-1.82.21-1.95,1.72-.02.23.23,1.39.23,1.39.1.3,1.82.59,2.8.42.28,0,1.39.02,1.59,0l.6.09,1.76-.2,1.02.17,1.69-.13h.91s.78.18.78.18h.24s.96,0,1.91-.01c.95.03,2.75.08,2.75.08h.24s.78-.14.78-.14h.9s1.68.2,1.68.2l1.03-.14,1.73.27.6-.07c.2.01,3.73.26,4.01.28.27.06.58.06.89.04l.7.7,1.67,2,2.97,3.83h.01c-.24.01-.51,0-.79,0-1.01,0-2.21,0-3.05.05l-4.4-.15-2.11-.31-1.82-.1h-.69s-1.75-.25-2.77-.3c-1.03-.05-1.72.07-1.72.07l-.68-.07-2.16-.3-2.14.08-3.29-.29c-.83-.14-1.99-.23-2.96-.29-.97-.04-1.73-.08-1.76-.08-.9.14-2.35.16-2.48,1.67-.02.23.31,1.39.31,1.39.13.3,2.25.62,3.47.5.35.02,1.74.08,1.99.07l.75.12,2.22-.12,1.28.23,2.13-.04,1.14.06.98.21.3.02s1.21.04,2.4.09c1.19.08,3.47.22,3.47.22l.3.02,1-.11,1.14.06,2.11.27,1.3-.09,2.19.35.76-.04c.26.02,4.74.4,5.09.43.54.11,1.2.08,1.78.03l1.93,2.45,1.27,1.23c.26.33,2.09,2.43,3.31,3.78-.27-.02-.54-.04-.78-.05l-1.65-.28-4.85-.22-2.8-.49-4.68-.28-2.5-.24-2.14-.41-.66-.06s-7.86-.7-10.49-.93c-1.31-.12-5.81-.52-9.99-.89-4.18-.34-8.03-.65-8.03-.65l-.67-.05-2.19.04-2.51-.17-4.67-.49-2.87.04c-1.61-.19-3.23-.37-4.86-.52l-1.69.04c-.56-.07-5.47-.34-6.31-.28-1.24-.09-2.13-.09-2.77-.02-.79-.48-2.03-.45-3.18-.69-.04,0-.38-.05-1.02-.13-.65-.08-1.59-.22-2.79-.48-1.01-.32-1.99-.69-2.78-1.15-.39-.2-.72-.44-.96-.66.57-.31.28-.78.28-1.24,0-.01-.03-.1-.07-.24.04-.03.07-.05.12-.08.2-.19.54-.36.84-.54l1.23-.63.92-.52s9.2-4.29,10.66-4.97c1.44-.7,5.68-2.92,5.68-2.92l.99-.41,2.58-1.2,2.89-1.61,6.32-2.72c1.25-.42,2.2-.6,2.84-.7.64-.09.98-.08,1.01-.09.84-.34,1.25-.7,1.36-1.21.5-.95.24-2.37.22-3.74,0-.09-.15-1.53-.43-4.34l-.21-7.4.22-3.58-.06-3.06-.08-1.15s-.02-2.23-.04-4.83c.88.12,1.95-.02,3.03,0,.09,0,1.56-.09,4.42-.27l7.57.17,3.65.41,3.13.15h1.18s11.18.81,12.95.93c1.77.1,7.08.23,7.08.23l1.18.12,3.14.19,3.69-.02,4.15.3-.9.59-3.91,3.36Z"/>
    </g>
    <text class="cls-11" transform="translate(315.91 632.12)"><tspan x="0" y="0">H</tspan><tspan class="cls-13" x="22.85" y="0">a</tspan><tspan x="38.36" y="0">ppy Bi</tspan><tspan class="cls-10" x="117.81" y="0">r</tspan><tspan class="cls-9" x="127.05" y="0">t</tspan><tspan x="137.61" y="0">h</tspan><tspan class="cls-14" x="151.1" y="0">d</tspan><tspan class="cls-12" x="165.29" y="0">a</tspan><tspan x="180.42" y="0">y</tspan></text>
  </g>
</svg>