<?xml version="1.0" encoding="UTF-8"?>
<svg id="Layer_8" data-name="Layer 8" xmlns="http://www.w3.org/2000/svg" viewBox="0 0 477 390">
  <defs>
    <style>
      .cls-1 {
        letter-spacing: -.02em;
      }

      .cls-2 {
        letter-spacing: -.06em;
      }

      .cls-3 {
        fill: #000;
        font-family: Noteworthy-Light, Noteworthy;
        font-size: 33px;
        font-weight: 300;
      }

      .cls-4 {
        letter-spacing: 0em;
      }

      .cls-5 {
        fill: #f7e8da;
      }

      .cls-5, .cls-6 {
        stroke-width: 0px;
      }

      .cls-6 {
        fill: #231f20;
      }

      .cls-7 {
        letter-spacing: .02em;
      }

      .cls-8 {
        letter-spacing: -.03em;
      }
    </style>
  </defs>
  <g>
    <rect class="cls-5" x="89.68" y="151.85" width="285.62" height="58.2"/>
    <path class="cls-5" d="M125.21,184.59H55.52v1.21h-21.87c-3.02,0-5.47,2.17-5.47,4.85s2.45,4.85,5.47,4.85h4.86c-.47.72-.76,1.54-.76,2.43,0,2.68,2.45,4.85,5.47,4.85h12.3v1.21h-5.47v4.85h5.47v10.91h-1.37c-5.28,0-9.57,3.8-9.57,8.49,0,.41.04.82.11,1.21h-1.13c-1.7,0-3.08,1.22-3.08,2.73v5.27l-3.18.3c-2.25.21-3.88,2-3.64,4l.14,1.18c.24,2,2.26,3.44,4.51,3.23l41.17-3.89.19,1.03,41.83-5.97-.33-1.82h4.05v-50.93Z"/>
    <path class="cls-5" d="M435.43,187.01h-2.73v.37c-.97-.98-2.37-1.6-3.95-1.6h-21.25v-1.19h-67.73v50.13h3.93l-.32,1.79,40.65,5.88.18-1.01,40.01,3.83c1.33.13,2.57-.36,3.4-1.19h3.71v-3.64h-2.59c-.04-1.08-.61-2.06-1.51-2.7v-3.36h-5.12v-2.87c0-1.48-1.34-2.69-2.99-2.69h-1.1c.06-.39.11-.79.11-1.19,0-4-3.12-7.33-7.29-8.15v-3.28h-3.33v-6.14c.21.05.43.08.67.08h3.96c1.55,0,2.8-1.11,2.8-2.49v-2.3c0-1.37-1.25-2.49-2.8-2.49h-3.96c-.23,0-.45.03-.67.08v-.36h11.95c2.85,0,5.16-2.03,5.29-4.56h2.49v-2.6h1.52c2.9,0,5.24-2.09,5.3-4.68h1.38v-3.64Z"/>
    <path class="cls-6" d="M444.41,185.97c-.1-.16-.44-.31-.91-.42-.02-.03-.04-.06-.06-.09-.18-.24-1.96-.85-1.96-.85-.3-.05-.99.21-1.89.73-.12,0-.27-.01-.38-.01l-1.3-.17-3.81.07-2.21-.33-3.68-.03-1.97-.12-1.69-.3-.52-.03s-6.19-.34-8.26-.45c-2.07-.12-14.18-.84-14.18-.84l-.52-.03-1.72.11-1.97-.09-3.67-.36-2.25.11-3.81-.42-1.33.07c-.44-.06-4.28-.29-4.91-.28-.86-.09-1.45-.12-1.91-.1-.01-1.53-.02-2.79-.02-3.28-.04-1.73-.44-6.89-.44-6.89v-1.15s-.11-3.06-.11-3.06l-.44-3.57-.31-7.42c.04-2.83.52-4.13.5-4.22-.22-2-1.02-2.37-3.14-2.2-.32.03-1.85.87-1.85.87-.39.3-.51,1.54-.1,3.53.05.59.1,1.09.17,1.51l-.02,1.26.1.68c-.2-.01-.41-.03-.56-.03-.04,0-2.32.12-3.53.32l-3.19.11-1.54-.18h-1.32s-.5.06-.5.06c0,0-1.28-.14-2.02-.13-.74,0-1.24.17-1.24.17l-.5-.03-1.58-.17-1.54.21-2.4-.09c-1.21-.17-3.39-.09-3.43-.08-.64.2-1.69.31-1.68,1.82,0,.23.32,1.37.32,1.37.11.29,1.66.49,2.53.29.26,0,1.26-.03,1.44-.06l.55.07,1.59-.25.94.15,1.54-.18h.83s.72.14.72.14h.22s.87-.05,1.74-.06c.87,0,2.52.01,2.52.01h.22s.71-.17.71-.17h.83s1.54.13,1.54.13l.93-.17,1.6.22.55-.08c.18.02,3.44.13,3.7.12.13.03.29.02.44.01l-.08,1.62.39,3.54.04,1.08c-.43-.06-.83-.07-1.11-.07-.04,0-2.43.15-3.69.36l-3.34.16-1.62-.16-1.38.03-.52.05s-1.34-.12-2.12-.11c-.78.02-1.3.19-1.3.19l-.52-.03-1.65-.15-1.61.23-2.51-.06c-1.27-.15-3.56-.04-3.59-.03-.67.21-1.76.33-1.74,1.84,0,.23.35,1.37.35,1.37.12.29,1.75.46,2.66.25.27,0,1.32-.04,1.51-.07l.58.06,1.66-.28.98.13,1.61-.2.87-.02.75.14h.23s.91-.07,1.82-.09c.91-.02,2.64-.02,2.64-.02h.23s.74-.18.74-.18l.87-.02,1.62.12.98-.18,1.68.2.57-.09c.19.02,3.61.08,3.88.07.13.02.27,0,.41,0,.04,1.06.15,3.72.23,5.72-.04,0-.09,0-.13,0-.04,0-2.45.1-3.72.28l-3.36.08-1.62-.19h-1.39s-.52.04-.52.04c0,0-1.34-.15-2.13-.15-.78,0-1.31.16-1.31.16l-.52-.04-1.66-.19-1.62.2-2.52-.12c-1.27-.18-3.57-.12-3.61-.11-.68.19-1.78.29-1.8,1.8,0,.23.32,1.37.32,1.37.12.29,1.74.5,2.67.31.27,0,1.33-.02,1.52-.04l.58.08,1.68-.24.99.16,1.62-.16h.87s.75.15.75.15h.23s.92-.04,1.83-.04c.91,0,2.65.03,2.65.03h.23s.75-.16.75-.16h.87s1.62.15,1.62.15l.99-.16,1.68.23.58-.08c.17.02,2.72.12,3.61.15.04,1.91.1,4.83.15,7.34-.02,0-.04,0-.05,0-.02,0-.64.01-1.43.03-.78.02-1.72.06-2.38.14l-3.43-.02-1.64-.25-1.41-.04-.53.02s-1.36-.2-2.16-.22-1.34.12-1.34.12l-.53-.05-1.68-.24-1.66.15-2.56-.2c-.64-.11-1.55-.17-2.3-.2s-1.37-.03-1.37-.03c-.7.17-1.83.23-1.95,1.74-.02.23.23,1.38.23,1.38.1.29,1.75.56,2.7.4.28,0,1.35.03,1.55,0l.59.1,1.73-.18,1,.19,1.66-.11.89.03.76.18h.24s.94.02,1.87.02c.93.04,2.7.12,2.7.12h.24s.78-.13.78-.13l.89.03,1.65.21,1.01-.13,1.7.29.59-.06c.17.01,2.85.2,3.72.27.01.73.02,1.17.02,1.17v.51s.26,1.65.26,1.65l.04,1.91-.11,2.36c-.51-.11-1.01-.18-1.34-.19-.02,0-.62.01-1.36.03-.75.02-1.65.06-2.28.13l-3.29-.05-1.58-.26-1.36-.06-.51.02s-1.31-.21-2.08-.24c-.77-.03-1.29.1-1.29.1l-.51-.06-1.62-.25-1.6.14-2.48-.21c-.62-.11-1.5-.17-2.24-.2-.73-.03-1.33-.02-1.33-.02-.68.17-1.8.27-1.81,1.77,0,.23.3,1.38.3,1.38.11.29,1.66.52,2.57.36.26,0,1.29.02,1.48,0l.56.1,1.65-.18.96.19,1.6-.1.85.03.73.19h.23s.9.03,1.8.04c.89.05,2.6.14,2.6.14h.23s.75-.12.75-.12l.85.03,1.58.22.98-.12,1.64.3.57-.06c.19.04,3.56.28,3.84.29.35.08.76.05,1.15-.01v.02s-.28,3.69-.28,3.69l.12,1.27c0,.18-.04.95-.07,1.82-4.07-.71-11.19-.4-18.04-.39-.38,0-6.8.12-19.27.35l-32.88.11-15.88-.24h-13.6s-5.11.06-5.11.06c0,0-48.53-.17-56.2-.17-7.67,0-30.61.21-30.61.21l-5.11-.05h-13.6s-15.88.26-15.88.26l-32.88-.08c-12.47-.22-17.96-.74-18.34-.74-2.57,0-4.53.06-6.05.2-.08-.65-.24-1.94-.48-3.91l-.06-1.15c.24-.01.46-.03.54-.05l.54.06,1.54-.29.92.12,1.49-.21.8-.03.7.13h.21s.85-.08,1.69-.11c.84-.03,2.45-.05,2.45-.05h.21s.69-.19.69-.19l.8-.03,1.51.1.9-.19,1.56.18.53-.1c.18.02,3.36.04,3.61.03.8.14,1.93-.34,2.18-.36.63-.06.56-1.73.43-1.98-.57-1.06-2.44-1.21-3.26-1.18-.04,0-2.26.18-3.43.4l-3.1.19-1.51-.14-1.28.05-.48.06s-1.25-.11-1.97-.08c-.72.03-1.2.2-1.2.2l-.48-.02-1.54-.13-1.49.25-2.34-.03c-.4-.05-.9-.06-1.4-.06l-.14-2.9.15-3.63v-.33c.33-.02.68-.04.78-.06l.55.06,1.58-.29.94.13,1.53-.21.82-.03.72.13h.22s.87-.08,1.73-.11c.86-.03,2.51-.05,2.51-.05h.22s.7-.19.7-.19l.82-.03,1.54.11.92-.19,1.6.18.54-.1c.18.02,3.43.05,3.69.04.82.14,1.98-.34,2.23-.36.65-.06.58-1.73.45-1.98-.57-1.06-2.49-1.21-3.32-1.18-.04,0-2.31.17-3.51.4l-3.17.19-1.54-.14-1.31.04-.49.06s-1.28-.11-2.02-.09c-.74.03-1.23.2-1.23.2l-.5-.02-1.57-.14-1.53.25-2.39-.04c-.47-.06-1.09-.07-1.67-.06l-.04-.47s-.05-3.04-.11-6.2c.39-.02.93-.04,1.06-.07l.54.06,1.55-.28.92.13,1.5-.2.81-.02.7.14h.21s.85-.07,1.7-.09,2.46-.03,2.46-.03h.21s.69-.18.69-.18l.81-.02,1.51.12.91-.18,1.57.19.53-.09c.18.02,3.37.07,3.62.07.8.15,1.94-.32,2.19-.34.64-.05.58-1.73.45-1.98-.56-1.06-2.43-1.23-3.25-1.21-.04,0-2.27.15-3.44.37l-3.11.16-1.51-.16-1.29.04-.48.05s-1.25-.12-1.98-.1c-.73.02-1.21.19-1.21.19l-.49-.03-1.54-.15-1.5.24-2.35-.06c-.52-.07-1.22-.08-1.85-.07-.03-1.48-.05-2.68-.05-3.16-.03-.75-.11-2.14-.21-3.48.31.02.62.02.87-.03.23,0,1.14.02,1.31,0l.5.09,1.45-.2.84.17,1.4-.13h.75s.64.18.64.18h.2s.79-.01,1.57-.02c.78.02,2.28.05,2.28.05h.2s.65-.16.65-.16h.75s1.4.15,1.4.15l.85-.16,1.45.22.5-.08c.17.03,3.14.1,3.38.08.75.14,1.82-.34,2.06-.37.6-.07.47-1.74.34-1.99-.56-1.05-2.24-1.19-2.99-1.17-.02,0-.53.05-1.18.1-.65.06-1.42.15-1.96.24l-2.85.11-1.38-.19h-1.18s-.44.04-.44.04c0,0-1.14-.16-1.81-.17-.67,0-1.12.15-1.12.15l-.44-.04-1.41-.21-1.39.17-2.14-.16c-.54-.1-1.3-.16-1.92-.18-.63-.03-1.14-.02-1.14-.02-.08.02-.16.04-.25.07,0-.01,0-.04,0-.04v-1.17s-.09-3.11-.09-3.11l-.21-1.86c.5.08,1.13.09,1.57-.03.23,0,1.15-.04,1.31-.07l.5.06,1.44-.27.86.13,1.4-.19.75-.02.66.14h.2s.79-.07,1.58-.09c.79-.02,2.29-.02,2.29-.02h.2s.65-.18.65-.18l.75-.02,1.41.12.85-.18,1.46.2.5-.09c.17.02,3.14.08,3.37.07.74.15,1.81-.32,2.04-.34.59-.05.54-1.72.42-1.98-.52-1.06-2.27-1.24-3.03-1.22-.03,0-2.11.15-3.21.36l-2.9.16-1.41-.16-1.2.03-.45.05s-1.17-.13-1.85-.11c-.68.02-1.13.19-1.13.19l-.45-.03-1.44-.15-1.4.23-2.19-.06c-1.11-.15-3.09-.04-3.12-.03-.2.07-.44.13-.66.24l-.12-6.04c.07-1.18.2-2.08.33-2.75,2.65.26,7.15.45,13.18.39,2.59.02,4.81.03,6.67.04l5.55.17,16.12-.13,9.45.28,15.56-.09,8.34.05,7.22.24h2.22s26.25.09,35,.11c8.75.03,60.08.21,60.08.21h2.22s7.22-.18,7.22-.18h8.34s15.55.23,15.55.23l9.45-.19,16.1.31,5.55-.09c1.86.02,17.97.19,20.55.22,8.2.21,16.55.17,18.26-.03,9.56-1.1,3.29-3.28,2.73-3.64-2.7-1.72-17.47-.76-25.98-.77-.37,0-6.67.12-18.88.33l-32.22.06-15.56-.27-13.32-.02-5.01.04s-47.55-.3-55.07-.35c-7.52.02-29.99.07-29.99.07l-5.01-.08-13.32-.07-15.56.14-32.2-.4c-12.21-.37-17.55-1.05-17.92-1.05-8.46-.19-10.28.3-10.68,2.21-.02.07.15.22.41.4-.07.62-.05,1.43.12,2.43.02.6.06,1.12.11,1.55l-.07,1.29.46,3.73-.15,2.2.35,3.61.07,1.94-.16,1.69.02.52s.25,6.1.34,8.14c.02.66.07,2.36.13,4.35-.98-.32-2.37-.13-3.66-.09-.09,0-1.61.13-4.51.46l-7.66.46-3.71-.03-3.16.2-1.18.13s-2.82.15-5.86.32c-3.04.19-6.3.4-7.19.46-1.78.14-7.07.79-7.07.79l-1.19.05-3.15.28-3.65.58-7.62.63c-2.91.06-4.25-.33-4.34-.32-2.01.21-2.37.93-2.16,2.81.03.29.94,1.63.94,1.63.19.21.83.31,1.74.27-.03.44-.04.86-.04.86.08.47,1.39,1.49,3.8,2.68.66.41,1.23.76,1.73,1.04l1.34.99c1.42.81,2.83,1.64,4.22,2.5l2.2,1.8,3.95,2.61,2.04,1.5,1.62,1.46.54.4s1.62,1.18,3.52,2.57c1.97,1.4,4.03,2.91,5.76,3.75.04.03.12.04.18.07-.31.4-.65.83-1.03,1.27-.77.95-1.33,1.79-1.94,2.64-2.32,3.36-4.46,6.46-4.46,6.46l-.37.53-1.01,1.83-1.4,1.99-2.85,3.57-1.46,2.32c-1.03,1.2-2.09,2.37-3.15,3.53l-.93,1.31c-.36.42-3.55,3.87-4.09,4.37-1.68,1.51-2.26,2.09-2.41,2.61-.91.31-1.24,1.01-1.41,2.21-.05.29.82,1.76.82,1.76.32.34,2.25.82,5.15.56.85,0,1.58,0,2.19-.04.61.04,1.22.07,1.82.08l5.24-.43,3.08.06c1.68-.14,3.36-.28,5.03-.46l2.7-.17,2.35.04.72-.05s8.47-.72,11.29-.96c1.41-.13,6.25-.59,10.73-1.02,4.48-.49,8.6-.94,8.6-.94l.71-.08,2.29-.47,2.68-.34,5.02-.46,2.99-.63c1.74-.14,3.48-.32,5.22-.5l1.76-.38c.61-.07,5.81-.81,6.67-1.07,1.47-.19,2.45-.42,3.11-.65.18-.04.35-.08.53-.12.08-.03,1.49-.35,4.13-1.42,1.19-.42,2.38-.89,3.54-1.6,1.1-.68,2.43-1.61,2.96-3.4.56-.31.29-.81.29-1.28,0-.03-.14-.51-.39-1.45l-.13-2.46.26-1.19-.02-1.01-.06-.38s.14-3.61.16-4.18c0-.57-.25-2.27-.25-2.27l.05-.38v-1s-.28-1.17-.28-1.17l.14-2.41c.29-.9.9-1.28.9-1.28,0-.11-.04-.19-.09-.27l5.9-.11,9.64.19,15.87-.2h8.51s7.37.19,7.37.19h2.26s26.78-.06,35.71-.07c8.93,0,61.31.02,61.31.02h2.26s7.37-.2,7.37-.2h8.51s15.87.18,15.87.18l9.64-.2,16.43.29,2.08-.04c-.09.19-.1.46.05.79,0,.19.03.35.07.48l-.1.41.35,1.19-.22.71.22,1.17v.63s-.23.54-.23.54v.17s.02,1.98.03,2.64c-.02.66-.12,4.55-.12,4.55v.17s.21.55.21.55v.63s-.25,1.18-.25,1.18l.21.72-.34,1.23.11.43c-.04.14-.23,1.38-.23,1.58-.22.61-.15.84.14.97.11.52.29,1.03.57,1.46.69.84,1.45,1.36,2.19,1.77,1.13.89,2.31,1.44,3.49,2,.44.14.87.21,1.3.31.41.24,4.02,1.22,4.61,1.29,1.36.4,2.07.49,2.53.43.41.18.88.26,1.39.26,1.06.07,2.31-.1,3.55-.1.12.02,1.95-.13,5.6-.22,3.2.07,6.41.22,9.62.38l4.63.54,3.98.29,1.5.06s14.18,1.36,16.43,1.57c2.25.16,8.98.63,8.98.63l1.49.19,3.98.39,4.67.22,9.59,1.1c3.61.62,5.14,1.32,5.25,1.33,2.5.28,3.17-.31,3.51-2.13.35-.25.61-.48.66-.6.81-1.76-1.6-3.34-3.44-5.24-.09-.08-1.52-1.43-4.31-4.05-2.28-2.44-4.5-4.93-6.7-7.44l-2.89-3.84-2.64-3.18-1.04-1.17s-1.47-1.81-3.27-4.04c-.89-1.12-2.15-2.41-2.89-3.33.39-.14.72-.29.92-.42.43-.24.77-.45,1.04-.62.53-.35.88-.58,1.1-.73,1.85-1.25,6.31-4.93,7.37-5.81.18-.01.33-.15.44-.34l1.09-.8,3.34-2.63,3.71-3.25c2.72-2.08,5.45-4.14,8.21-6.15,1.89-1.23,3.25-1.91,4.11-2.3.62.18.93.32.98.32,2.01.11,2.51-.54,2.68-2.43.03-.29-.59-1.75-.59-1.75ZM120.78,235.03c-.3.16-.66.28-.99.42-.29.12-2.99.58-3.88.71-.1,0-.21.02-.31.04-1.58.09-2.18.2-2.48.51-.55.14-1.11.3-1.68.42-.13,0-2.02.54-5.81,1.39-3.37.6-6.77,1.11-10.17,1.61l-4.99.4-4.24.51-1.59.24s-3.8.37-7.9.77c-4.1.35-8.51.73-9.71.84-2.4.24-9.58.98-9.58.98l-1.61.07-4.27.28c-1.65.18-3.31.39-4.97.53-3.44.15-6.88.23-10.31.26-.63-.04-1.17-.08-1.69-.13.4-.46.8-.94,1.2-1.39.03-.04.34-.44.92-1.19.5-.63,1.15-1.54,1.97-2.68.65.08,1.6.06,2.23-.1.29-.02,1.44-.11,1.65-.15l.64.04,1.82-.36,1.08.08,1.76-.28.95-.06.83.1.25-.02s1-.09,2-.17c1-.05,2.89-.16,2.89-.16l.25-.02.81-.21.95-.06,1.78.04,1.07-.23,1.84.11.63-.12c.21,0,3.96-.11,4.25-.12.94.1,2.28-.42,2.58-.46.75-.08.69-1.76.54-2.01-.65-1.04-2.86-1.11-3.83-1.04-.02,0-.69.08-1.53.17-.84.1-1.84.24-2.53.38l-3.67.33-1.78-.08-1.52.1-.57.08s-1.48-.06-2.34,0c-.86.06-1.42.25-1.42.25h-.57s-1.82-.07-1.82-.07l-1.76.32-2.77.07c-.55-.03-1.25-.02-1.92.01,1.17-1.56,2.33-3.12,3.45-4.7l1.2-1.48c.35,0,.69-.04.97-.12.26-.01,1.26-.08,1.44-.12l.55.05,1.58-.32.95.1,1.53-.24.83-.05.73.12h.22s.87-.1,1.74-.15c.87-.05,2.52-.1,2.52-.1h.22s.7-.21.7-.21l.83-.05,1.55.07.92-.21,1.61.15.54-.11c.19.02,3.45-.03,3.71-.04.82.12,1.98-.38,2.24-.41.65-.07.54-1.74.39-1.99-.61-1.05-2.53-1.16-3.37-1.11-.04,0-2.32.22-3.51.47l-3.18.26-1.55-.11-1.32.07-.49.07s-1.29-.09-2.03-.04-1.23.23-1.23.23h-.5s-1.59-.11-1.59-.11l-1.53.28h-2.4c-.08,0-.18,0-.27,0l1.2-1.71.79-1.24s.93-1.32,2.21-3.12c0,0,.02,0,.03,0,.18-.03.9-.13,1.03-.17l.41.03,1.12-.37.7.08,1.09-.28.6-.06.54.1.16-.02s.63-.1,1.26-.16c.63-.04,1.83-.12,1.83-.12h.16s.5-.21.5-.21l.6-.05,1.13.08.67-.2,1.18.16.39-.1c.14,0,2.51.03,2.7.03.6.14,1.44-.32,1.63-.34.47-.05.41-1.72.31-1.98-.43-1.07-1.87-1.23-2.49-1.2-.01,0-.44.05-.98.12-.54.07-1.18.18-1.63.29l-2.36.23-1.16-.11-.98.08-.36.07s-.96-.07-1.51-.02c-.55.05-.9.24-.9.24h-.37s-1.19-.07-1.19-.07l-1.11.32-.37.02.19-.25c.25-.31.5-.63.84-1.02.63-.76,1.24-1.48,1.79-2.43.14-.25.27-.53.38-.88.06-.18.1-.43.13-.63,0-.31.02-.55-.09-.91-.18-.73-.89-1.38-1.41-1.61-.51-.25-.93-.33-1.21-.37-.4-.06-.41-.05-.49-.06-.1,0-.09-.01-.12-.02-.05-.02-.06-.01-.14-.06-.61-.26-2.63-1.56-4.22-2.67-.22-.15-.44-.3-.65-.45l.28-.06.84.13,1.38-.2.74-.02.65.15h.2s.78-.06,1.56-.06c.78,0,2.27.02,2.27.02h.2s.64-.16.64-.16h.74s1.39.17,1.39.17l.84-.15,1.43.25.5-.07c.17.01,3.09.23,3.31.24.72.19,1.79-.2,2.02-.2.58,0,.7-1.68.6-1.94-.41-1.1-2.17-1.39-2.94-1.41-.02,0-.55.02-1.22.04-.67.03-1.47.08-2.02.17l-2.91.05-1.41-.2h-1.2s-.45.04-.45.04c0,0-1.17-.15-1.85-.14-.68,0-1.13.17-1.13.17l-.45-.03-1.44-.16-1.41.23-2.21-.04c-.56-.07-1.35-.06-2-.02-.65.03-1.19.1-1.19.1,0,0-.02,0-.02,0l-2.58-1.92-4.02-2.62c-.44-.33-.91-.63-1.35-.96l.6.04,2.08-.34,1.24.1,2.01-.26,1.08-.06.95.11h.29s1.14-.09,2.28-.17c1.14-.04,3.3-.13,3.3-.13h.29s.93-.22.93-.22l1.08-.05,2.02.06,1.21-.21,2.09.15.71-.11c.24,0,4.48.03,4.82.03,1.05.15,2.57-.29,2.9-.29.83-.03.89-1.7.73-1.96-.67-1.09-3.26-1.31-4.37-1.28-.02,0-.79.05-1.76.11-.96.07-2.11.18-2.9.3l-4.2.25-2.04-.1-1.73.09-.65.07s-1.68-.07-2.66-.02c-.98.05-1.62.24-1.62.24h-.65s-2.07-.09-2.07-.09l-2.01.3-3.14.04c-.8-.05-1.91-.03-2.82,0-.91.05-1.64.08-1.66.08-.22.06-.48.11-.74.19-.79-.55-1.54-1.12-2.34-1.66-1.53-1.13-2.59-2.01-3.28-2.62l2.94-.52h2.24s3.63-.54,3.63-.54l1.96-.18,1.72.05.52-.04s6.17-.56,8.23-.74c1.03-.08,4.57-.34,7.85-.58,3.28-.22,6.3-.42,6.3-.42l.52-.04,1.68-.3,1.96-.12h3.67s2.21-.33,2.21-.33l3.8.13,1.29-.14c.44,0,4.2.09,4.8.1,1.4.14,2.11.16,2.55.04.09,2.84.16,5.26.16,5.26l.02.52.28,1.68.07,1.94-.1,3.62.3,2.2-.2,3.74.15,1.29c-.02.43-.09,4.18-.07,4.78-.13,1.43-.1,2.17.06,2.61-.09.43-.11,1.7-.11,1.7.05.41.99,1.05,2.83,1.57.5.21.94.38,1.32.51l1.03.56,3.28,1.12,1.73,1.01,3.12,1.21,1.61.75,1.29.82.43.2s5.08,2.37,6.78,3.15c.84.41,3.71,1.81,6.38,3.11,2.65,1.32,5.09,2.55,5.09,2.55l.42.21,1.29.46c.12.07.22.15.33.23-.05.32-.09.63-.09.72-.2.5-.18.72,0,.86-.08.09-.14.17-.24.25-.73.4-1.74.68-2.72.94ZM123.82,213.86c0,.2,0,.38.03.53l-.12.43.31,1.25-.23.73.22,1.19v.64s-.22.55-.22.55v.17s.06,2,.08,2.67c0,.66.01,4.56.01,4.56v.17s.23.54.23.54v.63s0,0,0,0l-.13-.07-.99-.44s-2.26-1.17-4.7-2.43c-2.45-1.23-5.09-2.56-5.81-2.92-1.45-.7-5.92-2.59-5.92-2.59l-.95-.5-2.59-1.21-3.17-1.18-6.29-2.92c-.26-.14-.5-.28-.72-.41,2.72.16,7.2.23,13.14.07,2.64,0,4.9-.02,6.8-.05l5.66.09,5.28-.1c-.03.17-.02.36.05.58ZM362.31,213.35c4.85.12,7.85.14,9.88.09l-2.95,1.63-1.96.66-2.94,1.57-1.63.75-1.51.48-.43.2s-5.07,2.44-6.76,3.26c-.85.41-3.75,1.8-6.45,3.09-2.69,1.32-5.16,2.53-5.16,2.53l-.09.04.02-.08.02-1.01-.05-.38s.28-3.6.28-4.18c0-.57-.2-2.29-.2-2.29l.06-.38v-1.02s-.27-1.19-.27-1.19l.08-2.48c.23-.96.8-1.41.79-1.44,0-.01-.01-.02-.01-.03,4.73.05,17.02.17,19.28.17ZM429.87,192.86l-.76.51c-1.04-.39-2.37-.52-3.11-.55-.02,0-.81,0-1.79.02-.98.02-2.16.05-2.98.12l-4.31-.04-2.07-.25-1.78-.05-.67.02s-1.72-.2-2.72-.22c-1.01-.02-1.69.12-1.69.12l-.67-.05-2.12-.23-2.09.16-3.25-.16c-.82-.09-1.97-.14-2.93-.14-.96,0-1.75.03-1.75.03-.87.19-2.37.36-2.27,1.87.02.23.49,1.36.49,1.36.15.27,2.16.43,3.34.25.34,0,1.68-.02,1.93-.04l.74.08,2.14-.22,1.25.17,2.07-.12,1.11.02.96.18h.3s1.18.01,2.34.02c1.17.04,3.39.12,3.39.12h.3s.97-.13.97-.13l1.11.03,2.07.21,1.27-.12,2.14.3.74-.06c.17.01,2.3.14,3.73.23l-1.73,1.47-2.09,1.65-1.96,1.28-.55.44s-.37.3-.96.76c-.1,0-.19-.02-.27-.02-.02,0-.65,0-1.43,0-.78.01-1.73.05-2.38.12h-3.42s-1.64-.25-1.64-.25l-1.41-.03-.53.03s-1.36-.18-2.15-.19c-.79-.01-1.33.14-1.33.14l-.53-.05-1.67-.22-1.64.17-2.54-.17c-.64-.1-1.53-.16-2.28-.18-.74-.03-1.34-.03-1.34-.03-.69.17-1.78.21-1.9,1.73-.02.23.24,1.38.24,1.38.1.3,1.76.58,2.71.41.28,0,1.35.02,1.55,0l.59.09,1.71-.2,1,.17,1.65-.13h.88s.76.18.76.18h.23s.93,0,1.85,0c.92.03,2.68.08,2.68.08h.23s.76-.14.76-.14l.88.02,1.63.19,1-.13,1.68.29.31-.03c-1.44,1.11-2.84,2.17-3.66,2.72-.21.14-.51.34-.97.65-.23.15-.48.3-.76.46-.27.14-.19.11-.32.13-.39.06-1.15,0-2.26.75-.56.4-.99,1.12-1.07,1.7-.07.44-.03.77.03,1.06l-1.56-.07-1.14-.27-.99-.05-.37.02s-.95-.2-1.51-.22c-.56-.02-.94.13-.94.13l-.37-.05-1.18-.21-1.16.19-1.8-.1c-.46-.08-1.1-.1-1.62-.09-.53.01-.96.05-.96.05-.47.21-1.25.35-1.16,1.86.01.23.31,1.36.31,1.36.1.28,1.22.44,1.84.24.18,0,.91-.04,1.04-.07l.4.07,1.15-.25.68.15,1.11-.16h.6s.51.17.51.17h.16s.63-.02,1.26,0c.63.02,1.81.11,1.81.11h.16s.53-.12.53-.12l.6.04,1.1.23.69-.11,1.12.33.4-.04c.07.01.71.12,1.35.23.49.55.98,1.07,1.37,1.51.53.62,1.06,1.25,1.57,1.84.71.86,1.37,1.67,1.94,2.35-.72.03-1.51.06-2.08.13h-3.51s-1.69-.21-1.69-.21l-1.45-.02-.54.03s-1.4-.18-2.21-.19c-.82-.01-1.36.14-1.36.14l-.54-.05-1.72-.21-1.69.17-2.61-.17c-.66-.1-1.58-.16-2.34-.18-.76-.02-1.36-.03-1.38-.03-.71.17-1.82.21-1.95,1.72-.02.23.23,1.39.23,1.39.1.3,1.82.59,2.8.42.28,0,1.39.02,1.59,0l.6.09,1.76-.2,1.02.17,1.69-.13h.91s.78.18.78.18h.24s.96,0,1.91-.01c.95.03,2.75.08,2.75.08h.24s.78-.14.78-.14h.9s1.68.2,1.68.2l1.03-.14,1.73.27.6-.07c.2.01,3.73.26,4.01.28.27.06.58.06.89.04l.7.7,1.67,2,2.97,3.83h.01c-.24.01-.51,0-.79,0-1.01,0-2.21,0-3.05.05l-4.4-.15-2.11-.31-1.82-.1h-.69s-1.75-.25-2.77-.3c-1.03-.05-1.72.07-1.72.07l-.68-.07-2.16-.3-2.14.08-3.29-.29c-.83-.14-1.99-.23-2.96-.29-.97-.04-1.73-.08-1.76-.08-.9.14-2.35.16-2.48,1.67-.02.23.31,1.39.31,1.39.13.3,2.25.62,3.47.5.35.02,1.74.08,1.99.07l.75.12,2.22-.12,1.28.23,2.13-.04,1.14.06.98.21.3.02s1.21.04,2.4.09c1.19.08,3.47.22,3.47.22l.3.02,1-.11,1.14.06,2.11.27,1.3-.09,2.19.35.76-.04c.26.02,4.74.4,5.09.43.54.11,1.2.08,1.78.03l1.93,2.45,1.27,1.23c.26.33,2.09,2.43,3.31,3.78-.27-.02-.54-.04-.78-.05l-1.65-.28-4.85-.22-2.8-.49-4.68-.28-2.5-.24-2.14-.41-.66-.06s-7.86-.7-10.49-.93c-1.31-.12-5.81-.52-9.99-.89-4.18-.34-8.03-.65-8.03-.65l-.67-.05-2.19.04-2.51-.17-4.67-.49-2.87.04c-1.61-.19-3.23-.37-4.86-.52l-1.69.04c-.56-.07-5.47-.34-6.31-.28-1.24-.09-2.13-.09-2.77-.02-.79-.48-2.03-.45-3.18-.69-.04,0-.38-.05-1.02-.13-.65-.08-1.59-.22-2.79-.48-1.01-.32-1.99-.69-2.78-1.15-.39-.2-.72-.44-.96-.66.57-.31.28-.78.28-1.24,0-.01-.03-.1-.07-.24.04-.03.07-.05.12-.08.2-.19.54-.36.84-.54l1.23-.63.92-.52s9.2-4.29,10.66-4.97c1.44-.7,5.68-2.92,5.68-2.92l.99-.41,2.58-1.2,2.89-1.61,6.32-2.72c1.25-.42,2.2-.6,2.84-.7.64-.09.98-.08,1.01-.09.84-.34,1.25-.7,1.36-1.21.5-.95.24-2.37.22-3.74,0-.09-.15-1.53-.43-4.34l-.21-7.4.22-3.58-.06-3.06-.08-1.15s-.02-2.23-.04-4.83c.88.12,1.95-.02,3.03,0,.09,0,1.56-.09,4.42-.27l7.57.17,3.65.41,3.13.15h1.18s11.18.81,12.95.93c1.77.1,7.08.23,7.08.23l1.18.12,3.14.19,3.69-.02,4.15.3-.9.59-3.91,3.36Z"/>
  </g>
  <text class="cls-3" transform="translate(134.61 191.77)"><tspan x="0" y="0">H</tspan><tspan class="cls-7" x="22.85" y="0">a</tspan><tspan x="38.36" y="0">ppy Bi</tspan><tspan class="cls-2" x="117.81" y="0">r</tspan><tspan class="cls-1" x="127.05" y="0">t</tspan><tspan x="137.61" y="0">h</tspan><tspan class="cls-8" x="151.1" y="0">d</tspan><tspan class="cls-4" x="165.29" y="0">a</tspan><tspan x="180.42" y="0">y</tspan></text>
</svg>