<?xml version="1.0" encoding="UTF-8"?>
<svg id="Layer_3" data-name="Layer 3" xmlns="http://www.w3.org/2000/svg" viewBox="0 0 424 413">
  <defs>
    <style>
      .cls-1 {
        fill: #ffebd8;
      }

      .cls-1, .cls-2, .cls-3, .cls-4, .cls-5, .cls-6, .cls-7, .cls-8, .cls-9, .cls-10, .cls-11, .cls-12, .cls-13, .cls-14, .cls-15, .cls-16, .cls-17, .cls-18 {
        stroke: #531f0c;
        stroke-miterlimit: 10;
      }

      .cls-2 {
        fill: #adbee2;
      }

      .cls-3 {
        fill: #cbd2e9;
      }

      .cls-4 {
        fill: #fffbe9;
      }

      .cls-5 {
        fill: #f7b97d;
      }

      .cls-6 {
        fill: #f3c0d9;
      }

      .cls-7 {
        fill: #0697d4;
      }

      .cls-8 {
        fill: #f18b5e;
      }

      .cls-9 {
        fill: #dc797a;
      }

      .cls-10 {
        fill: #7186c0;
      }

      .cls-11 {
        fill: #37373c;
      }

      .cls-12 {
        fill: #8a90c5;
      }

      .cls-13 {
        fill: #666da0;
      }

      .cls-14 {
        fill: #fadba0;
      }

      .cls-15 {
        fill: #e9f5fc;
      }

      .cls-16 {
        fill: #4eb4e4;
      }

      .cls-17 {
        fill: #fff8f0;
      }

      .cls-18 {
        fill: #b5dff6;
      }
    </style>
  </defs>
  <g>
    <path class="cls-5" d="M72.83,134.01c-.29-2.91-.58-5.82-.86-8.73-3.37-.38-6.4-1.73-7.32-4.03-2.23-5.61,5.31-21.01,7.19-21.93,1.61-.78,12.08,17.59,10.82,22.51-.08.3-.2.55-.37.74-1.18,1.35-3.2,2.21-5.47,2.59.45,2.9.88,5.79,1.28,8.69,4.24-.51,8.1-1.99,10.26-4.45.28-.32.48-.73.6-1.22,2.08-8.12-15.19-38.42-17.84-37.14-3.1,1.51-15.54,26.92-11.85,36.17,1.64,4.13,7.44,6.42,13.57,6.8Z"/>
    <path class="cls-1" d="M76.09,120.51c.25,1.55.49,3.1.74,4.65,2.27-.38,4.29-1.24,5.47-2.59.17-.19.29-.44.37-.74,1.26-4.93-9.21-23.3-10.82-22.51-1.88.91-9.42,16.32-7.19,21.93.92,2.3,3.95,3.65,7.32,4.03-.15-1.59-.31-3.18-.47-4.77-.21-2.08,4.26-2,4.58,0Z"/>
    <path class="cls-11" d="M76.09,120.51c-.32-2-4.79-2.08-4.58,0,.16,1.59.31,3.18.47,4.77.28,2.91.56,5.82.86,8.73.28,2.75.57,5.51.9,8.26.2,1.63.35,3.28.5,4.94,1.63-.08,3.45-.1,5.46-.03-.24-1.96-.49-3.92-.68-5.85-.25-2.49-.57-4.98-.91-7.47-.39-2.9-.82-5.8-1.28-8.69-.24-1.55-.49-3.1-.74-4.65Z"/>
    <path class="cls-6" d="M70.42,171.07c.64,4.68.54,9.43.27,14.17,1.38-.55,2.78-1.08,4.19-1.6,6.31-2.31,12.83-4.4,19.45-6.26-.04-5.69-.11-10.86-.19-15.32-4.24,1.49-8.44,3.04-12.6,4.64-3.72,1.44-7.43,2.89-11.12,4.37Z"/>
    <path class="cls-6" d="M70.08,194.81c-.02.44-.05.89-.06,1.33-.21,5.3-.38,10.69-.53,16.12,4.55-1.89,9.27-3.59,14.14-5.1,3.56-1.1,7.16-2.16,10.82-3.12,0-6.02-.01-11.87-.04-17.41-4.97,1.39-9.84,2.9-14.62,4.58-3.26,1.15-6.49,2.35-9.69,3.6Z"/>
    <path class="cls-6" d="M68.98,249.36c-.04,6.24-.14,12.48-.42,18.7,3.86-1.84,7.8-3.59,11.83-5.23,4.54-1.83,9.18-3.55,13.93-5.13.03-5.74.06-11.8.07-17.99-.91.27-1.8.55-2.69.83-8,2.51-15.4,5.61-22.72,8.82Z"/>
    <path class="cls-6" d="M63.06,251.96c-.9.4-1.8.79-2.7,1.19.1,6.7.19,13.07.31,18.84,1.21-.64,2.45-1.26,3.68-1.88-.66-6.03-1.05-12.09-1.29-18.15Z"/>
    <path class="cls-6" d="M62.82,197.71c-.89.36-1.79.73-2.68,1.1-.04,5.75-.06,11.72-.06,17.74.82-.41,1.64-.81,2.48-1.21.02-5.88.11-11.75.26-17.63Z"/>
    <path class="cls-6" d="M68.11,275.69c-.21,2.88-.47,5.76-.79,8.63-.04.31-.76.43-.82.08-.48-2.45-.9-4.92-1.26-7.39-.63.29-1.27.57-1.89.87-.84.39-1.69.78-2.54,1.16.28,13.63.52,22.62.52,22.62h32.68s.14-15.03.26-35.76c-2.99.92-5.96,1.88-8.89,2.92-5.92,2.09-11.67,4.4-17.26,6.89Z"/>
    <path class="cls-6" d="M62.59,225.86c-.02-1.61-.02-3.22-.03-4.82-.82.3-1.64.59-2.46.89.03,8.69.11,17.42.2,25.74.84-.57,1.7-1.13,2.58-1.68-.17-6.74-.21-13.47-.29-20.13Z"/>
    <path class="cls-6" d="M63.95,173.71c-.97.4-1.95.8-2.92,1.21-.15.06-.29.13-.45.18-.14,4.54-.25,9.44-.34,14.61.89-.41,1.79-.8,2.68-1.2.04-4.94.16-9.92,1.02-14.79Z"/>
    <path class="cls-6" d="M69.33,218.62c-.05,2.09-.1,4.18-.15,6.28-.13,5.84-.15,11.7-.17,17.57,5.95-3.14,12.39-5.84,18.79-8.12,2.18-.77,4.38-1.51,6.61-2.21.03-7.04.04-14.17.04-21.16-2.65.66-5.29,1.38-7.9,2.13-5.84,1.7-11.57,3.57-17.23,5.53Z"/>
    <path class="cls-6" d="M74.23,147.21c-8.15.39-11.56,2.19-11.56,2.19-.78,3.41-1.35,9.67-1.76,17.79,6.21-3.23,12.57-6.28,19.17-9.13,4.54-1.96,9.11-3.91,13.77-5.74-.06-1.43-.13-2.66-.2-3.68-5.45-.92-10.08-1.34-13.97-1.47-2.02-.06-3.84-.04-5.46.03Z"/>
    <path class="cls-17" d="M62.87,245.99c1.96-1.23,4.02-2.41,6.14-3.52.02-5.87.04-11.73.17-17.57.05-2.09.1-4.19.15-6.28-2.27.79-4.52,1.59-6.77,2.41,0,1.61,0,3.22.03,4.82.07,6.66.11,13.39.29,20.13Z"/>
    <path class="cls-17" d="M70.69,185.24c.27-4.74.37-9.49-.27-14.17-2.16.87-4.32,1.75-6.46,2.63-.86,4.87-.98,9.86-1.02,14.79,2.55-1.13,5.12-2.22,7.75-3.26Z"/>
    <path class="cls-17" d="M69.49,212.26c.15-5.43.31-10.82.53-16.12.02-.44.04-.89.06-1.33-2.44.95-4.86,1.92-7.27,2.9-.15,5.88-.23,11.75-.26,17.63,2.26-1.08,4.57-2.1,6.93-3.08Z"/>
    <path class="cls-17" d="M68.56,268.06c.28-6.22.38-12.46.42-18.7-1.97.86-3.94,1.73-5.91,2.6.24,6.06.63,12.13,1.29,18.15,1.39-.7,2.79-1.38,4.21-2.05Z"/>
    <path class="cls-17" d="M67.32,284.32c.33-2.87.58-5.75.79-8.63-.97.43-1.92.87-2.88,1.32.36,2.47.78,4.94,1.26,7.39.07.35.79.23.82-.08Z"/>
    <path class="cls-9" d="M80.08,158.06c-6.6,2.85-12.96,5.9-19.17,9.13-.11,2.47-.22,5.11-.32,7.9.15-.05.29-.12.45-.18.97-.41,1.95-.81,2.92-1.21,2.15-.89,4.3-1.77,6.46-2.63,3.69-1.48,7.39-2.93,11.12-4.37,4.16-1.6,8.36-3.15,12.6-4.64-.07-3.82-.17-7.12-.28-9.74-4.66,1.83-9.24,3.78-13.77,5.74Z"/>
    <path class="cls-9" d="M70.69,185.24c-2.63,1.04-5.21,2.13-7.75,3.26-.9.4-1.79.79-2.68,1.2-.04,2.96-.08,6-.11,9.11.89-.37,1.78-.73,2.68-1.1,2.41-.99,4.83-1.96,7.27-2.9,3.2-1.24,6.43-2.45,9.69-3.6,4.79-1.69,9.66-3.2,14.62-4.58-.01-3.2-.04-6.29-.07-9.25-6.63,1.86-13.15,3.95-19.45,6.26-1.41.52-2.81,1.05-4.19,1.6Z"/>
    <path class="cls-9" d="M69.49,212.26c-2.36.98-4.67,2-6.93,3.08-.83.4-1.66.8-2.48,1.21,0,1.78.01,3.58.01,5.37.82-.3,1.64-.59,2.46-.89,2.24-.82,4.5-1.62,6.77-2.41,5.66-1.97,11.38-3.84,17.23-5.53,2.61-.75,5.25-1.46,7.9-2.13,0-2.32,0-4.63-.01-6.92-3.66.97-7.26,2.02-10.82,3.12-4.86,1.51-9.58,3.22-14.14,5.1Z"/>
    <path class="cls-9" d="M69.01,242.46c-2.12,1.12-4.17,2.29-6.14,3.52-.87.55-1.74,1.1-2.58,1.68.03,1.85.06,3.69.07,5.49.9-.4,1.8-.79,2.7-1.19,1.97-.87,3.94-1.74,5.91-2.6,7.32-3.2,14.72-6.31,22.72-8.82.89-.28,1.79-.56,2.69-.83.01-2.52.03-5.04.03-7.59-2.23.7-4.44,1.44-6.61,2.21-6.4,2.29-12.84,4.99-18.79,8.12Z"/>
    <path class="cls-9" d="M68.56,268.06c-1.41.67-2.82,1.35-4.21,2.05-1.23.62-2.47,1.24-3.68,1.88.04,2.46.08,4.82.13,7.04.85-.38,1.7-.77,2.54-1.16.63-.29,1.26-.57,1.89-.87.96-.44,1.91-.88,2.88-1.32,5.59-2.49,11.34-4.8,17.26-6.89,2.93-1.03,5.9-2,8.89-2.92.01-2.64.03-5.37.06-8.18-4.75,1.58-9.39,3.3-13.93,5.13-4.03,1.64-7.97,3.39-11.83,5.23Z"/>
  </g>
  <g>
    <path class="cls-5" d="M140.69,134.01c-.29-2.91-.58-5.82-.86-8.73-3.37-.38-6.4-1.73-7.32-4.03-2.23-5.61,5.31-21.01,7.19-21.93,1.61-.78,12.08,17.59,10.82,22.51-.08.3-.2.55-.37.74-1.18,1.35-3.2,2.21-5.47,2.59.45,2.9.88,5.79,1.28,8.69,4.24-.51,8.1-1.99,10.26-4.45.28-.32.48-.73.6-1.22,2.08-8.12-15.19-38.42-17.84-37.14-3.1,1.51-15.53,26.92-11.85,36.17,1.64,4.13,7.44,6.42,13.57,6.8Z"/>
    <path class="cls-1" d="M143.94,120.51c.25,1.55.49,3.1.73,4.65,2.27-.38,4.29-1.24,5.47-2.59.17-.19.29-.44.37-.74,1.26-4.93-9.21-23.3-10.82-22.51-1.88.91-9.42,16.32-7.19,21.93.92,2.3,3.95,3.65,7.32,4.03-.15-1.59-.31-3.18-.47-4.77-.21-2.08,4.26-2,4.58,0Z"/>
    <path class="cls-11" d="M143.94,120.51c-.32-2-4.79-2.08-4.58,0,.16,1.59.31,3.18.47,4.77.28,2.91.56,5.82.86,8.73.28,2.75.57,5.51.9,8.26.2,1.64.35,3.29.5,4.95,1.63-.08,3.45-.1,5.46-.03-.24-1.97-.49-3.92-.69-5.86-.25-2.49-.57-4.98-.91-7.47-.39-2.9-.82-5.8-1.28-8.69-.24-1.55-.49-3.1-.73-4.65Z"/>
    <path class="cls-3" d="M157.09,280.52c-1.92,3.4-4.99,3.35-9.53,3.72-9.98.78-7.44,6.82-13.36,10.55-1.55.99-3.31,1.69-5.15,1.99.07,3.12.12,4.87.12,4.87h32.68s.12-12.64.24-30.72c-.77.68-1.46,1.48-2.08,2.41-1.55,2.32-1.58,4.85-2.91,7.18Z"/>
    <path class="cls-3" d="M130.45,226.28c-.84.16-1.66.36-2.46.64.03,6.53.09,13.04.15,19.32.94-.32,1.78-.71,2.58-1.13-.15-6.3-.19-12.59-.26-18.83Z"/>
    <path class="cls-3" d="M130.8,248.59c-.86.23-1.74.42-2.63.53.01,1.35.03,2.7.04,4.04.1,6.7.19,13.07.31,18.84,0,.33.01.65.01.97,1.43-.28,2.68-.88,3.8-1.66-.87-7.53-1.31-15.12-1.54-22.71Z"/>
    <path class="cls-3" d="M147.63,211.76c-.86,1.02-.72,2.47-.87,3.61-.37,2.97-.38,6.32-4.06,8.35-1.79.99-3.71,1.44-5.66,1.72-.1,4.47-.13,8.96-.15,13.45.24-.43.47-.87.69-1.33,1.17-2.48,2.45-4.93,5.29-6.72,3.2-2.02,5.73-1.65,9.7-1.87,5.77-.31,7.72-2.48,9.75-5.01h0c.01-4.37.01-8.7.01-13v-2.69c-1.88.32-3.75.29-5.71.47-3.25.32-7.34,1-8.98,3.01Z"/>
    <path class="cls-3" d="M153.98,258.3c-4.9-.12-7.52-.71-9.44,2.59-1.77,3.05-4.47,8.09-8.34,11.4-.24,4.02-.56,8.03-1.02,12.03-.03.31-.76.43-.82.08-.64-3.27-1.16-6.56-1.6-9.87-1.28.59-2.67.95-4.16,1.01.01,1.2.03,2.36.06,3.5.13,5.85.24,10.84.33,14.62,2.63-1.08,4.43-2.55,5.97-5.34.83-1.52,1.15-3.16,2.57-4.49,4.33-4.12,12.95-1.12,16.42-6.16,2.76-4.02,2.7-7.96,8.18-10.93v-.86c.01-2.64.03-5.38.06-8.18v-.27c-1.4.56-2.89.9-4.55,1-1.24.08-2.41-.1-3.65-.13Z"/>
    <path class="cls-3" d="M140.52,198.51c-.89.46-1.79.76-2.77.95-.27,7.24-.46,14.61-.64,22.01,1.91-.56,3.52-1.43,4.38-3.2.75-1.54.35-3.45.66-5.05.58-2.97,2.16-5.43,6.16-6.79,4.65-1.6,9.79-.89,13.99-2.44,0-6.01-.01-11.84-.04-17.37v-.74c-2.07.24-4.27.12-6.79.2-10.65.31-8.09,8.89-14.95,12.43Z"/>
    <path class="cls-3" d="M143.71,235.41c-2.77,3.51-3.22,7.33-6.86,10.25-.03,7.11-.1,14.23-.39,21.32,1.5-2.16,2.61-4.47,3.54-6.12,1.27-2.26,2.24-5.06,5.83-6.02,1.73-.47,3.41-.25,5.18-.14,2.14.11,4.86.79,6.94.37,1.52-.3,3-1.15,4.22-2.07.03-4.31.04-8.76.06-13.28.01-2.52.03-5.05.03-7.6v-1.59c-.21.12-.4.26-.61.38-5.54,3.4-13.85-.7-17.96,4.5Z"/>
    <path class="cls-3" d="M131.6,175.03c-1.18.04-2.24.2-3.17.5-.13,4.42-.24,9.18-.33,14.18-.01,2.02-.04,4.1-.06,6.19.85-.1,1.66-.07,2.67-.11.17-6.83-.15-13.89.88-20.76Z"/>
    <path class="cls-3" d="M130.43,222.9c-.05-7.98.03-15.96.22-23.94-.63-.12-1.26-.23-1.89-.35-.25.17-.5.33-.75.51-.04,5.67-.06,11.52-.06,17.43,0,1.79.01,3.58.01,5.38,0,.62,0,1.23.01,1.85.5-.24,1.05-.44,1.62-.63.27-.09.55-.17.83-.24Z"/>
    <path class="cls-3" d="M152.25,170.73c-2.07,2.94-4.79,5.71-9.94,5.8-1.27.02-2.45-.19-3.6-.46.25,6.35-.48,12.78-.78,19.08.53-.18,1.04-.43,1.53-.75,1.27-.85,1.65-3.02,2.26-4.19,1.6-3.03,3.8-5.62,8.29-6.93,2.58-.74,4.77-.57,7.43-.64,1.99-.05,3.54-.33,4.8-.84-.01-1.51-.03-2.98-.04-4.43-.03-3.87-.07-7.49-.12-10.83-1.88.04-2.64-.14-5.48,1.01-3.13,1.29-3.01,1.28-4.34,3.17Z"/>
    <path class="cls-3" d="M152.69,155.19c-3.63,1.74-9.16,2.97-13.48,3.1-3.65.1-6.79-.4-9.82-.4-.25,2.71-.44,5.84-.62,9.31-.07,1.44-.13,2.94-.19,4.5,1.26-.27,2.46-.27,3.68-.16.34-1.52.76-3.03,1.29-4.52.47-1.31,3.63-1.43,3.97,0,.43,1.78.73,3.58.92,5.39.14.01.28.03.42.04,9.79.66,8.31-6.77,14.9-9.27,2.7-1.03,4.87-.34,7.74-.61.18-.02.34-.03.5-.06-.01-.14-.01-.29-.01-.43-.07-3.83-.16-7.12-.28-9.74-.06-1.43-.13-2.66-.19-3.68-.43-.07-.86-.14-1.27-.2-2.95,2.09-3.94,5.03-7.56,6.75Z"/>
    <path class="cls-3" d="M142.08,147.22c-8.14.39-11.56,2.18-11.56,2.18-.31,1.35-.59,3.15-.83,5.33,6.2-.7,13.63.36,19.45-2.54,2.47-1.23,3.82-2.89,5.27-4.53-2.52-.27-4.79-.41-6.87-.47-2.02-.06-3.84-.04-5.46.03Z"/>
    <path class="cls-15" d="M131.07,195.77c2.21-.15,4.66.14,6.85-.62.3-6.3,1.03-12.73.78-19.08-1.43-.33-2.82-.75-4.33-.93-1.01-.12-1.92-.15-2.78-.12-1.03,6.87-.72,13.93-.88,20.76.12,0,.23,0,.35-.01Z"/>
    <path class="cls-15" d="M135.18,284.32c.46-4,.78-8.01,1.02-12.03-1.06.9-2.21,1.68-3.45,2.24.44,3.3.96,6.6,1.6,9.87.07.35.79.23.82-.08Z"/>
    <path class="cls-15" d="M136.88,238.89c.02-4.49.05-8.98.15-13.45-2.2.32-4.43.43-6.58.84.07,6.23.11,12.52.26,18.83,2.75-1.47,4.69-3.55,6.17-6.22Z"/>
    <path class="cls-15" d="M130.43,222.9c2.23-.59,4.64-.83,6.69-1.44.17-7.4.37-14.77.64-22.01-.5.1-1.02.17-1.57.21-1.31.09-1.42-.06-2.76-.2-.92-.17-1.85-.34-2.77-.51-.19,7.98-.27,15.96-.22,23.94Z"/>
    <path class="cls-15" d="M136.46,266.99c.29-7.1.36-14.21.39-21.32-.67.54-1.44,1.05-2.37,1.53-1.21.61-2.44,1.06-3.68,1.4.24,7.59.68,15.18,1.54,22.71,1.64-1.14,2.99-2.68,4.11-4.31Z"/>
    <path class="cls-15" d="M137.52,167.01c-.35-1.43-3.51-1.31-3.97,0-.53,1.49-.95,3-1.29,4.52,1.98.18,3.97.67,6.19.87-.19-1.81-.49-3.6-.92-5.39Z"/>
    <path class="cls-12" d="M153.93,277.68c-3.47,5.04-12.09,2.04-16.42,6.16-1.42,1.33-1.74,2.97-2.57,4.49-1.54,2.79-3.34,4.25-5.97,5.34.03,1.16.04,2.2.07,3.12,1.85-.3,3.6-1,5.15-1.99,5.92-3.73,3.38-9.76,13.36-10.55,4.53-.36,7.61-.32,9.53-3.72,1.33-2.33,1.36-4.86,2.91-7.18.62-.94,1.31-1.73,2.08-2.41.01-1.36.01-2.76.03-4.18-5.48,2.97-5.42,6.9-8.18,10.93Z"/>
    <path class="cls-12" d="M157.96,255.07c-2.08.42-4.8-.26-6.94-.37-1.77-.1-3.46-.33-5.18.14-3.59.96-4.56,3.76-5.83,6.02-.93,1.66-2.05,3.96-3.54,6.12-1.13,1.63-2.48,3.18-4.11,4.31-1.12.78-2.38,1.38-3.8,1.66.01.88.03,1.73.04,2.58,1.49-.05,2.87-.42,4.16-1.01,1.24-.57,2.39-1.34,3.45-2.24,3.87-3.3,6.57-8.35,8.34-11.4,1.92-3.3,4.53-2.71,9.44-2.59,1.24.03,2.41.22,3.65.13,1.65-.1,3.15-.44,4.55-1,.01-1.46.01-2.94.01-4.44-1.22.93-2.7,1.78-4.22,2.07Z"/>
    <path class="cls-12" d="M152.56,228.97c-3.97.22-6.5-.16-9.7,1.87-2.84,1.79-4.12,4.24-5.29,6.72-.22.46-.45.9-.69,1.33-1.48,2.66-3.42,4.75-6.17,6.22-.79.42-1.64.81-2.58,1.13,0,.47.01.95.01,1.42.01.49.01.97.03,1.46.89-.11,1.76-.29,2.63-.53,1.24-.34,2.47-.79,3.68-1.4.93-.47,1.7-.98,2.37-1.53,3.64-2.92,4.09-6.74,6.86-10.25,4.11-5.2,12.42-1.1,17.96-4.5.21-.12.4-.26.61-.38.01-2.18.01-4.38.03-6.56-2.02,2.53-3.97,4.7-9.75,5.01Z"/>
    <path class="cls-12" d="M142.16,213.22c-.31,1.6.09,3.51-.66,5.05-.86,1.76-2.46,2.63-4.38,3.2-2.05.6-4.46.85-6.69,1.44-.28.07-.56.15-.83.24-.58.19-1.12.39-1.62.63,0,1.05,0,2.09.01,3.15.8-.28,1.63-.48,2.46-.64,2.15-.41,4.38-.52,6.58-.84,1.95-.28,3.87-.74,5.66-1.72,3.68-2.03,3.69-5.38,4.06-8.35.15-1.15.01-2.59.87-3.61,1.64-2.01,5.73-2.69,8.98-3.01,1.96-.19,3.84-.15,5.71-.47,0-1.41,0-2.83-.01-4.23v-.04c-4.19,1.55-9.33.84-13.99,2.44-4,1.36-5.58,3.82-6.16,6.79Z"/>
    <path class="cls-12" d="M150,183.28c-4.49,1.3-6.69,3.89-8.29,6.93-.61,1.17-.99,3.34-2.26,4.19-.49.33-1.01.57-1.53.75-2.19.76-4.64.47-6.85.62-.13,0-.24,0-.35.01-1.02.04-1.83,0-2.67.11-.03.96-.03,1.93-.04,2.91v.31c.25-.18.5-.34.75-.51.63.12,1.26.23,1.89.35.92.17,1.85.34,2.77.51,1.34.13,1.45.29,2.76.2.56-.04,1.07-.11,1.57-.21.98-.19,1.88-.49,2.77-.95,6.85-3.54,4.3-12.12,14.95-12.43,2.52-.07,4.72.04,6.79-.2-.01-1.38-.01-2.74-.03-4.08-1.25.51-2.81.78-4.8.84-2.66.07-4.84-.1-7.43.64Z"/>
    <path class="cls-12" d="M153.77,163.17c-6.59,2.5-5.11,9.93-14.9,9.27-.14,0-.28-.02-.42-.04-2.22-.2-4.21-.69-6.19-.87-1.21-.11-2.42-.1-3.68.16-.04,1.1-.09,2.24-.13,3.4,0,.14-.01.29-.01.43.93-.29,1.99-.45,3.17-.5.86-.03,1.77,0,2.78.12,1.5.18,2.9.6,4.33.93,1.15.27,2.33.48,3.6.46,5.15-.09,7.87-2.86,9.94-5.8,1.33-1.89,1.21-1.88,4.34-3.17,2.84-1.16,3.6-.97,5.48-1.01-.01-1.4-.04-2.77-.06-4.06-.16.03-.33.04-.5.06-2.86.27-5.04-.42-7.74.61Z"/>
    <path class="cls-12" d="M149.15,152.19c-5.82,2.9-13.25,1.84-19.45,2.54-.12.98-.22,2.03-.31,3.16,3.03,0,6.17.51,9.82.4,4.33-.12,9.85-1.35,13.48-3.1,3.62-1.72,4.61-4.66,7.56-6.75-2.07-.34-4-.6-5.83-.78-1.45,1.64-2.81,3.3-5.27,4.53Z"/>
  </g>
  <g>
    <path class="cls-5" d="M208.55,134.01c-.29-2.91-.58-5.82-.86-8.73-3.37-.38-6.4-1.73-7.32-4.03-2.23-5.61,5.31-21.01,7.19-21.93,1.61-.78,12.08,17.59,10.82,22.51-.08.3-.2.55-.37.74-1.18,1.35-3.2,2.21-5.47,2.59.45,2.9.88,5.79,1.28,8.69,4.24-.51,8.1-1.99,10.26-4.45.28-.32.48-.73.6-1.22,2.08-8.12-15.19-38.42-17.84-37.14-3.1,1.51-15.54,26.92-11.85,36.17,1.64,4.13,7.44,6.42,13.57,6.8Z"/>
    <path class="cls-1" d="M211.8,120.51c.25,1.55.49,3.1.73,4.65,2.27-.38,4.29-1.24,5.47-2.59.17-.19.29-.44.37-.74,1.26-4.93-9.21-23.3-10.82-22.51-1.88.91-9.42,16.32-7.19,21.93.92,2.3,3.95,3.65,7.32,4.03-.15-1.59-.31-3.18-.47-4.77-.21-2.08,4.26-2,4.58,0Z"/>
    <path class="cls-11" d="M211.8,120.51c-.32-2-4.79-2.08-4.58,0,.16,1.59.31,3.18.47,4.77.28,2.91.56,5.82.86,8.73.28,2.75.57,5.51.9,8.26.2,1.63.35,3.28.5,4.94,1.63-.08,3.45-.1,5.46-.03-.24-1.96-.49-3.92-.68-5.85-.25-2.49-.57-4.98-.91-7.47-.39-2.9-.82-5.8-1.28-8.69-.24-1.55-.49-3.1-.73-4.65Z"/>
    <path class="cls-14" d="M198.35,230.53c-.02-1.56-.03-3.12-.05-4.67-.11-9.91,0-19.81.27-29.71.06-2.35.06-4.74.08-7.13-.97-.03-1.86-.2-2.66-.49,0,.39-.01.78-.01,1.19-.04,2.95-.09,6-.12,9.1-.04,5.76-.06,11.72-.06,17.74,0,1.79.01,3.58.01,5.38.01,2.84.03,5.68.04,8.5.34-.07.68-.1,1.02-.1.53,0,1.02.08,1.47.2Z"/>
    <path class="cls-14" d="M197.78,262.75c.48-.26,1.01-.44,1.56-.55-.65-8.82-.84-17.69-.94-26.49-.48.15-1,.23-1.53.23-.34,0-.66-.03-.97-.09.03,4,.07,7.96.1,11.83.03,1.85.06,3.68.07,5.49.06,3.85.12,7.57.18,11.15.25-.59.75-1.14,1.53-1.56Z"/>
    <path class="cls-14" d="M225.56,203.36c-1.33-.86-1.9-2.13-1.98-3.35-.07-1.18.81-2.53,1.98-3.35,1.2-.83,2.91-1.34,4.59-1.37,0-2.95-.01-5.84-.03-8.65-.01-3.2-.04-6.29-.07-9.25-.04-5.49-.1-10.51-.18-14.86-.3-.02-.61-.06-.92-.11-3.74-.6-6.17-3.61-5.08-6.15.17-.4.43-.77.73-1.12l-.07.06c.18-.2.35-.38.55-.57.13-.11.27-.22.41-.32.07-.08.18-.16.3-.25.37-.25.72-.43,1.09-.59.77-.49,1.7-.87,2.69-1.09v-.06c-.06-1.43-.12-2.66-.19-3.68-5.46-.92-10.08-1.34-13.97-1.46-2.02-.06-3.84-.04-5.46.03-8.15.39-11.56,2.19-11.56,2.19-.78,3.42-1.36,9.68-1.76,17.79-.12,2.47-.22,5.11-.33,7.9-.04,1.74-.1,3.55-.15,5.4.87-.3,1.82-.46,2.77-.46.31-4.41.98-8.78,2.49-13.01.47-1.31,3.63-1.43,3.97,0,2.31,9.54.75,19.5.36,29.13-.14,3.53-.26,7.11-.37,10.7,2.01-.98,5.03.01,4.99,1.8-.02.77-.17,1.47-1.1,1.97-.89.48-1.93.46-2.93.17-.4-.11-.75-.25-1.07-.42-.13,4.82-.25,9.67-.36,14.52-.29,12.93-.04,25.98-.46,38.98.11.15.21.31.3.48.34.61.23,1.34.04,1.96-.09.28-.25.53-.46.77-.24,5.76-.63,11.52-1.28,17.24-.04.31-.76.43-.82.08-1.04-5.29-1.77-10.63-2.32-15.99-1.05-.13-2.08-.52-2.67-1.14-.44-.34-.75-.73-.94-1.14.03,2.01.06,3.97.1,5.86.04,2.47.09,4.82.12,7.05.06,2.71.1,5.24.16,7.55h.21c9.61-.01,9.61,10.42.03,10.44.07,2.96.12,4.61.12,4.61h30.13s-2.59-.99-3.49-1.81c-1.36-1.23-1.91-2.62-1.6-4.17.21-1.11.84-2.08,1.95-2.93,1.33-1.01,3.77-1.57,5.79-1.36.04-5.71.09-13.48.15-22.48h-.06c-2.2.36-4.22.14-6.25-.57l-.24-.08c-1.88-.65-3.09-2.02-3.71-3.36-.55-1.19-.27-2.55.41-3.66.69-1.16,1.8-2.02,3.29-2.69,1.86-.84,4.14-.84,6.22-.57l.27.03.13.02v-.31c.03-5.75.06-11.8.07-17.99.01-2.52.03-5.05.03-7.6,0-1.37.01-2.75.01-4.13-3.03.84-6.53.35-9.01-1.28l-.19-.13c-1.05-.73-1.77-1.61-2.19-2.62-.35-.78-.4-1.58-.15-2.36.31-1.62,1.36-2.89,3.2-3.88,2.05-1.11,4.84-1.64,7.41-1.06.31.09.62.18.93.28.02-1.99.02-3.98.02-5.97,0-2.08,0-4.17-.02-6.22-1.76-.03-3.32-.56-4.61-1.38ZM208.42,157.34c-2.25.21-4.54-.71-5.32-2.22-.33-.17-.65-.34-.91-.57-.98-.81-1.64-1.6-1.63-2.69.01-.92.56-1.83,1.5-2.48,1.42-.97,3.32-1.18,5.19-.91,3.44.5,5.39,3.18,5.49,5.44.08,1.74-1.96,3.2-4.32,3.42ZM213.87,284.01c-1.82,0-3.18-1.04-3.25-2.27-.08-1.23,1.55-2.27,3.25-2.27,1.82,0,3.17,1.04,3.25,2.27.08,1.23-1.55,2.27-3.25,2.27ZM220.38,244.11c.89,1.06,1.16,2.27.92,3.47-.22,1.14-.89,2.32-2.14,3.12-.99.64-2.15,1.11-3.44,1.4-1.64.37-3.52.18-5.07-.27-1.54-.46-2.87-1.2-3.72-2.23-.74-.88-1.04-1.85-1.01-2.82-.02.02-.04.05-.06.07v-.15c0-1.69,1.12-3.16,3-4.18,1.95-1.05,4.24-1.35,6.64-.95l.21.04c1.92.32,3.67,1.32,4.65,2.5ZM210.51,188.84c-.09-1.46,1.85-2.71,3.88-2.71,2.17,0,3.78,1.24,3.88,2.71.09,1.46-1.85,2.71-3.88,2.71-2.17,0-3.78-1.24-3.88-2.71ZM215.42,173.87c-2.72,0-4.73-1.55-4.85-3.39-.12-1.83,2.31-3.39,4.85-3.39,2.72,0,4.73,1.55,4.85,3.39.12,1.83-2.31,3.39-4.85,3.39Z"/>
    <path class="cls-4" d="M205.37,184.52c.07,1.13-.77,2.4-1.89,3.18-1.17.83-2.89,1.32-4.55,1.32-.1,0-.19,0-.28-.01-.01,2.39-.02,4.78-.08,7.13-.27,9.91-.37,19.81-.27,29.71.02,1.55.03,3.11.05,4.67,1.47.42,2.46,1.44,2.53,2.6.08,1.13-1.03,2.14-2.47,2.57.1,8.8.29,17.67.94,26.49.73-.14,1.52-.16,2.3,0,1.35.26,2.21.88,2.79,1.69.42-13,.17-26.05.46-38.98.11-4.85.22-9.7.36-14.52-.64-.34-1.09-.8-1.21-1.43-.15-.79.29-1.55,1.2-2.04.04-.02.08-.04.12-.06.11-3.59.23-7.17.37-10.7.39-9.63,1.96-19.58-.36-29.13-.35-1.43-3.51-1.31-3.97,0-1.51,4.23-2.18,8.6-2.49,13.01,0,0,0,0,.01,0,3.6,0,6.28,2.06,6.44,4.5Z"/>
    <path class="cls-4" d="M201.25,268.44c-.43.04-.89.02-1.35-.03.54,5.37,1.28,10.71,2.32,15.99.07.35.79.23.82-.08.65-5.72,1.04-11.47,1.28-17.24-.67.74-1.87,1.24-3.07,1.36Z"/>
    <path class="cls-8" d="M196.88,286.58h-.21c.09,4.33.18,7.89.24,10.45,9.58-.02,9.58-10.45-.03-10.45Z"/>
    <path class="cls-8" d="M213.87,279.46c-1.7,0-3.33,1.05-3.25,2.27.08,1.23,1.43,2.27,3.25,2.27,1.7,0,3.33-1.05,3.25-2.27-.08-1.23-1.43-2.27-3.25-2.27Z"/>
    <path class="cls-8" d="M229.63,257.96c-2.08-.27-4.36-.27-6.22.57-1.49.67-2.6,1.54-3.29,2.69-.68,1.11-.96,2.48-.41,3.66.62,1.34,1.83,2.71,3.71,3.36l.24.08c2.02.71,4.05.93,6.25.58h.06c0-1,.01-2,.01-3.02.01-2.55.03-5.17.06-7.87l-.13-.02-.27-.03Z"/>
    <path class="cls-8" d="M199.89,268.41c.46.06.92.07,1.35.03,1.2-.11,2.4-.62,3.07-1.36.21-.24.37-.49.46-.77.19-.62.3-1.35-.04-1.96-.09-.17-.19-.32-.3-.48-.58-.81-1.44-1.43-2.79-1.69-.78-.15-1.56-.14-2.3,0-.56.11-1.09.29-1.56.55-.77.42-1.28.97-1.53,1.56-.25.59-.24,1.23.03,1.82.19.42.5.81.94,1.14.59.62,1.61,1.01,2.67,1.14Z"/>
    <path class="cls-8" d="M215.51,241.57c-2.41-.4-4.69-.1-6.64.95-1.88,1.02-3,2.49-3,4.18v.15s.04-.05.06-.07c-.04.96.27,1.94,1.01,2.82.86,1.02,2.18,1.77,3.72,2.23,1.55.46,3.43.65,5.07.27,1.29-.29,2.44-.76,3.44-1.4,1.25-.8,1.92-1.98,2.14-3.12.23-1.2-.04-2.41-.92-3.47-.99-1.18-2.74-2.18-4.65-2.5l-.21-.04Z"/>
    <path class="cls-8" d="M198.41,235.7c1.44-.43,2.55-1.44,2.47-2.57-.07-1.17-1.06-2.19-2.53-2.6-.45-.13-.95-.2-1.47-.2-.34,0-.68.03-1.02.1.01,1.81.03,3.61.04,5.41.31.06.63.09.97.09.53,0,1.05-.08,1.53-.23Z"/>
    <path class="cls-8" d="M221.82,217.71c-1.85.99-2.89,2.26-3.2,3.88-.25.78-.21,1.58.15,2.36.41,1.01,1.14,1.89,2.19,2.62l.19.13c2.48,1.63,5.98,2.12,9.01,1.28.01-3.68.01-7.39.01-11.06-.31-.1-.62-.19-.93-.28-2.57-.58-5.36-.05-7.41,1.06Z"/>
    <path class="cls-8" d="M204.05,208.94c.12.63.57,1.09,1.21,1.43.31.17.67.3,1.07.42,1.01.28,2.04.31,2.93-.17.93-.5,1.08-1.2,1.1-1.97.04-1.79-2.98-2.79-4.99-1.8-.04.02-.08.03-.12.06-.91.49-1.35,1.25-1.2,2.04Z"/>
    <path class="cls-8" d="M223.58,200c.07,1.23.65,2.5,1.98,3.35,1.28.83,2.85,1.35,4.61,1.38v-.7c0-2.96,0-5.89-.01-8.76-1.68.03-3.4.55-4.59,1.37-1.17.83-2.05,2.18-1.98,3.35Z"/>
    <path class="cls-8" d="M218.26,188.84c-.09-1.47-1.7-2.71-3.88-2.71-2.03,0-3.97,1.25-3.88,2.71.09,1.47,1.7,2.71,3.88,2.71,2.03,0,3.97-1.25,3.88-2.71Z"/>
    <path class="cls-8" d="M198.93,189.02c1.65,0,3.38-.5,4.55-1.32,1.12-.77,1.96-2.05,1.89-3.18-.16-2.44-2.84-4.5-6.44-4.5,0,0,0,0-.01,0-.94,0-1.9.17-2.77.46-.06,2.59-.12,5.26-.16,8.03.79.29,1.69.46,2.66.49.09,0,.18.01.28.01Z"/>
    <path class="cls-8" d="M210.57,170.48c.12,1.83,2.13,3.39,4.85,3.39,2.53,0,4.96-1.56,4.85-3.39-.12-1.83-2.13-3.39-4.85-3.39-2.54,0-4.96,1.56-4.85,3.39Z"/>
    <path class="cls-8" d="M225.79,154.07c-.12.08-.22.17-.3.25-.15.1-.28.21-.41.32-.19.19-.37.37-.55.57l.07-.06c-.3.35-.57.72-.73,1.12-1.09,2.54,1.34,5.55,5.08,6.15.31.05.62.09.92.11-.01-.16-.01-.3-.01-.45-.07-3.8-.16-7.07-.28-9.68-.99.23-1.92.61-2.69,1.09-.37.16-.72.34-1.09.59Z"/>
    <path class="cls-8" d="M212.74,153.92c-.1-2.26-2.05-4.94-5.49-5.44-1.87-.27-3.77-.06-5.19.91-.94.64-1.49,1.56-1.5,2.48-.01,1.1.65,1.89,1.63,2.69.27.22.58.4.91.57.78,1.51,3.07,2.43,5.32,2.22,2.37-.22,4.4-1.68,4.32-3.42Z"/>
    <path class="cls-8" d="M230.75,292.55c-.1,0-.19,0-.3-.01l.21.02h.09Z"/>
    <path class="cls-8" d="M224.02,292.74c-1.11.85-1.74,1.82-1.95,2.93-.31,1.55.24,2.94,1.6,4.17.9.82,2.13,1.45,3.49,1.81h2.57s.03-3.33.07-9.02c.01-.29.01-.6.01-.91.52-.02-4.46.01-5.79,1.02Z"/>
  </g>
  <g>
    <path class="cls-5" d="M276.4,134.01c-.29-2.91-.58-5.82-.86-8.73-3.37-.38-6.4-1.73-7.32-4.03-2.23-5.61,5.31-21.01,7.19-21.93,1.61-.78,12.08,17.59,10.82,22.51-.08.3-.2.55-.37.74-1.18,1.35-3.2,2.21-5.47,2.59.45,2.9.88,5.79,1.28,8.69,4.24-.51,8.1-1.99,10.26-4.45.28-.32.48-.73.6-1.22,2.08-8.12-15.19-38.42-17.84-37.14-3.1,1.51-15.53,26.92-11.85,36.17,1.64,4.13,7.44,6.42,13.57,6.8Z"/>
    <path class="cls-1" d="M279.66,120.51c.25,1.55.49,3.1.73,4.65,2.27-.38,4.29-1.24,5.47-2.59.17-.19.29-.44.37-.74,1.26-4.93-9.21-23.3-10.82-22.51-1.88.91-9.42,16.32-7.19,21.93.92,2.3,3.95,3.65,7.32,4.03-.15-1.59-.31-3.18-.47-4.77-.21-2.08,4.26-2,4.58,0Z"/>
    <path class="cls-11" d="M279.66,120.51c-.32-2-4.79-2.08-4.58,0,.16,1.59.31,3.18.47,4.77.28,2.91.56,5.82.86,8.73.28,2.75.57,5.51.9,8.26.2,1.63.35,3.28.5,4.94,1.63-.08,3.44-.1,5.46-.03-.24-1.96-.49-3.92-.68-5.85-.25-2.49-.57-4.98-.91-7.47-.39-2.9-.82-5.8-1.28-8.69-.24-1.55-.49-3.1-.73-4.65Z"/>
    <path class="cls-10" d="M265.72,152.33c-.41,2.78-.75,6.46-1,10.84h0c1.26,2.13,2.51,4.26,3.75,6.38.24-.85.49-1.7.79-2.54.47-1.31,3.63-1.43,3.97,0,1.03,4.23,1.29,8.54,1.23,12.87,3.3,5.76,6.54,11.52,9.75,17.31,4.73,8.55,9.33,17.12,13.81,25.73.01-4,.01-8.01.01-11.96,0-2.32,0-4.63-.01-6.92v-.02c-4.22-7.6-8.59-15.15-13.11-22.64-5.94-9.82-12.45-19.48-19.18-29.04Z"/>
    <path class="cls-10" d="M297.59,156.97c-.04-1.72-.1-3.27-.16-4.64-.06-1.43-.12-2.66-.19-3.68-2.11-.36-4.11-.64-5.98-.85,1.21,1.82,2.44,3.61,3.66,5.39.87,1.26,1.77,2.52,2.67,3.79Z"/>
    <path class="cls-10" d="M270.69,148.05c-1.57.32-2.69.66-3.41.93l.53.77c7.09,10.42,13.7,20.99,20.32,31.57,3.4,5.45,6.69,10.93,9.88,16.42,0-3.81-.01-7.52-.03-11.12,0-.65,0-1.3-.01-1.94-4.95-7.07-10-14.11-15.17-21.11-3.87-5.22-7.98-10.38-12.11-15.53Z"/>
    <path class="cls-10" d="M274.22,185.9c-.21,3.43-.49,6.86-.63,10.24,0,.07,0,.14,0,.2,1.42,2.85,2.83,5.71,4.23,8.56,6.62,13.43,13.39,26.81,20.13,40.21,0-1.79.01-3.58.01-5.4.01-2.52.03-5.05.03-7.6,0-.94.01-1.87.01-2.81h0c-5.32-10.26-10.81-20.46-16.48-30.6-2.39-4.28-4.83-8.55-7.3-12.81Z"/>
    <path class="cls-10" d="M297.36,303c.03-3.19.32-14.23.41-25.34v-.02c-6.82-16.68-14.28-33.24-22.09-49.64-.93-1.95-1.88-3.9-2.85-5.84-.02.92-.04,1.83-.06,2.75-.07,3.03-.1,6.06-.13,9.1.92,2.09,1.85,4.19,2.75,6.28,8.54,19.78,16.24,39.71,22.21,59.93"/>
    <path class="cls-10" d="M266.18,209.42c-.83-1.53-1.65-3.06-2.49-4.59-.01,3.02-.03,6.08-.03,9.16.84,1.81,1.65,3.63,2.47,5.44,0-3.34.01-6.68.05-10.02Z"/>
    <path class="cls-10" d="M266.16,225.86c0-.41,0-.82,0-1.22-.83-1.81-1.65-3.62-2.5-5.43.01.91.01,1.82.01,2.72,0,1.85.01,3.7.03,5.54.88,2.99,1.73,5.98,2.57,8.96-.04-3.54-.07-7.06-.11-10.57Z"/>
    <path class="cls-10" d="M266.43,196.14c.04-1.66.06-3.33.07-5.01-.87-1.67-1.72-3.34-2.6-5-.03,1.18-.04,2.36-.06,3.57-.03,1.97-.06,3.97-.07,6.02h0c.87,1.76,1.71,3.52,2.56,5.28.03-1.62.07-3.24.11-4.86Z"/>
    <path class="cls-10" d="M264.88,301.65h3.19c-1.23-4.64-2.38-9.29-3.51-13.93.19,8.64.33,13.93.33,13.93Z"/>
    <path class="cls-10" d="M267.42,174.34c-1-1.68-2.01-3.36-3.02-5.04-.07,1.85-.16,3.78-.24,5.78-.03.87-.04,1.74-.07,2.64.86,1.63,1.71,3.26,2.55,4.89.11-2.77.34-5.54.78-8.28Z"/>
    <path class="cls-10" d="M287.01,300.38c.97,0,1.69,0,2.15,0,.38,0,1,0,1.79,0,1.03,0,2.56,0,4.29,0-6.06-20.12-13.45-40.04-21.91-59.71-.24-.55-.49-1.1-.73-1.66-.03,6.59-.03,13.2-.17,19.8,3.74,13.84,7.33,27.7,10.89,41.57,1.44,0,2.72,0,3.69,0Z"/>
    <path class="cls-10" d="M291.31,300.84c-.08,0-3.87,0-7.88,0,.01.04.02.08.03.13,3.27-.04,8.67-.04,11.94-.04,0-.03-.02-.05-.02-.08-2.08,0-3.7,0-4.07,0Z"/>
    <path class="cls-10" d="M283.51,301.11c.05.18.09.36.14.54,4.51-.02,9.92-.07,11.99,0-.05-.16-.11-.33-.16-.49-3.22,0-8.67,0-11.98-.04Z"/>
    <path class="cls-10" d="M273.3,204.37c-.11,3.55-.21,7.13-.31,10.72,1.78,3.81,3.56,7.61,5.36,11.38,7.07,14.92,13.48,29.93,19.45,45.04.01-1.82.03-3.69.04-5.61.01-2.64.01-5.38.04-8.18,0-1.33.01-2.67.01-4.04-7.66-15.41-15.21-30.84-23.02-46.21-.52-1.03-1.05-2.06-1.58-3.1Z"/>
    <path class="cls-10" d="M280.72,301.04s.07-.01.13-.02c-.02-.07-.04-.13-.05-.2-3.65-.02-6.84-.05-6.84-.11s2.55-.09,5.68-.1c-4.21-.01-8.3-.04-8.3-.11,0-.08,4.78-.11,9.34-.12-2.86-10.49-5.7-20.99-8.58-31.48-.24,5.16-.62,10.3-1.2,15.42-.03.31-.76.43-.82.08-2.29-11.66-3.16-23.57-3.54-35.46-.11-.4-.22-.8-.34-1.2-.77-2.69-1.56-5.38-2.41-8.05.03,2.69.06,5.36.09,7.98.01,1.85.04,3.68.06,5.49.09,6.14.18,11.99.28,17.37,2.08,10.4,3.88,20.84,6.17,31.13h10.63c-.05-.2-.11-.4-.16-.6-.07,0-.14-.01-.14-.02Z"/>
    <path class="cls-10" d="M277.8,147.21c-1.04.05-2.01.12-2.89.21,3.78,4.95,7.41,9.95,11.06,14.87,4.09,5.53,8.08,11.12,11.95,16.73,0-.55-.01-1.09-.01-1.64-.03-4.6-.09-8.88-.15-12.69h0c-2.61-3.94-5.17-7.88-7.89-11.73-1.33-1.89-2.72-3.78-4.12-5.67h-.01c-.86-.05-1.67-.09-2.47-.11-2.02-.06-3.84-.04-5.46.03Z"/>
    <path class="cls-13" d="M264.25,271.99c.04,2.47.09,4.82.13,7.05.06,3.17.12,6.08.18,8.68,1.14,4.64,2.29,9.29,3.51,13.93h2.32c-2.29-10.29-4.09-20.72-6.17-31.13.01.5.01.98.03,1.47Z"/>
    <path class="cls-13" d="M266.53,248.94c-.13-4.18-.21-8.35-.26-12.51-.84-2.98-1.69-5.97-2.57-8.96.01,4.1.06,8.19.09,12.22.84,2.67,1.64,5.36,2.41,8.05.11.4.22.8.34,1.2Z"/>
    <path class="cls-13" d="M283.32,300.38c-3.56-13.87-7.15-27.73-10.89-41.57-.07,3.37-.17,6.73-.33,10.09,2.88,10.49,5.72,20.99,8.58,31.48.91,0,1.79,0,2.64,0Z"/>
    <path class="cls-13" d="M275.38,240.27c-.9-2.09-1.84-4.19-2.75-6.28-.01,1.67-.02,3.34-.03,5.02.24.55.49,1.1.73,1.66,8.46,19.67,10.59,19.39,2.05-.39Z"/>
    <path class="cls-13" d="M266.13,219.44c-.83-1.81-1.63-3.63-2.47-5.44v5.2c.85,1.81,1.67,3.62,2.5,5.43-.02-1.73-.03-3.46-.03-5.19Z"/>
    <path class="cls-13" d="M266.32,201c-.85-1.76-1.69-3.51-2.56-5.27-.03,1.02-.03,2.04-.04,3.08-.01,1.98-.03,3.99-.03,6.02h0c.84,1.54,1.67,3.07,2.49,4.6.03-2.81.08-5.61.14-8.42Z"/>
    <path class="cls-13" d="M272.99,215.08c-.06,2.35-.12,4.71-.17,7.06.97,1.94,1.93,3.89,2.85,5.84,7.81,16.4,15.27,32.96,22.09,49.64,0-1.96.01-4,.03-6.13-5.97-15.11-12.38-30.12-19.45-45.04-1.79-3.77-3.57-7.57-5.36-11.38Z"/>
    <path class="cls-13" d="M273.59,196.35c-.11,2.65-.2,5.33-.29,8.02.53,1.03,1.05,2.06,1.58,3.1,7.81,15.37,15.36,30.8,23.02,46.21.01-2.8.03-5.65.04-8.55h0c-6.73-13.41-13.51-26.79-20.13-40.22-1.4-2.85-2.81-5.71-4.23-8.56Z"/>
    <path class="cls-13" d="M266.64,182.62c-.85-1.63-1.69-3.26-2.55-4.89-.07,2.69-.13,5.5-.19,8.4.88,1.66,1.74,3.34,2.6,5,.02-2.82.02-5.67.14-8.51Z"/>
    <path class="cls-13" d="M274.47,179.89c-.03,2-.12,4.01-.24,6.01,2.47,4.26,4.91,8.53,7.3,12.81,5.67,10.15,11.17,20.34,16.48,30.59,0-2.12.01-4.24.01-6.37h0c-4.47-8.62-9.08-17.19-13.81-25.74-3.2-5.78-6.45-11.55-9.75-17.31Z"/>
    <path class="cls-13" d="M268.47,169.55c-1.25-2.13-2.49-4.25-3.75-6.37-.09,1.28-.16,2.61-.24,4.02-.03.69-.06,1.39-.09,2.12,1.02,1.68,2.02,3.36,3.02,5.04.26-1.61.61-3.21,1.05-4.79Z"/>
    <path class="cls-13" d="M267.81,149.75l-.53-.77c-.69.25-1.03.42-1.03.42-.19.82-.37,1.8-.52,2.92h0c6.73,9.58,13.25,19.24,19.18,29.05,4.52,7.49,8.89,15.05,13.11,22.64,0-2.12,0-4.21-.01-6.27-3.19-5.49-6.48-10.97-9.88-16.42-6.62-10.58-13.23-21.15-20.32-31.57Z"/>
    <path class="cls-13" d="M274.91,147.42c-1.67.17-3.07.39-4.22.63,4.13,5.15,8.24,10.31,12.11,15.53,5.17,7,10.22,14.04,15.17,21.11-.01-1.93-.03-3.81-.04-5.66h0c-3.87-5.62-7.86-11.21-11.95-16.74-3.65-4.92-7.28-9.92-11.06-14.87Z"/>
    <path class="cls-13" d="M297.75,164.68c-.01-.9-.03-1.76-.04-2.61-.03-1.83-.07-3.53-.12-5.09h0c-.9-1.28-1.8-2.54-2.67-3.8-1.23-1.78-2.45-3.57-3.66-5.39-1.96-.24-3.8-.4-5.51-.51,1.4,1.89,2.79,3.78,4.12,5.67,2.72,3.85,5.27,7.79,7.89,11.72Z"/>
    <path class="cls-2" d="M266.64,182.62c-.12,2.84-.12,5.69-.14,8.51,0,1.68-.02,3.35-.07,5.01-.04,1.62-.08,3.24-.11,4.86-.06,2.81-.11,5.61-.14,8.42-.04,3.34-.06,6.68-.05,10.02,0,1.73.01,3.46.03,5.19,0,.41,0,.82,0,1.22.04,3.51.07,7.03.11,10.57.05,4.16.13,8.33.26,12.51.38,11.89,1.25,23.81,3.54,35.46.07.35.79.23.82-.08.58-5.12.96-10.27,1.2-15.42.16-3.36.26-6.72.33-10.09.14-6.6.14-13.21.17-19.8,0-1.67.02-3.35.03-5.02.02-3.04.06-6.07.13-9.1.02-.92.04-1.83.06-2.75.05-2.36.11-4.71.17-7.06.09-3.59.19-7.17.31-10.72.09-2.69.18-5.37.29-8.02,0-.07,0-.14,0-.2.14-3.38.42-6.81.63-10.24.12-2,.22-4.01.24-6.01.06-4.33-.2-8.64-1.23-12.87-.35-1.43-3.51-1.31-3.97,0-.3.84-.56,1.69-.79,2.54-.44,1.58-.79,3.18-1.05,4.79-.45,2.74-.67,5.5-.78,8.28Z"/>
  </g>
  <g>
    <path class="cls-5" d="M344.26,134.01c-.29-2.91-.58-5.82-.86-8.73-3.37-.38-6.4-1.73-7.32-4.03-2.23-5.61,5.31-21.01,7.19-21.93,1.61-.78,12.08,17.59,10.82,22.51-.08.3-.2.55-.37.74-1.18,1.35-3.2,2.21-5.47,2.59.45,2.9.88,5.79,1.28,8.69,4.24-.51,8.1-1.99,10.26-4.45.28-.32.48-.73.6-1.22,2.08-8.12-15.19-38.42-17.84-37.14-3.1,1.51-15.54,26.92-11.85,36.17,1.64,4.13,7.44,6.42,13.57,6.8Z"/>
    <path class="cls-1" d="M347.52,120.51c.25,1.55.49,3.1.73,4.65,2.27-.38,4.29-1.24,5.47-2.59.17-.19.29-.44.37-.74,1.26-4.93-9.21-23.3-10.82-22.51-1.88.91-9.42,16.32-7.19,21.93.92,2.3,3.95,3.65,7.32,4.03-.15-1.59-.31-3.18-.47-4.77-.21-2.08,4.26-2,4.58,0Z"/>
    <path class="cls-11" d="M347.52,120.51c-.32-2-4.79-2.08-4.58,0,.16,1.59.31,3.18.47,4.77.28,2.91.56,5.82.86,8.73.28,2.75.57,5.51.9,8.26.2,1.63.35,3.28.5,4.94,1.63-.08,3.45-.1,5.46-.03-.24-1.96-.49-3.92-.68-5.85-.25-2.49-.57-4.98-.91-7.47-.39-2.9-.82-5.8-1.28-8.69-.24-1.55-.49-3.1-.73-4.65Z"/>
    <path class="cls-7" d="M333.91,259.98c.34-.08.67-.1,1-.1-.39-6.01-.58-12.04-.69-18.05-.14.14-.25.36-.31.68-.86.52-1.57,1.66-2.19,2.83,0,.78,0,1.55.01,2.32.01,1.85.04,3.68.06,5.49.04,2.8.09,5.52.13,8.18.43-.61.99-1.14,1.98-1.36Z"/>
    <path class="cls-7" d="M333.91,280.94c1.26-.29,2.43,0,3.51.65-1.1-6.22-1.82-12.5-2.3-18.81-.64-.34-1.05-.11-1.2.68-.72.44-1.36,1.34-1.9,2.32.03,2.14.07,4.2.1,6.2.04,2.47.09,4.82.13,7.05.01.96.04,1.89.06,2.8.38-.41.87-.73,1.61-.9Z"/>
    <path class="cls-7" d="M333.91,239.03c.09-.02.17-.02.26-.04-.07-4.4-.1-8.78-.15-13.13-.02-1.54-.02-3.08-.03-4.63-.03.1-.07.2-.09.32-.93.57-1.7,1.88-2.36,3.17.03,5.38.07,10.75.12,16.02.49-.75,1.06-1.45,2.24-1.71Z"/>
    <path class="cls-7" d="M361.06,281.62c-1.4,3.43-2.55,6.85-3.44,10.39-.35,1.39-3.44,1.61-4.31.4-2.3-3.21-3.81-6.53-4.96-9.98-1.51,2.98-2.91,9.2-3.38,10.48-.41,1.08-3.03,1.51-3.74.34-1.27-2.12-2.56-4.22-3.83-6.33-.55-.91-1.09-1.81-1.64-2.71-1.03-.91-1.65-.84-1.86.22-.56.35-1.06.96-1.52,1.67.21,9.59.37,15.55.37,15.55h32.68s.04-4.53.1-12.04c-.72-.76-1.36-1.58-1.93-2.49-1.02-1.61-1.52-3.71-2.54-5.5Z"/>
    <path class="cls-7" d="M333.91,218.06s.05,0,.08-.01c0-6.04.08-12.08.22-18.12-.13.14-.23.35-.29.66-.93.58-1.7,1.89-2.36,3.17-.01,4.2-.03,8.48-.03,12.79,0,1.16,0,2.31.01,3.47.5-.84,1.08-1.65,2.38-1.95Z"/>
    <path class="cls-7" d="M333.91,197.11c.12-.03.24-.04.36-.05,0-.31.01-.61.02-.92.15-5.69-.05-11.55.45-17.33-.43-.08-.7.19-.83.83-.8.49-1.49,1.54-2.08,2.63-.04,2.4-.1,4.88-.13,7.43-.04,2.95-.09,6-.12,9.1v.17c.5-.8,1.08-1.58,2.33-1.86Z"/>
    <path class="cls-7" d="M333.91,176.15c.38-.09.75-.11,1.12-.1.4-3.06,1.04-6.09,2.1-9.04.36-1.01,2.33-1.31,3.37-.73-1.03-1.7-2.06-3.41-3.09-5.1-.55-.9-1.09-1.81-1.64-2.71-1.03-.9-1.65-.83-1.86.22-.38.25-.75.62-1.09,1.07-.18,2.25-.34,4.75-.47,7.44-.1,2.47-.22,5.11-.32,7.9-.03.77-.04,1.56-.06,2.36.43-.59.99-1.08,1.95-1.3Z"/>
    <path class="cls-7" d="M361.06,260.66c-1.4,3.43-2.55,6.86-3.44,10.4-.35,1.38-3.44,1.61-4.31.39-2.3-3.21-3.81-6.52-4.96-9.98-1.51,2.99-2.91,9.2-3.38,10.48-.41,1.09-3.03,1.51-3.74.34-.44-.73-.89-1.47-1.33-2.21-.22,4.24-.53,8.46-.98,12.68,1.55,1.48,2.84,3.58,3.85,5.43.3-.65.59-1.31.87-1.96.74-1.66,1.09-4.48,2.53-5.94.96-.98.93-1.36,2.63-1.76.86-.2,1.89.24,2.1.84.9,2.64,2.23,5.12,3.81,7.54,1.2-2.98,2.51-5.94,3.96-8.88.46-.91,2.11-1.33,3.15-.59,1.76,1.27,2.52,2.46,3.5,4.05.1.15.19.32.3.47.03-3.95.06-8.38.07-13.15-.78-.82-1.46-1.67-2.07-2.64-1.02-1.61-1.52-3.7-2.54-5.51Z"/>
    <path class="cls-7" d="M361.06,176.83c-1.4,3.43-2.55,6.85-3.44,10.39-.35,1.39-3.44,1.61-4.31.4-2.3-3.22-3.81-6.53-4.96-9.98-1.51,2.98-2.91,9.2-3.38,10.48-.33.86-2.04,1.29-3.09.85-.16,2.4-.33,4.8-.43,7.17-.08,1.88-.14,3.78-.21,5.68.56.85,1.07,1.72,1.52,2.55.3-.66.59-1.31.87-1.97.74-1.66,1.09-4.47,2.53-5.93.96-.98.93-1.37,2.63-1.77.86-.2,1.89.23,2.1.84.9,2.64,2.23,5.12,3.81,7.54,1.2-2.98,2.51-5.96,3.96-8.89.46-.91,2.11-1.33,3.15-.58,1.76,1.26,2.52,2.46,3.5,4.05.19.31.38.61.56.91,0-4.1-.01-8.09-.03-11.94,0-.51,0-1.01-.01-1.51-.84-.86-1.57-1.75-2.22-2.79-1.02-1.61-1.52-3.71-2.54-5.5Z"/>
    <path class="cls-7" d="M361.06,155.87c-1.4,3.43-2.55,6.86-3.44,10.4-.35,1.38-3.44,1.61-4.31.39-2.3-3.21-3.81-6.52-4.96-9.98-1.51,2.99-2.91,9.2-3.38,10.48-.41,1.09-3.03,1.51-3.74.34-.01-.02-.03-.05-.04-.07,1.14,4.95,1.26,10,1.06,15.06.18.31.35.61.51.91.3-.65.59-1.31.87-1.96.74-1.66,1.09-4.48,2.53-5.94.96-.98.93-1.36,2.63-1.76.86-.2,1.89.24,2.1.84.9,2.64,2.23,5.12,3.81,7.54,1.2-2.98,2.51-5.94,3.96-8.88.46-.91,2.11-1.33,3.15-.59,1.76,1.27,2.52,2.46,3.5,4.05.15.26.31.51.46.74v-.06c-.03-4.9-.09-9.42-.16-13.44-.75-.78-1.4-1.62-1.99-2.56-1.02-1.61-1.52-3.71-2.54-5.51Z"/>
    <path class="cls-7" d="M361.06,239.71c-1.4,3.42-2.55,6.85-3.44,10.39-.35,1.39-3.44,1.61-4.31.39-2.3-3.21-3.81-6.52-4.96-9.97-1.51,2.98-2.91,9.19-3.38,10.47-.41,1.09-3.03,1.52-3.74.34-.27-.45-.55-.91-.82-1.36-.03,4.41-.1,8.83-.23,13.23,1,1.26,1.87,2.71,2.59,4.03.3-.65.59-1.31.87-1.96.74-1.66,1.09-4.47,2.53-5.93.96-.99.93-1.37,2.63-1.77.86-.2,1.89.23,2.1.84.9,2.64,2.23,5.12,3.81,7.54,1.2-2.99,2.51-5.95,3.96-8.89.46-.91,2.11-1.33,3.15-.58,1.76,1.26,2.52,2.46,3.5,4.04.13.23.28.45.43.68,0-1.16.01-2.32.01-3.5.01-3.17.03-6.42.04-9.74-.83-.85-1.55-1.74-2.19-2.76-1.02-1.61-1.52-3.71-2.54-5.5Z"/>
    <path class="cls-7" d="M361.06,218.75c-1.4,3.43-2.55,6.86-3.44,10.4-.35,1.38-3.44,1.6-4.31.39-2.3-3.21-3.81-6.53-4.96-9.98-1.51,2.99-2.91,9.2-3.38,10.48-.41,1.09-3.03,1.51-3.74.34-.23-.38-.46-.76-.69-1.14-.06,4.44-.08,8.9-.1,13.36.89,1.18,1.66,2.49,2.32,3.69.3-.66.59-1.31.87-1.97.74-1.65,1.09-4.47,2.53-5.93.96-.98.93-1.36,2.63-1.76.86-.2,1.89.24,2.1.84.9,2.64,2.23,5.12,3.81,7.54,1.2-2.98,2.51-5.94,3.96-8.88.46-.91,2.11-1.34,3.15-.59,1.76,1.27,2.52,2.46,3.5,4.05.18.28.34.56.52.83v-.68c.01-2.52.03-5.05.03-7.6,0-1.68.01-3.36.01-5.05-.87-.87-1.59-1.79-2.26-2.82-1.02-1.62-1.52-3.7-2.54-5.51Z"/>
    <path class="cls-7" d="M361.06,197.78c-1.4,3.43-2.55,6.86-3.44,10.4-.35,1.39-3.44,1.61-4.31.39-2.3-3.21-3.81-6.52-4.96-9.97-1.51,2.98-2.91,9.19-3.38,10.47-.41,1.09-3.03,1.52-3.74.34-.07-.12-.14-.24-.21-.36-.12,4.28-.23,8.58-.33,12.9.79,1.09,1.48,2.27,2.08,3.36.3-.65.59-1.31.87-1.96.74-1.66,1.09-4.48,2.53-5.93.96-.99.93-1.37,2.63-1.77.86-.21,1.89.23,2.1.84.9,2.63,2.23,5.12,3.81,7.54,1.2-2.99,2.51-5.96,3.96-8.89.46-.91,2.11-1.33,3.15-.58,1.76,1.26,2.52,2.45,3.5,4.04.19.32.38.63.58.93.01-2.87.01-5.74.01-8.58,0-1.61,0-3.22-.01-4.82-.87-.87-1.61-1.8-2.27-2.85-1.02-1.61-1.52-3.7-2.54-5.51Z"/>
    <path class="cls-7" d="M345.66,147.21c-8.15.39-11.56,2.19-11.56,2.19-.34,1.5-.63,3.54-.9,6.04.21-.1.44-.19.71-.25,3.88-.88,6.9,3.67,8.86,7.26.3-.65.59-1.31.87-1.96.74-1.66,1.09-4.47,2.53-5.93.96-.99.93-1.37,2.63-1.77.86-.21,1.89.23,2.1.84.9,2.64,2.23,5.12,3.81,7.54,1.2-2.99,2.51-5.95,3.96-8.89.46-.91,2.11-1.33,3.15-.58,1.76,1.26,2.52,2.46,3.5,4.04l.12.19c-.04-1.31-.09-2.52-.13-3.6-.06-1.43-.12-2.66-.19-3.68-5.45-.92-10.08-1.34-13.97-1.46-2.02-.06-3.84-.04-5.46.03Z"/>
    <path class="cls-18" d="M338.92,282.76c.45-4.21.76-8.44.98-12.68-.83-1.37-1.66-2.75-2.49-4.12-.55-.9-1.09-1.81-1.64-2.71-.24-.21-.46-.36-.66-.47.48,6.31,1.2,12.59,2.3,18.81.53.31,1.03.71,1.5,1.17Z"/>
    <path class="cls-18" d="M334.17,238.99c2.47-.41,4.58,1.35,6.28,3.61.02-4.46.03-8.91.1-13.36-1.04-1.73-2.09-3.46-3.13-5.19-.55-.91-1.09-1.81-1.64-2.71-.91-.8-1.5-.84-1.77-.11,0,1.54,0,3.08.03,4.63.05,4.35.08,8.74.15,13.13Z"/>
    <path class="cls-18" d="M340.69,221.96c.1-4.31.21-8.62.33-12.9-1.2-1.99-2.41-3.97-3.61-5.97-.55-.9-1.09-1.81-1.64-2.7-.73-.64-1.25-.78-1.57-.45-.14,6.04-.22,12.08-.22,18.12,2.67-.56,4.92,1.44,6.7,3.91Z"/>
    <path class="cls-18" d="M340.17,263.2c.14-4.41.2-8.82.23-13.23-1-1.65-2-3.3-3-4.95-.55-.91-1.09-1.82-1.64-2.71-.72-.63-1.23-.78-1.55-.46.11,6.01.3,12.03.69,18.05,2.03.02,3.79,1.46,5.27,3.32Z"/>
    <path class="cls-18" d="M334.27,197.06c2.83-.41,5.18,2.03,6.98,4.76.07-1.9.13-3.8.21-5.68.1-2.37.26-4.77.43-7.17-.27-.11-.51-.27-.65-.51-1.27-2.12-2.56-4.22-3.83-6.33-.55-.91-1.09-1.81-1.64-2.71-.41-.36-.75-.56-1.03-.61-.5,5.78-.29,11.64-.45,17.33,0,.31-.01.61-.02.92Z"/>
    <path class="cls-18" d="M337.12,167.01c-1.06,2.96-1.7,5.98-2.1,9.04,3.04.1,5.48,3.41,7.23,6.44.2-5.06.08-10.11-1.06-15.06-.23-.38-.47-.77-.7-1.15-1.03-.58-3.01-.28-3.37.73Z"/>
    <path class="cls-16" d="M361.8,151.7c-1.03-.75-2.69-.33-3.15.58-1.45,2.93-2.76,5.89-3.96,8.89-1.58-2.43-2.91-4.9-3.81-7.54-.21-.61-1.24-1.04-2.1-.84-1.7.39-1.67.77-2.63,1.77-1.43,1.47-1.79,4.27-2.53,5.93-.28.65-.58,1.31-.87,1.96-1.96-3.58-4.98-8.13-8.86-7.26-.27.06-.5.14-.71.25h0c-.15,1.32-.27,2.76-.38,4.31.34-.45.71-.83,1.09-1.07.21-1.04.83-1.11,1.86-.22.55.91,1.09,1.82,1.64,2.71,1.02,1.7,2.06,3.4,3.09,5.1.23.38.47.77.7,1.15.01.02.03.05.04.07.71,1.17,3.32.75,3.74-.34.47-1.28,1.87-7.48,3.38-10.48,1.15,3.46,2.66,6.77,4.96,9.98.87,1.22,3.96.99,4.31-.39.89-3.54,2.04-6.98,3.44-10.4,1.02,1.81,1.52,3.9,2.54,5.51.59.94,1.24,1.78,1.99,2.56,0-.64-.01-1.27-.03-1.88-.04-2.24-.09-4.29-.15-6.14l-.12-.19c-.97-1.58-1.74-2.78-3.5-4.04Z"/>
    <path class="cls-16" d="M361.8,172.65c-1.03-.74-2.69-.32-3.15.59-1.45,2.93-2.76,5.89-3.96,8.88-1.58-2.43-2.91-4.9-3.81-7.54-.21-.6-1.24-1.03-2.1-.84-1.7.4-1.67.78-2.63,1.76-1.43,1.47-1.79,4.28-2.53,5.94-.28.65-.58,1.31-.87,1.96-.16-.3-.34-.6-.51-.91-1.75-3.03-4.19-6.34-7.23-6.44-.37-.01-.74,0-1.12.1-.96.22-1.52.71-1.95,1.3-.04,1.57-.09,3.18-.13,4.82.59-1.09,1.29-2.15,2.08-2.63.12-.63.4-.91.83-.83.28.05.62.25,1.03.61.55.91,1.09,1.81,1.64,2.71,1.27,2.1,2.55,4.21,3.83,6.33.15.24.38.4.65.51,1.05.44,2.76.01,3.09-.85.47-1.28,1.87-7.49,3.38-10.48,1.15,3.45,2.66,6.76,4.96,9.98.87,1.21,3.96.99,4.31-.4.89-3.54,2.04-6.97,3.44-10.39,1.02,1.8,1.52,3.89,2.54,5.5.65,1.03,1.37,1.93,2.22,2.79-.01-2.64-.03-5.2-.06-7.68-.15-.24-.31-.49-.46-.74-.97-1.59-1.74-2.78-3.5-4.05Z"/>
    <path class="cls-16" d="M361.8,193.61c-1.03-.75-2.69-.33-3.15.58-1.45,2.93-2.76,5.9-3.96,8.89-1.58-2.43-2.91-4.9-3.81-7.54-.21-.61-1.24-1.03-2.1-.84-1.7.39-1.67.78-2.63,1.77-1.43,1.47-1.79,4.27-2.53,5.93-.28.66-.58,1.31-.87,1.97-.45-.83-.96-1.7-1.52-2.55-1.8-2.73-4.15-5.17-6.98-4.76-.12.02-.24.02-.36.05-1.26.28-1.83,1.05-2.33,1.86-.01,1.58-.03,3.18-.03,4.79.66-1.28,1.43-2.59,2.36-3.17.06-.31.16-.52.29-.66.32-.33.84-.19,1.57.45.55.9,1.09,1.81,1.64,2.7,1.2,2,2.41,3.98,3.61,5.97.07.12.14.24.21.36.71,1.18,3.32.75,3.74-.34.47-1.28,1.87-7.48,3.38-10.47,1.15,3.45,2.66,6.76,4.96,9.97.87,1.22,3.96,1,4.31-.39.89-3.54,2.04-6.98,3.44-10.4,1.02,1.81,1.52,3.9,2.54,5.51.66,1.05,1.4,1.98,2.27,2.85.01-.7,0-1.4,0-2.11,0-1.84,0-3.66-.01-5.47-.18-.3-.37-.6-.56-.91-.97-1.59-1.74-2.79-3.5-4.05Z"/>
    <path class="cls-16" d="M361.8,214.58c-1.03-.75-2.69-.33-3.15.58-1.45,2.93-2.76,5.89-3.96,8.89-1.58-2.42-2.91-4.91-3.81-7.54-.21-.61-1.24-1.04-2.1-.84-1.7.39-1.67.77-2.63,1.77-1.43,1.46-1.79,4.27-2.53,5.93-.28.65-.58,1.31-.87,1.96-.6-1.09-1.29-2.27-2.08-3.36-1.78-2.47-4.04-4.46-6.7-3.91-.03,0-.05,0-.08.01-1.3.3-1.88,1.11-2.38,1.95v1.91c0,.93,0,1.87.01,2.8.66-1.29,1.43-2.6,2.36-3.17.02-.12.05-.23.09-.32.27-.73.86-.7,1.77.11.55.91,1.09,1.81,1.64,2.71,1.04,1.73,2.09,3.45,3.13,5.19.23.38.46.76.69,1.14.71,1.17,3.32.75,3.74-.34.47-1.28,1.87-7.48,3.38-10.48,1.15,3.45,2.66,6.77,4.96,9.98.87,1.21,3.96.99,4.31-.39.89-3.54,2.04-6.98,3.44-10.4,1.02,1.81,1.52,3.89,2.54,5.51.66,1.03,1.39,1.95,2.26,2.82.01-2.51.01-5.03.01-7.53-.19-.3-.38-.61-.58-.93-.97-1.59-1.74-2.78-3.5-4.04Z"/>
    <path class="cls-16" d="M361.8,235.53c-1.03-.75-2.69-.32-3.15.59-1.45,2.93-2.76,5.89-3.96,8.88-1.58-2.43-2.91-4.9-3.81-7.54-.21-.6-1.24-1.03-2.1-.84-1.7.4-1.67.78-2.63,1.76-1.43,1.47-1.79,4.28-2.53,5.93-.28.66-.58,1.31-.87,1.97-.66-1.2-1.44-2.51-2.32-3.69-1.7-2.26-3.81-4.02-6.28-3.61-.09.01-.17.02-.26.04-1.18.26-1.76.96-2.24,1.71.01,1.55.03,3.09.06,4.6.62-1.17,1.33-2.31,2.19-2.83.06-.32.17-.54.31-.68.32-.32.83-.17,1.55.46.55.9,1.09,1.81,1.64,2.71,1,1.65,2,3.3,3,4.95.28.45.55.91.82,1.36.71,1.18,3.32.75,3.74-.34.47-1.28,1.87-7.48,3.38-10.47,1.15,3.45,2.66,6.76,4.96,9.97.87,1.22,3.96,1,4.31-.39.89-3.54,2.04-6.98,3.44-10.39,1.02,1.8,1.52,3.89,2.54,5.5.64,1.01,1.36,1.91,2.19,2.76.01-2.49.01-5.01.03-7.56-.18-.27-.34-.55-.52-.83-.97-1.59-1.74-2.78-3.5-4.05Z"/>
    <path class="cls-16" d="M361.8,256.49c-1.03-.75-2.69-.33-3.15.58-1.45,2.93-2.76,5.89-3.96,8.89-1.58-2.43-2.91-4.9-3.81-7.54-.21-.61-1.24-1.03-2.1-.84-1.7.39-1.67.77-2.63,1.77-1.43,1.47-1.79,4.27-2.53,5.93-.28.65-.58,1.31-.87,1.96-.72-1.32-1.59-2.77-2.59-4.03-1.47-1.86-3.24-3.3-5.27-3.32-.33,0-.66.02-1,.1-.99.23-1.55.75-1.98,1.36.01,1.51.04,2.99.07,4.45.55-.98,1.18-1.88,1.9-2.32.16-.8.56-1.02,1.2-.68.2.1.41.26.66.47.55.91,1.09,1.82,1.64,2.71.83,1.37,1.66,2.75,2.49,4.12.45.74.89,1.47,1.33,2.21.71,1.17,3.32.75,3.74-.34.47-1.28,1.87-7.48,3.38-10.48,1.15,3.46,2.66,6.77,4.96,9.98.87,1.22,3.96.99,4.31-.39.89-3.54,2.04-6.98,3.44-10.4,1.02,1.81,1.52,3.9,2.54,5.51.61.97,1.29,1.83,2.07,2.64.01-.96.03-1.93.03-2.92.01-1.53.01-3.1.03-4.69-.15-.23-.3-.45-.43-.68-.97-1.58-1.74-2.78-3.5-4.04Z"/>
    <path class="cls-16" d="M361.8,277.44c-1.03-.74-2.69-.32-3.15.59-1.45,2.93-2.76,5.89-3.96,8.88-1.58-2.43-2.91-4.9-3.81-7.54-.21-.6-1.24-1.03-2.1-.84-1.7.4-1.67.78-2.63,1.76-1.43,1.47-1.79,4.28-2.53,5.94-.28.65-.58,1.31-.87,1.96-1.01-1.85-2.31-3.95-3.85-5.43-.48-.46-.98-.86-1.5-1.17-1.07-.64-2.24-.94-3.51-.65-.74.16-1.23.48-1.61.9.03,1.49.06,2.91.09,4.26.46-.71.96-1.32,1.52-1.67.21-1.05.83-1.12,1.86-.22.55.91,1.09,1.81,1.64,2.71,1.27,2.11,2.55,4.21,3.83,6.33.71,1.17,3.32.74,3.74-.34.47-1.28,1.87-7.49,3.38-10.48,1.15,3.45,2.66,6.77,4.96,9.98.87,1.21,3.96.99,4.31-.4.89-3.54,2.04-6.97,3.44-10.39,1.02,1.8,1.52,3.89,2.54,5.5.58.91,1.21,1.72,1.93,2.49.01-2.29.03-4.85.06-7.65-.1-.16-.19-.32-.3-.47-.97-1.59-1.74-2.78-3.5-4.05Z"/>
  </g>
</svg>