<?xml version="1.0" encoding="UTF-8"?>
<svg id="Layer_5" data-name="Layer 5" xmlns="http://www.w3.org/2000/svg" viewBox="0 0 855.19 816.12">
  <defs>
    <style>
      .cls-1 {
        fill: #ffebd8;
      }

      .cls-1, .cls-2, .cls-3, .cls-4, .cls-5, .cls-6, .cls-7, .cls-8, .cls-9, .cls-10, .cls-11, .cls-12, .cls-13, .cls-14, .cls-15, .cls-16, .cls-17, .cls-18 {
        stroke: #531f0c;
        stroke-miterlimit: 10;
      }

      .cls-19 {
        fill: #78c143;
      }

      .cls-19, .cls-20, .cls-21, .cls-22, .cls-23, .cls-24, .cls-25 {
        stroke-width: 0px;
      }

      .cls-20 {
        fill: #898282;
      }

      .cls-2 {
        fill: #adbee2;
      }

      .cls-21 {
        fill: #da7280;
      }

      .cls-3 {
        fill: #cbd2e9;
      }

      .cls-4 {
        fill: #fffbe9;
      }

      .cls-5 {
        fill: #f7b97d;
      }

      .cls-6 {
        fill: #f3c0d9;
      }

      .cls-22, .cls-17 {
        fill: #fff8f0;
      }

      .cls-7 {
        fill: #0697d4;
      }

      .cls-8 {
        fill: #f18b5e;
      }

      .cls-9 {
        fill: #dc797a;
      }

      .cls-10 {
        fill: #7186c0;
      }

      .cls-11 {
        fill: #37373c;
      }

      .cls-23 {
        fill: #531f0c;
      }

      .cls-12 {
        fill: #8a90c5;
      }

      .cls-24 {
        fill: #eda79b;
      }

      .cls-13 {
        fill: #666da0;
      }

      .cls-14 {
        fill: #fadba0;
      }

      .cls-25 {
        fill: #fff;
      }

      .cls-15 {
        fill: #e9f5fc;
      }

      .cls-16 {
        fill: #4eb4e4;
      }

      .cls-18 {
        fill: #b5dff6;
      }
    </style>
  </defs>
  <path class="cls-20" d="M343.72,761.48c-54.63,0-108.2-2.95-159.21-8.77-15.61-1.78-30.91-3.8-45.49-5.99l-2.12-.32c-12.23-1.82-26.09-3.87-35.4-13.02-5.24-5.15-7.99-11.78-7.55-18.2.4-5.83,3.29-10.91,8.37-14.69,8.04-5.99,18.58-8.31,27.82-9.79l1.34-.21.2,1.33c.69,4.6,1.4,9.2,2.11,13.8.04.25.15.56.66.71l.62.18.24.6c.17.42.45.68.87.78,34.01,8.39,69.93,12.18,104.68,15.84l1.98.21c36.43,3.85,72.81,6.24,108.11,7.11,11.36.28,22.88.42,34.25.42,61,0,122.65-4.09,183.23-12.16,40.19-5.35,80.19-12.5,118.9-21.25.73-.16,1.22-.54,1.44-1.11.28-.7.14-1.65-.35-2.36l-.29-.43.07-.51c1.69-11.53,3.31-23.01,4.66-32.72l.2-1.44,1.42.33c11.29,2.59,22.01,5.61,29.08,14,3.77,4.48,5.47,9.58,4.91,14.74-.65,6.09-4.36,12.03-10.43,16.73-8.77,6.78-19.48,10.77-29.84,14.62l-1.31.49c-10.95,4.08-22.79,7.8-35.21,11.05-51.36,13.46-107.28,18.57-152.22,22.68-53.35,4.88-105.76,7.35-155.74,7.35h-.02Z"/>
  <path class="cls-24" d="M383.66,726.5c-42.34,0-85.11-1.96-127.12-5.81-20.63-1.89-41.23-4.25-61.22-7.01-8.47-1.17-17.05-2.54-25.35-3.87-10.65-1.71-21.65-3.47-32.51-4.81l-1.07-.13-.1-1.06c-2.11-22.49-4.7-44.68-7.4-67.32l-.22-1.83,1.81.37c2.84.58,5.81.87,8.83.87,13.47,0,26.66-5.65,39.41-11.11l.31-.13c11.64-4.99,22.22-9.12,33.81-9.13,10.13,0,19.67,2.88,29.37,6.08,12.86,4.25,26.16,8.65,39.74,8.65,4.83,0,9.41-.53,14.01-1.62,8.26-1.96,16.31-5.23,24.1-8.39,9.92-4.03,20.18-8.2,31.11-9.78,2.82-.41,5.77-.62,8.75-.62,12.28,0,24.33,3.46,35.98,6.8,5.71,1.64,11.62,3.34,17.42,4.58,6.25,1.33,12.49,1.98,19.08,1.98,10.6,0,22.04-1.72,35.99-5.42,2.54-.67,5.11-1.38,7.69-2.1,12.61-3.5,25.65-7.12,38.76-7.12,4.92,0,9.45.5,13.86,1.52,7.21,1.67,13.83,4.59,20.23,7.41,9.62,4.24,18.7,8.25,29.46,8.25.95,0,1.91-.03,2.85-.1,11.46-.77,22.46-4.57,33.1-8.25,7.79-2.69,15.83-5.48,24.09-7.1,3.43-.67,6.81-1,10.34-1,7.46,0,14.61,1.48,23.06,3.69,4.26,1.12,9.29,2.26,14.25,2.26,1.97,0,3.8-.17,5.57-.53l1.85-.38-.26,1.86c-.97,7.01-1.95,14.03-2.93,21.04-2.58,18.42-5.24,37.47-7.71,56.22l-.12.93-.92.2c-97.94,21.18-198.17,31.91-297.91,31.91Z"/>
  <path class="cls-21" d="M139.32,633.33c-3.43,0-6.81-.39-10.05-1.15l-.91-.21-.11-.92c-.74-6.19-1.48-12.39-2.21-18.59-.25-2.14-.54-4.37-.84-6.66-2.91-22.44-6.52-50.37,14.09-64.81,9.87-6.92,22.02-8.87,33.76-10.75l1.79-.29c17.11-2.77,32.39-5.08,46.71-7.06,29.91-4.14,61.56-7.71,94.06-10.59,57.84-5.13,119.16-8.22,187.45-9.46l6.33-.12c16.74-.31,34.05-.63,51.08-.63,11.5,0,21.85.14,31.65.44,24.58.74,56.57,3.12,85.9,15.17,7.36,3.02,15.47,6.99,18.55,15.91,2.52,7.32,2.49,15.74,2.46,23.16v1.15c-.06,16.93-2.41,33.96-4.68,50.42l-.11.8-.78.37c-2.31.82-4.76,1.22-7.48,1.22-5.23,0-10.49-1.49-15.57-2.93-1.61-.46-3.19-.91-4.75-1.3-5.46-1.38-10.64-2.05-15.82-2.05-2.64,0-5.32.18-7.95.54-9.87,1.34-19.45,4.64-28.72,7.83-7.32,2.52-14.89,5.13-22.63,6.79-4.51.97-8.91,1.46-13.07,1.46-5.53,0-10.87-.87-15.88-2.59-4.51-1.55-8.86-3.61-13.06-5.6-4.32-2.05-8.8-4.16-13.39-5.68-6.11-2.02-12.57-3.01-19.76-3.01-11.48,0-23.19,2.65-32.11,4.96-3.17.82-6.35,1.7-9.54,2.57-13.48,3.71-27.42,7.54-41.63,7.54-2.33,0-4.65-.1-6.88-.31-10.02-.93-19.79-3.63-29.24-6.24-9.54-2.64-19.41-5.36-29.42-6.21-1.71-.15-3.46-.22-5.19-.22-15.35,0-29.14,5.54-43.74,11.4-1.33.53-2.66,1.07-4,1.6-8.92,3.55-18.47,7.09-28.55,7.92-1.44.12-2.91.18-4.39.18-9.22,0-17.93-2.27-25.24-4.5-1.96-.6-3.9-1.2-5.83-1.8-12.78-3.98-24.84-7.74-37.51-7.74-5.75,0-11.17.77-16.6,2.34-6.4,1.86-12.96,4.65-19.31,7.34-11.87,5.04-24.14,10.26-36.88,10.26Z"/>
  <path class="cls-24" d="M185.04,521.66c-3.7-13.83-6.8-29.01-9.46-46.39l-.3-1.96,1.94.46c3.04.73,6.22,1.1,9.45,1.1,13.99,0,28.03-6.82,41.62-13.42,9.73-4.73,19.8-9.61,29.58-11.79,5.1-1.13,10.27-1.68,15.81-1.68,10.44,0,20.38,1.94,30.91,4,2.76.54,5.55,1.08,8.37,1.59,5.43.99,10.99,1.49,16.53,1.49,8.39,0,16.97-1.1,26.23-3.37,6.3-1.54,12.63-3.45,18.75-5.3,8.13-2.45,16.53-4.99,25.03-6.72,6.71-1.37,12.71-2.03,18.36-2.03,1.32,0,2.64.04,3.92.11,7.09.41,13.72,2.48,20.12,4.48,1.94.61,3.88,1.21,5.85,1.78,6.08,1.75,12.33,2.61,19.11,2.61,13.97,0,28.05-3.74,41.66-7.35,7.13-1.89,14.51-3.85,21.8-5.26,6.7-1.29,12.61-1.92,18.07-1.92,2.56,0,5.07.14,7.46.42,7.45.87,14.25,3.66,20.83,6.36,2.12.87,4.31,1.77,6.49,2.59,6.25,2.35,12.65,3.55,19.04,3.55,8.26,0,16.19-1.97,23.58-5.85l2.01-1.06-.07,3.15c-.35,15.69-.72,31.91-.99,47.87-.01.75.19,1.36.62,1.85l.39.45-.08.59c-.25,1.93-.48,3.86-.7,5.8l-.15,1.33-1.34-.16c-15.91-1.88-33.15-2.71-55.88-2.71-8.93,0-18.01.12-26.79.24-3.62.05-7.24.1-10.85.14-73.23.83-138.37,3.65-199.14,8.63-34.01,2.78-67.33,6.32-99.01,10.5-17.18,2.27-32.63,4.51-47.26,6.86l-1.2.19-.31-1.16Z"/>
  <path class="cls-21" d="M183.39,472.48c-2.45,0-4.92-.17-7.33-.51l-.99-.14-.14-.98c-.69-4.7-1.29-9.02-1.84-13.22-.38-2.87-.77-5.73-1.17-8.6-.99-7.11-2.01-14.47-2.66-21.75-.76-8.61-1.18-18.46,3.6-26.25,5.24-8.55,15.78-10.24,25.08-11.72,1.36-.22,2.69-.43,3.97-.66,10.84-1.95,22.14-3.81,33.57-5.51,22.53-3.36,45.93-6.19,71.52-8.65,48.07-4.63,95.58-7.15,139.77-9.18,5.96-.27,11.94-.58,17.93-.88,18.77-.96,38.19-1.95,57.32-1.95,22.72,0,42.37,1.44,60.08,4.41,12.64,2.12,24.88,4.4,35.69,9.06,7.18,3.09,10.55,7.86,10.92,15.47.21,4.32.05,8.72-.11,12.98-.07,1.89-.14,3.77-.18,5.64-.15,7.54-.32,15.07-.48,22.61l-.02.92-.87.31c-.15.05-.3.12-.45.21-7.36,4.48-15.2,6.87-23.31,7.13-.4.01-.79.02-1.19.02-9.33,0-17.37-3.33-25.88-6.86l-.4-.17c-9.56-3.96-18.9-5.89-28.54-5.89-3.05,0-6.2.19-9.36.58-9.76,1.18-19.78,3.97-29.47,6.65-13.24,3.67-26.93,7.47-40.62,7.47-5.03,0-9.71-.5-14.3-1.51-3.67-.82-7.27-2-10.76-3.14-3.94-1.29-8.01-2.63-12.12-3.4-4.16-.78-8.5-1.18-12.91-1.18-2.4,0-4.85.12-7.31.35-12.51,1.18-24.78,4.87-36.64,8.44-1.49.45-2.99.9-4.48,1.34-13.4,3.98-26.54,7.56-40.07,7.56-1.24,0-2.49-.03-3.7-.09-7.89-.4-15.66-2.03-23.17-3.61-8.51-1.79-17.32-3.64-26.19-3.64h-.85c-18.67.25-34.78,7.33-48.07,14.23-14.94,7.75-28.56,14.16-43.85,14.16h0Z"/>
  <path class="cls-24" d="M234.78,375.61c-.66-6.08-1.4-12.28-2.12-18.28-.99-8.25-2.01-16.79-2.84-25.2l-.12-1.23,1.22-.21c9.34-1.61,17.98-5.83,26.33-9.91,10.53-5.15,21.41-10.47,33.97-10.77.65-.02,1.3-.02,1.94-.02,5.38,0,10.79.53,16.03,1.04,5.17.5,10.52,1.03,15.76,1.03.89,0,1.77-.01,2.66-.05,10.57-.38,20.11-3.79,28.85-7.42,1.25-.52,2.51-1.06,3.78-1.59,8.58-3.64,17.45-7.41,26.95-7.96.7-.04,1.4-.06,2.1-.06,7.8,0,15.17,2.47,22.31,4.86,2.86.96,5.82,1.95,8.74,2.75,4.64,1.28,9.4,1.9,14.54,1.9,9.32,0,18.26-2.02,27.73-4.17,7.12-1.61,14.47-3.28,21.99-3.99,1.37-.13,2.79-.2,4.23-.2,8.35,0,16.79,2.2,24.94,4.32,7.89,2.05,16.05,4.18,23.87,4.18,4.08,0,7.78-.56,11.29-1.72l1.84-.61-.08,1.93c-.4,9.16-1.08,18.47-1.74,27.48-.5,6.87-1.02,13.97-1.41,20.91-.05.85.19,1.54.7,2.03l2.53,2.45-3.54-.18c-7.41-.37-15.11-.55-23.54-.55-17.23,0-34.69.77-51.57,1.52l-3.02.13c-51.43,2.27-101.81,4.68-152.74,9.33-26.82,2.45-51.39,5.29-75.11,8.69-1.13.16-2.26.33-3.39.5l-2.92.43-.15-1.37Z"/>
  <path class="cls-21" d="M229.34,327.02c-.48-5.45-.82-10.22-1.04-14.59-.59-11.76,3.45-20.43,12.72-27.31,7.83-5.81,16.81-9.75,26.9-13.93,17.97-7.47,37.55-13.09,59.85-17.19,12.6-2.32,25.45-3.56,37.88-4.76,8.06-.78,16.39-1.59,24.57-2.68l1-.13.4.92c3.14,7.09,6.27,13.04,9.56,18.17,8.23,12.82,20.35,20.47,32.43,20.47,1.99,0,4.01-.2,5.99-.6l.47-.09,1,.52.23.16c.11.09.22.15.35.18l.13.03.12.06c3.98,1.86,8.15,2.8,12.39,2.8,20.46,0,37.78-21.57,42.6-28.18,2.5-3.42,4.82-7.09,6.91-10.9l.72-1.31,1.23.86c.1.07.19.12.29.15,4.15,1.27,8.6,1.79,12.91,2.29,5.47.64,11.12,1.3,16.46,3.47,10.18,4.12,15.44,14.1,15.63,29.67.04,3.71,0,7.76-.14,12.73l-.02.85-.79.33c-3.81,1.6-7.9,2.38-12.52,2.38-7.11,0-14.41-1.92-20.7-3.73-9.01-2.58-17.86-4.9-27.07-4.9-1.66,0-3.33.08-4.95.23-7.29.68-14.51,2.27-21.49,3.81-9.08,2-18.47,4.08-27.93,4.08-5.79,0-11.14-.76-16.35-2.31-2.26-.68-4.54-1.43-6.75-2.15-7.35-2.42-14.94-4.92-22.81-4.92h-.16c-9.64.04-18.9,3.57-27.56,7.18-1.11.46-2.22.93-3.32,1.4-8.98,3.79-18.26,7.71-28.3,8.49-1.79.14-3.61.2-5.57.2-5.23,0-10.5-.49-15.6-.96-4.25-.39-8.65-.8-12.96-.92-.61-.02-1.21-.02-1.8-.02-10.32,0-20.05,2.33-30.62,7.32-2.63,1.24-5.28,2.58-7.83,3.87-7.85,3.95-15.96,8.04-24.81,10.17l-1.51.36-.14-1.54Z"/>
  <path class="cls-19" d="M454.92,284.61c-3.56,0-7.07-.76-10.43-2.27l-.98-.44.22-1.04c.45-2.12.81-4.32,1.16-6.45.46-2.78.93-5.66,1.6-8.44,1.7-7.02,3.85-13.93,6.38-20.55,4.63-12.1,11.27-24.63,20.31-38.29.06-.09.17-.26,0-.58-.18-.32-.56-.58-.86-.58-.09,0-.19.02-.32.18-8.82,10.78-15.8,22.76-21.32,36.63-3.64,9.14-7.57,19.87-9.14,30.16l-.72,4.72-1.84-4.4c-7.81-18.68-7.5-39,.87-58.76,7.3-17.22,20.81-33.95,38.04-47.11,3.65-2.79,7.64-5.59,11.85-8.33.47-.3.99-.69,1.54-1.09,1.52-1.12,3.25-2.39,4.89-2.86.65-.19,1.29-.28,1.9-.28,4.21,0,5.94,4.35,7.08,7.23l.19.49c3.5,8.73,5.65,18.11,6.37,27.88,1.45,19.5-2.72,39.56-11.75,56.5-9.27,17.4-26.63,37.71-45.06,37.71Z"/>
  <path class="cls-19" d="M433.86,282.15c-11.46,0-22.85-8.16-30.47-21.82-5.3-9.51-9.29-19.97-13.15-30.09-1.4-3.68-2.86-7.49-4.34-11.16l-3.77-9.33c-.14-.34-.41-.89-.75-1.55-1.94-3.85-3.34-6.93-2.41-8.72.63-1.21,2.32-2.45,10.05-2.45,4.54,0,9.61.43,11.77.62l.5.04c8.34.7,15.11,2.87,20.72,6.63,3.83,2.57,6.21,5.88,8.5,9.07.74,1.03,1.48,2.06,2.28,3.09l.44.56-.22.67c-2.87,8.63-4.39,17.39-4.53,26.02l-2.57.5c-1.69-3.97-3.54-7.83-5.49-11.47-5.73-10.66-13.32-18.68-21.95-23.2-.1-.05-.15-.06-.16-.06-.02,0-.08.07-.09.17,0,.07,0,.15.14.25,11.05,8.15,17.56,15.41,22.46,25.05,3.27,6.44,5.27,13.12,7.2,19.59,1.02,3.42,2.08,6.95,3.31,10.41,1.63,5.33,3.92,10.22,6.8,14.6l.15.17,1.49,1.83-2.34.33c-1.19.17-2.39.25-3.58.25Z"/>
  <g>
    <path class="cls-25" d="M328.81,248.01c-6.17.07-12.16,1.54-18.08,3.14-5.82,1.57-11.56,3.4-17.22,5.46-11.49,4.18-22.59,9.37-33.36,15.12-10.11,5.4-21.16,11.54-26.7,22.02-5.91,11.19-4.24,24.34-3.41,36.45.51,7.5,1.07,14.99,1.7,22.48.64,7.71.91,15.6,2.27,23.22.58,3.23,5.31,2.22,5.49-.74.4-6.46-.12-13.04-.33-19.5-.21-6.5-.41-13-.72-19.5-.29-6.22-.65-12.45-.86-18.68-.19-5.43-.09-10.91,1.59-16.13,3.21-9.97,13.21-16.17,21.55-21.62,9.78-6.4,20.21-11.71,31.06-16.07,6.05-2.43,12.22-4.58,18.47-6.44,6.34-1.89,12.85-3.25,19.03-5.62,1.83-.7,1.73-3.62-.49-3.59Z"/>
    <path class="cls-25" d="M250.23,378.22c-3.6-.84-7.39-.66-11.07-.56-3.76.1-7.48.38-11.21.83-7.33.89-14.58,2.19-21.73,4.02-6.96,1.77-13.97,3.78-20.55,6.68-6.32,2.79-11.4,7.22-14.09,13.63-2.52,6-2.9,12.75-2.92,19.18-.02,7.62.38,15.24,1.1,22.82,1.47,15.42,4.11,30.69,7.27,45.84,1.76,8.44,3.65,16.85,5.65,25.24.49,2.04.75,4.43,1.82,6.26,1.53,2.61,5.03,3.64,7.53,1.71,2.08-1.61,2.39-4.61.65-6.57-.03-.14-.04-.21-.02-.12-.16-.74-.33-1.47-.49-2.21-.4-1.79-.79-3.58-1.19-5.36-.72-3.26-1.47-6.52-2.19-9.78-1.45-6.53-2.85-13.06-4.13-19.62-2.54-12.98-4.69-26.06-5.86-39.24-.59-6.64-.93-13.28-1.08-19.94-.12-5.42-.14-10.5,1.69-15.55,1.76-4.85,5.85-7.94,10.51-10.16,5.46-2.6,11.36-4.52,17.17-6.21,7-2.04,14.15-3.66,21.35-4.82,3.56-.57,7.15-1.08,10.73-1.5,3.69-.44,7.49-.52,11.07-1.45,1.53-.4,1.58-2.76,0-3.13Z"/>
    <path class="cls-25" d="M347.87,265.87c-9.61.09-19.22,2.07-28.66,3.69-9.53,1.64-19.02,3.43-28.49,5.36-15,3.07-31.06,5.76-44.46,13.57-3.32,1.94-6.51,4.23-9.2,6.98-2.58,2.63-5.78,6.09-5.98,9.92-.06,1.16,1.48,2.16,2.48,1.42,2.62-1.93,4.24-5.02,6.56-7.31,2.33-2.3,4.92-4.29,7.71-5.99,5.75-3.51,12.11-5.84,18.57-7.7,7.81-2.24,15.8-3.83,23.75-5.5,9.03-1.9,18.08-3.66,27.16-5.28,10.31-1.84,20.92-2.95,31.01-5.77,1.86-.52,1.52-3.39-.46-3.38Z"/>
    <path class="cls-25" d="M371.22,262.34c-1.84.21-3.68.43-5.52.64-.37.04-.67.12-.95.39-.23.23-.41.61-.39.94.03.65.59,1.42,1.34,1.33,1.84-.21,3.68-.43,5.52-.64.37-.04.67-.12.95-.39.23-.23.41-.61.39-.94-.03-.65-.59-1.42-1.34-1.33Z"/>
    <path class="cls-25" d="M437.73,273.53c-11.76-.84-21.44-9.83-27.34-19.4-7.2-11.68-10.68-25.15-16.28-37.58-1.57-3.49-3.28-6.92-5.26-10.19-1.97-3.25-4.15-6.93-7.21-9.25-.95-.72-2.53-.35-3.31.42-.92.91-.93,2.18-.43,3.29.71,1.55,1.82,2.9,2.73,4.35.96,1.54,1.85,3.12,2.68,4.73,1.54,2.97,2.88,6.03,4.08,9.15,2.54,6.58,4.64,13.33,7.02,19.97,4.76,13.27,11.21,26.26,22.82,34.88,5.94,4.4,13.07,7.05,20.49,7.31,2.09.07,3.86-1.82,3.86-3.84,0-2.2-1.77-3.69-3.86-3.84Z"/>
    <path class="cls-25" d="M502.49,151.93c-.99-1.68-3.66-2.66-5.39-1.4-16.35,11.85-31.64,25.26-43.53,41.65-11.85,16.35-19.66,36.05-19.85,56.36-.05,5.6.58,11.26,1.78,16.74.59,2.68,1.33,5.32,2.28,7.9.99,2.7,2.05,5.53,4.32,7.42,1.19.99,3.03.36,3.09-1.27.09-2.41-.68-4.66-1.34-6.96-.66-2.28-1.21-4.61-1.65-6.94-.86-4.47-1.19-9.03-1.15-13.58.1-9.42,1.69-18.73,4.67-27.67,5.94-17.84,17.54-33.32,30.93-46.36,7.62-7.42,15.88-14.2,24.43-20.53,1.7-1.26,2.57-3.39,1.41-5.35Z"/>
    <path class="cls-25" d="M629.18,397.49c-.13-4.5-.56-9.1-2.11-13.35-1.52-4.16-4.12-7.96-7.62-10.73-3.17-2.5-7.86-4.92-11.97-3.55-2.25.75-2.22,3.76,0,4.51,1.39.47,2.88.68,4.24,1.26,1.53.65,2.88,1.65,4.05,2.82,2.43,2.43,3.72,5.5,4.5,8.79.94,3.94.98,8.03.88,12.06-.12,4.52-.38,9.03-.52,13.54-.58,18.55-.97,37.11-1.41,55.67-.12,5.08-.19,10.16-.28,15.24-.05,2.65-.09,5.3-.14,7.95-.05,2.73-.5,5.75.55,8.31.59,1.44,1.54,2.54,3.2,2.74,1.4.17,3.19-.44,3.83-1.82.72-1.55,1.09-2.86,1.14-4.58.03-1.1.06-2.21.08-3.31.07-2.65.14-5.3.2-7.95.12-4.86.27-9.72.37-14.58.22-9.72.38-19.44.57-29.16.19-9.83.35-19.66.47-29.49.06-4.78.12-9.58-.02-14.36Z"/>
    <path class="cls-25" d="M540.34,256.78c-4.92-5.32-13.13-10.27-20.65-9.61-2.59.23-2.97,3.45-.6,4.38,2.88,1.14,5.82,2.07,8.53,3.62,2.7,1.54,4.98,3.52,7.02,5.85,4.22,4.84,6.04,11.4,6.55,17.67.6,7.4-.05,14.9-.41,22.3-.41,8.29-.79,16.58-1.16,24.87-.21,4.64-.41,9.29-.62,13.93-.11,2.43-.22,4.86-.31,7.3-.09,2.4-.4,4.9-.21,7.3.06.76.27,1.59.67,2.3.1.22.23.42.38.62,1.08,1.35,2.8,1.52,4.41,1.21,1.33-.26,2.78-1.65,3.01-2.99.76-4.47.64-9.21.84-13.74.2-4.42.39-8.84.59-13.26.4-8.95.78-17.91,1.14-26.86.61-15.4,2.16-32.62-9.18-44.88Z"/>
    <path class="cls-25" d="M160.94,527.07c-10.4,3.19-21.2,9.07-28.43,17.31-4.1,4.68-6.92,10.17-8.51,16.17-1.71,6.46-2.13,13.28-2.44,19.93-.65,14.18.35,28.32,2.84,42.29,1.22,6.84,2.92,13.58,4.43,20.36,1.44,6.51,2.45,13.02,2.95,19.66.55,7.42.71,14.87,1.33,22.28.33,3.96.78,7.93,1.49,11.84.68,3.69,1.22,8.61,3.74,11.52,1.85,2.13,4.88,1.08,6.29-.8.95-1.27,1.48-3.09,1.28-4.66-.16-1.24-.85-2.12-1.71-2.55-.39-1.63-.72-3.26-1.01-4.91-.51-2.95-.89-5.92-1.17-8.91-.62-6.48-.84-12.99-1.24-19.49-.4-6.61-1.04-13.2-2.27-19.71-1.22-6.49-2.92-12.88-4.36-19.32-2.93-13.09-4.47-26.47-4.74-39.87-.13-6.47-.03-13,.63-19.45.59-5.74,1.85-11.6,4.88-16.59,6.33-10.43,17.84-15.01,27.53-21.59,1.74-1.18.72-4.22-1.5-3.54Z"/>
    <path class="cls-25" d="M324.71,618.73c-.88-1.5-2.57-1.69-4.04-1.05-11.22,4.85-22.99,6.76-35.19,6.23-12.6-.55-24.55-4.07-36.2-8.68-6.07-2.4-12.13-4.89-18.49-6.45-6.56-1.61-13.33-2.09-20.04-1.33-13.63,1.55-26.19,6.92-38.92,11.68-7.06,2.64-14.24,4.89-21.67,6.2-3.46.61-6.96.93-10.48.87-3.74-.06-7.43-.68-11.12-1.18-1.33-.18-2.63.2-3.17,1.54-.48,1.17-.11,2.71,1.1,3.33,6.08,3.14,13.38,3.55,20.11,3.1,6.9-.46,13.66-2.04,20.24-4.08,13.13-4.08,25.64-10.2,39.2-12.9,6.38-1.27,13.03-1.63,19.45-.44,6.52,1.22,12.75,3.59,18.9,6.01,6.13,2.42,12.25,4.87,18.64,6.53,6.22,1.61,12.62,2.65,19.03,3.09,14.1.97,29.2-1.42,41.59-8.46,1.38-.79,1.86-2.66,1.06-4.01Z"/>
    <path class="cls-25" d="M390.17,438.62c-7.94,2.67-15.83,5.12-24.09,6.63-8.17,1.5-16.48,2.17-24.79,2.28-16.72.21-33.26-2.67-49.53-6.22-8.45-1.84-17.09-3.49-25.77-2.51-7.33.83-14.24,3.01-21.01,5.86-12.81,5.4-24.67,13.19-37.76,17.67-3.69,1.26-7.5,2.28-11.37,2.81-3.13.43-7.62,1.02-10.78-.44-2.79-1.29-4.46-3.86-5.5-6.83-.6-1.73-1.05-3.53-1.48-5.31-.21-.88-.28-1.84-.55-2.69-.27-.84-.8-1.63-1.18-2.43-.66-1.41-2.72-.88-3.13.41-.56,1.75-.78,3.17-.72,5,.06,1.81.26,3.6.62,5.37.71,3.44,2.05,6.73,4.28,9.46,5.36,6.56,14.65,5.94,22.21,4.66,14.59-2.46,27.49-10.34,40.54-16.8,6.24-3.09,12.44-5.86,19.23-7.61,7.69-1.98,15.38-1.95,23.34-.51,8.72,1.57,17.29,3.72,26.07,4.97,8.79,1.25,17.67,1.58,26.55,1.55,9.73-.03,19.46-.93,29.01-2.83,9.33-1.86,18.83-4.62,27.28-9.05,1.88-.99.59-4.15-1.47-3.45Z"/>
    <path class="cls-25" d="M476.1,357.73c-11.25,0-22.53.92-33.76,1.61-11.14.68-22.27,1.43-33.4,2.23-22.48,1.63-44.94,3.52-67.37,5.74-22.32,2.2-44.63,4.61-66.88,7.41-11.34,1.43-22.68,2.92-34,4.47-10.15,1.39-20.45,2.54-30.35,5.27-9.43,2.6-18.44,6.68-25.78,13.21-6.31,5.61-11.8,14-12.77,22.52-.12,1.09-.18,2.18-.19,3.28-.75,6.61-.13,13.5.73,19.95,1.02,7.58,2.28,16.62,7.97,22.32,6.26,6.27,16.09,6.05,23.96,3.47,4.64-1.52,9-3.74,13.44-5.72,2.42-1.08,4.86-2.13,7.29-3.2,2.48-1.09,4.61-2.43,6.89-3.88,1.78-1.13.65-3.92-1.44-3.4-1.93.48-3.85.82-5.72,1.54-1.96.75-3.88,1.61-5.82,2.42-3.65,1.52-7.3,3.05-11.04,4.32-6.14,2.09-14.25,4.23-20.31.78-5.38-3.07-6.52-10.24-7.62-15.75-1.48-7.41-2.29-15.11-1.86-22.67.13-2.22.46-4.45,1.15-6.57,1.19-2.63,2.73-5.07,4.53-7.31.05-.04.09-.09.13-.13.63-.56,1.3-1.02,1.99-1.5.76-.53,1.19-1.35,2-1.79.59-.32.75-.96.61-1.51,6.12-5.4,13.87-9.26,21.54-11.54,9.44-2.8,19.24-4.09,28.97-5.44,10.79-1.5,21.59-2.94,32.4-4.31,43.45-5.53,86.98-10.27,130.6-14.28,12.34-1.14,24.68-2.15,37.04-3.1,12.34-.95,24.77-1.48,37.07-2.89,1.49-.17,2.78-1.15,2.78-2.76,0-1.5-1.27-2.76-2.78-2.76Z"/>
    <path class="cls-25" d="M427.13,503.65c-11.35-.4-22.79.32-34.13.84-11.48.53-22.95,1.2-34.42,1.95-22.82,1.5-45.6,3.63-68.32,6.24-22.72,2.61-45.37,5.76-67.94,9.43-11.34,1.84-22.67,3.82-33.97,5.92-10.09,1.87-20.29,3.65-29.98,7.1-9.18,3.27-18.09,8.21-24.45,15.7-5.75,6.78-9.99,15.45-9.59,24.48.1,2.21.44,4.41,1.01,6.54.82,3.04,5.18,1.72,4.67-1.28-1.41-8.14,1.75-16.67,6.73-23.06,5.45-6.99,13.13-11.66,21.37-14.76,9.33-3.51,19.18-5.32,28.94-7.16,10.97-2.07,21.96-4.03,32.97-5.86,21.82-3.64,43.72-6.81,65.67-9.54,22.06-2.74,44.18-4.94,66.33-6.78,22.27-1.84,44.57-2.84,66.89-3.93,2.74-.13,5.47-.28,8.21-.52,3.38-.3,3.49-5.18,0-5.31Z"/>
    <path class="cls-25" d="M206.72,391.47c-2.46-.99-5.4.15-7.68,1.13-2.32,1-4.49,2.27-6.54,3.74-4.36,3.15-7.97,6.97-10.82,11.54-6.36,10.22-8.19,22.73-7.76,34.56.27,7.28,1.59,14.33,4.51,21.04,1.44,3.3,7.32.89,5.91-2.48-4.19-10.03-4.89-21.71-3.28-32.38,1.52-10.06,5.5-19.49,13.04-26.53,1.92-1.8,4.1-3.27,6.44-4.48,2.23-1.15,5.08-1.82,6.84-3.68.82-.87.37-2.04-.65-2.46Z"/>
    <path class="cls-25" d="M609.61,431.16c-.12-5.63,0-11.42-.76-17.01-.36-2.59-4.19-1.73-4.35.59-.4,5.53.02,11.2-.01,16.75-.03,5.59-.07,11.17-.21,16.75-.14,5.47-.35,10.95-.63,16.42-.15,2.84-.31,5.69-.49,8.53-.18,2.74-.77,5.8-.43,8.52.17,1.34.91,2.49,2.36,2.66,1.32.16,2.63-.61,2.99-1.94.74-2.69.59-5.81.73-8.59.15-2.84.28-5.69.39-8.53.22-5.69.37-11.38.44-17.07.07-5.69.09-11.39-.02-17.08Z"/>
    <path class="cls-25" d="M594.18,470.63c-.02-3.13.17-6.35-.24-9.45-.18-1.32-1.01-2.46-2.47-2.46s-2.3,1.14-2.47,2.46c-.42,3.1-.22,6.32-.24,9.45-.01,1.54-.03,3.09-.03,4.63,0,1.67.13,3.61,1.13,5.01.85,1.19,2.38,1.19,3.23,0,1.01-1.4,1.13-3.34,1.13-5.01,0-1.54-.02-3.09-.03-4.63Z"/>
    <path class="cls-25" d="M581.15,474.03c0-.35-.03-.7-.05-1.04-.05-1.03-.13-2.1-.63-3.02l.22.52c-.11-.26-.22-.53-.33-.79-.16-.39-.32-.69-.66-.96-.31-.24-.72-.41-1.12-.4-.33.01-.64.1-.94.25-.45.24-.67.66-.85,1.1-.11.26-.22.53-.33.79l.22-.52c-.5.92-.58,1.99-.63,3.02-.02.35-.05.7-.05,1.04,0,.37.09.74.16,1.1.03.19.1.36.18.54.05.22.1.43.2.64.33.77,1.15,1.41,2.04,1.37.8-.04,1.49-.43,1.93-1.1.18-.28.25-.62.32-.95.07-.16.13-.32.17-.5.07-.36.15-.73.16-1.1Z"/>
    <path class="cls-25" d="M700.64,557.33c-.41-8.3-.95-17.19-4.17-24.96-3.23-7.78-9.25-13.08-16.76-16.75-7.76-3.79-16.05-6.6-24.39-8.8-9.49-2.5-19.18-4.14-28.91-5.38-4.84-.62-9.69-1.11-14.55-1.53-4.92-.42-9.95-1.1-14.87-.71-2.36.19-3.08,3.58-.58,4.26,4.13,1.13,8.45,1.43,12.71,1.95,4.18.51,8.35,1.06,12.52,1.65,8.32,1.18,16.62,2.62,24.8,4.58,8.01,1.93,15.97,4.35,23.55,7.59,6.67,2.86,13.94,6.21,17.7,12.73,3.75,6.5,4.11,14.47,4.52,21.77.51,8.98.31,17.99-.26,26.97-1.13,17.89-3.9,35.64-6.54,53.36-3.04,20.38-6.48,40.7-10.04,61-.39,2.23.6,4.52,2.95,5.16,2.06.56,4.78-.69,5.19-2.93,3.46-18.52,6.51-37.14,9.39-55.76,2.88-18.67,5.79-37.43,7.23-56.28.71-9.3.97-18.63.5-27.94Z"/>
    <path class="cls-25" d="M679.76,566.32c-.1-2.33-.65-4.6-.98-6.91-.2-1.39-2.5-1.32-2.76,0-.37,1.87-.97,3.72-1.22,5.6-.27,2.06-.45,4.13-.62,6.2-.32,3.91-.53,7.83-.83,11.74-.6,7.93-1.14,15.86-1.88,23.78-1.48,15.74-3.3,31.44-5.66,47.07-.65,4.31-1.34,8.61-2.03,12.9-.34,2.15-.7,4.3-1.06,6.45-.43,2.52-1.39,5.16.22,7.43.78,1.1,2.39,1.82,3.65.95,1.02-.7,1.9-1.42,2.29-2.64.26-.81.32-1.73.47-2.57.36-2.04.72-4.07,1.06-6.11.67-3.97,1.3-7.95,1.88-11.94,1.18-8.07,2.25-16.15,3.19-24.25,1.84-15.78,3.13-31.62,3.93-47.48.23-4.56.34-9.13.43-13.7.04-2.18,0-4.35-.1-6.53Z"/>
    <path class="cls-25" d="M655.64,637.17c-.62-2.09-3.88-2.24-4.42,0-.63,2.56-.56,5.26-.79,7.89-.21,2.42-.51,4.84-.85,7.25-.71,5.15-1.31,10.31-1.94,15.47-.46,3.74-1.18,7.43-1.9,11.12-.26,1.34-.71,2.79-.75,4.16-.02.54.12,1.99.66,2.48.85,1.9,3.12,1.78,4.03.24.08-.06.14-.14.21-.21-.17.49-.05.21.07-.07,1.46-1.56,1.5-4.38,1.88-6.41.77-4.17,1.4-8.34,1.82-12.56.49-4.91,1.06-9.8,1.65-14.7.56-4.61,1.68-10.12.34-14.65Z"/>
    <path class="cls-25" d="M656.7,618.27c-.1-.46-.41-.84-.79-1.11-.32-.36-.74-.62-1.25-.59-.52.02-.94.25-1.25.59-.38.27-.69.65-.8,1.12-.23,1.02-.4,2.04-.4,3.08,0,.62.07,1.22.2,1.82.14.68.24,1.43.82,1.9.41.33.87.61,1.43.59.57-.03.99-.24,1.43-.59.58-.47.69-1.22.82-1.9.12-.61.2-1.21.2-1.82,0-1.04-.18-2.07-.4-3.08Z"/>
    <path class="cls-25" d="M635.18,668.4c-.58-1.13-2.54-1.49-3.38-.43-1.16,1.47-1.42,3.3-1.66,5.11.04-.29-.07.49-.08.56-.06.43-.12.87-.19,1.3-.11.7-.22,1.41-.33,2.11-.24,1.46-.5,2.91-.76,4.37-.14.75-.28,1.51-.42,2.26-.15.76-.35,1.53-.4,2.3-.23,1.21.63,2.49,1.71,2.95,1.18.5,2.92.12,3.51-1.14.7-1.5.88-3.22,1.17-4.84.27-1.51.5-3.03.71-4.55.23-1.66.44-3.32.63-4.99.18-1.64.27-3.5-.5-5Z"/>
    <path class="cls-25" d="M530.76,288.28c-.17-4.82-.17-11.11-3.49-14.97-.92-1.07-2.66-.17-2.69,1.1-.05,2.47.64,4.96.89,7.42.27,2.55.33,5.11.33,7.67.01,5.34-.1,10.69-.3,16.03-.2,5.37-.48,10.74-.82,16.11-.17,2.63-.35,5.25-.57,7.88-.21,2.61-1.2,6.01.3,8.34.76,1.17,2.5,1.54,3.53.45,1.97-2.08,1.63-5.44,1.83-8.13.22-2.84.4-5.69.57-8.53.32-5.58.48-11.17.54-16.76.06-5.53.05-11.07-.14-16.6Z"/>
    <path class="cls-25" d="M512.98,319.41c-.15-2.08-.22-4.14-1.13-6.06-.66-1.4-2.61-.82-3.05.4-.67,1.87-.54,3.93-.62,5.89-.08,1.89-.12,3.79-.18,5.68-.06,1.89-.16,3.79-.29,5.68-.13,1.94-.46,3.95-.42,5.89.06,2.85,4.56,3.69,5.17.7.41-1.99.43-4.11.52-6.13.09-2.04.14-4.09.16-6.13.01-1.98-.03-3.94-.17-5.91Z"/>
    <path class="cls-25" d="M501.43,329.68c-.08-.27-.11-.56-.17-.84-.03-.16-.06-.32-.11-.48-.03-.11-.08-.2-.13-.3-.02-.1-.04-.19-.07-.29-.18-.77-1-1.24-1.76-1.14-.78.1-1.39.77-1.39,1.57,0,.06,0,.13,0,.19-.08.35-.11.71-.14,1.06-.07.39-.22.77-.32,1.16-.11.44-.25.87-.38,1.31-.13.44-.21.89-.33,1.34-.11.38-.16.77-.16,1.16,0,.3-.01.59.09.88.15.45.37.74.66,1.11.46.59,1.58.85,2.27.6.66-.24,1.13-.53,1.51-1.13.08-.12.14-.24.21-.37.25-.48.34-.89.41-1.41.12-.78.2-1.5.14-2.28-.06-.73-.14-1.45-.35-2.15Z"/>
  </g>
  <path class="cls-23" d="M307.99,767.33c60.38,1.38,120.82-.98,180.97-6.23,56.84-4.96,115.1-10.35,170.22-25.65,14.88-4.13,29.5-9.14,43.69-15.22,10.67-4.57,22.26-10.39,28.37-20.72,5.43-9.18,4.05-20.13-2.39-28.42-8.18-10.53-21.16-14.27-33.66-17.19,1.81-13.03,3.61-26.06,5.45-39.09,2.25-15.95,4.68-31.91,5.43-48.01.6-12.89,1.7-29.07-4.98-40.74-6.25-10.91-20.07-15.32-31.35-19.08-12.14-4.05-24.67-6.68-37.33-8.46.02-.13.05-.25.07-.38.76-.58,1.28-1.48,1.28-2.73.02-1.71.03-3.36.01-4.99.14-.4.24-.84.26-1.33.91-25.5,1.46-51.01,1.98-76.52.2-9.85,2.44-22.31-1.7-31.63-3.78-8.49-12.59-12.05-20.97-14.62-19.63-6.03-39.82-9.05-60.2-10.38,1.04-.69,1.81-1.82,1.9-3.4.73-13.65,1.47-27.29,2.2-40.94.7-12.99,2.81-26.89-.37-39.69-2.36-9.51-8.17-18.07-17.4-22.04-8.77-3.78-22.45-5.94-32.16-3.79,7.65-15.71,11.44-33.33,10.97-50.71-.31-11.67-5.01-56.71-25.59-45.57-21.26,11.5-41.47,29.9-53.5,50.82-1.45,2.53-2.79,5.17-4.02,7.9-5.46-9.8-20.93-15.41-30.34-16.61-5.7-.73-11.44-.72-17.17-.46-3.55.16-8.13-.29-11.36,1.34-7.17,3.6-2.83,11.92-.66,17.29,4.08,10.09,7.73,20.81,11.97,31.22-21.61-.2-44.08,3.11-65.24,6.93-22.09,3.99-43.86,10.02-64.39,19.15-16.91,7.52-35.71,17.67-37.35,38.13-.9,11.25,1.47,23,2.61,34.19,1.26,12.38,2.51,24.76,3.77,37.14-7.8,1.21-15.6,2.5-23.37,3.88-10.16,1.8-21.93,2.72-30.48,9.04-17.58,13.01-11.15,39.65-8.7,57.78,3.41,25.2,7.82,50.43,15.25,74.8-11.81,1.83-23.86,3.74-34.83,8.4-27.78,11.78-29.89,41.13-26.94,67.37,3.29,29.24,7.16,58.49,11.49,87.63-16.35,2.35-37.59,7.8-41.45,26.13-5.31,25.24,23.67,36.69,43.24,39.92,58.34,9.64,117.69,14.18,176.78,15.53ZM478.71,168.42c3.81-2.91,7.75-5.66,11.77-8.27,1.69-1.1,4.09-3.22,6.07-3.79,4.65-1.34,6.27,3.44,7.56,6.65,3.5,8.74,5.58,18.11,6.28,27.48,1.42,19.15-2.54,38.78-11.59,55.78-9.22,17.31-31.27,44.92-53.75,34.85,1.04-4.91,1.57-10,2.75-14.85,1.68-6.92,3.79-13.74,6.33-20.39,5.1-13.35,12.29-26.11,20.18-38.03,1.3-1.97-1.8-4.43-3.33-2.55-9.21,11.25-16.15,23.48-21.53,36.98-3.6,9.05-7.62,19.92-9.22,30.45-16.57-39.65,6.07-79.54,38.49-104.31ZM387.15,218.59c-1.26-3.11-2.51-6.22-3.77-9.33-.63-1.56-4.11-7.44-3.22-9.16,1.49-2.87,17.43-1.38,21.02-1.08,7.12.6,14.11,2.4,20.09,6.41,4.81,3.23,7.16,7.63,10.48,11.87-2.81,8.47-4.46,17.47-4.6,26.41-1.72-4.04-3.59-7.95-5.54-11.57-5.21-9.69-12.6-18.56-22.51-23.75-1.77-.93-3.08,1.47-1.54,2.61,9.48,6.99,16.67,13.96,22.06,24.58,4.93,9.7,6.87,19.8,10.45,29.84,1.6,5.23,3.88,10.24,6.94,14.88.07.11.15.18.23.28-14.43,2.01-26.11-9.1-32.69-20.9-7.2-12.9-11.9-27.43-17.42-41.1ZM241.82,286.19c7.96-5.91,17.51-9.99,26.61-13.77,19.12-7.94,39.22-13.36,59.58-17.11,20.71-3.81,41.58-4.65,62.38-7.43,2.83,6.39,5.96,12.59,9.66,18.35,8.64,13.45,23.26,23.78,39.82,20.45.19.1.38.2.58.29.26.22.57.38.9.46,22.14,10.33,44.18-8.72,56.64-25.8,2.57-3.52,4.9-7.22,7-11.04.2.14.42.26.67.33,9.5,2.9,19.87,1.92,29.26,5.72,11.7,4.74,14.66,17.05,14.79,28.46.05,4.22-.02,8.45-.14,12.68-10.39,4.37-21.77,1.63-32.33-1.4-10.79-3.1-21.18-5.77-32.51-4.72-22.3,2.07-42.72,12.36-65.26,5.63-9.91-2.96-19.58-7.17-30.11-7.13-9.82.04-19.15,3.56-28.07,7.28-10.06,4.19-20.17,8.94-31.21,9.78-11.36.87-22.65-1.38-33.99-1.68-11.81-.32-22.43,2.42-33.04,7.43-10.67,5.05-20.82,11.16-32.39,13.94-.43-4.85-.8-9.69-1.04-14.53-.56-11.15,3.17-19.49,12.19-26.18ZM547.3,355.61c-26.07-1.3-52.4-.04-78.27,1.1-50.98,2.25-101.98,4.7-152.8,9.33-25.13,2.29-50.21,5.12-75.18,8.7-1.65.24-3.29.49-4.94.73-1.56-14.44-3.53-28.95-4.96-43.46,21.3-3.66,37.92-20.12,60.11-20.67,12.18-.3,24.23,2.43,36.41,1.99,10.34-.37,19.85-3.59,29.31-7.52,9.68-4.03,19.64-8.84,30.29-9.45,11.47-.66,21.92,4.53,32.71,7.51,22.42,6.18,42.67-4.11,64.74-6.21,21.62-2.06,43.63,13.42,64.62,6.52-.71,16.14-2.25,32.35-3.15,48.37-.08,1.34.38,2.36,1.1,3.06ZM174.41,457.45c-1.32-10.08-2.93-20.17-3.82-30.3-.74-8.33-1.14-18.02,3.41-25.45,5.67-9.25,18.44-10.02,28.14-11.77,11.15-2.01,22.33-3.84,33.53-5.51,23.73-3.54,47.57-6.35,71.45-8.65,46.46-4.47,93.08-7.03,139.7-9.17,44.76-2.06,90.59-5.89,135.04,1.55,11.77,1.97,24.38,4.23,35.38,8.96,6.64,2.86,9.76,7.11,10.11,14.32.3,6.14-.16,12.38-.29,18.52-.15,7.53-.32,15.07-.48,22.6-.23.08-.46.19-.7.33-6.92,4.21-14.51,6.68-22.65,6.93-9.68.3-18.16-3.28-26.91-6.91-12.62-5.23-24.99-7.05-38.58-5.4-27.7,3.36-55.6,18.93-83.94,12.64-7.77-1.73-15.08-5.07-22.92-6.55-6.8-1.28-13.71-1.5-20.59-.85-14.2,1.34-27.78,5.79-41.38,9.83-14.06,4.18-28.5,8.15-43.31,7.41-17.02-.85-33.13-7.47-50.3-7.24-17.63.23-33.27,6.39-48.67,14.37-16.16,8.38-32.17,16.06-50.37,13.51-.64-4.39-1.26-8.79-1.84-13.2ZM176.9,475.07c27.97,6.72,55.1-18.29,81.26-24.1,18.93-4.2,36.02.56,54.55,3.92,14.72,2.67,28.85,1.64,43.32-1.9,14.69-3.6,28.89-8.99,43.73-12.01,7.21-1.47,14.57-2.32,21.93-1.89,9,.52,17.12,3.75,25.67,6.22,28.37,8.19,55.64-4.66,83.2-9.98,8.23-1.59,16.75-2.46,25.12-1.48,9.63,1.12,18.06,5.5,27,8.87,14.58,5.49,30.06,4.8,43.72-2.37-.36,16.25-.73,32.51-1.01,48.76-.02,1.17.36,2.07.94,2.74-.25,1.94-.49,3.88-.7,5.82-31.02-3.66-62.52-2.69-93.69-2.34-66.48.75-132.97,3.21-199.24,8.63-33.11,2.71-66.15,6.16-99.08,10.5-15.79,2.08-31.57,4.34-47.3,6.87-4.08-15.25-7.05-30.69-9.43-46.25ZM127.37,612.31c-2.65-22.53-9.36-54.78,12.69-70.23,10.12-7.09,23.05-8.88,34.99-10.81,15.53-2.51,31.09-4.9,46.68-7.06,31.23-4.33,62.59-7.8,94-10.58,62.3-5.52,124.82-8.32,187.35-9.45,29.63-.54,59.36-1.19,89-.31,28.97.87,58.42,3.98,85.42,15.07,7.61,3.13,14.96,6.89,17.79,15.12,2.58,7.47,2.41,16.06,2.38,23.87-.05,16.88-2.37,33.65-4.68,50.34-8.72,3.1-18.35-.86-27.02-3.04-8.06-2.03-16.03-2.66-24.28-1.54-17.81,2.42-33.97,10.89-51.45,14.65-9.49,2.04-18.99,2.09-28.22-1.08-9.09-3.12-17.33-8.26-26.46-11.28-17.27-5.72-35.49-2.51-52.64,1.93-18.8,4.87-37.86,11.59-57.59,9.77-20.01-1.85-38.62-10.75-58.67-12.45-19.2-1.63-36.14,5.95-53.54,12.88-9.02,3.59-18.4,7.02-28.16,7.83-9.97.82-19.66-1.38-29.13-4.27-20.46-6.23-39.23-13.44-60.71-7.21-21.36,6.2-42.6,21.83-65.56,16.44-.74-6.19-1.48-12.39-2.21-18.58ZM691.92,616.02c-3.57,25.75-7.25,51.49-10.65,77.27-139.28,30.12-282.64,39.11-424.62,26.08-20.43-1.87-40.83-4.2-61.16-7-19.32-2.66-38.53-6.3-57.88-8.68-2.11-22.49-4.73-44.92-7.4-67.35,17.04,3.45,33.67-3.74,49.35-10.46,10.57-4.53,21.58-9.01,33.29-9.02,9.95-.01,19.59,2.93,28.94,6.02,18.11,5.99,35.31,11.6,54.48,7.06,18.87-4.47,35.77-15.35,55.1-18.15,21.23-3.07,41.35,6.4,61.68,10.75,19.06,4.07,37.08,1.48,55.7-3.45,19.18-5.08,39.66-12.32,59.66-7.69,18.53,4.29,32.97,16.93,52.93,15.59,20.03-1.34,37.88-11.54,57.36-15.37,11.53-2.27,21.62-.26,32.8,2.67,6.9,1.81,13.77,3.09,20.43,1.74ZM103.11,701.55c7.73-5.76,17.77-8.03,27.23-9.54.69,4.61,1.4,9.21,2.11,13.81.15.97.8,1.54,1.6,1.78.3.74.88,1.36,1.79,1.58,34.74,8.57,71.29,12.33,106.84,16.09,35.96,3.8,72.08,6.23,108.22,7.12,72.73,1.8,145.58-2.14,217.69-11.74,39.98-5.32,79.69-12.38,119.02-21.27,2.87-.65,3.19-3.62,1.91-5.51,1.6-10.9,3.14-21.82,4.67-32.73,10.3,2.36,21.33,5.22,28.35,13.56,8.67,10.3,4.46,22.01-5.31,29.56-8.98,6.95-20.25,10.98-30.8,14.91-11.49,4.28-23.22,7.9-35.08,11.01-49.48,12.97-101.16,17.99-152,22.64-104.59,9.56-210.26,10.49-314.69-1.42-15.18-1.73-30.33-3.71-45.44-5.98-12.64-1.9-27.25-3.6-36.78-12.97-9.27-9.11-10.16-22.8.68-30.89ZM139.95,616.88c15.04-4.07,28.65-10.88,43.29-15.94,12.16-4.21,26.4-6.65,37.92.42,1.75,1.07.61,4.06-1.43,3.38-14.25-4.76-27.9-2.3-41.54,3.14-12.13,4.84-24.45,12.01-37.86,11.76-1.6-.03-1.93-2.34-.38-2.76ZM236.57,603.8c2.86.4,5.73.8,8.59,1.2,1.7.24.97,2.8-.71,2.56-2.86-.4-5.73-.8-8.59-1.2-1.7-.24-.97-2.8.71-2.56ZM619.58,591.46c10.1-5.5,21.94-8.95,33.15-4.34,1.94.8,1.93,4.04-.54,3.94-10.76-.44-21.29-1.21-31.54,2.93-1.49.6-2.42-1.79-1.07-2.52ZM668.53,590.11c1.15.17,2.4.16,3.51.51,1.12.35,2.26.98,3.19,1.69.66.5,1.1,1.23.85,2.09-.21.72-.99,1.44-1.79,1.36-1.29-.13-2.59-.41-3.77-.95-1.12-.51-2.07-1.41-3.08-2.12-1.37-.95-.48-2.81,1.09-2.57Z"/>
  <g>
    <path class="cls-5" d="M330.35,79.49c-.52-2.87-1.02-5.74-1.52-8.62-3.17-.12-6.11-1.23-7.16-3.45-2.55-5.4,3.21-21.3,4.89-22.36,1.44-.9,12.72,16.56,11.95,21.56-.05.3-.14.56-.28.77-.99,1.43-2.8,2.44-4.89,2.99.66,2.84,1.3,5.69,1.91,8.54,3.91-.84,7.39-2.6,9.2-5.22.23-.34.38-.76.46-1.26,1.27-8.24-17.35-37.05-19.71-35.56-2.76,1.74-12.26,27.96-8.06,36.87,1.88,3.98,7.47,5.82,13.22,5.72Z"/>
    <path class="cls-1" d="M332.27,65.82c.36,1.52.72,3.05,1.07,4.57,2.08-.56,3.9-1.56,4.89-2.99.14-.2.23-.46.28-.77.77-4.99-10.52-22.46-11.95-21.56-1.68,1.05-7.43,16.95-4.89,22.36,1.04,2.22,3.99,3.32,7.16,3.45-.27-1.57-.55-3.14-.83-4.7-.37-2.06,3.81-2.32,4.27-.35Z"/>
    <path class="cls-11" d="M332.27,65.82c-.46-1.97-4.64-1.71-4.27.35.28,1.57.56,3.14.83,4.7.5,2.87,1.01,5.75,1.52,8.62.49,2.72.99,5.43,1.52,8.14.32,1.61.6,3.24.87,4.87,1.51-.2,3.21-.36,5.09-.45-.38-1.93-.78-3.86-1.12-5.77-.44-2.46-.94-4.91-1.46-7.36-.61-2.85-1.25-5.7-1.91-8.54-.36-1.52-.71-3.05-1.07-4.57Z"/>
    <path class="cls-6" d="M331.17,116.53c.98,4.6,1.29,9.34,1.42,14.07,1.24-.65,2.5-1.29,3.78-1.91,5.69-2.78,11.6-5.36,17.63-7.72-.51-5.65-1-10.79-1.45-15.22-3.83,1.81-7.62,3.67-11.37,5.58-3.35,1.71-6.69,3.44-10.01,5.2Z"/>
    <path class="cls-6" d="M332.82,140.16c.02.44.03.89.05,1.33.24,5.29.53,10.66.84,16.07,4.09-2.22,8.35-4.28,12.76-6.16,3.23-1.37,6.5-2.69,9.83-3.93-.5-5.98-1-11.8-1.48-17.31-4.52,1.76-8.94,3.63-13.26,5.68-2.95,1.39-5.86,2.84-8.74,4.32Z"/>
    <path class="cls-6" d="M336.3,194.49c.48,6.21.9,12.42,1.16,18.63,3.45-2.12,6.98-4.17,10.6-6.1,4.08-2.17,8.27-4.23,12.57-6.17-.45-5.71-.92-11.74-1.42-17.9-.82.34-1.63.68-2.44,1.03-7.25,3.11-13.9,6.76-20.46,10.51Z"/>
    <path class="cls-6" d="M331,197.53c-.81.46-1.61.93-2.42,1.39.65,6.65,1.26,12.98,1.85,18.71,1.08-.73,2.18-1.44,3.28-2.15-1.11-5.94-1.98-11.94-2.7-17.95Z"/>
    <path class="cls-6" d="M326.28,143.6c-.8.43-1.61.86-2.4,1.29.44,5.73.92,11.66,1.42,17.64.73-.47,1.47-.93,2.21-1.39-.47-5.84-.87-11.69-1.22-17.55Z"/>
    <path class="cls-6" d="M337.67,220.74c.04,2.88.04,5.76-.03,8.64,0,.31-.67.48-.76.14-.65-2.4-1.24-4.82-1.79-7.25-.56.34-1.14.66-1.7,1.01-.75.45-1.51.91-2.27,1.35,1.39,13.54,2.35,22.45,2.35,22.45l30.48-2.5s-1.11-14.96-2.71-35.58c-2.71,1.14-5.4,2.33-8.05,3.58-5.35,2.53-10.52,5.27-15.53,8.17Z"/>
    <path class="cls-6" d="M328.4,171.6c-.15-1.6-.28-3.2-.42-4.8-.74.36-1.48.71-2.22,1.08.75,8.64,1.55,17.31,2.31,25.58.73-.63,1.5-1.25,2.27-1.86-.72-6.69-1.31-13.38-1.93-19.99Z"/>
    <path class="cls-6" d="M325.36,119.64c-.88.47-1.75.95-2.62,1.43-.14.07-.26.15-.4.21.24,4.52.55,9.41.9,14.55.8-.47,1.6-.94,2.4-1.4-.38-4.91-.67-9.88-.27-14.79Z"/>
    <path class="cls-6" d="M334.09,163.89c.13,2.08.25,4.17.38,6.25.36,5.81.83,11.64,1.29,17.48,5.29-3.58,11.07-6.75,16.85-9.52,1.97-.93,3.96-1.84,5.99-2.71-.56-7-1.13-14.09-1.71-21.05-2.42.86-4.82,1.77-7.19,2.72-5.31,2.13-10.5,4.43-15.61,6.82Z"/>
    <path class="cls-6" d="M332.75,92.51c-7.57,1.01-10.6,3.07-10.6,3.07-.45,3.45-.46,9.72-.17,17.82,5.52-3.69,11.21-7.21,17.13-10.55,4.07-2.3,8.18-4.59,12.37-6.77-.17-1.42-.34-2.64-.49-3.64-5.16-.5-9.51-.57-13.15-.39-1.89.09-3.58.25-5.09.45Z"/>
    <path class="cls-17" d="M330.33,191.6c1.73-1.38,3.55-2.7,5.43-3.97-.47-5.84-.93-11.67-1.29-17.48-.13-2.09-.26-4.17-.38-6.25-2.05.96-4.09,1.93-6.11,2.91.14,1.6.27,3.2.42,4.8.62,6.62,1.21,13.31,1.93,19.99Z"/>
    <path class="cls-17" d="M332.59,130.6c-.14-4.73-.44-9.47-1.42-14.07-1.95,1.03-3.88,2.07-5.81,3.11-.4,4.91-.1,9.87.27,14.79,2.28-1.32,4.59-2.6,6.96-3.83Z"/>
    <path class="cls-17" d="M333.71,157.56c-.31-5.41-.6-10.78-.84-16.07-.02-.44-.04-.89-.05-1.33-2.2,1.13-4.37,2.28-6.54,3.44.35,5.85.75,11.7,1.22,17.55,2.02-1.25,4.09-2.44,6.21-3.59Z"/>
    <path class="cls-17" d="M337.46,213.12c-.26-6.21-.68-12.42-1.16-18.63-1.77,1.01-3.53,2.02-5.3,3.04.73,6.01,1.59,12.01,2.7,17.95,1.24-.8,2.49-1.59,3.75-2.36Z"/>
    <path class="cls-22" d="M337.65,229.38c.07-2.88.07-5.76.03-8.64-.87.5-1.72,1.02-2.58,1.53.54,2.43,1.14,4.85,1.79,7.25.09.34.76.17.76-.14Z"/>
    <path class="cls-9" d="M339.11,102.85c-5.92,3.34-11.6,6.86-17.13,10.55.1,2.46.21,5.1.35,7.88.14-.06.26-.14.4-.21.87-.48,1.75-.95,2.62-1.43,1.93-1.05,3.86-2.09,5.81-3.11,3.32-1.75,6.65-3.48,10.01-5.2,3.75-1.91,7.54-3.77,11.37-5.58-.38-3.8-.75-7.07-1.07-9.67-4.2,2.18-8.3,4.47-12.37,6.77Z"/>
    <path class="cls-9" d="M332.59,130.6c-2.37,1.23-4.68,2.52-6.96,3.83-.8.46-1.61.93-2.4,1.4.21,2.94.42,5.97.65,9.07.8-.43,1.6-.86,2.4-1.29,2.16-1.16,4.34-2.32,6.54-3.44,2.88-1.48,5.79-2.93,8.74-4.32,4.32-2.04,8.74-3.92,13.26-5.68-.28-3.18-.56-6.25-.83-9.19-6.03,2.36-11.93,4.93-17.63,7.72-1.28.62-2.53,1.26-3.78,1.91Z"/>
    <path class="cls-9" d="M333.71,157.56c-2.12,1.15-4.19,2.35-6.21,3.59-.74.46-1.48.92-2.21,1.39.15,1.77.31,3.56.46,5.34.74-.36,1.48-.72,2.22-1.08,2.03-.99,4.06-1.96,6.11-2.91,5.11-2.39,10.3-4.69,15.61-6.82,2.37-.95,4.77-1.86,7.19-2.72-.19-2.31-.38-4.61-.59-6.88-3.33,1.24-6.6,2.56-9.83,3.93-4.41,1.88-8.67,3.93-12.76,6.16Z"/>
    <path class="cls-9" d="M335.76,187.63c-1.88,1.27-3.7,2.6-5.43,3.97-.77.61-1.53,1.23-2.27,1.86.18,1.84.36,3.66.52,5.45.81-.46,1.61-.93,2.42-1.39,1.77-1.02,3.53-2.03,5.3-3.04,6.56-3.75,13.21-7.4,20.46-10.51.81-.35,1.62-.69,2.44-1.03-.2-2.5-.39-5.02-.6-7.55-2.02.87-4.02,1.77-5.99,2.71-5.78,2.76-11.57,5.94-16.85,9.52Z"/>
    <path class="cls-9" d="M337.46,213.12c-1.26.78-2.52,1.56-3.75,2.36-1.1.71-2.2,1.42-3.28,2.15.24,2.44.48,4.78.7,6.99.76-.44,1.52-.9,2.27-1.35.56-.34,1.13-.67,1.7-1.01.86-.51,1.71-1.03,2.58-1.53,5.01-2.9,10.18-5.64,15.53-8.17,2.65-1.25,5.34-2.44,8.05-3.58-.21-2.63-.42-5.35-.62-8.14-4.3,1.93-8.49,4-12.57,6.17-3.63,1.94-7.16,3.98-10.6,6.1Z"/>
  </g>
  <g>
    <path class="cls-5" d="M267.11,204.95c-.57-2.88-1.14-5.76-1.7-8.65-3.42-.06-6.61-1.12-7.75-3.33-2.78-5.39,3.33-21.51,5.13-22.6,1.54-.93,13.84,16.43,13.04,21.47-.05.31-.15.57-.3.78-1.06,1.46-3.01,2.51-5.26,3.11.73,2.85,1.44,5.7,2.12,8.56,4.21-.92,7.96-2.76,9.89-5.43.25-.34.41-.78.49-1.28,1.32-8.32-18.96-36.96-21.51-35.42-2.97,1.8-13.05,28.39-8.46,37.28,2.05,3.97,8.1,5.71,14.3,5.51Z"/>
    <path class="cls-1" d="M269.09,191.14c.4,1.53.79,3.05,1.18,4.58,2.25-.6,4.2-1.65,5.26-3.11.15-.21.25-.47.3-.78.8-5.04-11.5-22.41-13.04-21.47-1.8,1.09-7.91,17.21-5.13,22.6,1.14,2.21,4.33,3.27,7.75,3.33-.31-1.57-.61-3.15-.93-4.72-.41-2.06,4.1-2.41,4.61-.44Z"/>
    <path class="cls-11" d="M269.09,191.14c-.51-1.97-5.02-1.63-4.61.44.31,1.57.62,3.15.93,4.72.56,2.88,1.12,5.77,1.7,8.65.54,2.73,1.1,5.45,1.7,8.17.35,1.61.66,3.25.97,4.89,1.63-.23,3.46-.42,5.49-.55-.43-1.94-.87-3.87-1.25-5.78-.49-2.47-1.05-4.92-1.63-7.38-.67-2.86-1.38-5.71-2.12-8.56-.39-1.53-.79-3.05-1.18-4.58Z"/>
    <path class="cls-10" d="M258.11,224.27c-.15,2.81-.14,6.53.03,10.93h0c1.47,2.01,2.93,4.02,4.39,6.02.16-.87.33-1.74.56-2.61.35-1.35,3.51-1.78,4-.38,1.44,4.13,2.11,8.42,2.47,12.75,3.87,5.44,7.69,10.9,11.46,16.37,5.57,8.09,11.03,16.22,16.36,24.4-.37-4-.75-8.01-1.13-11.96-.22-2.32-.44-4.63-.68-6.92v-.02c-4.98-7.19-10.1-14.32-15.36-21.38-6.91-9.24-14.39-18.28-22.08-27.2Z"/>
    <path class="cls-10" d="M290.62,225.87c-.21-1.72-.42-3.26-.61-4.63-.2-1.43-.37-2.65-.55-3.66-2.16-.16-4.19-.25-6.1-.28,1.39,1.7,2.8,3.38,4.2,5.04,1,1.18,2.02,2.35,3.05,3.53Z"/>
    <path class="cls-10" d="M262.7,219.52c-1.54.47-2.64.92-3.34,1.25l.61.72c8.13,9.74,15.8,19.68,23.47,29.62,3.94,5.12,7.78,10.29,11.51,15.47-.36-3.81-.74-7.52-1.09-11.11-.06-.65-.12-1.3-.2-1.94-5.66-6.59-11.41-13.15-17.28-19.65-4.39-4.85-9.02-9.62-13.67-14.37Z"/>
    <path class="cls-10" d="M269.88,257.01c.12,3.45.16,6.9.35,10.3,0,.07,0,.14.01.2,1.7,2.72,3.39,5.43,5.08,8.15,7.94,12.79,16.05,25.52,24.1,38.27-.17-1.78-.33-3.58-.5-5.4-.23-2.52-.45-5.05-.7-7.59-.09-.94-.16-1.87-.25-2.81h0c-6.33-9.75-12.83-19.42-19.51-29.02-2.82-4.05-5.68-8.09-8.57-12.11Z"/>
    <path class="cls-10" d="M304.38,371.85c-.28-3.19-1.04-14.25-2.02-25.37v-.02c-8.46-16.02-17.55-31.87-26.98-47.51-1.12-1.86-2.27-3.72-3.43-5.57.07.92.13,1.83.2,2.75.22,3.03.48,6.07.74,9.1,1.12,2.01,2.26,4.01,3.37,6.02,10.48,18.96,20.15,38.15,28.09,57.79"/>
    <path class="cls-10" d="M264.04,281.29c-.98-1.45-1.96-2.9-2.95-4.35.27,3.02.55,6.08.85,9.16,1.02,1.73,2,3.47,3.01,5.2-.33-3.34-.63-6.68-.91-10.02Z"/>
    <path class="cls-10" d="M265.6,297.71c-.04-.41-.08-.82-.12-1.22-1.01-1.73-2.01-3.46-3.04-5.19.1.91.19,1.81.28,2.72.18,1.85.37,3.69.56,5.54,1.17,2.9,2.32,5.81,3.45,8.71-.38-3.53-.75-7.05-1.12-10.55Z"/>
    <path class="cls-10" d="M263.02,267.99c-.11-1.66-.26-3.33-.41-5.01-1.03-1.58-2.05-3.17-3.1-4.75.08,1.18.18,2.37.28,3.57.16,1.97.32,3.98.5,6.02h0c1.04,1.68,2.06,3.36,3.08,5.03-.12-1.62-.24-3.24-.35-4.86Z"/>
    <path class="cls-10" d="M271.57,373.59l3.21-.3c-1.68-4.53-3.28-9.06-4.87-13.59,1.02,8.62,1.66,13.89,1.66,13.89Z"/>
    <path class="cls-10" d="M261.93,246.11c-1.17-1.58-2.34-3.17-3.52-4.75.1,1.85.2,3.79.31,5.8.05.87.12,1.75.18,2.65,1.02,1.54,2.03,3.1,3.04,4.65-.15-2.78-.19-5.57,0-8.35Z"/>
    <path class="cls-10" d="M293.71,370.21c.98-.09,1.7-.16,2.16-.2.39-.04,1-.1,1.8-.17,1.04-.1,2.57-.24,4.32-.41-8.02-19.53-17.37-38.74-27.76-57.6-.29-.53-.6-1.06-.89-1.59.6,6.59,1.23,13.2,1.73,19.8,5.09,13.48,10.03,26.99,14.94,40.51,1.45-.14,2.74-.26,3.72-.35Z"/>
    <path class="cls-10" d="M298.09,370.26c-.08,0-3.89.37-7.93.74.01.04.03.08.05.12,3.29-.35,8.72-.87,12.01-1.18-.01-.03-.02-.05-.03-.08-2.1.2-3.72.35-4.09.39Z"/>
    <path class="cls-10" d="M290.26,371.28c.06.17.13.35.19.52,4.53-.45,9.98-1.01,12.06-1.14-.07-.16-.14-.32-.2-.48-3.24.3-8.72.82-12.05,1.1Z"/>
    <path class="cls-10" d="M270.72,275.56c.22,3.56.47,7.14.72,10.74,2.16,3.64,4.31,7.27,6.48,10.87,8.55,14.24,16.43,28.63,23.88,43.16-.16-1.82-.32-3.7-.49-5.62-.24-2.64-.5-5.38-.74-8.18-.13-1.33-.24-2.67-.37-4.03-9.19-14.67-18.26-29.37-27.59-43.99-.63-.98-1.26-1.96-1.89-2.95Z"/>
    <path class="cls-10" d="M287.45,371.47s.07-.02.13-.03c-.02-.06-.05-.13-.07-.19-3.67.33-6.89.6-6.9.55s2.56-.33,5.71-.64c-4.24.39-8.35.75-8.36.68,0-.08,4.8-.56,9.39-1.01-3.88-10.22-7.74-20.44-11.65-30.65.25,5.18.36,10.35.27,15.53,0,.31-.72.5-.82.16-3.42-11.43-5.43-23.26-6.95-35.11-.15-.39-.3-.78-.45-1.17-1.03-2.62-2.09-5.23-3.19-7.82.29,2.69.57,5.35.85,7.96.19,1.85.4,3.68.59,5.48.68,6.13,1.33,11.97,1.95,17.33,3.09,10.2,5.9,20.46,9.19,30.52l10.7-1.01c-.07-.19-.15-.39-.22-.58-.07,0-.14,0-.14,0Z"/>
    <path class="cls-10" d="M269.78,218c-1.04.15-2.01.31-2.89.49,4.28,4.59,8.41,9.24,12.55,13.81,4.65,5.14,9.19,10.34,13.62,15.58-.05-.55-.12-1.09-.17-1.64-.47-4.6-.94-8.86-1.37-12.67h0c-3.01-3.69-5.95-7.39-9.06-10.98-1.52-1.76-3.1-3.52-4.69-5.27h-.01c-.87.03-1.69.08-2.49.13-2.04.13-3.87.32-5.49.55Z"/>
    <path class="cls-13" d="M268.09,344c.28,2.46.55,4.81.81,7.03.36,3.16.7,6.06,1.01,8.66,1.59,4.53,3.19,9.07,4.87,13.59l2.33-.22c-3.29-10.07-6.1-20.32-9.19-30.52.06.49.11.98.17,1.46Z"/>
    <path class="cls-13" d="M268.18,320.75c-.53-4.16-1.01-8.33-1.46-12.48-1.13-2.9-2.27-5.81-3.45-8.71.41,4.09.84,8.18,1.26,12.2,1.1,2.59,2.16,5.2,3.19,7.82.15.39.3.78.45,1.17Z"/>
    <path class="cls-13" d="M290,370.56c-4.91-13.52-9.85-27.03-14.94-40.51.25,3.37.47,6.74.63,10.12,3.9,10.21,7.77,20.43,11.65,30.65.91-.09,1.8-.17,2.66-.26Z"/>
    <path class="cls-13" d="M276.26,311.25c-1.11-2.01-2.25-4.01-3.37-6.02.15,1.67.3,3.34.45,5.02.29.53.6,1.05.89,1.59,10.4,18.85,12.51,18.37,2.03-.59Z"/>
    <path class="cls-13" d="M264.95,291.3c-1-1.73-1.99-3.47-3.01-5.2l.5,5.2c1.02,1.73,2.02,3.46,3.04,5.19-.18-1.73-.36-3.46-.53-5.19Z"/>
    <path class="cls-13" d="M263.37,272.86c-1.02-1.68-2.04-3.35-3.08-5.02.07,1.02.17,2.05.25,3.08.17,1.98.35,3.99.55,6.02h0c.99,1.46,1.97,2.91,2.95,4.36-.24-2.81-.46-5.62-.67-8.43Z"/>
    <path class="cls-13" d="M271.44,286.3c.17,2.36.33,4.71.5,7.08,1.16,1.85,2.31,3.71,3.43,5.57,9.43,15.65,18.52,31.49,26.98,47.51-.19-1.96-.37-4-.56-6.13-7.45-14.53-15.34-28.92-23.88-43.16-2.17-3.6-4.32-7.23-6.48-10.87Z"/>
    <path class="cls-13" d="M270.24,267.51c.15,2.66.31,5.35.48,8.05.63.98,1.26,1.96,1.89,2.95,9.33,14.62,18.4,29.32,27.59,43.99-.25-2.8-.51-5.65-.77-8.55h0c-8.06-12.76-16.16-25.49-24.1-38.28-1.68-2.72-3.38-5.44-5.08-8.15Z"/>
    <path class="cls-13" d="M261.93,254.46c-1.01-1.55-2.01-3.1-3.04-4.65.18,2.7.39,5.51.61,8.41,1.05,1.58,2.07,3.17,3.1,4.75-.25-2.82-.52-5.67-.67-8.52Z"/>
    <path class="cls-13" d="M269.55,250.98c.16,2,.26,4.02.33,6.03,2.89,4.02,5.76,8.06,8.57,12.11,6.68,9.6,13.18,19.27,19.51,29.01-.2-2.11-.39-4.24-.59-6.37h0c-5.33-8.19-10.78-16.32-16.36-24.41-3.77-5.48-7.59-10.93-11.46-16.37Z"/>
    <path class="cls-13" d="M262.53,241.22c-1.46-2.01-2.91-4.01-4.39-6.01.03,1.29.09,2.63.15,4.04.04.69.07,1.4.11,2.12,1.18,1.58,2.35,3.16,3.52,4.75.11-1.64.31-3.27.6-4.89Z"/>
    <path class="cls-13" d="M259.96,221.5l-.61-.72c-.68.31-1,.52-1,.52-.11.83-.2,1.83-.24,2.97h0c7.69,8.93,15.17,17.97,22.08,27.21,5.26,7.06,10.39,14.19,15.36,21.38-.2-2.11-.4-4.21-.62-6.27-3.74-5.18-7.57-10.35-11.51-15.47-7.67-9.94-15.34-19.88-23.47-29.62Z"/>
    <path class="cls-13" d="M266.89,218.49c-1.66.32-3.05.68-4.19,1.03,4.65,4.75,9.28,9.52,13.67,14.37,5.87,6.5,11.63,13.06,17.28,19.65-.2-1.93-.39-3.8-.59-5.65h0c-4.43-5.25-8.98-10.45-13.62-15.59-4.14-4.57-8.28-9.22-12.55-13.81Z"/>
    <path class="cls-13" d="M291.52,233.56c-.1-.9-.2-1.76-.29-2.61-.2-1.82-.41-3.52-.61-5.07h0c-1.03-1.19-2.06-2.37-3.05-3.54-1.4-1.66-2.81-3.34-4.2-5.04-2-.05-3.86-.04-5.59.02,1.59,1.75,3.17,3.51,4.69,5.27,3.1,3.59,6.05,7.29,9.06,10.97Z"/>
    <path class="cls-2" d="M261.93,254.46c.15,2.85.42,5.7.67,8.52.15,1.68.3,3.35.41,5.01.11,1.62.23,3.24.35,4.86.21,2.81.43,5.62.67,8.43.28,3.34.58,6.68.91,10.02.17,1.73.34,3.46.53,5.19.04.41.08.82.12,1.22.37,3.5.74,7.02,1.12,10.55.45,4.15.93,8.32,1.46,12.48,1.52,11.85,3.54,23.68,6.95,35.11.1.34.82.15.82-.16.1-5.17-.02-10.35-.27-15.53-.16-3.37-.38-6.74-.63-10.12-.5-6.61-1.12-13.21-1.73-19.8-.15-1.67-.3-3.35-.45-5.02-.27-3.04-.52-6.07-.74-9.1-.07-.92-.13-1.84-.2-2.75-.17-2.36-.34-4.72-.5-7.08-.25-3.6-.49-7.18-.72-10.74-.17-2.7-.33-5.38-.48-8.05,0-.07,0-.14-.01-.2-.19-3.4-.23-6.85-.35-10.3-.07-2.01-.16-4.03-.33-6.03-.36-4.33-1.03-8.62-2.47-12.75-.49-1.4-3.65-.98-4,.38-.22.87-.4,1.74-.56,2.61-.29,1.62-.49,3.25-.6,4.89-.19,2.78-.14,5.57,0,8.35Z"/>
  </g>
  <g>
    <path class="cls-5" d="M464.34,332.01c-.3-2.92-.58-5.84-.87-8.77-3.4-.39-6.47-1.74-7.4-4.05-2.26-5.63,5.37-21.1,7.26-22.02,1.63-.78,12.21,17.66,10.93,22.6-.08.3-.2.55-.37.75-1.19,1.36-3.24,2.21-5.53,2.6.46,2.91.89,5.81,1.29,8.72,4.28-.52,8.19-1.99,10.37-4.47.28-.32.48-.73.61-1.23,2.11-8.16-15.35-38.58-18.03-37.28-3.13,1.51-15.7,27.03-11.98,36.31,1.66,4.15,7.52,6.45,13.71,6.83Z"/>
    <path class="cls-1" d="M467.63,318.46c.25,1.56.5,3.11.74,4.67,2.29-.39,4.34-1.25,5.53-2.6.17-.19.29-.44.37-.75,1.28-4.94-9.31-23.39-10.93-22.6-1.9.92-9.52,16.39-7.26,22.02.92,2.31,3.99,3.66,7.4,4.05-.15-1.6-.31-3.19-.47-4.79-.21-2.09,4.31-2.01,4.63,0Z"/>
    <path class="cls-11" d="M467.63,318.46c-.32-2.01-4.84-2.09-4.63,0,.16,1.6.32,3.19.47,4.79.28,2.92.57,5.85.87,8.77.28,2.77.57,5.53.91,8.29.2,1.64.35,3.3.5,4.96,1.65-.08,3.48-.1,5.52-.03-.24-1.97-.5-3.93-.69-5.87-.25-2.5-.57-5-.92-7.5-.4-2.91-.83-5.82-1.29-8.72-.25-1.56-.49-3.11-.74-4.67Z"/>
    <path class="cls-14" d="M454.04,428.91c-.02-1.57-.03-3.13-.05-4.69-.11-9.95,0-19.89.27-29.83.06-2.36.07-4.76.08-7.16-.98-.03-1.88-.2-2.69-.5,0,.39-.02.79-.02,1.19-.04,2.96-.09,6.02-.12,9.14-.04,5.78-.06,11.77-.06,17.81,0,1.79.02,3.6.02,5.4.02,2.85.03,5.7.04,8.54.34-.07.69-.1,1.03-.1.53,0,1.03.08,1.49.21Z"/>
    <path class="cls-14" d="M453.46,461.26c.48-.26,1.02-.44,1.58-.55-.66-8.86-.85-17.76-.95-26.6-.49.15-1.01.23-1.55.23-.34,0-.67-.03-.98-.09.03,4.02.07,7.99.1,11.87.03,1.85.06,3.7.07,5.51.06,3.86.12,7.6.18,11.19.25-.59.76-1.15,1.54-1.56Z"/>
    <path class="cls-14" d="M481.53,401.63c-1.34-.86-1.92-2.13-2-3.37-.07-1.18.82-2.54,2-3.37,1.21-.83,2.94-1.35,4.64-1.38,0-2.96-.01-5.86-.03-8.68-.01-3.21-.04-6.31-.07-9.28-.04-5.51-.1-10.55-.18-14.92-.3-.02-.61-.06-.93-.11-3.78-.6-6.24-3.63-5.13-6.18.17-.4.43-.77.74-1.12l-.07.06c.18-.2.36-.38.55-.57.13-.11.27-.22.42-.32.07-.08.18-.17.3-.25.37-.25.73-.44,1.1-.59.78-.49,1.72-.87,2.72-1.1v-.06c-.06-1.44-.12-2.67-.19-3.7-5.51-.92-10.19-1.35-14.12-1.47-2.04-.06-3.88-.04-5.52.03-8.24.39-11.68,2.2-11.68,2.2-.79,3.43-1.37,9.72-1.78,17.86-.12,2.48-.22,5.13-.33,7.93-.04,1.75-.1,3.56-.15,5.42.88-.3,1.84-.46,2.79-.47.31-4.42.99-8.81,2.51-13.06.47-1.32,3.67-1.44,4.02,0,2.34,9.58.75,19.58.36,29.24-.14,3.54-.26,7.14-.37,10.74,2.03-.99,5.08.02,5.05,1.81-.02.77-.17,1.48-1.11,1.98-.9.49-1.95.46-2.96.17-.4-.11-.76-.25-1.08-.42-.14,4.84-.25,9.71-.36,14.58-.29,12.98-.04,26.09-.47,39.14.11.15.22.31.31.48.34.62.23,1.35.04,1.97-.09.28-.25.54-.47.77-.24,5.79-.64,11.56-1.3,17.31-.04.31-.77.43-.83.08-1.05-5.31-1.79-10.67-2.34-16.05-1.07-.13-2.1-.53-2.69-1.15-.44-.34-.76-.73-.95-1.15.03,2.02.06,3.99.1,5.89.04,2.48.09,4.84.12,7.08.06,2.72.1,5.26.16,7.58h.21c9.72-.01,9.72,10.46.03,10.49.07,2.97.12,4.63.12,4.63h30.45s-2.61-1-3.52-1.81c-1.37-1.23-1.93-2.63-1.61-4.19.21-1.12.85-2.09,1.97-2.94,1.34-1.02,3.81-1.57,5.85-1.37.04-5.73.09-13.53.15-22.57h-.06c-2.22.36-4.27.15-6.31-.57l-.24-.08c-1.9-.65-3.12-2.03-3.75-3.38-.55-1.19-.27-2.56.42-3.68.7-1.16,1.82-2.03,3.33-2.7,1.88-.84,4.18-.84,6.28-.57l.27.03.13.02v-.31c.03-5.77.06-11.84.07-18.06.01-2.53.03-5.07.03-7.63,0-1.38.01-2.76.01-4.14-3.06.84-6.6.35-9.1-1.29l-.19-.13c-1.06-.74-1.79-1.62-2.21-2.63-.36-.79-.4-1.59-.15-2.37.31-1.63,1.37-2.9,3.24-3.9,2.07-1.12,4.9-1.65,7.49-1.07.31.09.63.18.94.28.02-2,.02-4,.02-5.99,0-2.09,0-4.19-.02-6.25-1.78-.03-3.36-.56-4.66-1.39ZM464.21,355.43c-2.28.21-4.59-.71-5.38-2.22-.33-.17-.65-.35-.92-.57-.99-.81-1.66-1.6-1.64-2.7.01-.92.56-1.84,1.51-2.49,1.44-.98,3.35-1.18,5.25-.91,3.48.5,5.45,3.19,5.55,5.46.08,1.75-1.98,3.21-4.37,3.43ZM469.72,482.6c-1.84,0-3.21-1.05-3.29-2.28-.08-1.23,1.57-2.28,3.29-2.28,1.84,0,3.21,1.05,3.29,2.28.08,1.23-1.57,2.28-3.29,2.28ZM476.3,442.55c.9,1.06,1.17,2.28.93,3.48-.22,1.15-.9,2.33-2.16,3.14-1,.64-2.17,1.11-3.47,1.41-1.66.37-3.56.18-5.12-.28-1.56-.46-2.9-1.21-3.76-2.24-.75-.88-1.05-1.86-1.02-2.83-.02.02-.04.05-.06.07v-.15c0-1.7,1.13-3.18,3.03-4.2,1.97-1.06,4.28-1.36,6.71-.96l.22.04c1.94.32,3.7,1.33,4.7,2.51ZM466.32,387.06c-.1-1.47,1.87-2.72,3.92-2.72,2.2,0,3.82,1.25,3.92,2.72.1,1.47-1.87,2.72-3.92,2.72-2.2,0-3.82-1.25-3.92-2.72ZM471.28,372.03c-2.75,0-4.78-1.56-4.9-3.4-.12-1.84,2.33-3.4,4.9-3.4,2.75,0,4.78,1.56,4.9,3.4.12,1.84-2.34,3.4-4.9,3.4Z"/>
    <path class="cls-4" d="M461.13,382.72c.07,1.13-.78,2.41-1.91,3.19-1.18.83-2.93,1.33-4.6,1.33-.1,0-.19,0-.28-.01-.02,2.4-.02,4.8-.08,7.16-.27,9.94-.38,19.88-.27,29.83.02,1.56.03,3.13.05,4.69,1.48.42,2.49,1.44,2.55,2.61.08,1.13-1.04,2.14-2.5,2.58.11,8.84.3,17.74.95,26.6.74-.14,1.53-.16,2.32,0,1.36.26,2.23.88,2.82,1.69.43-13.05.18-26.15.47-39.14.11-4.87.23-9.74.36-14.58-.65-.34-1.1-.8-1.23-1.44-.15-.8.29-1.56,1.21-2.05.04-.02.08-.04.12-.06.11-3.61.23-7.2.37-10.74.39-9.67,1.98-19.66-.36-29.24-.35-1.44-3.54-1.32-4.02,0-1.53,4.25-2.2,8.64-2.51,13.06,0,0,0,0,.01,0,3.64,0,6.34,2.07,6.51,4.52Z"/>
    <path class="cls-4" d="M456.96,466.98c-.43.04-.9.03-1.37-.03.55,5.39,1.29,10.75,2.34,16.05.07.35.8.23.83-.08.66-5.74,1.05-11.52,1.3-17.31-.68.74-1.89,1.25-3.1,1.36Z"/>
    <path class="cls-8" d="M452.55,485.19h-.21c.09,4.35.18,7.92.24,10.5,9.69-.02,9.69-10.5-.03-10.5Z"/>
    <path class="cls-8" d="M469.72,478.04c-1.72,0-3.37,1.05-3.29,2.28.08,1.24,1.44,2.28,3.29,2.28,1.72,0,3.37-1.05,3.29-2.28-.08-1.24-1.44-2.28-3.29-2.28Z"/>
    <path class="cls-8" d="M485.65,456.46c-2.1-.27-4.4-.27-6.28.57-1.51.67-2.63,1.54-3.33,2.7-.69,1.12-.97,2.49-.42,3.68.63,1.35,1.85,2.73,3.75,3.38l.24.08c2.04.72,4.09.93,6.31.58h.06c0-1.01.01-2.01.01-3.04.02-2.56.03-5.19.06-7.91l-.13-.02-.27-.03Z"/>
    <path class="cls-8" d="M455.59,466.94c.46.06.93.07,1.37.03,1.21-.11,2.43-.62,3.1-1.36.22-.24.38-.49.47-.77.19-.62.3-1.35-.04-1.97-.09-.17-.2-.32-.31-.48-.59-.81-1.46-1.43-2.82-1.69-.79-.15-1.58-.14-2.32,0-.56.11-1.1.29-1.58.55-.78.42-1.29.97-1.54,1.56-.25.6-.24,1.24.03,1.83.19.42.51.81.95,1.15.59.62,1.63,1.01,2.69,1.15Z"/>
    <path class="cls-8" d="M471.38,440c-2.43-.4-4.74-.1-6.71.96-1.9,1.02-3.03,2.5-3.03,4.2v.15s.04-.05.06-.07c-.04.97.27,1.94,1.02,2.83.87,1.03,2.2,1.78,3.76,2.24,1.56.46,3.46.65,5.12.28,1.3-.29,2.47-.76,3.47-1.41,1.26-.81,1.94-1.99,2.16-3.14.23-1.21-.04-2.42-.93-3.48-1-1.19-2.77-2.19-4.7-2.51l-.22-.04Z"/>
    <path class="cls-8" d="M454.09,434.11c1.46-.44,2.58-1.45,2.5-2.58-.07-1.17-1.07-2.19-2.55-2.61-.46-.13-.96-.21-1.49-.21-.34,0-.69.03-1.03.1.02,1.81.03,3.63.05,5.43.31.06.64.09.98.09.53,0,1.06-.08,1.55-.23Z"/>
    <path class="cls-8" d="M477.76,416.05c-1.87,1-2.93,2.27-3.24,3.9-.25.79-.21,1.59.15,2.37.42,1.02,1.15,1.9,2.21,2.63l.19.13c2.51,1.64,6.05,2.12,9.1,1.29.02-3.7.02-7.42.02-11.11-.31-.1-.63-.19-.94-.28-2.6-.58-5.42-.05-7.49,1.07Z"/>
    <path class="cls-8" d="M459.79,407.24c.12.64.57,1.1,1.23,1.44.32.17.68.31,1.08.42,1.02.29,2.06.31,2.96-.17.94-.5,1.09-1.21,1.11-1.98.04-1.8-3.01-2.8-5.05-1.81-.04.02-.08.03-.12.06-.92.49-1.37,1.25-1.21,2.05Z"/>
    <path class="cls-8" d="M479.53,398.27c.07,1.23.66,2.51,2,3.37,1.3.83,2.88,1.36,4.66,1.39v-.7c0-2.97,0-5.92-.02-8.8-1.7.03-3.43.55-4.64,1.38-1.18.83-2.07,2.19-2,3.37Z"/>
    <path class="cls-8" d="M474.16,387.06c-.1-1.47-1.72-2.72-3.92-2.72-2.05,0-4.01,1.25-3.92,2.72.1,1.47,1.72,2.72,3.92,2.72,2.05,0,4.01-1.25,3.92-2.72Z"/>
    <path class="cls-8" d="M454.62,387.24c1.67,0,3.42-.5,4.6-1.33,1.14-.78,1.99-2.06,1.91-3.19-.16-2.45-2.87-4.52-6.51-4.52,0,0,0,0-.01,0-.95,0-1.92.17-2.79.47-.06,2.6-.12,5.28-.16,8.06.8.29,1.71.47,2.69.5.1,0,.19.01.28.01Z"/>
    <path class="cls-8" d="M466.39,368.63c.12,1.84,2.15,3.4,4.9,3.4,2.56,0,5.02-1.56,4.9-3.4-.12-1.84-2.15-3.4-4.9-3.4-2.56,0-5.02,1.56-4.9,3.4Z"/>
    <path class="cls-8" d="M481.77,352.15c-.12.08-.22.17-.3.25-.15.1-.28.21-.42.32-.19.19-.37.37-.55.57l.07-.06c-.31.35-.57.72-.74,1.12-1.1,2.55,1.36,5.57,5.13,6.18.31.05.63.09.93.11-.01-.16-.01-.3-.01-.46-.07-3.81-.16-7.1-.28-9.72-1,.23-1.94.61-2.72,1.1-.37.16-.73.34-1.1.59Z"/>
    <path class="cls-8" d="M468.58,352c-.11-2.27-2.07-4.96-5.55-5.46-1.89-.27-3.81-.06-5.25.91-.95.65-1.5,1.56-1.51,2.49-.01,1.1.66,1.89,1.64,2.7.27.22.59.4.92.57.79,1.52,3.1,2.44,5.38,2.22,2.39-.22,4.45-1.69,4.37-3.43Z"/>
    <path class="cls-8" d="M486.79,491.18c-.1,0-.19,0-.3-.01l.21.02h.09Z"/>
    <path class="cls-8" d="M479.98,491.38c-1.12.85-1.76,1.82-1.97,2.94-.31,1.55.24,2.95,1.61,4.19.91.82,2.15,1.45,3.52,1.81h2.6s.03-3.35.07-9.06c.01-.29.01-.6.01-.91.52-.02-4.51.01-5.85,1.03Z"/>
  </g>
  <g>
    <path class="cls-5" d="M397.38,191.01c-.3-2.92-.58-5.84-.87-8.77-3.4-.39-6.47-1.74-7.4-4.05-2.26-5.63,5.37-21.1,7.26-22.02,1.63-.78,12.21,17.66,10.93,22.6-.08.3-.2.55-.37.75-1.19,1.36-3.24,2.21-5.53,2.6.46,2.91.89,5.81,1.29,8.72,4.28-.52,8.19-1.99,10.37-4.47.28-.32.48-.73.61-1.23,2.11-8.16-15.35-38.58-18.03-37.28-3.13,1.51-15.7,27.03-11.98,36.31,1.66,4.15,7.52,6.45,13.71,6.83Z"/>
    <path class="cls-1" d="M400.67,177.45c.25,1.56.5,3.11.74,4.67,2.29-.39,4.34-1.25,5.53-2.6.17-.19.29-.44.37-.75,1.28-4.94-9.31-23.39-10.93-22.6-1.9.92-9.52,16.39-7.26,22.02.92,2.31,3.99,3.66,7.4,4.05-.15-1.6-.31-3.19-.47-4.79-.21-2.09,4.31-2.01,4.63,0Z"/>
    <path class="cls-11" d="M400.67,177.45c-.32-2.01-4.84-2.09-4.63,0,.16,1.6.32,3.19.47,4.79.28,2.92.57,5.85.87,8.77.28,2.77.57,5.53.91,8.29.2,1.64.35,3.3.5,4.96,1.65-.08,3.48-.1,5.52-.03-.24-1.97-.5-3.93-.69-5.87-.25-2.5-.57-5-.92-7.5-.4-2.91-.83-5.82-1.29-8.72-.25-1.56-.49-3.11-.74-4.67Z"/>
    <path class="cls-14" d="M387.08,287.91c-.02-1.57-.03-3.13-.05-4.69-.11-9.95,0-19.89.27-29.83.06-2.36.07-4.76.08-7.16-.98-.03-1.88-.2-2.69-.5,0,.39-.02.79-.02,1.19-.04,2.96-.09,6.02-.12,9.14-.04,5.78-.06,11.77-.06,17.81,0,1.79.02,3.6.02,5.4.02,2.85.03,5.7.04,8.54.34-.07.69-.1,1.03-.1.53,0,1.03.08,1.49.21Z"/>
    <path class="cls-14" d="M386.5,320.25c.48-.26,1.02-.44,1.58-.55-.66-8.86-.85-17.76-.95-26.6-.49.15-1.01.23-1.55.23-.34,0-.67-.03-.98-.09.03,4.02.07,7.99.1,11.87.03,1.85.06,3.7.07,5.51.06,3.86.12,7.6.18,11.19.25-.59.76-1.15,1.54-1.56Z"/>
    <path class="cls-14" d="M414.57,260.63c-1.34-.86-1.92-2.13-2-3.37-.07-1.18.82-2.54,2-3.37,1.21-.83,2.94-1.35,4.64-1.38,0-2.96-.01-5.86-.03-8.68-.01-3.21-.04-6.31-.07-9.28-.04-5.51-.1-10.55-.18-14.92-.3-.02-.61-.06-.93-.11-3.78-.6-6.24-3.63-5.13-6.18.17-.4.43-.77.74-1.12l-.07.06c.18-.2.36-.38.55-.57.13-.11.27-.22.42-.32.07-.08.18-.17.3-.25.37-.25.73-.44,1.1-.59.78-.49,1.72-.87,2.72-1.1v-.06c-.06-1.44-.12-2.67-.19-3.7-5.51-.92-10.19-1.35-14.12-1.47-2.04-.06-3.88-.04-5.52.03-8.24.39-11.68,2.2-11.68,2.2-.79,3.43-1.37,9.72-1.78,17.86-.12,2.48-.22,5.13-.33,7.93-.04,1.75-.1,3.56-.15,5.42.88-.3,1.84-.46,2.79-.47.31-4.42.99-8.81,2.51-13.06.47-1.32,3.67-1.44,4.02,0,2.34,9.58.75,19.58.36,29.24-.14,3.54-.26,7.14-.37,10.74,2.03-.99,5.08.02,5.05,1.81-.02.77-.17,1.48-1.11,1.98-.9.49-1.95.46-2.96.17-.4-.11-.76-.25-1.08-.42-.14,4.84-.25,9.71-.36,14.58-.29,12.98-.04,26.09-.47,39.14.11.15.22.31.31.48.34.62.23,1.35.04,1.97-.09.28-.25.54-.47.77-.24,5.79-.64,11.56-1.3,17.31-.04.31-.77.43-.83.08-1.05-5.31-1.79-10.67-2.34-16.05-1.07-.13-2.1-.53-2.69-1.15-.44-.34-.76-.73-.95-1.15.03,2.02.06,3.99.1,5.89.04,2.48.09,4.84.12,7.08.06,2.72.1,5.26.16,7.58h.21c9.72-.01,9.72,10.46.03,10.49.07,2.97.12,4.63.12,4.63h30.45s-2.61-1-3.52-1.81c-1.37-1.23-1.93-2.63-1.61-4.19.21-1.12.85-2.09,1.97-2.94,1.34-1.02,3.81-1.57,5.85-1.37.04-5.73.09-13.53.15-22.57h-.06c-2.22.36-4.27.15-6.31-.57l-.24-.08c-1.9-.65-3.12-2.03-3.75-3.38-.55-1.19-.27-2.56.42-3.68.7-1.16,1.82-2.03,3.33-2.7,1.88-.84,4.18-.84,6.28-.57l.27.03.13.02v-.31c.03-5.77.06-11.84.07-18.06.01-2.53.03-5.07.03-7.63,0-1.38.01-2.76.01-4.14-3.06.84-6.6.35-9.1-1.29l-.19-.13c-1.06-.74-1.79-1.62-2.21-2.63-.36-.79-.4-1.59-.15-2.37.31-1.63,1.37-2.9,3.24-3.9,2.07-1.12,4.9-1.65,7.49-1.07.31.09.63.18.94.28.02-2,.02-4,.02-5.99,0-2.09,0-4.19-.02-6.25-1.78-.03-3.36-.56-4.66-1.39ZM397.25,214.43c-2.28.21-4.59-.71-5.38-2.22-.33-.17-.65-.35-.92-.57-.99-.81-1.66-1.6-1.64-2.7.01-.92.56-1.84,1.51-2.49,1.44-.98,3.35-1.18,5.25-.91,3.48.5,5.45,3.19,5.55,5.46.08,1.75-1.98,3.21-4.37,3.43ZM402.76,341.6c-1.84,0-3.21-1.05-3.29-2.28-.08-1.23,1.57-2.28,3.29-2.28,1.84,0,3.21,1.05,3.29,2.28.08,1.23-1.57,2.28-3.29,2.28ZM409.34,301.54c.9,1.06,1.17,2.28.93,3.48-.22,1.15-.9,2.33-2.16,3.14-1,.64-2.17,1.11-3.47,1.41-1.66.37-3.56.18-5.12-.28-1.56-.46-2.9-1.21-3.76-2.24-.75-.88-1.05-1.86-1.02-2.83-.02.02-.04.05-.06.07v-.15c0-1.7,1.13-3.18,3.03-4.2,1.97-1.06,4.28-1.36,6.71-.96l.22.04c1.94.32,3.7,1.33,4.7,2.51ZM399.36,246.06c-.1-1.47,1.87-2.72,3.92-2.72,2.2,0,3.82,1.25,3.92,2.72.1,1.47-1.87,2.72-3.92,2.72-2.2,0-3.82-1.25-3.92-2.72ZM404.32,231.02c-2.75,0-4.78-1.56-4.9-3.4-.12-1.84,2.33-3.4,4.9-3.4,2.75,0,4.78,1.56,4.9,3.4.12,1.84-2.34,3.4-4.9,3.4Z"/>
    <path class="cls-4" d="M394.17,241.72c.07,1.13-.78,2.41-1.91,3.19-1.18.83-2.93,1.33-4.6,1.33-.1,0-.19,0-.28-.01-.02,2.4-.02,4.8-.08,7.16-.27,9.94-.38,19.88-.27,29.83.02,1.56.03,3.13.05,4.69,1.48.42,2.49,1.44,2.55,2.61.08,1.13-1.04,2.14-2.5,2.58.11,8.84.3,17.74.95,26.6.74-.14,1.53-.16,2.32,0,1.36.26,2.23.88,2.82,1.69.43-13.05.18-26.15.47-39.14.11-4.87.23-9.74.36-14.58-.65-.34-1.1-.8-1.23-1.44-.15-.8.29-1.56,1.21-2.05.04-.02.08-.04.12-.06.11-3.61.23-7.2.37-10.74.39-9.67,1.98-19.66-.36-29.24-.35-1.44-3.54-1.32-4.02,0-1.53,4.25-2.2,8.64-2.51,13.06,0,0,0,0,.01,0,3.64,0,6.34,2.07,6.51,4.52Z"/>
    <path class="cls-4" d="M390,325.97c-.43.04-.9.03-1.37-.03.55,5.39,1.29,10.75,2.34,16.05.07.35.8.23.83-.08.66-5.74,1.05-11.52,1.3-17.31-.68.74-1.89,1.25-3.1,1.36Z"/>
    <path class="cls-8" d="M385.59,344.18h-.21c.09,4.35.18,7.92.24,10.5,9.69-.02,9.69-10.5-.03-10.5Z"/>
    <path class="cls-8" d="M402.76,337.03c-1.72,0-3.37,1.05-3.29,2.28.08,1.24,1.44,2.28,3.29,2.28,1.72,0,3.37-1.05,3.29-2.28-.08-1.24-1.44-2.28-3.29-2.28Z"/>
    <path class="cls-8" d="M418.69,315.45c-2.1-.27-4.4-.27-6.28.57-1.51.67-2.63,1.54-3.33,2.7-.69,1.12-.97,2.49-.42,3.68.63,1.35,1.85,2.73,3.75,3.38l.24.08c2.04.72,4.09.93,6.31.58h.06c0-1.01.01-2.01.01-3.04.02-2.56.03-5.19.06-7.91l-.13-.02-.27-.03Z"/>
    <path class="cls-8" d="M388.64,325.94c.46.06.93.07,1.37.03,1.21-.11,2.43-.62,3.1-1.36.22-.24.38-.49.47-.77.19-.62.3-1.35-.04-1.97-.09-.17-.2-.32-.31-.48-.59-.81-1.46-1.43-2.82-1.69-.79-.15-1.58-.14-2.32,0-.56.11-1.1.29-1.58.55-.78.42-1.29.97-1.54,1.56-.25.6-.24,1.24.03,1.83.19.42.51.81.95,1.15.59.62,1.63,1.01,2.69,1.15Z"/>
    <path class="cls-8" d="M404.42,298.99c-2.43-.4-4.74-.1-6.71.96-1.9,1.02-3.03,2.5-3.03,4.2v.15s.04-.05.06-.07c-.04.97.27,1.94,1.02,2.83.87,1.03,2.2,1.78,3.76,2.24,1.56.46,3.46.65,5.12.28,1.3-.29,2.47-.76,3.47-1.41,1.26-.81,1.94-1.99,2.16-3.14.23-1.21-.04-2.42-.93-3.48-1-1.19-2.77-2.19-4.7-2.51l-.22-.04Z"/>
    <path class="cls-8" d="M387.13,293.1c1.46-.44,2.58-1.45,2.5-2.58-.07-1.17-1.07-2.19-2.55-2.61-.46-.13-.96-.21-1.49-.21-.34,0-.69.03-1.03.1.02,1.81.03,3.63.05,5.43.31.06.64.09.98.09.53,0,1.06-.08,1.55-.23Z"/>
    <path class="cls-8" d="M410.8,275.04c-1.87,1-2.93,2.27-3.24,3.9-.25.79-.21,1.59.15,2.37.42,1.02,1.15,1.9,2.21,2.63l.19.13c2.51,1.64,6.05,2.12,9.1,1.29.02-3.7.02-7.42.02-11.11-.31-.1-.63-.19-.94-.28-2.6-.58-5.42-.05-7.49,1.07Z"/>
    <path class="cls-8" d="M392.83,266.23c.12.64.57,1.1,1.23,1.44.32.17.68.31,1.08.42,1.02.29,2.06.31,2.96-.17.94-.5,1.09-1.21,1.11-1.98.04-1.8-3.01-2.8-5.05-1.81-.04.02-.08.03-.12.06-.92.49-1.37,1.25-1.21,2.05Z"/>
    <path class="cls-8" d="M412.57,257.26c.07,1.23.66,2.51,2,3.37,1.3.83,2.88,1.36,4.66,1.39v-.7c0-2.97,0-5.92-.02-8.8-1.7.03-3.43.55-4.64,1.38-1.18.83-2.07,2.19-2,3.37Z"/>
    <path class="cls-8" d="M407.2,246.06c-.1-1.47-1.72-2.72-3.92-2.72-2.05,0-4.01,1.25-3.92,2.72.1,1.47,1.72,2.72,3.92,2.72,2.05,0,4.01-1.25,3.92-2.72Z"/>
    <path class="cls-8" d="M387.66,246.24c1.67,0,3.42-.5,4.6-1.33,1.14-.78,1.99-2.06,1.91-3.19-.16-2.45-2.87-4.52-6.51-4.52,0,0,0,0-.01,0-.95,0-1.92.17-2.79.47-.06,2.6-.12,5.28-.16,8.06.8.29,1.71.47,2.69.5.1,0,.19.01.28.01Z"/>
    <path class="cls-8" d="M399.43,227.62c.12,1.84,2.15,3.4,4.9,3.4,2.56,0,5.02-1.56,4.9-3.4-.12-1.84-2.15-3.4-4.9-3.4-2.56,0-5.02,1.56-4.9,3.4Z"/>
    <path class="cls-8" d="M414.81,211.14c-.12.08-.22.17-.3.25-.15.1-.28.21-.42.32-.19.19-.37.37-.55.57l.07-.06c-.31.35-.57.72-.74,1.12-1.1,2.55,1.36,5.57,5.13,6.18.31.05.63.09.93.11-.01-.16-.01-.3-.01-.46-.07-3.81-.16-7.1-.28-9.72-1,.23-1.94.61-2.72,1.1-.37.16-.73.34-1.1.59Z"/>
    <path class="cls-8" d="M401.62,210.99c-.11-2.27-2.07-4.96-5.55-5.46-1.89-.27-3.81-.06-5.25.91-.95.65-1.5,1.56-1.51,2.49-.01,1.1.66,1.89,1.64,2.7.27.22.59.4.92.57.79,1.52,3.1,2.44,5.38,2.22,2.39-.22,4.45-1.69,4.37-3.43Z"/>
    <path class="cls-8" d="M419.83,350.17c-.1,0-.19,0-.3-.01l.21.02h.09Z"/>
    <path class="cls-8" d="M413.02,350.37c-1.12.85-1.76,1.82-1.97,2.94-.31,1.55.24,2.95,1.61,4.19.91.82,2.15,1.45,3.52,1.81h2.6s.03-3.35.07-9.06c.01-.29.01-.6.01-.91.52-.02-4.51.01-5.85,1.03Z"/>
  </g>
  <g>
    <path class="cls-5" d="M500.21,188.35c-.3-2.92-.58-5.84-.86-8.77-3.4-.39-6.47-1.74-7.4-4.05-2.25-5.63,5.37-21.1,7.26-22.02,1.63-.78,12.21,17.66,10.93,22.6-.08.3-.2.55-.37.75-1.19,1.36-3.24,2.21-5.53,2.6.46,2.91.89,5.81,1.29,8.72,4.28-.52,8.19-1.99,10.37-4.47.28-.32.48-.73.61-1.23,2.11-8.16-15.35-38.58-18.03-37.28-3.13,1.51-15.7,27.03-11.98,36.31,1.66,4.15,7.52,6.45,13.71,6.83Z"/>
    <path class="cls-1" d="M503.5,174.79c.25,1.56.5,3.11.74,4.67,2.29-.39,4.34-1.25,5.53-2.6.17-.19.29-.44.37-.75,1.28-4.94-9.31-23.39-10.93-22.6-1.9.92-9.52,16.39-7.26,22.02.93,2.31,3.99,3.66,7.4,4.05-.15-1.6-.31-3.19-.47-4.79-.21-2.09,4.31-2.01,4.63,0Z"/>
    <path class="cls-11" d="M503.5,174.79c-.32-2.01-4.84-2.09-4.63,0,.16,1.6.32,3.19.47,4.79.28,2.92.57,5.84.86,8.77.28,2.77.57,5.53.91,8.29.2,1.64.35,3.3.5,4.96,1.65-.08,3.48-.1,5.52-.03-.24-1.97-.5-3.94-.69-5.88-.25-2.5-.57-5-.92-7.5-.4-2.91-.83-5.82-1.29-8.72-.25-1.56-.49-3.11-.74-4.67Z"/>
    <path class="cls-3" d="M516.79,335.44c-1.94,3.41-5.05,3.37-9.63,3.73-10.09.79-7.52,6.85-13.51,10.59-1.57.99-3.34,1.7-5.21,2,.07,3.13.12,4.89.12,4.89h33.03s.12-12.69.24-30.85c-.78.68-1.48,1.48-2.1,2.42-1.57,2.33-1.6,4.87-2.94,7.21Z"/>
    <path class="cls-3" d="M489.86,280.98c-.85.16-1.68.36-2.49.64.03,6.56.09,13.09.15,19.4.95-.32,1.8-.71,2.6-1.14-.15-6.33-.2-12.64-.26-18.9Z"/>
    <path class="cls-3" d="M490.22,303.38c-.87.24-1.75.42-2.65.53.02,1.36.03,2.71.05,4.05.1,6.72.19,13.12.31,18.91,0,.33.02.65.02.97,1.44-.28,2.71-.88,3.84-1.66-.88-7.56-1.32-15.18-1.56-22.8Z"/>
    <path class="cls-3" d="M507.23,266.4c-.87,1.03-.73,2.48-.88,3.63-.37,2.98-.39,6.34-4.1,8.38-1.81.99-3.75,1.44-5.72,1.73-.1,4.49-.13,8.99-.15,13.5.24-.43.48-.87.7-1.34,1.18-2.49,2.48-4.95,5.34-6.75,3.24-2.03,5.79-1.66,9.81-1.88,5.84-.31,7.81-2.49,9.85-5.03h0c.02-4.38.02-8.73.02-13.06v-2.7c-1.9.32-3.79.29-5.78.48-3.28.32-7.42,1.01-9.07,3.03Z"/>
    <path class="cls-3" d="M513.64,313.13c-4.96-.12-7.6-.71-9.54,2.6-1.79,3.06-4.52,8.13-8.43,11.44-.24,4.04-.57,8.07-1.03,12.08-.04.31-.76.43-.83.08-.65-3.28-1.18-6.59-1.62-9.91-1.3.59-2.7.95-4.2,1.01.01,1.2.03,2.37.06,3.51.13,5.87.24,10.88.33,14.68,2.66-1.09,4.48-2.56,6.03-5.36.84-1.52,1.16-3.17,2.6-4.51,4.37-4.13,13.09-1.13,16.6-6.19,2.79-4.04,2.73-7.99,8.27-10.97v-.86c.01-2.65.03-5.4.06-8.22v-.27c-1.42.56-2.93.9-4.6,1.01-1.25.08-2.43-.1-3.69-.13Z"/>
    <path class="cls-3" d="M500.05,253.1c-.9.47-1.81.76-2.8.95-.27,7.27-.47,14.67-.64,22.1,1.93-.56,3.56-1.44,4.42-3.21.76-1.54.36-3.46.67-5.07.58-2.98,2.18-5.45,6.22-6.82,4.7-1.61,9.9-.89,14.14-2.45,0-6.03-.02-11.88-.04-17.44v-.75c-2.09.24-4.31.12-6.87.2-10.76.31-8.18,8.92-15.11,12.48Z"/>
    <path class="cls-3" d="M503.27,290.15c-2.8,3.52-3.26,7.36-6.93,10.29-.03,7.14-.1,14.28-.4,21.41,1.51-2.17,2.64-4.48,3.58-6.15,1.28-2.27,2.27-5.08,5.9-6.04,1.75-.48,3.45-.25,5.24-.15,2.16.11,4.91.8,7.02.37,1.54-.3,3.03-1.15,4.27-2.08.03-4.33.05-8.8.06-13.34.02-2.53.03-5.07.03-7.63v-1.6c-.21.12-.4.26-.61.38-5.6,3.41-14-.7-18.15,4.52Z"/>
    <path class="cls-3" d="M491.03,229.52c-1.19.04-2.26.21-3.2.5-.13,4.43-.24,9.21-.33,14.24-.02,2.03-.04,4.11-.06,6.22.85-.1,1.67-.07,2.7-.11.17-6.85-.15-13.94.89-20.84Z"/>
    <path class="cls-3" d="M489.84,277.59c-.05-8.01.03-16.03.22-24.04-.64-.12-1.27-.23-1.91-.35-.25.17-.51.33-.76.51-.05,5.69-.06,11.56-.06,17.5,0,1.79.01,3.6.01,5.4,0,.62,0,1.23.02,1.85.51-.24,1.06-.45,1.64-.63.28-.09.56-.17.84-.24Z"/>
    <path class="cls-3" d="M511.9,225.21c-2.09,2.95-4.84,5.73-10.05,5.82-1.29.02-2.47-.19-3.64-.46.25,6.38-.48,12.83-.79,19.15.53-.18,1.05-.43,1.55-.76,1.28-.85,1.67-3.04,2.28-4.21,1.61-3.05,3.84-5.65,8.37-6.95,2.61-.75,4.82-.57,7.51-.64,2.01-.05,3.58-.33,4.85-.84-.02-1.51-.03-2.99-.05-4.45-.03-3.89-.07-7.52-.12-10.87-1.9.04-2.67-.15-5.54,1.02-3.16,1.3-3.05,1.28-4.39,3.18Z"/>
    <path class="cls-3" d="M512.34,209.61c-3.67,1.75-9.25,2.98-13.63,3.11-3.69.1-6.87-.4-9.93-.4-.25,2.73-.45,5.86-.63,9.35-.07,1.45-.13,2.95-.19,4.52,1.27-.27,2.49-.27,3.72-.16.35-1.53.77-3.04,1.31-4.53.47-1.32,3.66-1.44,4.02,0,.44,1.79.74,3.59.93,5.41.14.01.28.03.43.04,9.9.66,8.4-6.8,15.06-9.3,2.73-1.04,4.93-.34,7.82-.61.18-.02.34-.03.51-.06-.02-.15-.02-.29-.02-.44-.07-3.84-.16-7.15-.28-9.78-.06-1.44-.13-2.67-.19-3.7-.43-.07-.87-.14-1.28-.2-2.99,2.09-3.98,5.05-7.64,6.78Z"/>
    <path class="cls-3" d="M501.62,201.6c-8.22.39-11.68,2.19-11.68,2.19-.31,1.36-.6,3.16-.84,5.35,6.27-.7,13.78.36,19.66-2.55,2.49-1.23,3.86-2.9,5.33-4.55-2.55-.27-4.84-.41-6.94-.48-2.04-.06-3.88-.04-5.52.03Z"/>
    <path class="cls-15" d="M490.49,250.35c2.24-.15,4.71.14,6.93-.62.31-6.32,1.04-12.78.79-19.15-1.44-.33-2.86-.75-4.37-.94-1.02-.12-1.95-.15-2.81-.12-1.04,6.9-.72,13.99-.89,20.84.12,0,.23,0,.36-.01Z"/>
    <path class="cls-15" d="M494.64,339.25c.46-4.01.79-8.04,1.03-12.08-1.07.91-2.23,1.68-3.48,2.25.44,3.32.97,6.62,1.62,9.91.07.35.8.23.83-.08Z"/>
    <path class="cls-15" d="M496.37,293.64c.02-4.51.05-9.01.15-13.5-2.22.32-4.48.43-6.65.84.07,6.26.11,12.57.26,18.9,2.78-1.48,4.74-3.57,6.24-6.24Z"/>
    <path class="cls-15" d="M489.84,277.59c2.25-.59,4.69-.84,6.76-1.44.17-7.43.37-14.83.64-22.1-.51.1-1.03.17-1.59.21-1.33.09-1.43-.06-2.79-.2-.93-.17-1.87-.34-2.8-.51-.19,8.01-.27,16.02-.22,24.04Z"/>
    <path class="cls-15" d="M495.94,321.85c.3-7.13.37-14.27.4-21.41-.68.54-1.46,1.06-2.4,1.53-1.22.61-2.46,1.07-3.72,1.41.24,7.62.68,15.24,1.56,22.8,1.66-1.14,3.02-2.69,4.16-4.33Z"/>
    <path class="cls-15" d="M497.01,221.48c-.35-1.44-3.54-1.32-4.02,0-.54,1.49-.96,3.01-1.31,4.53,2,.18,4.02.68,6.26.87-.2-1.81-.5-3.62-.93-5.41Z"/>
    <path class="cls-12" d="M513.6,332.58c-3.51,5.06-12.22,2.05-16.6,6.19-1.43,1.34-1.76,2.98-2.6,4.51-1.55,2.8-3.37,4.27-6.03,5.36.03,1.16.04,2.21.07,3.13,1.87-.3,3.64-1.01,5.21-2,5.99-3.74,3.42-9.8,13.51-10.59,4.58-.36,7.69-.32,9.63-3.73,1.34-2.34,1.37-4.88,2.94-7.21.63-.94,1.33-1.74,2.1-2.42.02-1.37.02-2.77.03-4.2-5.54,2.98-5.48,6.93-8.27,10.97Z"/>
    <path class="cls-12" d="M517.67,309.89c-2.1.42-4.85-.26-7.02-.37-1.79-.1-3.49-.33-5.24.15-3.63.96-4.61,3.77-5.9,6.04-.94,1.67-2.07,3.98-3.58,6.15-1.14,1.64-2.5,3.19-4.16,4.33-1.13.78-2.4,1.38-3.84,1.66.01.88.03,1.74.04,2.59,1.5-.05,2.9-.42,4.2-1.01,1.25-.57,2.41-1.34,3.48-2.25,3.91-3.32,6.64-8.38,8.43-11.44,1.94-3.32,4.58-2.73,9.54-2.6,1.25.03,2.43.22,3.69.13,1.67-.1,3.18-.45,4.6-1.01.01-1.46.01-2.95.01-4.46-1.24.93-2.73,1.78-4.27,2.08Z"/>
    <path class="cls-12" d="M512.21,283.68c-4.02.22-6.57-.16-9.81,1.88-2.87,1.79-4.16,4.26-5.34,6.75-.22.46-.45.9-.7,1.34-1.5,2.67-3.46,4.76-6.24,6.24-.8.43-1.65.82-2.6,1.14,0,.48.02.95.02,1.43.02.49.02.97.03,1.46.9-.11,1.78-.29,2.65-.53,1.26-.34,2.49-.8,3.72-1.41.94-.47,1.72-.99,2.4-1.53,3.68-2.93,4.14-6.77,6.93-10.29,4.15-5.22,12.55-1.11,18.15-4.52.21-.12.4-.26.61-.38.01-2.19.01-4.39.03-6.59-2.04,2.54-4.01,4.71-9.85,5.03Z"/>
    <path class="cls-12" d="M501.7,267.87c-.31,1.61.09,3.52-.67,5.07-.87,1.77-2.49,2.64-4.42,3.21-2.08.6-4.51.85-6.76,1.44-.28.07-.57.15-.84.24-.58.19-1.13.39-1.64.63,0,1.06,0,2.1.02,3.16.81-.28,1.64-.48,2.49-.64,2.17-.41,4.43-.52,6.65-.84,1.97-.29,3.91-.74,5.72-1.73,3.72-2.04,3.73-5.4,4.1-8.38.15-1.15.01-2.6.88-3.63,1.66-2.02,5.79-2.7,9.07-3.03,1.98-.19,3.88-.16,5.78-.48,0-1.42,0-2.84-.02-4.25v-.04c-4.24,1.55-9.43.84-14.14,2.45-4.04,1.37-5.64,3.83-6.22,6.82Z"/>
    <path class="cls-12" d="M509.63,237.81c-4.54,1.31-6.76,3.91-8.37,6.95-.61,1.17-1,3.36-2.28,4.21-.5.33-1.02.57-1.55.76-2.21.76-4.69.47-6.93.62-.13,0-.24,0-.36.01-1.03.04-1.85,0-2.7.11-.03.96-.03,1.94-.04,2.92v.31c.25-.18.51-.34.76-.51.64.12,1.28.23,1.91.35.93.17,1.87.34,2.8.51,1.36.13,1.46.29,2.79.2.56-.04,1.08-.11,1.59-.21.99-.19,1.9-.49,2.8-.95,6.93-3.55,4.34-12.16,15.11-12.48,2.55-.07,4.78.04,6.87-.2-.02-1.39-.02-2.75-.03-4.09-1.27.51-2.84.79-4.85.84-2.69.07-4.9-.1-7.51.64Z"/>
    <path class="cls-12" d="M513.43,217.62c-6.66,2.51-5.16,9.97-15.06,9.3-.14,0-.29-.02-.43-.04-2.24-.2-4.25-.69-6.26-.87-1.22-.11-2.45-.11-3.72.16-.04,1.11-.09,2.25-.13,3.41,0,.14-.02.29-.02.43.94-.29,2.01-.46,3.2-.5.87-.03,1.79,0,2.81.12,1.52.18,2.93.6,4.37.94,1.17.27,2.35.48,3.64.46,5.21-.09,7.96-2.87,10.05-5.82,1.34-1.9,1.22-1.89,4.39-3.18,2.87-1.16,3.64-.97,5.54-1.02-.01-1.41-.04-2.78-.06-4.07-.16.03-.33.04-.51.06-2.9.27-5.09-.42-7.82.61Z"/>
    <path class="cls-12" d="M508.76,206.59c-5.88,2.91-13.39,1.84-19.66,2.55-.12.98-.22,2.04-.31,3.17,3.06,0,6.24.51,9.93.4,4.37-.12,9.96-1.36,13.63-3.11,3.66-1.73,4.66-4.68,7.64-6.78-2.09-.34-4.04-.6-5.9-.79-1.46,1.65-2.84,3.32-5.33,4.55Z"/>
  </g>
  <g>
    <path class="cls-5" d="M587.16,329.09c-.28-2.9-.54-5.81-.8-8.71-3.15-.38-5.99-1.73-6.85-4.02-2.09-5.59,4.97-20.97,6.73-21.88,1.51-.78,11.31,17.55,10.12,22.46-.07.3-.19.55-.34.74-1.1,1.35-3,2.2-5.12,2.58.42,2.89.83,5.78,1.2,8.67,3.96-.51,7.58-1.98,9.6-4.44.26-.32.45-.73.56-1.22,1.95-8.11-14.22-38.34-16.7-37.05-2.9,1.5-14.54,26.86-11.09,36.09,1.54,4.12,6.96,6.41,12.7,6.79Z"/>
    <path class="cls-1" d="M590.2,315.62c.23,1.55.46,3.1.69,4.64,2.12-.38,4.02-1.24,5.12-2.58.16-.19.27-.44.34-.74,1.18-4.91-8.62-23.24-10.12-22.46-1.76.91-8.81,16.29-6.73,21.88.86,2.29,3.7,3.64,6.85,4.02-.14-1.59-.29-3.17-.44-4.76-.2-2.08,3.99-2,4.29,0Z"/>
    <path class="cls-11" d="M590.2,315.62c-.3-2-4.48-2.08-4.29,0,.15,1.59.29,3.17.44,4.76.26,2.9.53,5.81.8,8.71.26,2.75.53,5.5.84,8.24.18,1.63.33,3.28.46,4.93,1.52-.08,3.23-.1,5.11-.03-.22-1.96-.46-3.91-.64-5.84-.24-2.49-.53-4.97-.85-7.45-.37-2.89-.77-5.78-1.2-8.67-.23-1.55-.46-3.1-.69-4.64Z"/>
    <path class="cls-6" d="M584.9,366.06c.6,4.67.51,9.41.25,14.14,1.29-.55,2.6-1.08,3.92-1.59,5.9-2.31,12-4.39,18.21-6.25-.04-5.67-.1-10.84-.18-15.29-3.97,1.49-7.9,3.04-11.79,4.63-3.48,1.43-6.95,2.88-10.4,4.36Z"/>
    <path class="cls-6" d="M584.59,389.75c-.02.44-.04.89-.06,1.33-.2,5.29-.36,10.67-.49,16.08,4.26-1.88,8.68-3.58,13.23-5.09,3.33-1.1,6.7-2.15,10.12-3.11,0-6-.01-11.84-.04-17.37-4.65,1.38-9.21,2.89-13.69,4.57-3.05,1.15-6.08,2.35-9.07,3.59Z"/>
    <path class="cls-6" d="M583.55,444.18c-.04,6.22-.13,12.45-.39,18.66,3.61-1.83,7.3-3.58,11.07-5.22,4.24-1.83,8.59-3.54,13.03-5.12.03-5.73.05-11.77.07-17.95-.85.27-1.69.54-2.52.83-7.49,2.51-14.41,5.6-21.26,8.8Z"/>
    <path class="cls-6" d="M578.02,446.77c-.84.4-1.68.79-2.53,1.19.09,6.69.18,13.04.29,18.8,1.14-.64,2.29-1.26,3.44-1.87-.62-6.01-.98-12.06-1.2-18.11Z"/>
    <path class="cls-6" d="M577.79,392.65c-.83.36-1.67.73-2.5,1.09-.04,5.74-.05,11.7-.05,17.7.76-.41,1.54-.81,2.32-1.21.02-5.86.1-11.72.24-17.59Z"/>
    <path class="cls-6" d="M582.74,470.45c-.2,2.88-.44,5.75-.74,8.61-.03.31-.71.42-.77.08-.45-2.45-.84-4.91-1.18-7.37-.59.29-1.19.57-1.77.86-.78.39-1.58.78-2.38,1.16.26,13.6.48,22.57.48,22.57h30.59s.13-15,.25-35.68c-2.8.91-5.58,1.88-8.32,2.91-5.54,2.09-10.92,4.39-16.15,6.87Z"/>
    <path class="cls-6" d="M577.57,420.72c-.02-1.6-.02-3.21-.02-4.81-.77.3-1.54.59-2.3.89.03,8.67.11,17.38.18,25.68.78-.57,1.59-1.12,2.41-1.67-.16-6.73-.2-13.44-.27-20.08Z"/>
    <path class="cls-6" d="M578.85,368.69c-.91.4-1.83.8-2.73,1.21-.14.06-.27.13-.42.17-.13,4.52-.23,9.42-.31,14.58.83-.41,1.67-.8,2.51-1.2.03-4.93.15-9.9.95-14.76Z"/>
    <path class="cls-6" d="M583.88,413.51c-.05,2.09-.09,4.17-.14,6.26-.12,5.82-.14,11.67-.16,17.53,5.56-3.13,11.59-5.82,17.58-8.11,2.04-.77,4.1-1.51,6.19-2.21.03-7.03.04-14.14.04-21.12-2.48.66-4.95,1.37-7.39,2.12-5.47,1.69-10.83,3.56-16.12,5.52Z"/>
    <path class="cls-6" d="M588.46,342.25c-7.63.38-10.82,2.19-10.82,2.19-.73,3.41-1.27,9.65-1.65,17.75,5.81-3.22,11.77-6.27,17.94-9.11,4.24-1.96,8.53-3.9,12.89-5.73-.05-1.43-.12-2.66-.18-3.67-5.1-.92-9.43-1.34-13.07-1.46-1.89-.06-3.59-.04-5.11.03Z"/>
    <path class="cls-17" d="M577.84,440.81c1.84-1.23,3.76-2.4,5.74-3.52.02-5.86.04-11.7.16-17.53.04-2.09.09-4.18.14-6.26-2.12.79-4.23,1.59-6.33,2.4,0,1.6,0,3.21.02,4.81.07,6.65.11,13.36.27,20.08Z"/>
    <path class="cls-17" d="M585.15,380.2c.26-4.73.35-9.47-.25-14.14-2.02.86-4.04,1.74-6.05,2.63-.81,4.86-.92,9.83-.95,14.76,2.38-1.13,4.79-2.21,7.25-3.25Z"/>
    <path class="cls-17" d="M584.03,407.16c.14-5.41.29-10.79.49-16.08.02-.44.04-.89.06-1.33-2.28.94-4.55,1.92-6.8,2.9-.14,5.86-.22,11.72-.24,17.59,2.11-1.08,4.28-2.1,6.49-3.07Z"/>
    <path class="cls-17" d="M583.16,462.84c.26-6.21.35-12.44.39-18.66-1.85.86-3.69,1.73-5.53,2.6.22,6.05.59,12.1,1.2,18.11,1.3-.7,2.61-1.38,3.94-2.05Z"/>
    <path class="cls-22" d="M582,479.06c.31-2.86.55-5.73.74-8.61-.91.43-1.8.87-2.7,1.31.34,2.47.73,4.93,1.18,7.37.06.35.74.23.77-.08Z"/>
    <path class="cls-9" d="M593.94,353.08c-6.18,2.84-12.13,5.89-17.94,9.11-.1,2.46-.21,5.1-.3,7.88.14-.05.27-.12.42-.17.91-.41,1.82-.81,2.73-1.21,2.01-.89,4.02-1.76,6.05-2.63,3.45-1.47,6.92-2.93,10.4-4.36,3.89-1.6,7.82-3.14,11.79-4.63-.07-3.81-.16-7.1-.26-9.72-4.36,1.83-8.65,3.78-12.89,5.73Z"/>
    <path class="cls-9" d="M585.15,380.2c-2.46,1.04-4.87,2.13-7.25,3.25-.84.4-1.68.79-2.51,1.2-.04,2.95-.08,5.98-.1,9.09.83-.37,1.67-.73,2.5-1.09,2.25-.98,4.52-1.95,6.8-2.9,3-1.24,6.02-2.44,9.07-3.59,4.48-1.68,9.04-3.19,13.69-4.57-.01-3.19-.04-6.28-.07-9.22-6.2,1.86-12.3,3.94-18.21,6.25-1.32.52-2.63,1.05-3.92,1.59Z"/>
    <path class="cls-9" d="M584.03,407.16c-2.21.97-4.37,2-6.49,3.07-.78.4-1.55.8-2.32,1.21,0,1.78.01,3.57.01,5.36.76-.3,1.54-.59,2.3-.89,2.1-.82,4.21-1.62,6.33-2.4,5.29-1.96,10.65-3.83,16.12-5.52,2.44-.75,4.91-1.46,7.39-2.12,0-2.32,0-4.62-.01-6.91-3.42.96-6.79,2.01-10.12,3.11-4.55,1.51-8.97,3.21-13.23,5.09Z"/>
    <path class="cls-9" d="M583.58,437.29c-1.98,1.12-3.91,2.28-5.74,3.52-.82.55-1.63,1.1-2.41,1.67.03,1.85.05,3.68.07,5.48.84-.39,1.68-.79,2.53-1.19,1.84-.87,3.69-1.73,5.53-2.6,6.85-3.2,13.78-6.29,21.26-8.8.84-.28,1.67-.55,2.52-.83.01-2.51.03-5.03.03-7.57-2.09.7-4.15,1.44-6.19,2.21-5.99,2.28-12.02,4.97-17.58,8.11Z"/>
    <path class="cls-9" d="M583.16,462.84c-1.32.67-2.64,1.35-3.94,2.05-1.15.62-2.31,1.24-3.44,1.87.04,2.45.08,4.81.12,7.03.8-.38,1.59-.77,2.38-1.16.59-.29,1.18-.57,1.77-.86.9-.44,1.79-.88,2.7-1.31,5.23-2.48,10.61-4.79,16.15-6.87,2.74-1.03,5.52-2,8.32-2.91.01-2.64.03-5.36.05-8.16-4.44,1.58-8.79,3.29-13.03,5.12-3.78,1.63-7.46,3.38-11.07,5.22Z"/>
  </g>
  <g>
    <path class="cls-5" d="M347.06,337.33c-.3-2.92-.58-5.84-.87-8.77-3.4-.39-6.47-1.74-7.4-4.05-2.26-5.63,5.37-21.1,7.26-22.02,1.63-.78,12.21,17.66,10.93,22.6-.08.3-.2.55-.37.75-1.19,1.36-3.24,2.21-5.53,2.6.46,2.91.89,5.81,1.29,8.72,4.28-.52,8.19-1.99,10.37-4.47.28-.32.48-.73.61-1.23,2.11-8.16-15.35-38.58-18.03-37.28-3.13,1.51-15.7,27.03-11.98,36.31,1.66,4.15,7.52,6.45,13.71,6.83Z"/>
    <path class="cls-1" d="M350.36,323.78c.25,1.56.5,3.11.74,4.67,2.29-.39,4.34-1.25,5.53-2.6.17-.19.29-.44.37-.75,1.28-4.94-9.31-23.39-10.93-22.6-1.9.92-9.52,16.39-7.26,22.02.92,2.31,3.99,3.66,7.4,4.05-.15-1.6-.31-3.19-.47-4.79-.21-2.09,4.31-2.01,4.63,0Z"/>
    <path class="cls-11" d="M350.36,323.78c-.32-2.01-4.84-2.09-4.63,0,.16,1.6.32,3.19.47,4.79.28,2.92.57,5.85.87,8.77.28,2.77.57,5.53.91,8.29.2,1.64.35,3.3.5,4.96,1.65-.08,3.48-.1,5.52-.03-.24-1.97-.5-3.93-.69-5.87-.25-2.5-.57-5-.92-7.5-.4-2.91-.83-5.82-1.29-8.72-.25-1.56-.49-3.11-.74-4.67Z"/>
    <path class="cls-7" d="M336.6,463.8c.35-.08.68-.1,1.01-.1-.39-6.03-.59-12.08-.7-18.12-.14.14-.25.36-.31.68-.87.52-1.58,1.67-2.21,2.84,0,.79,0,1.55.02,2.33.02,1.85.04,3.7.06,5.51.04,2.81.09,5.54.13,8.22.43-.61,1-1.14,2-1.37Z"/>
    <path class="cls-7" d="M336.6,484.84c1.28-.29,2.46,0,3.54.65-1.11-6.24-1.84-12.55-2.33-18.88-.65-.34-1.06-.12-1.22.69-.73.45-1.37,1.35-1.92,2.33.03,2.14.07,4.22.1,6.23.04,2.48.09,4.84.13,7.08.01.96.04,1.9.06,2.81.39-.41.88-.74,1.63-.9Z"/>
    <path class="cls-7" d="M336.6,442.76c.09-.02.18-.02.26-.04-.07-4.41-.1-8.81-.15-13.18-.02-1.55-.02-3.1-.03-4.64-.04.1-.07.2-.09.32-.94.57-1.72,1.89-2.39,3.18.03,5.4.07,10.8.12,16.08.49-.76,1.07-1.46,2.27-1.72Z"/>
    <path class="cls-7" d="M364.04,485.53c-1.42,3.44-2.58,6.88-3.48,10.43-.36,1.4-3.48,1.62-4.36.4-2.33-3.22-3.85-6.56-5.02-10.02-1.52,2.99-2.94,9.23-3.42,10.52-.42,1.09-3.06,1.51-3.78.34-1.28-2.12-2.58-4.24-3.87-6.35-.55-.91-1.1-1.81-1.66-2.72-1.04-.91-1.67-.84-1.88.22-.57.35-1.07.96-1.54,1.68.21,9.63.37,15.61.37,15.61h33.03s.04-4.55.1-12.09c-.73-.77-1.37-1.59-1.95-2.5-1.03-1.62-1.54-3.72-2.57-5.52Z"/>
    <path class="cls-7" d="M336.6,421.72s.05,0,.08-.01c0-6.06.08-12.13.22-18.19-.13.14-.24.35-.3.66-.94.58-1.72,1.9-2.39,3.18-.01,4.22-.03,8.52-.03,12.84,0,1.16,0,2.32.02,3.48.51-.84,1.09-1.66,2.4-1.96Z"/>
    <path class="cls-7" d="M336.6,400.69c.12-.03.24-.04.36-.05,0-.31.01-.62.02-.92.15-5.71-.05-11.59.45-17.4-.43-.08-.71.19-.84.83-.81.49-1.51,1.54-2.1,2.64-.04,2.41-.1,4.9-.13,7.46-.05,2.96-.09,6.02-.12,9.14v.17c.51-.81,1.09-1.59,2.36-1.87Z"/>
    <path class="cls-7" d="M336.6,379.64c.39-.09.76-.11,1.13-.1.4-3.07,1.06-6.11,2.12-9.08.37-1.02,2.36-1.32,3.4-.74-1.04-1.71-2.08-3.42-3.12-5.12-.55-.9-1.1-1.81-1.66-2.73-1.04-.9-1.67-.83-1.88.22-.39.25-.76.62-1.1,1.08-.18,2.26-.34,4.77-.48,7.47-.1,2.48-.22,5.13-.33,7.93-.03.78-.05,1.56-.06,2.37.43-.59,1-1.09,1.97-1.31Z"/>
    <path class="cls-7" d="M364.04,464.48c-1.42,3.44-2.58,6.89-3.48,10.44-.36,1.39-3.48,1.62-4.36.39-2.33-3.22-3.85-6.55-5.02-10.02-1.52,3-2.94,9.23-3.42,10.52-.42,1.1-3.06,1.51-3.78.34-.45-.74-.9-1.48-1.35-2.22-.22,4.25-.54,8.5-.99,12.73,1.56,1.49,2.87,3.6,3.89,5.45.3-.65.6-1.32.88-1.97.75-1.67,1.11-4.5,2.55-5.97.97-.98.94-1.37,2.66-1.77.87-.2,1.91.24,2.12.84.91,2.65,2.25,5.14,3.85,7.57,1.21-2.99,2.54-5.97,4-8.91.46-.91,2.13-1.34,3.18-.59,1.78,1.27,2.55,2.47,3.54,4.06.1.16.19.32.3.48.03-3.97.06-8.41.07-13.2-.79-.82-1.48-1.68-2.09-2.65-1.03-1.62-1.54-3.72-2.57-5.53Z"/>
    <path class="cls-7" d="M364.04,380.33c-1.42,3.44-2.58,6.88-3.48,10.43-.36,1.4-3.48,1.62-4.36.4-2.33-3.23-3.85-6.56-5.02-10.02-1.52,2.99-2.94,9.23-3.42,10.52-.33.87-2.06,1.3-3.12.85-.17,2.41-.33,4.81-.43,7.2-.08,1.89-.14,3.79-.21,5.7.57.85,1.08,1.73,1.54,2.56.3-.66.6-1.32.88-1.98.75-1.67,1.11-4.49,2.55-5.96.97-.98.94-1.38,2.66-1.77.87-.2,1.91.23,2.12.84.91,2.65,2.25,5.14,3.85,7.57,1.21-2.99,2.54-5.98,4-8.92.46-.91,2.13-1.34,3.18-.58,1.78,1.26,2.55,2.47,3.54,4.06.19.31.39.61.57.91,0-4.11-.02-8.12-.03-11.99,0-.51,0-1.02-.02-1.51-.85-.86-1.58-1.76-2.24-2.8-1.03-1.62-1.54-3.72-2.57-5.52Z"/>
    <path class="cls-7" d="M364.04,359.28c-1.42,3.44-2.58,6.89-3.48,10.44-.36,1.39-3.48,1.62-4.36.39-2.33-3.22-3.85-6.55-5.02-10.02-1.52,3-2.94,9.23-3.42,10.52-.42,1.1-3.06,1.51-3.78.34-.01-.02-.03-.05-.04-.07,1.15,4.97,1.28,10.04,1.07,15.12.18.31.35.62.52.91.3-.65.6-1.32.88-1.97.75-1.67,1.11-4.5,2.55-5.97.97-.98.94-1.37,2.66-1.77.87-.2,1.91.24,2.12.84.91,2.65,2.25,5.14,3.85,7.57,1.21-2.99,2.54-5.97,4-8.91.46-.91,2.13-1.34,3.18-.59,1.78,1.27,2.55,2.47,3.54,4.06.15.26.31.51.46.75v-.06c-.03-4.92-.09-9.46-.16-13.49-.76-.79-1.42-1.63-2.01-2.57-1.03-1.62-1.54-3.72-2.57-5.53Z"/>
    <path class="cls-7" d="M364.04,443.45c-1.42,3.43-2.58,6.88-3.48,10.43-.36,1.4-3.48,1.62-4.36.39-2.33-3.22-3.85-6.55-5.02-10.01-1.52,2.99-2.94,9.22-3.42,10.51-.42,1.1-3.06,1.52-3.78.34-.28-.46-.56-.91-.83-1.37-.03,4.43-.1,8.86-.23,13.29,1.01,1.27,1.89,2.72,2.62,4.05.3-.65.6-1.32.88-1.97.75-1.67,1.11-4.49,2.55-5.96.97-.99.94-1.38,2.66-1.77.87-.2,1.91.23,2.12.84.91,2.65,2.25,5.14,3.85,7.57,1.21-3.01,2.54-5.98,4-8.92.46-.91,2.13-1.34,3.18-.58,1.78,1.26,2.55,2.47,3.54,4.05.13.23.28.46.43.68,0-1.16.02-2.33.02-3.51.01-3.18.03-6.44.04-9.78-.84-.85-1.57-1.75-2.21-2.77-1.03-1.62-1.54-3.72-2.57-5.52Z"/>
    <path class="cls-7" d="M364.04,422.4c-1.42,3.44-2.58,6.89-3.48,10.44-.36,1.39-3.48,1.61-4.36.39-2.33-3.22-3.85-6.56-5.02-10.02-1.52,3-2.94,9.23-3.42,10.52-.42,1.1-3.06,1.51-3.78.34-.23-.38-.47-.76-.7-1.15-.06,4.46-.08,8.93-.1,13.41.9,1.18,1.68,2.49,2.35,3.7.3-.66.6-1.32.88-1.98.75-1.66,1.11-4.49,2.55-5.96.97-.98.94-1.37,2.66-1.77.87-.2,1.91.24,2.12.84.91,2.65,2.25,5.14,3.85,7.57,1.21-2.99,2.54-5.97,4-8.91.46-.91,2.13-1.35,3.18-.59,1.78,1.27,2.55,2.47,3.54,4.06.18.28.34.56.52.83v-.68c.02-2.53.03-5.07.03-7.63,0-1.69.02-3.38.02-5.07-.88-.87-1.61-1.79-2.28-2.83-1.03-1.63-1.54-3.72-2.57-5.53Z"/>
    <path class="cls-7" d="M364.04,401.36c-1.42,3.44-2.58,6.89-3.48,10.44-.36,1.4-3.48,1.62-4.36.39-2.33-3.22-3.85-6.55-5.02-10.01-1.52,2.99-2.94,9.22-3.42,10.51-.42,1.1-3.06,1.52-3.78.34-.07-.12-.15-.24-.22-.36-.12,4.3-.23,8.62-.33,12.95.8,1.09,1.5,2.28,2.1,3.37.3-.65.6-1.32.88-1.97.75-1.67,1.11-4.5,2.55-5.96.97-.99.94-1.38,2.66-1.77.87-.21,1.91.23,2.12.84.91,2.64,2.25,5.14,3.85,7.57,1.21-3,2.54-5.98,4-8.92.46-.91,2.13-1.34,3.18-.58,1.78,1.26,2.55,2.46,3.54,4.05.19.32.39.63.58.93.02-2.88.02-5.76.02-8.61,0-1.62,0-3.23-.02-4.84-.88-.87-1.63-1.8-2.3-2.86-1.03-1.62-1.54-3.72-2.57-5.53Z"/>
    <path class="cls-7" d="M348.48,350.58c-8.24.39-11.69,2.2-11.69,2.2-.34,1.5-.64,3.55-.91,6.06.21-.1.45-.19.72-.25,3.93-.88,6.97,3.69,8.96,7.28.3-.65.6-1.32.88-1.97.75-1.67,1.11-4.49,2.55-5.96.97-1,.94-1.38,2.66-1.77.87-.21,1.91.23,2.12.84.91,2.65,2.25,5.14,3.85,7.57,1.21-3,2.54-5.98,4-8.92.46-.91,2.13-1.34,3.18-.58,1.78,1.26,2.55,2.47,3.54,4.05l.12.19c-.05-1.32-.09-2.53-.13-3.62-.06-1.44-.12-2.67-.19-3.7-5.51-.92-10.19-1.35-14.12-1.47-2.04-.06-3.88-.04-5.52.03Z"/>
    <path class="cls-18" d="M341.66,486.67c.45-4.23.77-8.47.99-12.73-.84-1.38-1.68-2.76-2.52-4.14-.55-.9-1.1-1.81-1.66-2.73-.24-.21-.46-.36-.66-.47.48,6.33,1.22,12.64,2.33,18.88.53.32,1.04.72,1.52,1.18Z"/>
    <path class="cls-18" d="M336.86,442.73c2.5-.41,4.63,1.35,6.34,3.62.02-4.48.03-8.95.1-13.41-1.06-1.74-2.12-3.47-3.17-5.21-.55-.91-1.1-1.81-1.66-2.73-.92-.81-1.52-.84-1.79-.11,0,1.55,0,3.1.03,4.64.05,4.37.08,8.77.15,13.18Z"/>
    <path class="cls-18" d="M343.45,425.63c.1-4.33.21-8.65.33-12.95-1.21-2-2.44-3.99-3.65-5.99-.55-.9-1.1-1.81-1.66-2.71-.74-.64-1.26-.79-1.58-.45-.14,6.06-.22,12.13-.22,18.19,2.7-.56,4.98,1.44,6.78,3.92Z"/>
    <path class="cls-18" d="M342.93,467.03c.14-4.42.2-8.86.23-13.29-1.01-1.66-2.03-3.32-3.03-4.97-.55-.91-1.1-1.82-1.66-2.73-.73-.63-1.24-.78-1.57-.46.11,6.03.31,12.08.7,18.12,2.05.02,3.83,1.46,5.32,3.33Z"/>
    <path class="cls-18" d="M336.96,400.63c2.86-.41,5.23,2.04,7.05,4.78.07-1.91.13-3.81.21-5.7.1-2.38.27-4.79.43-7.2-.27-.11-.51-.27-.66-.51-1.28-2.12-2.58-4.24-3.87-6.35-.55-.91-1.1-1.81-1.66-2.73-.41-.36-.76-.56-1.04-.61-.5,5.8-.3,11.69-.45,17.4,0,.31-.01.62-.02.92Z"/>
    <path class="cls-18" d="M339.85,370.47c-1.07,2.97-1.72,6.01-2.12,9.08,3.07.1,5.54,3.42,7.31,6.47.2-5.08.08-10.15-1.07-15.12-.23-.39-.47-.77-.71-1.16-1.05-.58-3.04-.28-3.4.74Z"/>
    <path class="cls-16" d="M364.79,355.1c-1.05-.76-2.72-.33-3.18.58-1.46,2.94-2.79,5.92-4,8.92-1.6-2.43-2.94-4.92-3.85-7.57-.21-.61-1.25-1.05-2.12-.84-1.72.39-1.69.78-2.66,1.77-1.45,1.47-1.81,4.29-2.55,5.96-.28.65-.58,1.32-.88,1.97-1.98-3.6-5.03-8.17-8.96-7.28-.27.06-.51.14-.72.25h0c-.15,1.33-.27,2.77-.39,4.33.34-.46.72-.83,1.1-1.08.21-1.05.84-1.12,1.88-.22.55.91,1.11,1.82,1.66,2.73,1.04,1.71,2.08,3.42,3.12,5.12.24.39.47.77.71,1.16.01.02.03.05.04.07.72,1.17,3.36.76,3.78-.34.48-1.28,1.89-7.51,3.42-10.52,1.16,3.47,2.69,6.8,5.02,10.02.88,1.22,4,.99,4.36-.39.9-3.55,2.06-7,3.48-10.44,1.03,1.81,1.54,3.92,2.57,5.53.6.94,1.25,1.78,2.01,2.57,0-.64-.01-1.27-.03-1.89-.04-2.25-.09-4.31-.15-6.17l-.12-.19c-.98-1.59-1.76-2.79-3.54-4.05Z"/>
    <path class="cls-16" d="M364.79,376.13c-1.05-.75-2.72-.32-3.18.59-1.46,2.94-2.79,5.92-4,8.91-1.6-2.43-2.94-4.92-3.85-7.57-.21-.6-1.25-1.04-2.12-.84-1.72.4-1.69.79-2.66,1.77-1.45,1.47-1.81,4.3-2.55,5.97-.28.65-.58,1.32-.88,1.97-.16-.3-.34-.61-.52-.91-1.77-3.05-4.24-6.37-7.31-6.47-.37-.01-.74,0-1.13.1-.97.22-1.54.72-1.97,1.31-.04,1.57-.09,3.19-.13,4.84.6-1.1,1.3-2.16,2.1-2.64.13-.64.41-.91.84-.83.28.05.63.25,1.04.61.55.91,1.11,1.81,1.66,2.73,1.28,2.11,2.58,4.23,3.87,6.35.15.24.39.4.66.51,1.06.44,2.79.01,3.12-.85.48-1.28,1.89-7.52,3.42-10.52,1.16,3.46,2.69,6.79,5.02,10.02.88,1.21,4,.99,4.36-.4.9-3.55,2.06-6.99,3.48-10.43,1.03,1.8,1.54,3.91,2.57,5.52.66,1.04,1.39,1.94,2.24,2.8-.01-2.65-.03-5.22-.06-7.71-.15-.24-.31-.49-.46-.75-.98-1.6-1.76-2.79-3.54-4.06Z"/>
    <path class="cls-16" d="M364.79,397.17c-1.05-.76-2.72-.33-3.18.58-1.46,2.94-2.79,5.93-4,8.92-1.6-2.43-2.94-4.92-3.85-7.57-.21-.61-1.25-1.04-2.12-.84-1.72.39-1.69.79-2.66,1.77-1.45,1.47-1.81,4.29-2.55,5.96-.28.66-.58,1.32-.88,1.98-.46-.83-.97-1.71-1.54-2.56-1.82-2.74-4.19-5.19-7.05-4.78-.12.02-.24.02-.36.05-1.27.28-1.85,1.06-2.36,1.87-.02,1.59-.03,3.19-.03,4.81.67-1.29,1.45-2.6,2.39-3.18.06-.31.16-.52.3-.66.32-.33.85-.19,1.58.45.55.9,1.11,1.81,1.66,2.71,1.21,2,2.44,4,3.65,5.99.07.12.14.24.22.36.72,1.18,3.36.76,3.78-.34.48-1.29,1.89-7.51,3.42-10.51,1.16,3.46,2.69,6.79,5.02,10.01.88,1.22,4,1.01,4.36-.39.9-3.55,2.06-7,3.48-10.44,1.03,1.81,1.54,3.92,2.57,5.53.67,1.06,1.42,1.99,2.3,2.86.02-.7,0-1.41,0-2.11,0-1.84,0-3.68-.01-5.49-.18-.3-.37-.6-.57-.91-.98-1.6-1.76-2.8-3.54-4.06Z"/>
    <path class="cls-16" d="M364.79,418.22c-1.05-.76-2.72-.33-3.18.58-1.46,2.94-2.79,5.92-4,8.92-1.6-2.43-2.94-4.93-3.85-7.57-.21-.61-1.25-1.05-2.12-.84-1.72.39-1.69.78-2.66,1.77-1.45,1.46-1.81,4.29-2.55,5.96-.28.65-.58,1.32-.88,1.97-.6-1.1-1.31-2.28-2.1-3.37-1.8-2.48-4.08-4.48-6.78-3.92-.03,0-.05,0-.08.01-1.31.3-1.9,1.12-2.4,1.96v1.92c0,.93,0,1.88.01,2.81.67-1.3,1.45-2.61,2.39-3.18.02-.12.06-.23.09-.32.27-.73.87-.7,1.79.11.55.91,1.11,1.81,1.66,2.73,1.05,1.73,2.11,3.47,3.17,5.21.23.38.47.76.7,1.15.72,1.17,3.36.76,3.78-.34.48-1.28,1.89-7.51,3.42-10.52,1.16,3.46,2.69,6.8,5.02,10.02.88,1.21,4,.99,4.36-.39.9-3.55,2.06-7,3.48-10.44,1.03,1.81,1.54,3.91,2.57,5.53.67,1.04,1.4,1.96,2.28,2.83.01-2.52.01-5.05.01-7.56-.19-.3-.39-.61-.58-.93-.98-1.6-1.76-2.79-3.54-4.05Z"/>
    <path class="cls-16" d="M364.79,439.25c-1.05-.76-2.72-.32-3.18.59-1.46,2.94-2.79,5.92-4,8.91-1.6-2.43-2.94-4.92-3.85-7.57-.21-.6-1.25-1.04-2.12-.84-1.72.4-1.69.79-2.66,1.77-1.45,1.47-1.81,4.3-2.55,5.96-.28.66-.58,1.32-.88,1.98-.66-1.21-1.45-2.52-2.35-3.7-1.72-2.27-3.85-4.03-6.34-3.62-.09.01-.18.02-.26.04-1.19.26-1.78.96-2.27,1.72.02,1.55.03,3.1.06,4.62.63-1.17,1.34-2.32,2.21-2.84.06-.32.17-.54.31-.68.32-.32.84-.17,1.57.46.55.9,1.11,1.81,1.66,2.73,1.01,1.66,2.02,3.32,3.03,4.97.28.46.56.91.83,1.37.72,1.18,3.36.76,3.78-.34.48-1.29,1.89-7.51,3.42-10.51,1.16,3.46,2.69,6.79,5.02,10.01.88,1.22,4,1.01,4.36-.39.9-3.55,2.06-7,3.48-10.43,1.03,1.8,1.54,3.91,2.57,5.52.64,1.02,1.37,1.92,2.21,2.77.02-2.5.02-5.03.03-7.59-.18-.27-.34-.55-.52-.83-.98-1.6-1.76-2.79-3.54-4.06Z"/>
    <path class="cls-16" d="M364.79,460.3c-1.05-.76-2.72-.33-3.18.58-1.46,2.94-2.79,5.92-4,8.92-1.6-2.44-2.94-4.92-3.85-7.57-.21-.61-1.25-1.04-2.12-.84-1.72.39-1.69.78-2.66,1.77-1.45,1.47-1.81,4.29-2.55,5.96-.28.65-.58,1.32-.88,1.97-.73-1.33-1.61-2.78-2.62-4.05-1.49-1.87-3.27-3.32-5.32-3.33-.33,0-.67.02-1.01.1-1,.23-1.57.76-2,1.37.02,1.51.04,3,.07,4.47.55-.98,1.19-1.89,1.92-2.33.16-.8.57-1.03,1.22-.69.2.1.42.26.66.47.55.91,1.11,1.82,1.66,2.73.84,1.38,1.68,2.76,2.52,4.14.45.74.9,1.48,1.35,2.22.72,1.17,3.36.76,3.78-.34.48-1.29,1.89-7.51,3.42-10.52,1.16,3.47,2.69,6.8,5.02,10.02.88,1.22,4,.99,4.36-.39.9-3.55,2.06-7,3.48-10.44,1.03,1.81,1.54,3.92,2.57,5.53.61.97,1.3,1.83,2.09,2.65.02-.96.03-1.94.03-2.93.01-1.53.01-3.11.03-4.7-.15-.23-.3-.46-.43-.68-.98-1.59-1.76-2.79-3.54-4.05Z"/>
    <path class="cls-16" d="M364.79,481.33c-1.05-.75-2.72-.32-3.18.59-1.46,2.94-2.79,5.92-4,8.91-1.6-2.43-2.94-4.92-3.85-7.57-.21-.6-1.25-1.04-2.12-.84-1.72.4-1.69.79-2.66,1.77-1.45,1.47-1.81,4.3-2.55,5.97-.28.65-.58,1.32-.88,1.97-1.02-1.86-2.33-3.97-3.89-5.45-.48-.46-.99-.86-1.52-1.18-1.08-.64-2.27-.94-3.54-.65-.75.17-1.24.49-1.63.9.03,1.49.06,2.92.09,4.28.46-.72.97-1.33,1.54-1.68.21-1.06.84-1.13,1.88-.22.55.91,1.11,1.81,1.66,2.72,1.28,2.11,2.58,4.23,3.87,6.35.72,1.17,3.36.75,3.78-.34.48-1.28,1.89-7.52,3.42-10.52,1.16,3.46,2.69,6.8,5.02,10.02.88,1.21,4,.99,4.36-.4.9-3.55,2.06-6.99,3.48-10.43,1.03,1.8,1.54,3.91,2.57,5.52.58.91,1.22,1.73,1.95,2.5.01-2.3.03-4.87.06-7.68-.1-.16-.19-.32-.3-.48-.98-1.6-1.76-2.79-3.54-4.06Z"/>
  </g>
  <g>
    <path class="cls-5" d="M233.55,348.24c-.53-2.87-1.04-5.74-1.56-8.61-3.17-.11-6.12-1.2-7.17-3.42-2.57-5.39,3.12-21.32,4.79-22.38,1.43-.91,12.8,16.51,12.05,21.51-.05.3-.14.56-.28.77-.98,1.44-2.79,2.45-4.88,3.02.68,2.84,1.33,5.69,1.95,8.53,3.9-.85,7.38-2.63,9.17-5.26.23-.34.38-.76.46-1.27,1.23-8.24-17.51-36.97-19.87-35.47-2.75,1.75-12.14,28.02-7.9,36.91,1.89,3.97,7.49,5.79,13.24,5.66Z"/>
    <path class="cls-1" d="M235.4,334.56c.36,1.52.73,3.04,1.09,4.57,2.08-.57,3.89-1.58,4.88-3.02.14-.21.23-.46.28-.77.75-5-10.62-22.41-12.05-21.51-1.67,1.06-7.36,16.98-4.79,22.38,1.05,2.21,4,3.31,7.17,3.42-.28-1.57-.56-3.13-.85-4.7-.38-2.05,3.8-2.34,4.27-.37Z"/>
    <path class="cls-11" d="M235.4,334.56c-.47-1.97-4.65-1.68-4.27.37.29,1.57.57,3.13.85,4.7.52,2.87,1.03,5.74,1.56,8.61.5,2.72,1.01,5.43,1.56,8.14.33,1.61.61,3.23.89,4.87,1.51-.21,3.21-.37,5.09-.47-.39-1.93-.8-3.86-1.15-5.76-.45-2.46-.96-4.91-1.5-7.35-.62-2.85-1.27-5.69-1.95-8.53-.36-1.52-.73-3.04-1.09-4.57Z"/>
    <path class="cls-6" d="M234.53,385.28c1,4.6,1.33,9.33,1.49,14.06,1.24-.65,2.49-1.3,3.77-1.93,5.68-2.81,11.57-5.41,17.59-7.79-.53-5.65-1.05-10.79-1.52-15.21-3.83,1.83-7.61,3.71-11.34,5.63-3.34,1.73-6.67,3.47-9.98,5.24Z"/>
    <path class="cls-6" d="M236.29,408.9c.02.44.04.89.06,1.33.26,5.29.58,10.66.91,16.06,4.08-2.24,8.33-4.32,12.73-6.21,3.22-1.38,6.49-2.72,9.81-3.98-.52-5.98-1.05-11.8-1.56-17.3-4.51,1.78-8.92,3.67-13.24,5.74-2.94,1.41-5.85,2.86-8.72,4.36Z"/>
    <path class="cls-6" d="M240.01,463.21c.5,6.2.96,12.42,1.24,18.62,3.44-2.14,6.96-4.2,10.58-6.15,4.07-2.19,8.25-4.27,12.54-6.22-.48-5.71-.98-11.73-1.5-17.89-.82.34-1.63.69-2.44,1.04-7.24,3.15-13.87,6.82-20.41,10.6Z"/>
    <path class="cls-6" d="M234.73,466.27c-.8.47-1.61.93-2.41,1.4.68,6.65,1.32,12.97,1.93,18.7,1.08-.73,2.17-1.45,3.27-2.16-1.14-5.94-2.03-11.93-2.78-17.94Z"/>
    <path class="cls-6" d="M229.77,412.37c-.8.43-1.6.87-2.4,1.31.46,5.72.97,11.66,1.5,17.64.73-.47,1.46-.94,2.2-1.4-.49-5.84-.92-11.69-1.3-17.54Z"/>
    <path class="cls-6" d="M241.51,489.45c.06,2.88.07,5.76.01,8.64,0,.31-.67.48-.76.14-.66-2.4-1.27-4.82-1.82-7.24-.56.34-1.13.67-1.69,1.01-.75.46-1.51.91-2.27,1.36,1.45,13.53,2.45,22.44,2.45,22.44l30.47-2.64s-1.18-14.95-2.87-35.57c-2.7,1.15-5.39,2.35-8.03,3.62-5.34,2.56-10.5,5.32-15.49,8.24Z"/>
    <path class="cls-6" d="M232.01,440.36c-.16-1.6-.3-3.2-.45-4.79-.74.36-1.48.72-2.22,1.09.78,8.63,1.62,17.3,2.43,25.57.73-.64,1.49-1.26,2.26-1.87-.75-6.69-1.37-13.37-2.02-19.99Z"/>
    <path class="cls-6" d="M228.73,388.41c-.87.48-1.75.95-2.62,1.44-.14.07-.26.15-.4.21.27,4.52.59,9.4.96,14.55.79-.48,1.6-.94,2.4-1.41-.4-4.91-.72-9.87-.34-14.79Z"/>
    <path class="cls-6" d="M237.66,432.63c.14,2.08.27,4.17.41,6.25.39,5.81.88,11.64,1.37,17.47,5.27-3.6,11.04-6.8,16.81-9.59,1.96-.94,3.95-1.86,5.97-2.73-.59-7-1.2-14.09-1.81-21.04-2.41.87-4.81,1.79-7.18,2.75-5.3,2.16-10.48,4.48-15.58,6.89Z"/>
    <path class="cls-6" d="M236,361.25c-7.56,1.04-10.59,3.11-10.59,3.11-.43,3.46-.42,9.73-.09,17.82,5.51-3.71,11.17-7.26,17.08-10.62,4.06-2.31,8.15-4.62,12.34-6.82-.18-1.42-.35-2.64-.5-3.64-5.16-.47-9.52-.52-13.15-.33-1.89.1-3.58.27-5.09.47Z"/>
    <path class="cls-17" d="M234.03,460.35c1.72-1.38,3.54-2.72,5.41-4-.49-5.84-.98-11.66-1.37-17.47-.14-2.08-.28-4.17-.41-6.25-2.05.97-4.08,1.95-6.1,2.94.15,1.6.29,3.2.45,4.79.65,6.62,1.27,13.3,2.02,19.99Z"/>
    <path class="cls-17" d="M236.02,399.34c-.16-4.73-.48-9.46-1.49-14.06-1.94,1.04-3.87,2.08-5.8,3.14-.38,4.91-.06,9.88.34,14.79,2.28-1.33,4.58-2.62,6.94-3.86Z"/>
    <path class="cls-17" d="M237.26,426.29c-.34-5.41-.65-10.78-.91-16.06-.02-.44-.04-.89-.06-1.33-2.19,1.14-4.36,2.3-6.52,3.47.37,5.85.81,11.7,1.3,17.54,2.01-1.26,4.08-2.46,6.19-3.62Z"/>
    <path class="cls-17" d="M241.26,481.83c-.28-6.21-.74-12.42-1.24-18.62-1.76,1.02-3.52,2.04-5.28,3.06.75,6.01,1.64,12,2.78,17.94,1.23-.81,2.48-1.6,3.74-2.38Z"/>
    <path class="cls-22" d="M241.52,498.1c.05-2.88.04-5.76-.01-8.64-.86.51-1.72,1.02-2.57,1.54.56,2.43,1.16,4.85,1.82,7.24.09.34.76.16.76-.14Z"/>
    <path class="cls-9" d="M242.41,371.56c-5.91,3.36-11.57,6.91-17.08,10.62.11,2.46.24,5.1.39,7.88.14-.06.26-.14.4-.21.87-.48,1.74-.96,2.62-1.44,1.92-1.06,3.86-2.1,5.8-3.14,3.31-1.77,6.64-3.51,9.98-5.24,3.74-1.93,7.52-3.81,11.34-5.63-.4-3.79-.78-7.06-1.11-9.66-4.19,2.2-8.28,4.51-12.34,6.82Z"/>
    <path class="cls-9" d="M236.02,399.34c-2.36,1.24-4.67,2.54-6.94,3.86-.8.47-1.6.93-2.4,1.41.22,2.94.45,5.97.69,9.06.8-.44,1.6-.87,2.4-1.31,2.16-1.17,4.33-2.34,6.52-3.47,2.88-1.49,5.78-2.95,8.72-4.36,4.32-2.06,8.72-3.96,13.24-5.74-.29-3.18-.59-6.25-.87-9.18-6.02,2.39-11.91,4.99-17.59,7.79-1.27.63-2.53,1.27-3.77,1.93Z"/>
    <path class="cls-9" d="M237.26,426.29c-2.11,1.16-4.18,2.37-6.19,3.62-.74.46-1.48.93-2.2,1.4.16,1.77.33,3.56.48,5.34.74-.37,1.48-.72,2.22-1.09,2.02-1,4.06-1.98,6.1-2.94,5.1-2.41,10.28-4.73,15.58-6.89,2.37-.96,4.76-1.88,7.18-2.75-.2-2.31-.4-4.6-.62-6.88-3.33,1.26-6.59,2.59-9.81,3.98-4.4,1.9-8.65,3.97-12.73,6.21Z"/>
    <path class="cls-9" d="M239.44,456.35c-1.88,1.28-3.69,2.61-5.41,4-.77.62-1.53,1.24-2.26,1.87.19,1.84.37,3.66.54,5.45.81-.47,1.61-.93,2.41-1.4,1.76-1.02,3.52-2.05,5.28-3.06,6.55-3.78,13.17-7.46,20.41-10.6.81-.35,1.62-.7,2.44-1.04-.21-2.5-.41-5.01-.64-7.54-2.02.88-4.01,1.79-5.97,2.73-5.77,2.79-11.54,5.99-16.81,9.59Z"/>
    <path class="cls-9" d="M241.26,481.83c-1.26.78-2.51,1.57-3.74,2.38-1.1.72-2.19,1.43-3.27,2.16.25,2.44.5,4.78.73,6.99.76-.45,1.52-.9,2.27-1.36.56-.34,1.13-.67,1.69-1.01.85-.52,1.71-1.03,2.57-1.54,5-2.92,10.15-5.68,15.49-8.24,2.64-1.26,5.33-2.46,8.03-3.62-.22-2.63-.44-5.34-.66-8.14-4.29,1.95-8.47,4.03-12.54,6.22-3.62,1.95-7.14,4.01-10.58,6.15Z"/>
  </g>
</svg>